<svg xmlns="http://www.w3.org/2000/svg" xmlns:xlink="http://www.w3.org/1999/xlink">
  <defs>
    <symbol viewBox="0 0 1024 1024" id="userCircledAlt">
      <path d="M512 0c-282.624 0-512 229.376-512 512 0 147.456 62.464 280.576 162.816 374.784 23.552 21.504 49.152 41.984 77.824 59.392 78.848 49.152 171.008 77.824 271.36 77.824 98.304 0 189.44-27.648 267.264-74.752 28.672-17.408 54.272-37.888 78.848-59.392 101.376-94.208 165.888-228.352 165.888-377.856 0-282.624-229.376-512-512-512zM512 945.152c-99.328 0-190.464-33.792-263.168-89.088 29.696-116.736 136.192-201.728 261.12-201.728 125.952 0 232.448 86.016 262.144 203.776-72.704 54.272-162.816 87.040-260.096 87.040zM342.016 407.552c0-92.16 75.776-167.936 167.936-167.936s167.936 75.776 167.936 167.936c0 92.16-75.776 167.936-167.936 167.936s-167.936-75.776-167.936-167.936zM835.584 798.72c-1.024-3.072-2.048-7.168-4.096-10.24-17.408-41.984-41.984-78.848-74.752-110.592-29.696-29.696-63.488-54.272-101.376-71.68 10.24-7.168 19.456-15.36 28.672-24.576 47.104-46.080 72.704-108.544 72.704-174.080s-25.6-128-72.704-174.080c-46.080-47.104-108.544-72.704-174.080-72.704s-128 25.6-174.080 72.704c-47.104 46.080-72.704 108.544-72.704 174.080s25.6 128 72.704 174.080c9.216 9.216 18.432 17.408 28.672 24.576-37.888 17.408-71.68 41.984-101.376 71.68-31.744 31.744-57.344 68.608-74.752 110.592-1.024 3.072-2.048 5.12-3.072 7.168-66.56-75.776-106.496-175.104-106.496-283.648 0-239.616 193.536-433.152 433.152-433.152s433.152 193.536 433.152 433.152v0c0 109.568-40.96 210.944-109.568 286.72z"></path>
	</symbol>
	<symbol viewBox="0 0 1024 1024" id="usdOutline">
	  <path d="M655.36 617.472c-0.304 64.688-42.801 119.369-101.37 137.958l-1.030 0.282v74.752h-78.848v-72.704c-51.646-13.525-91.42-53.64-104.235-104.475l-0.213-0.997 76.8-18.432c7.536 28.491 33.083 49.152 63.455 49.152 36.195 0 65.536-29.341 65.536-65.536 0-36.183-29.323-65.517-65.501-65.536h-0.002c-0.516 0.007-1.126 0.010-1.736 0.010-79.741 0-144.384-64.643-144.384-144.384 0-67.636 46.506-124.41 109.285-140.088l0.994-0.21v-73.728h78.848v73.728c50.139 14.31 88.546 53.737 101.161 103.45l0.215 0.998-76.8 18.432c-7.895-27.964-33.183-48.114-63.178-48.114-36.195 0-65.536 29.341-65.536 65.536 0 35.725 28.586 64.774 64.132 65.521l0.070 0.001c78.629 1.712 141.781 65.582 142.336 144.33v0.054zM1024 512c0 282.77-229.23 512-512 512s-512-229.23-512-512c0-282.77 229.23-512 512-512v0c282.77 0 512 229.23 512 512v0zM945.152 512c0-239.223-193.929-433.152-433.152-433.152s-433.152 193.929-433.152 433.152c0 239.223 193.929 433.152 433.152 433.152v0c238.99-0.581 432.571-194.163 433.152-433.097v-0.055z"></path>
	</symbol>
	<symbol viewBox="0 0 1024 1024" id="userSolid">
	  <path d="M512 121.856c-216.064 0-390.144 173.056-390.144 390.144 0 216.064 174.080 390.144 390.144 390.144s390.144-174.080 390.144-390.144c0-217.088-173.056-390.144-390.144-390.144zM512 236.544c70.656 0 130.048 58.368 130.048 130.048 0 70.656-59.392 130.048-130.048 130.048s-130.048-59.392-130.048-130.048c-4.096-71.68 55.296-130.048 130.048-130.048zM512 772.096c-87.040 0-168.96-44.032-216.064-118.784 129.024-94.208 307.2-94.208 436.224 0-51.2 74.752-133.12 118.784-220.16 118.784z"></path>
	</symbol>
	<symbol viewBox="0 0 1024 1024" id="usdSolid">
	  <path d="M512 0c-284.672 0-512 227.328-512 512s227.328 512 512 512 512-227.328 512-512c0-284.672-227.328-512-512-512zM512 460.8c84.992 0 153.6 62.464 153.6 147.456 0 0 0 6.144 0 6.144 0 62.464-39.936 119.808-102.4 142.336v62.464h-102.4v-62.464c-62.464-17.408-102.4-79.872-102.4-142.336h102.4c0 28.672 17.408 51.2 45.056 51.2 0 0 6.144 0 6.144 0 28.672 0 51.2-22.528 51.2-51.2s-22.528-51.2-51.2-51.2v0c-84.992 0-153.6-62.464-153.6-147.456 0 0 0-6.144 0-6.144 0-62.464 39.936-119.808 102.4-142.336v-62.464h102.4v62.464c62.464 17.408 102.4 79.872 102.4 142.336h-102.4c0-28.672-17.408-51.2-45.056-51.2 0 0-6.144 0-6.144 0-28.672 0-51.2 22.528-51.2 51.2s17.408 51.2 45.056 51.2c0 0 6.144 0 6.144 0z"></path>
	</symbol>
	<symbol viewBox="0 0 1024 1024" id="bellSolid">
	  <path d="M364.544 927.744h301.056c-19.456 38.912-45.056 64.512-82.944 83.968-90.112 37.888-185.344 0-218.112-83.968zM921.6 805.888c-25.6-18.432-37.888-44.032-51.2-69.632-37.888-102.4-57.344-211.968-51.2-320.512 0 0 0 0 0 0 0-121.856-76.8-230.4-179.2-275.456v-6.144c0-70.656-51.2-128-121.856-134.144h-12.288c-70.656 6.144-121.856 63.488-121.856 134.144v6.144c-102.4 45.056-179.2 153.6-179.2 275.456 6.144 108.544-12.288 218.112-51.2 320.512-12.288 25.6-25.6 51.2-51.2 69.632-12.288 7.168-19.456 19.456-19.456 32.768 7.168 12.288 19.456 25.6 32.768 25.6h786.432c13.312 0 25.6-13.312 32.768-25.6 6.144-13.312 0-25.6-13.312-32.768z"></path>
	</symbol>
	<symbol viewBox="0 0 1024 1024" id="cartAlt">
	  <path d="M679.936 718.848c-48.128 0-82.944 35.84-82.944 82.944s34.816 82.944 82.944 82.944c47.104 0 81.92-35.84 81.92-82.944 0-44.032-34.816-82.944-81.92-82.944 0 0 0 0 0 0zM262.144 718.848c-47.104 0-82.944 35.84-82.944 82.944s35.84 82.944 82.944 82.944c47.104 0 82.944-35.84 82.944-82.944 0-44.032-35.84-82.944-82.944-82.944 0 0 0 0 0 0v0zM604.16 635.904h-467.968v63.488c0 7.168 7.168 15.36 15.36 15.36h547.84c7.168 0 15.36-8.192 15.36-15.36v-63.488l8.192-38.912 82.944-378.88h81.92v-66.56c0-8.192-7.168-15.36-15.36-15.36h-130.048c-8.192 0-15.36 7.168-15.36 15.36v70.656h-586.752v228.352c0 8.192 7.168 20.48 15.36 20.48l460.8 130.048c38.912 15.36 35.84 34.816-12.288 34.816v0z"></path>
	</symbol>
	<symbol viewBox="0 0 1024 1024" id="gear">
	  <path d="M1012.736 406.528c-2.048-13.312-15.36-22.528-28.672-21.504-2.048 0-4.096 0-6.144 0-78.848 0-141.312-63.488-141.312-142.336 0-26.624 7.168-53.248 21.504-75.776 8.192-12.288 6.144-27.648-4.096-35.84-53.248-48.128-115.712-83.968-183.296-105.472-12.288-4.096-26.624 1.024-32.768 13.312-24.576 47.104-73.728 76.8-125.952 76.8-53.248 0-101.376-29.696-125.952-76.8-6.144-12.288-20.48-17.408-33.792-13.312-67.584 21.504-129.024 57.344-182.272 105.472-10.24 8.192-12.288 23.552-4.096 35.84 7.168 12.288 13.312 25.6 17.408 38.912 9.216 36.864 4.096 74.752-14.336 107.52-25.6 44.032-72.704 71.68-122.88 71.68-2.048 0-4.096 0-6.144 0-13.312-1.024-25.6 8.192-28.672 21.504-14.336 69.632-14.336 141.312 0 210.944 3.072 13.312 15.36 23.552 28.672 22.528h6.144c51.2 0 97.28 26.624 122.88 70.656 18.432 31.744 23.552 70.656 14.336 106.496-4.096 14.336-10.24 27.648-17.408 39.936-8.192 11.264-6.144 26.624 4.096 35.84 53.248 48.128 114.688 83.968 183.296 105.472 13.312 4.096 26.624-1.024 32.768-13.312 35.84-69.632 121.856-97.28 191.488-60.416 26.624 13.312 47.104 33.792 60.416 60.416 7.168 12.288 20.48 17.408 33.792 13.312 67.584-21.504 129.024-57.344 183.296-105.472 9.216-8.192 11.264-24.576 4.096-35.84-43.008-65.536-23.552-153.6 43.008-195.584 22.528-15.36 49.152-22.528 76.8-22.528h5.12c14.336 1.024 26.624-8.192 29.696-21.504 13.312-69.632 13.312-141.312-1.024-210.944v0zM512 716.8c-112.64 0-204.8-92.16-204.8-204.8s92.16-204.8 204.8-204.8 204.8 91.136 204.8 204.8c0 0 0 0 0 0 0 113.664-91.136 204.8-204.8 204.8z"></path>
	</symbol>
	<symbol viewBox="0 0 1024 1024" id="trophySolid">
	  <path d="M819.2 148.48c0-34.816 0-51.2 0-51.2h-614.4c0 0 0 16.384 0 51.2h-204.8v33.792c0 5.12 0 187.392 113.664 284.672 46.080 39.936 108.544 62.464 171.008 62.464 11.264 0 22.528 0 33.792 0 28.672 45.056 79.872 84.992 131.072 107.52v148.48h-148.48v91.136h-45.056v51.2h518.144v-51.2h-51.2v-91.136h-148.48v-148.48c57.344-22.528 102.4-62.464 136.192-107.52 12.288 0 23.552 0 34.816 0 62.464 0 124.928-22.528 169.984-62.464 114.688-97.28 114.688-279.552 114.688-284.672v-33.792h-210.944zM159.744 415.744c-57.344-51.2-86.016-125.952-91.136-199.68h136.192c6.144 68.608 22.528 142.336 51.2 210.944 6.144 11.264 11.264 22.528 17.408 33.792-39.936 0-86.016-17.408-113.664-45.056zM864.256 415.744c-33.792 27.648-73.728 45.056-118.784 45.056 5.12-11.264 11.264-22.528 16.384-33.792 28.672-68.608 46.080-137.216 51.2-210.944h137.216c0 73.728-34.816 148.48-86.016 199.68z"></path>
	</symbol>
	<symbol viewBox="0 0 1024 1024" id="hornSolid">
	  <path d="M512 637.952v-385.024c-14.336 0-20.48 0-34.816 0h-315.392c-21.504 0-35.84 13.312-35.84 34.816v0 34.816h-91.136c-20.48 0-34.816 14.336-34.816 27.648 0 0 0 0 0 0v189.44c0 21.504 14.336 35.84 34.816 35.84 0 0 0 0 0 0h98.304v34.816c0 20.48 14.336 34.816 34.816 34.816 0 0 0 0 0 0h21.504l118.784 336.896c7.168 21.504 28.672 34.816 49.152 41.984 21.504 7.168 41.984 0 56.32-14.336l77.824-83.968c20.48-20.48 20.48-49.152 13.312-76.8l-111.616-210.944h83.968c14.336 0 20.48 0 34.816 0zM1016.832 14.336c0 0 0 0 0 0-7.168-7.168-7.168-14.336-13.312-14.336 0 0 0 0 0 0s0 0 0 0-7.168 0-7.168 0c0 0-7.168 0-7.168 0s0 0-7.168 0-7.168 7.168-14.336 7.168c0 0 0 0 0 0-104.448 125.952-238.592 202.752-392.192 238.592v406.528c153.6 27.648 287.744 112.64 392.192 231.424 0 0 0 0 0 0s7.168 7.168 7.168 7.168c0 0 0 0 0 0 7.168 0 7.168 0 14.336 0s7.168 0 14.336 0c0 0 0 0 0 0 6.144 0 6.144-7.168 13.312-7.168 0 0 0 0 0 0 0-7.168 7.168-14.336 7.168-14.336v-834.56c0-7.168-7.168-14.336-7.168-20.48z"></path>
	</symbol>
	<symbol viewBox="0 0 1024 1024" id="textSolid">
	  <path d="M795.648 168.96h113.664l-171.008-171.008v171.008c0 28.672 28.672 0 57.344 0zM681.984 168.96v-171.008h-455.68c-62.464 6.144-107.52 51.2-113.664 113.664v854.016c0 56.32 57.344 56.32 113.664 56.32h625.664c57.344 0 57.344 0 57.344-56.32v-740.352h-113.664c-57.344 0-113.664 6.144-113.664-56.32zM568.32 737.28h-284.672v-56.32h284.672v56.32zM738.304 623.616h-454.656v-56.32h454.656v56.32zM738.304 509.952h-454.656v-56.32h454.656v56.32zM738.304 396.288h-454.656v-56.32h454.656v56.32z"></path>
	</symbol>
	<symbol viewBox="0 0 1024 1024" id="favoriteSolid">
	  <path d="M512 0c-282.624 0-512 229.376-512 512s229.376 512 512 512 512-229.376 512-512c0-282.624-229.376-512-512-512zM713.728 822.272l-201.728-121.856-197.632 121.856 54.272-229.376-180.224-152.576 233.472-18.432 90.112-215.040 90.112 215.040 233.472 18.432-180.224 152.576 58.368 229.376z"></path>
	</symbol>
	<symbol viewBox="0 0 1024 1024" id="layoutGrid6">
	  <path d="M0 0h245.76v245.76h-245.76v-245.76zM389.12 0h245.76v245.76h-245.76v-245.76zM778.24 0h245.76v245.76h-245.76v-245.76zM0 389.12h245.76v245.76h-245.76v-245.76zM389.12 389.12h245.76v245.76h-245.76v-245.76zM778.24 389.12h245.76v245.76h-245.76v-245.76zM0 778.24h245.76v245.76h-245.76v-245.76zM389.12 778.24h245.76v245.76h-245.76v-245.76zM778.24 778.24h245.76v245.76h-245.76v-245.76z"></path>
	</symbol>
	<symbol viewBox="0 0 1024 1024" id="phoneCircled">
	  <path d="M512 92.16c0.556-0.003 1.214-0.004 1.873-0.004 115.358 0 219.743 46.984 295.062 122.859l0.025 0.025c75.901 75.344 122.884 179.729 122.884 295.087 0 0.659-0.002 1.317-0.005 1.975v-0.102c0.001 0.304 0.001 0.664 0.001 1.025 0 115.625-46.97 220.279-122.87 295.924l-0.011 0.011c-75.344 75.901-179.729 122.884-295.087 122.884-0.659 0-1.317-0.002-1.975-0.005h0.102c-0.43 0.002-0.939 0.003-1.449 0.003-115.491 0-220.011-46.976-295.493-122.864l-0.018-0.019c-75.901-75.344-122.884-179.729-122.884-295.087 0-0.659 0.002-1.317 0.005-1.975v0.102c-0.003-0.556-0.004-1.214-0.004-1.873 0-115.358 46.984-219.743 122.859-295.062l0.025-0.025c75.344-75.901 179.729-122.884 295.087-122.884 0.659 0 1.317 0.002 1.975 0.005h-0.102M512 0c-0.17 0-0.371 0-0.572 0-141.13 0-268.816 57.562-360.861 150.488l-0.040 0.040c-92.967 92.084-150.528 219.77-150.528 360.9 0 0.201 0 0.401 0 0.602v-0.030c-0.002 0.473-0.002 1.033-0.002 1.593 0 141.131 57.563 268.818 150.491 360.863l0.040 0.039c91.986 92.357 219.262 149.506 359.886 149.506 0.558 0 1.116-0.001 1.673-0.003h-0.087c0.774 0.004 1.69 0.007 2.606 0.007 140.626 0 267.904-57.151 359.873-149.494l0.017-0.017c92.365-92.142 149.509-219.554 149.509-360.313 0-0.768-0.002-1.535-0.005-2.302v0.119c0.002-0.471 0.002-1.028 0.002-1.586 0-140.624-57.149-267.9-149.49-359.869l-0.017-0.017c-92.085-92.968-219.771-150.53-360.903-150.53-0.56 0-1.121 0.001-1.681 0.003h0.087zM716.8 588.8c-0.623 0.005-1.36 0.008-2.097 0.008-30.353 0-59.567-4.873-86.903-13.879l1.961 0.559c-3.667-1.342-7.902-2.119-12.317-2.119-9.935 0-18.953 3.93-25.582 10.321l0.011-0.011-55.296 41.984c-59.587-30.351-106.865-77.629-136.408-135.473l-0.808-1.743 39.936-54.272c7.294-7.081 11.821-16.978 11.821-27.933 0-3.913-0.578-7.692-1.653-11.255l0.071 0.276c-8.963-25.952-14.2-55.862-14.336-86.977v-0.063c0-21.491-17.421-38.912-38.912-38.912v0h-89.088c-21.045 0.571-37.888 17.768-37.888 38.899 0 0.005 0 0.010 0 0.014v-0.001c0.581 246.907 200.582 446.907 447.433 447.488h0.055c21.045-0.571 37.888-17.768 37.888-38.899 0-0.005 0-0.010 0-0.014v0.001-89.088c0-0.004 0-0.009 0-0.013 0-21.13-16.843-38.327-37.835-38.897l-0.053-0.001z"></path>
	</symbol>
	<symbol viewBox="0 0 1024 1024" id="emailCircled">
	  <path d="M874.496 149.504c-91.986-92.36-219.264-149.511-359.89-149.511-0.916 0-1.832 0.002-2.747 0.007l0.141-0.001c-0.774-0.004-1.69-0.007-2.606-0.007-140.626 0-267.904 57.151-359.873 149.494l-0.017 0.017c-92.36 91.986-149.511 219.264-149.511 359.89 0 0.916 0.002 1.832 0.007 2.747l-0.001-0.141c-0.004 0.774-0.007 1.69-0.007 2.606 0 140.626 57.151 267.904 149.494 359.873l0.017 0.017c91.986 92.36 219.264 149.511 359.89 149.511 0.916 0 1.832-0.002 2.747-0.007l-0.141 0.001c0.774 0.004 1.69 0.007 2.606 0.007 140.626 0 267.904-57.151 359.873-149.494l0.017-0.017c92.365-92.142 149.509-219.554 149.509-360.313 0-0.768-0.002-1.535-0.005-2.302v0.119c0.004-0.774 0.007-1.69 0.007-2.606 0-140.626-57.151-267.904-149.494-359.873l-0.017-0.017zM808.96 808.96c-75.344 75.901-179.729 122.884-295.087 122.884-0.659 0-1.317-0.002-1.975-0.005h0.102c-0.43 0.002-0.939 0.003-1.449 0.003-115.491 0-220.011-46.976-295.493-122.864l-0.018-0.019c-75.901-75.344-122.884-179.729-122.884-295.087 0-0.659 0.002-1.317 0.005-1.975v0.102c-0.003-0.556-0.004-1.214-0.004-1.873 0-115.358 46.984-219.743 122.859-295.062l0.025-0.025c75.344-75.901 179.729-122.884 295.087-122.884 0.659 0 1.317 0.002 1.975 0.005h-0.102c0.556-0.003 1.214-0.004 1.873-0.004 115.358 0 219.743 46.984 295.062 122.859l0.025 0.025c75.901 75.344 122.884 179.729 122.884 295.087 0 0.659-0.002 1.317-0.005 1.975v-0.102c0.002 0.43 0.003 0.939 0.003 1.449 0 115.491-46.976 220.011-122.864 295.493l-0.019 0.018zM509.952 204.8c-168.090 0.582-304.128 136.98-304.128 305.15 0 0.001 0 0.001 0 0.002v-0.001c-0.001 0.309-0.002 0.674-0.002 1.039 0 168.582 135.794 305.449 303.966 307.183l0.164 0.001c0.204 0 0.445 0.001 0.687 0.001 71.109 0 136.739-23.457 189.575-63.054l-0.822 0.589c7.679-5.839 12.961-14.486 14.315-24.385l0.021-0.191c0.17-1.328 0.266-2.865 0.266-4.424 0-8.377-2.794-16.101-7.501-22.291l0.066 0.091c-6.807-8.758-17.343-14.34-29.182-14.34-0.181 0-0.361 0.001-0.541 0.004h0.027c-0.201-0.004-0.439-0.006-0.677-0.006-8.223 0-15.818 2.693-21.95 7.244l0.099-0.070c-39.478 29.783-89.283 47.812-143.286 48.128h-0.074c-128.506-0.577-232.457-104.884-232.457-233.47 0-0.721 0.003-1.441 0.010-2.161l-0.001 0.11c0.582-127.936 104.428-231.424 232.446-231.424 0.001 0 0.002 0 0.003 0v0c0.307-0.001 0.67-0.002 1.033-0.002 128.224 0 232.305 103.366 233.462 231.317l0.001 0.11v26.624c0 24.318-19.714 44.032-44.032 44.032v0c-23.874-0.573-43.008-20.062-43.008-44.020 0-0.004 0-0.008 0-0.013v0.001-134.144c0-20.359-16.505-36.864-36.864-36.864v0c-15.115 0.072-28.073 9.23-33.7 22.289l-0.092 0.239c-21.781-13.917-48.289-22.277-76.733-22.528h-0.067c-79.741 0-144.384 64.643-144.384 144.384v0c0 79.741 64.643 144.384 144.384 144.384v0c39.471-0.688 75.105-16.567 101.417-42.024l-0.041 0.040c21.523 25.485 53.385 41.653 89.031 41.984h0.057c65.037 0 117.76-52.723 117.76-117.76v0-26.624c-1.157-168.782-138.249-305.159-307.193-305.159-0.722 0-1.444 0.002-2.165 0.007l0.111-0.001zM509.952 580.608c-38.579-0.577-69.632-31.986-69.632-70.649 0-0.003 0-0.005 0-0.008v0c0-0.002 0-0.005 0-0.007 0-38.662 31.053-70.072 69.578-70.648l0.054-0.001c0.323-0.005 0.705-0.008 1.088-0.008 39.641 0 71.975 31.285 73.659 70.512l0.005 0.152c-1.689 39.379-34.023 70.664-73.664 70.664-0.382 0-0.764-0.003-1.145-0.009l0.058 0.001z"></path>
	</symbol>
	<symbol viewBox="0 0 1024 1024" id="clockCircled">
	  <path d="M874.496 149.504c-91.986-92.36-219.264-149.511-359.89-149.511-0.916 0-1.832 0.002-2.747 0.007l0.141-0.001c-0.774-0.004-1.69-0.007-2.606-0.007-140.626 0-267.904 57.151-359.873 149.494l-0.017 0.017c-92.36 91.986-149.511 219.264-149.511 359.89 0 0.916 0.002 1.832 0.007 2.747l-0.001-0.141c-0.004 0.774-0.007 1.69-0.007 2.606 0 140.626 57.151 267.904 149.494 359.873l0.017 0.017c91.986 92.36 219.264 149.511 359.89 149.511 0.916 0 1.832-0.002 2.747-0.007l-0.141 0.001c0.774 0.004 1.69 0.007 2.606 0.007 140.626 0 267.904-57.151 359.873-149.494l0.017-0.017c92.365-92.142 149.509-219.554 149.509-360.313 0-0.768-0.002-1.535-0.005-2.302v0.119c0.004-0.774 0.007-1.69 0.007-2.606 0-140.626-57.151-267.904-149.494-359.873l-0.017-0.017zM808.96 808.96c-75.344 75.901-179.729 122.884-295.087 122.884-0.659 0-1.317-0.002-1.975-0.005h0.102c-0.43 0.002-0.939 0.003-1.449 0.003-115.491 0-220.011-46.976-295.493-122.864l-0.018-0.019c-75.901-75.344-122.884-179.729-122.884-295.087 0-0.659 0.002-1.317 0.005-1.975v0.102c-0.003-0.556-0.004-1.214-0.004-1.873 0-115.358 46.984-219.743 122.859-295.062l0.025-0.025c75.344-75.901 179.729-122.884 295.087-122.884 0.659 0 1.317 0.002 1.975 0.005h-0.102c0.556-0.003 1.214-0.004 1.873-0.004 115.358 0 219.743 46.984 295.062 122.859l0.025 0.025c75.901 75.344 122.884 179.729 122.884 295.087 0 0.659-0.002 1.317-0.005 1.975v-0.102c0.002 0.43 0.003 0.939 0.003 1.449 0 115.491-46.976 220.011-122.864 295.493l-0.019 0.018zM748.544 524.288c20.359 0 36.864 16.505 36.864 36.864v0 0c0 20.359-16.505 36.864-36.864 36.864v0h-224.256c-27.146 0-49.152-22.006-49.152-49.152v0-273.408c0-20.359 16.505-36.864 36.864-36.864v0 0c20.359 0 36.864 16.505 36.864 36.864v0 248.832z"></path>
	</symbol>
	<symbol viewBox="0 0 1024 1024" id="undo">
	  <path d="M1021.952 572.416c-17.408-182.272-182.272-316.416-365.568-316.416h-272.384v-159.744c0-12.288-7.168-23.552-18.432-28.672-11.264-6.144-23.552-4.096-33.792 3.072l-319.488 256c-8.192 6.144-12.288 15.36-12.288 25.6s4.096 18.432 12.288 24.576l319.488 256c6.144 5.12 13.312 7.168 20.48 7.168 4.096 0 9.216-1.024 13.312-3.072 11.264-5.12 18.432-16.384 18.432-28.672v-160.768h278.528c83.968 0 160.768 60.416 168.96 143.36 9.216 96.256-65.536 177.152-159.744 177.152h-256c-17.408 0-31.744 14.336-31.744 31.744v128c0 17.408 14.336 32.768 31.744 32.768h256c205.824 0 371.712-178.176 350.208-388.096z"></path>
	</symbol>
	<symbol viewBox="0 0 1024 1024" id="burgerOutline">
	  <path d="M196.608 236.544h630.784v78.848h-630.784v-78.848zM196.608 236.544h630.784v78.848h-630.784v-78.848zM196.608 472.064h630.784v78.848h-630.784v-78.848zM196.608 472.064h630.784v78.848h-630.784v-78.848zM196.608 708.608h630.784v78.848h-630.784v-78.848zM196.608 708.608h630.784v78.848h-630.784v-78.848z"></path>
	</symbol>
	<symbol viewBox="0 0 1024 1024" id="search">
	  <path d="M934.912 880.64l-245.76-245.76c115.712-147.456 89.088-357.376-58.368-474.112-147.456-115.712-358.4-89.088-474.112 58.368s-89.088 357.376 58.368 474.112c120.832 94.208 294.912 94.208 415.744 0l245.76 245.76 58.368-58.368zM424.96 679.936c-143.36 0-254.976-116.736-254.976-254.976 0-143.36 116.736-254.976 254.976-254.976 143.36 0 254.976 115.712 254.976 254.976 0 138.24-116.736 254.976-254.976 254.976v0z"></path>
	</symbol>
  </defs>
</svg>