<svg version="1.1" id="Слой_1" xmlns="http://www.w3.org/2000/svg" x="0" y="0" viewBox="0 0 140 41" xml:space="preserve"><path d="M85.5 25L78.5.2H62.7v6.7c-2.1-4-7-6.4-13.9-6.4C40.7.5 33.4 4.3 33 13.3h10.4c.3-2.8 2.3-4.1 5-4.1 2.3 0 4.5.9 4.5 3.5 0 3.6-3.8 4-6.9 4v6.8c2.8 0 7.2.4 7.2 4.3 0 2.3-1.8 4.5-5.1 4.5-3.6 0-5.5-2.2-5.5-5.8H31.7c0 9.6 6.7 14.4 15.8 14.4 7.1 0 12.4-2.1 15.2-6.3V40h11.7V26.5c0-3.2-.4-8.6-.8-12.1h.1L80.9 40H90l7.2-25.6h.1c-.5 4.6-.8 8.9-.8 13.4V40h11.7V.2H92.5l-7 24.8zm-22.8-3.6c-.9-1-2.1-1.8-3.5-2.4 1.6-.8 2.7-1.9 3.5-3.2v5.6z" fill="#fff"/></svg>