<svg version="1.1" id="Слой_1" xmlns="http://www.w3.org/2000/svg" x="0" y="0" viewBox="0 0 140 41" xml:space="preserve"><path d="M7.8 12L.5 25.1C-.5 26.8.2 29 1.9 30c.5.3 1.1.5 1.8.5H14v-6.6H8.6l3.8-6.9h2.1v13.5h6.6V17H26v-6.6H10.4c-1.1.1-2.1.7-2.6 1.6zm17 3.7h-4.9v13.5H16V15.7h-4.2l-5.3 9.5h6.2v3.9h-9c-1.3 0-2.3-1-2.3-2.3 0-.4.1-.8.3-1.1L9 12.6c.3-.5.8-.8 1.4-.8h14.4v3.9zm91.4-.5c-2-.1-4 .6-5.5 1.9-1.3 1.3-2.1 3.1-2 4.9-.1 2 .8 3.9 2.4 5.2 1.5 1.1 3.3 1.7 5.1 1.6 2.4 0 4.2-.6 5.5-1.9 2.5-2.6 2.7-6.7.4-9.5-1.3-1.4-3.3-2.2-5.9-2.2zm1.8 9.5c-.8 1-2.3 1.1-3.3.3l-.3-.3c-.5-.8-.8-1.7-.7-2.6-.1-.9.2-1.8.7-2.6.4-.5 1.1-.9 1.8-.8.7 0 1.3.3 1.7.8.5.7.8 1.6.7 2.5.2 1 0 1.9-.6 2.7zm-28.4-5.6h5.6c.2.5.4 1 .5 1.5h-5.1c-.1-.4-.3-.8-.5-1.1-.2-.1-.3-.3-.5-.4zm3.1-2.7h-8.9c1.3-.8 2.8-1.2 4.4-1.1 1.6-.1 3.2.3 4.5 1.1zm2.2 2.1H81.7c.3-.5.6-.9 1-1.3l.2-.2h10.7c.2.2.4.3.5.5.3.3.6.6.8 1zm-9 2.1h-5.1c.1-.5.3-1 .5-1.5h5.5c-.2.1-.3.3-.4.4-.2.4-.4.7-.5 1.1zm-11.4-4.2h-4.7v-.8h4.7v.8zm-12.7 2.7h5c.2.5.3 1 .4 1.5h-5c.1-.5-.1-1-.4-1.5zm2.8-2.7h-9.3c1.3-.8 2.9-1.2 4.4-1.1 1.5-.1 3 .2 4.4.8.2.1.4.2.5.3zm-5.8 2.1h-5.5c.3-.5.6-.9 1.1-1.3 0 0 .1-.1.2-.1h11c.5.4.8.9 1.1 1.5h-5.5c-.4-.2-.8-.3-1.2-.3-.5-.1-.9 0-1.2.2zm-1.3 2.1h-5c.1-.5.2-1 .5-1.5h5c-.3.5-.5 1-.5 1.5zm-12.4 2.8H50v1.5h-5.3l.1-.1c.2-.5.3-.9.3-1.4zm-5.4-2.1H50v1.5h-4.9v-.3c-.3.1-.7.2-1 .3h-7.7c.6-.7 1.7-1.2 3.3-1.5zm5.3-2.2h4.9c.1.3.1.6.1.9v.6h-7.2c.2 0 .4-.1.5-.1l1.8-.6c0-.3-.1-.5-.1-.8zm3.3-2.7H37.7c.2-.1.3-.2.5-.3.6-.3 1.2-.5 1.9-.6.9-.1 1.7-.2 2.6-.2 1.2 0 2.4.1 3.6.3.7 0 1.4.3 2 .8zm-6.6 2.1h-5.6c.1-.4.3-.8.6-1.2.1-.1.2-.2.2-.3H49c.3.3.5.7.6 1.1 0 .1.1.2.1.4h-5.2c-.4-.2-.8-.3-1.2-.3-.5 0-1 .1-1.6.3zm-1 1.3l-4.8-.5v-.1H41c-.1.1-.2.4-.3.6zm-.1 5.1h-5c0-.5.2-1 .4-1.5h5.9c-.3.1-.6.3-.9.5-.3.2-.4.5-.4 1 0-.1 0-.1 0 0zM50 27H36c-.3-.4-.4-1-.5-1.5h5.2c.1.1.1.2.2.2.3.3.8.4 1.2.4.5 0 1.1-.1 1.6-.4.1-.1.2-.1.3-.2h6V27zm-13.4.7h8c-.4.3-.8.5-1.2.7-1 .4-2 .6-3.1.5-1.3.1-2.5-.3-3.6-1.1l-.1-.1zm13.6 0c.1.3.2.6.4 1h-4.7c-.1-.2-.3-.5-.4-.8 0-.1 0-.1-.1-.2h4.8zm7.7-2.8h-5.1c-.2-.5-.3-1-.4-1.5h5c.1.5.2 1 .5 1.5zm-3 2.8h10.2c-.2.1-.4.3-.6.4-1.4.6-3 .9-4.6.9-1.4.1-2.8-.2-4.1-.7-.3-.3-.6-.4-.9-.6zm6.6-2.2H67c-.3.5-.7 1-1.2 1.5H54.2c-.3-.4-.6-.7-.9-1.2-.1-.1-.1-.2-.2-.3h5.4c.4.3.9.5 1.5.4.5 0 1-.1 1.4-.4 0 .1.1 0 .1 0zm.8-.7l1.1.1-1.1-.1c-.1 0-.1 0 0 0zm5.1-3.5c.1.5.1 1 .1 1.5H52.4v-1.4h15zm2.4 6.4h5v1h-5v-1zm0-2.2h5V27h-5v-1.5zm0-2.1h5v1.4h-5v-1.4zm0-2.1h5.3c-.1.5-.2 1-.2 1.5h-5.1v-1.5zm0-2.2h7.3c-.6 0-1.2.3-1.5.8-.1.2-.2.4-.3.7h-5.5v-1.5zm7.4 0h1.6l-.2.4c-.5-.2-.9-.3-1.4-.4zM74.9 17h4.8l-.7 1.5h-9.2V17h4.7v.7c.1-.3.3-.5.4-.7zm2.8-1.8c.9 0 1.7.3 2.4.7l-.2.4h-4.6l.6-.6c.5-.3 1.2-.5 1.8-.5zm8.1 7.5h-5v-1.4h5v1.4zm.9 2.2h-5.4c-.2-.5-.3-1-.4-1.5h5c.1.5.3.9.6 1.3 0 .1.1.1.2.2zm-3.1 2.8h9.3c-1.4.9-3 1.3-4.7 1.3-1.6 0-3.2-.5-4.6-1.3zm-2-2.2zm0 0h13.3c-.3.5-.7 1-1.1 1.5h-11c-.5-.4-.9-.9-1.2-1.5zm9-2.1h5c-.1.5-.2 1-.4 1.5h-5.3l.2-.2c.2-.4.4-.8.5-1.3zm5.1-2.1v1.5h-5v-1.5h5zm11.1 3.7l.4 3.5c-1.1.3-2.3.4-3.5.4-.9.1-1.9-.1-2.8-.5-.6-.3-1.1-.8-1.3-1.5-.3-1-.5-2.1-.4-3.2v-4.6h-1.8v-3.7h1.8V13l5-2.6v5h2.8v3.7h-2.8v4.6c0 .4 0 .8.2 1.1.2.3.5.5.9.4.5.1 1 0 1.5-.2zm33.2-4.7v8.3h-5v-7.2c.1-.6-.1-1.2-.5-1.7-.3-.4-.8-.5-1.3-.5-.6 0-1.1.2-1.5.7-.5.7-.7 1.6-.6 2.5v6.3h-5V15.5h4.7v2.1c.6-.8 1.3-1.4 2.1-1.9.8-.4 1.7-.6 2.6-.6 1.2-.1 2.4.4 3.3 1.2.8 1 1.2 2.3 1.2 4z" fill="#fff"/></svg>