<svg version="1.1" id="Слой_1" xmlns="http://www.w3.org/2000/svg" x="0" y="0" viewBox="0 0 140 41" xml:space="preserve"><path d="M28.4 31.5c9.4 3.1 19.1 4.9 28.9 5.5 9.6.7 19.3.6 29-.3 1.3-.1 2.6-.3 3.9-.4V11.2h3.7v2.4c.4-.4.9-2 2.9-2.7 1.5-.5 3.1-.2 4.4.7 2.1 1.5 3.2 4.3 3.2 8 0 3.6-1 6.5-2.9 8.2-1.8 1.5-4.4 1.5-6.2 0-.2-.2-.5-.5-.6-.8-.2-.3-.4-.6-.6-.8v9.5c2-.2 6.1-1.1 8.2-1.5 6.8-1.6 15.6-4.3 20.5-8.5 1.4-1.2 3.4-3.2 3.9-5.8.3-2-.2-4-1.5-5.5-.3-.5-.7-.9-1.1-1.3l-.6-.6c-1.5-1.4-3.2-2.5-5-3.5-2.2-1.2-4.4-2.1-6.7-2.9C101.5 2.5 90.5 1 78.8.3 66.7-.4 54.5.3 42.6 2.4c-.1.3 0 7.3 0 8.2v2.7c.7-1.7 2.3-2.8 4.6-2.7 1.9 0 3.7 1.3 4.3 3.1.6 1.8.4 4.9.4 7v7.4H48c-.1-1.3 0-2.8 0-4.1v-4c0-2.6.4-5.8-2.8-5.5-1.1.1-2 .8-2.4 1.8-.5 1.1-.4 2.4-.4 3.7v4.1c0 1.3.1 2.9 0 4.1h-3.8v-25c-1.2.2-2.3.5-3.5.8C28.5 5.7 18.8 9 15 14.1c-6.6 8.8 6.6 15.1 13.4 17.4zm47.8-20.3v2.5c.4-.8 1-1.5 1.7-2.1 2.2-1.5 5.3-1 6.8 1.2.2.3.4.6.5 1 .7 1.7.5 5 .5 7.1v7.5h-3.8c-.1-1.3 0-2.9 0-4.2V20c0-2.5.4-5.8-2.8-5.5-1.1.1-2 .8-2.4 1.8-.5 1.1-.4 2.4-.4 3.7v8.2h-3.8v-17h3.7zm-12 4.1c-.6-1.1-3-1.2-3.9-.4-.6.5-.6 1-.8 1.9H56c0-1.2.4-2.4.9-3.5 1.3-2.2 4-2.7 6.5-2.5 1.2.1 2.3.5 3.3 1.2.9.7 1.4 1.8 1.5 3 .1 1.1 0 7.4 0 9 0 1.3-.2 3.2.8 3.7v.6h-4.1c-.2-.6-.3-1.2-.4-1.9-.2 0-.1 0-.2.1-.4.4-.8.8-1.2 1.1-2.9 2.3-7.3 1.3-7.8-3.2-.3-3 1-5.7 4.3-6.2 1-.2 3.7-.5 4.3-1 .7-.5.8-1.3.3-1.9zm62.6 6.7v-.2c0 .1 0 0-.1.1v.1c-.2 1.1-.7 2.1-1.4 3-4.4 5.9-14.8 9.1-21.7 10.8-10.3 2.6-22.4 3.6-33.6 3.6-11.4 0-23.1-1.1-33.6-3.6-6.1-1.5-16.2-4.7-20.7-9.6-2.4-2.6-2.1-3.9-2.4-4.5-.1.7-.1 1.5.1 2.2.5 1.7 1.4 3.2 2.7 4.4.4.4.8.8 1.3 1.1.5.4.9.7 1.3 1 3 2 6.2 3.5 9.6 4.7 12.7 4.4 27.7 6 41.5 6 14.7 0 35.4-2 48.3-8.8 1.5-.8 4.5-2.6 5.6-3.9.4-.4.7-.6 1.1-1.3.4-.4.7-.9 1-1.4.7-1.2 1-2.4 1-3.7zm-29.1 3c2.1-.4 2.8-3.4 2.7-5.8s-1.1-5.1-3.8-4.6c-2.5.5-2.7 3.6-2.7 5.8 0 1.2.3 2.3.9 3.3.6 1.1 1.8 1.6 2.9 1.3zm-38.4-1.5c0 3.6 5.2 2.2 5.2-1.3V20c-.3.1-.4.3-.7.4-1.9.8-4.5.3-4.5 3.1z" fill="#fff"/></svg>