<svg version="1.1" id="Слой_1" xmlns="http://www.w3.org/2000/svg" x="0" y="0" viewBox="0 0 140 41" xml:space="preserve"><path d="M34.2 15.6h2.7v10.9h-2.7V15.6zm8.9 0h-4.4v10.9h2.7v-4.1h1.4c.9.1 1.8-.3 2.4-.9.6-.7.8-1.7.8-2.6.1-.9-.2-1.8-.7-2.5-.6-.6-1.4-.9-2.2-.8zm0 4.3c-.3.3-.7.4-1.1.3h-.6v-2.4h.8c.4 0 .7.1 1 .4.2.3.3.6.3.9-.1.2-.2.5-.4.8zm9 2.3l-1.3-6.6h-3.5v10.9h2.2v-8.3l1.7 8.3h2l1.7-8.3v8.3h2.2V15.6h-3.5l-1.5 6.6zm5.9-.9h3.5v2.3H58v-2.3zm4-3h2.7v8.2h2.6v-8.2H70v-2.7h-8v2.7zm12.9-2.9c-1.3-.1-2.5.5-3.3 1.5-.8 1.2-1.3 2.7-1.2 4.2 0 1.1.2 2.2.6 3.2.3.8.9 1.4 1.5 1.9.7.4 1.6.6 2.4.6.8 0 1.7-.2 2.4-.7.7-.5 1.2-1.1 1.5-1.9.4-1 .5-2.1.5-3.1.1-1.5-.3-2.9-1.2-4.1-.7-1.2-1.9-1.7-3.2-1.6zm1.4 8c-.5.7-1.4.9-2.2.5-.2-.1-.3-.3-.5-.5-.6-1.5-.6-3.2 0-4.8.3-.5.8-.7 1.3-.7s1 .3 1.3.7c.4.7.5 1.5.5 2.3.1.9-.1 1.7-.4 2.5zm10.2-1.8l-3.2-6h-2.5v10.9h2.5v-6l3.2 6H89V15.6h-2.5v6zm6.9.3h4.1v-2.2h-4.1V18h4.4v-2.3h-7.1v10.9H98V24h-4.6v-2.1zm12.8.7c-.1-.2-.3-.4-.4-.6-.2-.2-.4-.3-.7-.4.8-.2 1.4-.7 1.8-1.5.2-.5.3-1 .3-1.6 0-.6-.1-1.2-.4-1.8-.2-.4-.6-.8-1-1-.6-.2-1.2-.3-1.9-.3h-4.4v10.9h2.7v-4.4h.2c.2 0 .5.1.6.3.2.2.4.5.5.8l1.4 3.3h3l-1.3-3.2c-.1 0-.3-.2-.4-.5zm-1.9-3.1c-.1.2-.2.3-.4.3-.2.1-.5.1-.7.1h-1.1v-2.2h1.2c.4 0 .7.1 1 .3.2.2.3.5.3.8-.1.3-.2.5-.3.7zm-87.4 3.4c1.1 0 2.1.9 2.1 2.1s-1 2-2.1 2-2.1-.9-2.1-2.1.9-2 2.1-2zm5.9 0c1.1 0 2.1.9 2.1 2.1s-.9 2-2.1 2c-1.1 0-2.1-.9-2.1-2.1s1-2 2.1-2zm5.9 0c1.1 0 2.1.9 2.1 2.1s-.9 2.1-2.1 2.1c-1.1 0-2.1-.9-2.1-2.1s1-2.1 2.1-2.1zm-4.4-2.7c0-1.1.9-2.1 2.1-2.1 1.1 0 2.1.9 2.1 2.1s-.9 2.1-2.1 2.1c-1.2 0-2.1-1-2.1-2.1zm-5.9 0c0-1.1.9-2.1 2.1-2.1 1.1 0 2.1.9 2.1 2.1s-.9 2.1-2.1 2.1c-1.2 0-2.1-1-2.1-2.1zm5-6.8c1.1 0 2.1.9 2.1 2.1s-.9 2.1-2.1 2.1c-1.1 0-2.1-.9-2.1-2.1s1-2.1 2.1-2.1zm87.7 0c1.1 0 2.1.9 2.1 2.1s-.9 2.1-2.1 2.1c-1.1 0-2.1-.9-2.1-2.1s1-2.1 2.1-2.1zm5.9 4.1c1.1 0 2.1-.9 2.1-2.1s-.9-2.1-2.1-2.1c-1.1 0-2.1.9-2.1 2.1.1 1.2 1 2.1 2.1 2.1zm6-4.1c-1.1 0-2.1.9-2.1 2.1s.9 2.1 2.1 2.1c1.1 0 2.1-.9 2.1-2.1-.1-1.2-1-2.1-2.1-2.1zm-2.4 4.7c1.1 0 2.1.9 2.1 2.1s-.9 2.1-2.1 2.1-2.1-.9-2.1-2.1.9-2.1 2.1-2.1zm-8 2.1c0-1.1.9-2.1 2.1-2.1 1.1 0 2.1.9 2.1 2.1s-.9 2.1-2.1 2.1c-1.2 0-2.1-1-2.1-2.1zm5 2.7c1.1 0 2.1.9 2.1 2.1s-.9 2.1-2.1 2.1-2.1-.9-2.1-2.1 1-2.1 2.1-2.1zM17.6 6.3L0 34.7h122.4L140 6.3H17.6zm103.7 25.5H4.8L18.7 9.2h116.5l-13.9 22.6z" fill="#fff"/></svg>