<svg xmlns="http://www.w3.org/2000/svg" width="140" height="41"><path d="M127.86 19.806a72.255 72.255 0 00.84 11.556h-5.44s-1.24-1.471-2.605-3.152c-.788-.977-8.93-11.556-9.76-12.806-.315-.441-.8-.263-.84.273s-.357 5.82-.221 9.823c-.116-3.456 0 4.517.756 5.862h-5.67c.819-1.5.756-9.161.693-5.789 0-2.721.105-6.4.074-8.026a54.121 54.121 0 00-.714-7.421h7.858a6.3 6.3 0 00.929 1.98c6.02 8.909 8.9 12.817 9.676 12.607.221 0 .221-.347.221-.746s.326-4.591.189-8.814v-.321s-.186-3.782-.678-4.706h5.662c-.735 1.355-.97 8.215-.97 9.68zM89.949 31.799a23.763 23.763 0 01-8.4-1.334 5.074 5.074 0 01-3.094-4.622c-.179-1.5 0-4.8.084-9.15 0 2.217.168-4.875-.735-6.555h5.673c-.515.956-.683 4.738-.683 4.738a72.623 72.623 0 000 9.455c.221 3.288 1.986 3.782 3.225 4.139a16.872 16.872 0 004.034.483 16.988 16.988 0 004.024-.483c1.229-.357 3-.851 3.214-4.139a72.626 72.626 0 000-9.455s-.315-3.824-.83-4.738h5.673c-.914 1.681-.7 8.772-.746 6.555.095 4.349.263 7.648.095 9.15a5.064 5.064 0 01-3.152 4.622 23.637 23.637 0 01-8.4 1.334zm-28.143-.391h5.673c-.8-1.471-1.051-8.2-1.051-8.814v-8.486s-.095-.714 1.145-.84a52.937 52.937 0 017.732.084l.242-3.194H53.748l.137 3.2a52.937 52.937 0 017.732-.084c1.229.126 1.145.84 1.145.84v8.494c.042.861-.032 7.059-.956 8.8zm-19.32-18.151a4.433 4.433 0 00-.767 1.177 88.561 88.561 0 00-4.2 9.045c-1.5 3.772-2.731 7.942-2.731 7.942H23.04l-7.659-6.24c-.7-.578-2.469-2.049-2.91-2.353s-1.366-.357-1.366.441v3.393c0 .116.179 3.793.693 4.749H6.179a72.487 72.487 0 00.872-11.62c0-1.46-.316-8.299-1.051-9.665h5.894c-.851 1.6-.767 9.329-.7 5.232 0 3.068 0 3.288.3 3.33a3.026 3.026 0 002.259-.935c1.051-.935 5.831-4.843 6.4-5.379s1.605-1.668 2.162-2.248h7.732s-4.087 2.469-7.637 5.127-5.7 4.412-6.051 4.727 0 .882.662 1.418 7.89 6.461 10.2 7.732a11.671 11.671 0 002.1 1.219c.389 0 3.551-5.494 5.694-10.127.672-1.471 3.614-8.4 3.519-10.075h8.4c-.095 1.712 2.858 8.615 3.53 10.075a81.5 81.5 0 006.3 11.209h-6.031S49.5 27.229 48 23.489a88.562 88.562 0 00-4.2-9.045 4.433 4.433 0 00-.756-1.177.378.378 0 00-.273-.116.357.357 0 00-.285.106zm87.311-1.157a2.1 2.1 0 112.1 2.1 2.1 2.1 0 01-2.1-2.1zm2.1 1.723a1.66 1.66 0 001.65-1.723 1.67 1.67 0 10-1.66 1.681zm-.441-.536h-.357v-2.415h.9c.567 0 .84.21.84.672a.62.62 0 01-.62.662l.683 1.051h-.41l-.62-1.051h-.42zm.431-1.334c.3 0 .578 0 .578-.389s-.263-.347-.515-.347h-.493v.735z" fill="#fff"/><path fill="none" d="M0 0h140v41H0z"/></svg>