<svg xmlns="http://www.w3.org/2000/svg" width="140" height="41"><g fill="#fff"><path d="M47.987 19.413a5.26 5.26 0 00-.021-.586 2.77 2.77 0 00-.069-.475 1.345 1.345 0 00-.437-.721 1.414 1.414 0 00-.908-.281 2.374 2.374 0 00-.648.09 3.622 3.622 0 00-.662.256 3.813 3.813 0 00-.627.405 3.909 3.909 0 00-.541.53v6.748h-2.4v-5.966a5.258 5.258 0 00-.021-.586 2.771 2.771 0 00-.069-.475 1.386 1.386 0 00-.43-.721 1.414 1.414 0 00-.915-.281 2.391 2.391 0 00-.648.09 3.622 3.622 0 00-.662.256 3.812 3.812 0 00-.627.405 3.91 3.91 0 00-.541.53v6.748h-2.4v-9.8h1.982l.222 1.386h.042a3.508 3.508 0 01.537-.6 3.642 3.642 0 01.731-.516 4.447 4.447 0 01.9-.347 3.878 3.878 0 011.04-.135 3.528 3.528 0 011.733.43 2.773 2.773 0 011.187 1.342h.045a4.852 4.852 0 01.634-.717 3.753 3.753 0 01.773-.558 4.034 4.034 0 011.962-.5 3.421 3.421 0 011.764.44 2.9 2.9 0 011.106 1.154 2.425 2.425 0 01.17.419 3.687 3.687 0 01.118.509 6.243 6.243 0 01.066.627c0 .232.021.492.021.79v6.072h-2.4zm4.527-8.319h2.4v8.831h.052l3.715-3.979h2.967l-4.287 4.606 4.329 5.2h-2.9l-3.836-4.558h-.042v4.561h-2.4zm13.658 0h2.516v2.6h-2.516zm.059 4.852h2.4v9.8h-2.4zm17.111 3.466a5.254 5.254 0 00-.021-.586 2.749 2.749 0 00-.073-.475 1.338 1.338 0 00-.433-.721 1.424 1.424 0 00-.911-.281 2.367 2.367 0 00-.645.09 3.654 3.654 0 00-.665.256 3.733 3.733 0 00-1.168.936v6.748h-2.379v-5.967a5.258 5.258 0 00-.021-.586 2.755 2.755 0 00-.073-.475 1.334 1.334 0 00-.43-.721 1.414 1.414 0 00-.915-.281 2.367 2.367 0 00-.645.09 3.653 3.653 0 00-.665.256 3.732 3.732 0 00-1.168.936v6.748h-2.393v-9.8h1.982l.2 1.386h.042a3.467 3.467 0 01.534-.6 3.666 3.666 0 01.735-.516 4.367 4.367 0 01.9-.347 3.878 3.878 0 011.04-.135 3.521 3.521 0 011.733.43 2.773 2.773 0 011.178 1.341h.042a4.63 4.63 0 01.631-.717 3.851 3.851 0 01.773-.558 4.034 4.034 0 011.962-.5 3.424 3.424 0 011.768.44 2.9 2.9 0 011.106 1.154 2.429 2.429 0 01.173.419 3.685 3.685 0 01.118.509 6.282 6.282 0 01.062.627c0 .232.021.492.021.79v6.072h-2.39zm10.189 4.91h-.042a4.134 4.134 0 01-.485.437 4.406 4.406 0 01-.645.419 3.878 3.878 0 01-.811.319 3.677 3.677 0 01-.96.121 3.843 3.843 0 01-1.307-.218 2.973 2.973 0 01-1.04-.627 2.911 2.911 0 01-.693-.991 3.268 3.268 0 01-.25-1.3 3.307 3.307 0 01.291-1.414 2.977 2.977 0 01.8-1.064 3.57 3.57 0 011.234-.662 5.2 5.2 0 011.597-.228 7.663 7.663 0 011.171.083 8.187 8.187 0 01.95.177v-.381a1.945 1.945 0 00-.118-.662 1.442 1.442 0 00-.374-.565 1.792 1.792 0 00-.672-.4 3.077 3.077 0 00-1.012-.146 6.716 6.716 0 00-1.457.16 11.935 11.935 0 00-1.576.485v-1.864a7.717 7.717 0 011.567-.5 8.834 8.834 0 011.733-.184 5.989 5.989 0 011.875.263 3.971 3.971 0 011.348.724 2.932 2.932 0 01.807 1.085 3.417 3.417 0 01.258 1.371v3.691c0 .648 0 1.206.021 1.67s.028.88.042 1.244H93.62zm-.191-3.119c-.229-.055-.492-.1-.79-.149a6.487 6.487 0 00-.9-.066 2.426 2.426 0 00-1.386.347 1.206 1.206 0 00-.509 1.067 1.386 1.386 0 00.114.582 1.2 1.2 0 00.315.409 1.362 1.362 0 00.461.243 1.82 1.82 0 00.555.08 2.45 2.45 0 00.693-.094 3.119 3.119 0 00.6-.246 2.926 2.926 0 00.489-.326 3.693 3.693 0 00.371-.347zm10.848 4.01v-.5a2.738 2.738 0 01.028-.5h-.021a4.553 4.553 0 01-.513.347 4.31 4.31 0 01-.631.326 4.159 4.159 0 01-.759.232 4.273 4.273 0 01-2.371-.191 3.581 3.581 0 01-1.32-.88 4.468 4.468 0 01-.929-1.542 6.376 6.376 0 01-.347-2.267 6.852 6.852 0 01.347-2.322 5.041 5.041 0 01.957-1.664 3.961 3.961 0 012.963-1.345 3.327 3.327 0 011.6.378 3.545 3.545 0 011.144.967h.038l.1-1.1h2.1v9.981a6.717 6.717 0 01-.139 1.476 4.022 4.022 0 01-.416 1.1 3.624 3.624 0 01-.825.97 4.478 4.478 0 01-1.144.693 6.322 6.322 0 01-1.411.409 9.056 9.056 0 01-1.629.139 8.6 8.6 0 01-.95-.035c-.312-.035-.6-.059-.873-.1s-.523-.094-.749-.149a5.8 5.8 0 01-.572-.177v-1.955a8.517 8.517 0 001.386.347 9.982 9.982 0 001.542.118 4.259 4.259 0 002.488-.624 2.156 2.156 0 00.88-1.885zm-2.145-1.913a2.63 2.63 0 00.693-.09 3.382 3.382 0 00.6-.232 3.138 3.138 0 00.86-.658v-4.385a3.168 3.168 0 00-.95-.759 2.585 2.585 0 00-1.206-.315 2.288 2.288 0 00-.468.055 1.937 1.937 0 00-.981.579 2.182 2.182 0 00-.4.6 3.892 3.892 0 00-.263.88 5.892 5.892 0 00-.107 1.175 5.652 5.652 0 00.142 1.32 2.909 2.909 0 00.426.991 1.9 1.9 0 00.693.624 2.08 2.08 0 00.967.222zm6.571-12.206h2.52v2.6h-2.52zm.059 4.852h2.4v9.8h-2.4zm6.688 1.016h.041a3.508 3.508 0 01.537-.6 3.6 3.6 0 01.738-.516 4.339 4.339 0 01.915-.347 4.077 4.077 0 011.069-.131 4.464 4.464 0 011.04.121 3.147 3.147 0 01.915.378 2.838 2.838 0 01.731.669 3.1 3.1 0 01.5.977 3.357 3.357 0 01.135.693c.024.246.035.53.035.853v6.322h-2.395v-5.993a6.224 6.224 0 00-.031-.676 2.078 2.078 0 00-.111-.5 1.237 1.237 0 00-.551-.669 1.833 1.833 0 00-.894-.2 2.863 2.863 0 00-1.341.347 3.435 3.435 0 00-1.137.953v6.734h-2.4v-9.8h1.982zm15.059 8.247v-.5a3.119 3.119 0 01.024-.5h-.024a4.957 4.957 0 01-1.14.693 4.27 4.27 0 01-3.119.042 3.539 3.539 0 01-1.317-.88 4.47 4.47 0 01-.932-1.542 6.461 6.461 0 01-.347-2.267 6.856 6.856 0 01.347-2.322 5.044 5.044 0 01.957-1.664 3.975 3.975 0 012.963-1.345 3.327 3.327 0 011.6.378 3.508 3.508 0 011.144.967h.041l.1-1.1h2.1v9.981a6.7 6.7 0 01-.142 1.476 4.02 4.02 0 01-.412 1.1 3.689 3.689 0 01-.825.97 4.6 4.6 0 01-1.144.693 6.376 6.376 0 01-1.411.409 9.083 9.083 0 01-1.629.139 8.57 8.57 0 01-.95-.035c-.308-.035-.6-.059-.877-.1s-.523-.094-.749-.149a5.8 5.8 0 01-.572-.177v-1.972a8.562 8.562 0 001.4.347 9.982 9.982 0 001.542.118 4.242 4.242 0 002.485-.624 2.145 2.145 0 00.88-1.892zm-2.142-1.913a2.585 2.585 0 00.693-.09 3.281 3.281 0 00.6-.232 2.771 2.771 0 00.492-.315 2.735 2.735 0 00.367-.347v-4.381a3.167 3.167 0 00-.95-.759 2.582 2.582 0 00-1.2-.315 2.323 2.323 0 00-.471.055 1.873 1.873 0 00-.5.2 2.028 2.028 0 00-.482.381 2.176 2.176 0 00-.4.6 3.893 3.893 0 00-.277.87 5.635 5.635 0 00-.107 1.175 5.468 5.468 0 00.142 1.32 2.973 2.973 0 00.423.991 1.921 1.921 0 00.693.624 2.079 2.079 0 00.97.232z"/><path d="M132.8 35.147c-90.279.11-105.012-9.984-105.012-16.4 0-7.8 20.382-13.906 105.012-11.83l1.161.028h-.042C30.26.945 6 9.969 6 18.331c0 6.876 11.5 18.684 127.917 16.816zM9.909 20.747a2.193 2.193 0 01-2.287-2.084 2.194 2.194 0 012.292-2.08 2.194 2.194 0 012.286 2.082 1.991 1.991 0 01-.672 1.473 2.413 2.413 0 01-1.622.609zm6.977 0a2.2 2.2 0 01-2.3-2.074 2.192 2.192 0 012.279-2.09 2.2 2.2 0 012.3 2.069 1.988 1.988 0 01-.664 1.478 2.411 2.411 0 01-1.62.616zm6.977 0a2.194 2.194 0 01-2.291-2.082 2.194 2.194 0 012.291-2.082 2.194 2.194 0 012.291 2.082 2.194 2.194 0 01-2.291 2.082z"/></g><path fill="none" d="M0 0h140v41H0z"/></svg>