<svg version="1.1" id="Слой_1" xmlns="http://www.w3.org/2000/svg" x="0" y="0" viewBox="0 0 182.1 41" xml:space="preserve"><path d="M58.3 26.6h2.5L59 38.8h-2.9l-1.9-4.7c-.6-1.4-1.1-2.8-1.5-4.3h-.1c-.2 1.6-.4 3.3-.7 5.3l-.5 3.7H49l1.8-12.2H54l1.9 4.5c.6 1.4 1 2.8 1.4 4.2h.1c.1-1.7.2-3.4.5-5.1l.4-3.6zM40.6 38.8h2.8l1.8-12.2h-2.8l-1.8 12.2zm9-22.6h12.8L61 22.9l-.2.8-1.6-.3.1-.4h-9.5l-.2.8-1.6-.3.2-.8 1.4-6.5zm.6 5.1h9.5l.2-.9h-9.5l-.2.9zm.7-3.5l-.2 1h9.5l.2-1h-9.5zm107.2.5l-5.1.9.9-4.2h5.4v-1.6h-5l.7-3.3 5.6-.8-.2-1.6-6.7 1-2.7 12.6 7.4-1.3-.3-1.7zM0 12.5c1.9-1 3.9-1.8 5.9-2.5 1.2-.4 2.3-.7 3.5-1v-.9C6.1 9.3 3 10.8 0 12.5zm9.4 26.3h8.5v-11c-2.8 1-5.6 1.7-8.5 2.3v8.7zM36 27.4c.7.7 1 1.6.8 2.6-.3 1.4-1.2 2.5-2.6 3v.1c.8.3 1.2 1.2 1.3 2.3.1 1.2.3 2.3.5 3.4h-2.8c-.2-.9-.4-1.9-.4-2.8-.1-1.5-.6-1.9-1.7-2h-.8l-.7 4.8h-2.7l1.7-12c1.2-.2 2.5-.3 3.7-.3 1.7 0 2.9.2 3.7.9zm-3.8 1.1c-.4 0-.8 0-1.3.1l-.5 3.4h1.1c1.2.2 2.2-.6 2.4-1.8.2-1.1-.4-1.7-1.7-1.7zm-26 2c1.1-.2 2.1-.3 3.2-.5v-.2c-1.1.3-2.1.5-3.2.7zM16.5 5.8H9.4v2.3c.6-.2 1.3-.5 1.9-.7 1.7-.6 3.5-1.2 5.2-1.6zm24.3 2.7c-1.7-4.9-12.1-5.9-24.4-2.7h1.4v1.9c6-.2 10.5 1.5 11.7 4.7C31 16.7 26 22.5 17.9 26.6v1.1c.1 0 .2-.1.4-.1 14.4-5 24.5-13.5 22.5-19.1zM17.9 26.6V7.7c-2.6.1-5.5.5-8.5 1.3v20.9l3-.9c1.9-.8 3.8-1.6 5.5-2.4zm60.7-8.4L76.8 16l-1.3 1 1.7 2.3 1.4-1.1zm37.1-7.3h2.9V9.3H116l.4-1.9-1.6-.3-.5 2.2H111v1.6h3.1l-.3 1.3h-5.1v1.6h7.3c-.1.7-.3 1.6-.5 2.5h-7.6v1.6h7.1c-.8 2.5-2.1 4.9-3.7 4.9v1.6c2.8 0 4.5-3.4 5.4-6.5h2.3v-1.6h-1.9c.2-1 .4-1.9.5-2.5h2.3v-1.6h-4.5l.3-1.3zM150 38.8h2.8l1.8-12.2h-2.8L150 38.8zM59.8 13.7h4.4v1.6H48.7v-1.6h5c.1-1 .1-1.9.1-2.9h-2.2l.5 1-1.4.7L49 9.1h4.7c-.1-1.3-.1-1.7-.1-1.7l1.6-.2s.1.5.2 1.9H60c.7-1.6 1-2.1 1-2.1l1.4.8-.7 1.4h4.6L63 12.7l-1.2-1.1.7-.8h-1.7c-.3.9-.7 1.9-1 2.9zm-4.6 0H58c.3-1 .7-2 1.1-2.9h-3.9c.1.9.1 1.9 0 2.9zm75.9 12.9l2 12.2h-3l-.5-3.1h-3.5l-1.3 3.1H122l5.5-12.2h3.6zm-1.5 7l-.4-2.6c-.1-.7-.2-1.6-.3-2.4-.3.7-.6 1.6-.9 2.4l-1.1 2.6h2.7zm11.2-9.8l-.1-1.6c-1.4.1-4.1 0-5.1-.6-.7-.4-.9-1.3-1-1.9h7v-1.6h-6.8l.3-1.3h7.1v-1.6h-6.8l.3-1.3h6.2v-1.6h-5.8l.3-1.3h7.1V9.3H141l.8-.9-1.2-1.1-1.8 2h-5.9l-.9-1.8-1.4.7.5 1.1H128v1.6h6.8l-.3 1.3h-6.2v1.6h5.8l-.3 1.3h-7.1v1.6h6.8l-.3 1.3h-7.1v1.6h6.5c-.4.8-1.1 1.4-1.9 1.8-1.8.9-5.4.6-5.5.6l-.1 1.6h1.2c1.7.1 3.4-.2 5-.8.8-.4 1.4-.9 2-1.6.3.6.7 1.2 1.4 1.6 1.5.6 3.1.9 4.7.8.8.2 1.3.2 1.4.2zm41.3-17.2c0 2.4-1.9 4.3-4.3 4.3s-4.3-1.9-4.3-4.3 1.9-4.3 4.3-4.3c2.4-.1 4.3 1.9 4.3 4.3zm-.8 0c0-2-1.6-3.5-3.5-3.5-2 0-3.5 1.6-3.5 3.5s1.6 3.5 3.5 3.5 3.5-1.6 3.5-3.5zm-18.5 2.7h4l-1.6 7.5c-.3.4-.9.7-1.4.7v1.6c1.2 0 2.2-.6 2.9-1.6l2.1-9.9h-7.3l-3.3 15.7 1.6.3 3-14.3zm16.7-1.2l.6 1h-1.2l-.7-1.1c-.2-.3-.3-.5-.5-.8-.1-.1-.2-.2-.3-.2-.2 0-.3-.1-.5-.1h-.2v2.2h-1V3.9h2.2c.4 0 .8 0 1.2.1.3.1.5.3.6.5.2.2.2.5.2.8 0 .4-.1.7-.3 1-.3.3-.6.4-1 .5.2.1.4.3.6.4-.1.3.1.6.3.9zm-1.2-2c.1 0 .2-.1.3-.2.1-.1.1-.2.1-.4s0-.3-.1-.4c-.1-.1-.2-.2-.4-.2h-1.6v1.3h.8c.2-.1.6-.1.9-.1zm-11.2 24c-.3 1.7-.4 3.4-.5 5.1h-.1c-.4-1.4-.8-2.8-1.4-4.2l-1.9-4.5H160l-1.8 12.2h2.5l.5-3.7c.3-2 .5-3.7.7-5.3h.1c.4 1.5.9 2.9 1.5 4.3l1.9 4.7h2.9l1.8-12.2h-2.5l-.5 3.6zm-24.3-.6c-.5.9-.9 1.6-1.3 2.3-.2-.8-.3-1.4-.6-2.3l-.8-2.9H137l2.8 7.2-.7 5h2.8l.7-5.1 5-7.1h-3.1l-1.7 2.9zm-33.9-10.4l-.4 1.8 1.6.3.4-1.8-1.6-.3zM77.7 38.8h7.8l.3-2.3h-5l.4-2.9h4.5l.3-2.2h-4.5l.4-2.5h4.8l.3-2.3h-7.5l-1.8 12.2zm-12.6-9.9h3.3L67 38.8h2.8l1.4-9.9h3.3l.3-2.3h-9.4l-.3 2.3zm20.6-10.8l1 1.2 2.7-2.3-1-1.2-2.7 2.3zm-.2 1.6c-1-1.3-1.6-2.9-1.8-4.6h5.5L91 6.8H78.8v1.6H89l-.4 1.8H78.1v1.6h10.2l-.4 1.7H77.4v1.6h4.3c-1 1.7-2.3 3.2-3.8 4.5-1.6 1.3-3.4 2.3-5.3 3.1l.5 1.5c2.1-.8 4-1.9 5.7-3.3 1.4-1.1 2.5-2.4 3.5-3.9.4 1.4 1 2.6 1.9 3.8 1.2 1.4 2.7 2.6 4.5 3.4l.6-1.5c-1.4-.8-2.7-1.8-3.8-3zm14.3 7.7c.7.7 1 1.6.8 2.6-.3 1.4-1.2 2.5-2.6 3v.1c.8.3 1.2 1.2 1.3 2.3.1 1.2.3 2.3.5 3.4H97c-.2-.9-.4-1.9-.4-2.8-.1-1.5-.6-1.9-1.7-2H94l-.7 4.8h-2.7l1.7-12c1.2-.2 2.5-.3 3.7-.3 1.8 0 3 .2 3.8.9zM96 28.5c-.4 0-.8 0-1.3.1l-.4 3.4h1.1c1.2.2 2.2-.6 2.4-1.8.2-1.1-.5-1.7-1.8-1.7zm17.3 2.1c-.6 1.4-1.2 3-1.8 4.4h-.1c-.1-1.4-.2-3-.4-4.4l-.6-4.1h-3.7l-2.5 12.2h2.6l.9-4.6c.3-1.5.6-3.4.9-5.1.1 1.6.2 3.3.4 4.8l.6 4.7h2.2l2.2-4.8c.7-1.4 1.4-3.2 2-4.7h.1c-.3 1.8-.5 3.5-.6 5l-.5 4.7h2.7l1.1-12.2h-3.6l-1.9 4.1zm-6.7-12l-.3-1.6-1.5.3.9-4.4h2.2v-1.6H106l.8-3.9-1.6-.3-.9 4.2h-2.2v1.6h1.9l-1 4.8-2.2.5.3 1.6 1.5-.3-.9 4 1.6.3 1-4.7 2.3-.5z" fill="#fff"/></svg>