<svg version="1.1" id="Слой_1" xmlns="http://www.w3.org/2000/svg" x="0" y="0" viewBox="0 0 140 41" xml:space="preserve"><path d="M70 0C34.7 0 6.1 9.2 6.1 20.5S34.7 41 70 41s63.9-9.2 63.9-20.5S105.3 0 70 0zm-8.8 25.7c0 2.3-.1 4-.2 5-.2 1-.6 1.9-1.4 2.9-.8 1-1.7 1.8-3 2.3-1.2.5-2.7.8-4.4.8-1.9 0-3.5-.3-4.9-.9-1.4-.6-2.5-1.4-3.2-2.4-.7-1-1.1-2-1.2-3.1-.1-1.1-.2-3.4-.2-6.9V5h8.1v23.3c0 1.4.1 2.2.2 2.6.1.4.4.6.9.6s.8-.2 1-.6c.1-.4.2-1.4.2-2.9V5h8.1v20.7zM77.3 36h-13V5h8.1v24.8h4.9V36zm20.2-17.5h-8.1v-5.4c0-1.6-.1-2.5-.3-2.9-.1-.4-.5-.6-1.1-.6-.7 0-1.1.2-1.3.7-.2.5-.3 1.5-.3 3.1v14.4c0 1.5.1 2.5.3 2.9.2.5.6.7 1.2.7s1-.2 1.2-.7c.2-.5.3-1.5.3-3.2v-3.9h8.1v1.2c0 3.2-.2 5.5-.7 6.8-.5 1.3-1.5 2.5-3 3.5-1.6 1-3.5 1.5-5.7 1.5-2.4 0-4.3-.4-5.8-1.3s-2.5-2-3-3.6c-.5-1.5-.7-3.8-.7-6.8v-9.1c0-2.2.1-3.9.2-5 .2-1.1.6-2.2 1.4-3.2.8-1 1.8-1.8 3.2-2.4 1.3-.6 2.9-.9 4.6-.9 2.4 0 4.3.5 5.9 1.4 1.5.9 2.6 2.1 3 3.4.5 1.4.7 3.5.7 6.4v3z" fill="#fff"/></svg>