<svg version="1.1" id="Слой_1" xmlns="http://www.w3.org/2000/svg" x="0" y="0" viewBox="0 0 140 41" xml:space="preserve"><path transform="translate(-1157 -308.952)" d="M1213.4 335.1c.1 1-.3 1.9-.9 2.7-1.5 1.3-3.7 1.3-5.2 0-.7-.7-1-1.7-.9-2.7v-12.7h-6.4v12.4c0 1.2.2 2.4.6 3.5.3.9.7 1.7 1.4 2.4.6.7 1.4 1.3 2.2 1.8.9.5 2 .7 3 .8 1.1.1 2.2.2 3.3.2 1.5 0 3.1-.2 4.5-.7 1-.4 1.9-1 2.6-1.7.8-.8 1.4-1.8 1.8-2.9.4-1.1.6-2.3.6-3.5v-20.6l-6.4 3.6-.2 17.4zm18.5-7.3c-1 0-2.1.2-3 .6-1 .5-1.8 1.3-2.4 2.1V328h-5.4v15.1h5.8V336c-.1-1 .1-2 .7-2.9.4-.5 1-.8 1.7-.8.6 0 1.1.2 1.5.6.4.6.6 1.3.5 2v11.8l5.8-2.5v-10.7c0-2-.5-3.5-1.4-4.4-1-.8-2.4-1.3-3.8-1.3zm6.3.4h5.8v15.1h-5.8v-15.1zm0-5.7h5.8v3.9h-5.8v-3.9zm21.9 11.5l-7.8-11.5h-6v20.8h6v-11.4l7.8 11.4h6.1v-23.1h-6.1V334zm21.1-5.2c-1.6-.7-3.4-1.1-5.1-1-2.3-.1-4.5.7-6.2 2.2-1.5 1.5-2.3 3.6-2.3 5.7 0 1.5.4 3 1.1 4.3.7 1.1 1.7 2.1 2.8 2.7 1.5.6 3.1.9 4.7.8 1.8.1 3.6-.2 5.3-1 1.3-.8 2.4-1.9 3.1-3.3l-5.7-.5c-.3.4-.6.7-1 1-.5.3-1.1.4-1.6.4-.8 0-1.6-.3-2.2-1-.5-.6-.7-1.3-.8-2.1h11.6v-.7c.1-1.7-.3-3.3-1-4.8-.5-1.1-1.5-2-2.7-2.7zm-7.8 5.6c0-.7.3-1.4.7-2 1-1.2 2.7-1.5 4-.5.1 0 .1.1.2.1.6.7.9 1.5.9 2.4h-5.8zm22.9 4.7c-.6.2-1.2.3-1.8.4-.4 0-.8-.1-1-.5-.2-.4-.2-.8-.2-1.3v-5.3h3.2v-4.2h-3.2v-7.5l-5.8 3v4.6h-2.1v4.2h2.1v5.3c-.1 1.2.1 2.5.5 3.6.3.7.8 1.3 1.5 1.7 1 .4 2.1.6 3.2.6 1.3 0 2.7-.2 4-.5l-.4-4.1zm-98.5-13.7c-1.8-8.6-8.9-15.2-17.6-16.2l-.1-.1-.1.1c-1.4-.1-2.9-.1-4.3 0l-.1-.1-.1.1c-10 1.2-17.7 9.5-18 19.6v.7c0 10.4 7.8 19.1 18.1 20.3l.1.1.1-.1c1.4.1 2.9.1 4.3 0l.1.1.1-.1c10.3-1.2 18.1-9.9 18.1-20.3v-.7c-.3-1.2-.4-2.3-.6-3.4zm-3.1 1.2c-2.3.8-4.7 1.5-7.1 2-.1-2.1-.3-4.2-.8-6.2 1.9-.4 3.8-1 5.7-1.7 1.1 1.8 1.8 3.8 2.2 5.9zm-11.8 11.8c-1.7.2-3.4.2-5.2.2s-3.5-.1-5.2-.2c-.6-1.9-1.1-3.9-1.3-5.9 4.3.5 8.6.5 12.9 0-.1 2-.5 4-1.2 5.9zm-4.4 8.2h-1.4c-1.2-1.5-2.2-3.1-3-4.8 1.3.1 2.5.1 3.8.1 1.3 0 2.5 0 3.8-.1-1 1.7-2 3.3-3.2 4.8zm-.8-17c-2.2 0-4.4-.1-6.6-.4 0-2.1.3-4.2.7-6.2 3.9.6 7.9.6 11.8 0 .5 2 .7 4.1.7 6.2-2.1.3-4.3.4-6.6.4zm-.7-17.3h1.4c1.8 2.3 3.2 4.8 4.2 7.5-3.3.4-6.6.4-9.9 0 1.1-2.7 2.5-5.2 4.3-7.5zm13.5 5.7c-1.5.5-3 1-4.6 1.3-.7-2.1-1.7-4.2-2.9-6.1 2.9.8 5.5 2.5 7.5 4.8zm-18-4.9c-1.2 1.9-2.2 4-2.9 6.1-1.5-.3-3.1-.8-4.6-1.3 2-2.2 4.6-3.9 7.5-4.8zm-3.9 9.3c-.5 2-.7 4.1-.8 6.2-2.4-.5-4.8-1.2-7.1-2 .3-2.1 1.1-4.1 2.2-5.9 1.9.7 3.8 1.3 5.7 1.7zm-8 7.6c2.4.8 4.9 1.5 7.4 2 .2 2 .5 4 1.1 6-2.3-.4-4.7-.9-7-1.5-.9-2.1-1.5-4.3-1.5-6.5zm4 10.5c1.9.4 3.7.7 5.7 1 .6 1.5 1.4 3 2.2 4.4-3.1-1.1-5.8-2.9-7.9-5.4zm18.4 5.3c.9-1.4 1.6-2.9 2.2-4.4 1.9-.2 3.8-.6 5.7-1-2.1 2.5-4.8 4.4-7.9 5.4zm3.5-7.8c.6-2 .9-4 1.1-6 2.5-.5 5-1.1 7.4-2-.1 2.2-.6 4.4-1.5 6.5-2.4.6-4.7 1.1-7 1.5z" fill="#fff"/></svg>