<svg version="1.1" id="Слой_1" xmlns="http://www.w3.org/2000/svg" x="0" y="0" viewBox="0 0 140 41" xml:space="preserve"><path transform="translate(-4306.451 -2908.979)" d="M4365.1 2935.3h-6.2v3.1h6.1v8.3h-4.8c-.9 0-1.7-.8-1.7-1.7 0-.9.7-1.6 1.7-1.7h1.3v-3.1h-1.3c-2.7 0-4.8 2.2-4.8 4.9 0 2.6 2.2 4.8 4.8 4.8h7.9v-11.6c.1-1.7-1.3-3-3-3zm-18.4 7.5c.4-2.6 1.7-3.9 4.9-4.2-1.4 2.8-2.4 4.9-2.4 4.9l2.8 1.4s1.6-3.3 3.6-7.3l1.1-2.3h-2.5c-2.9 0-9.7 0-10.7 7.1-.5 3.1 1.2 6.2 4.2 7.4l.3.1h6.3v-3.1h-5.6c-.7-.4-2.3-1.5-2-4zm45.3 2s1.6-3.3 3.6-7.3l1.1-2.3h-2.5c-2.9 0-9.7 0-10.7 7.1-.5 3.1 1.2 6.2 4.2 7.4l.3.1h6.3v-3.1h-5.6c-.6-.3-2.2-1.4-1.9-3.9.4-2.6 1.7-3.9 4.9-4.2-1.4 2.8-2.4 4.9-2.4 4.9l2.7 1.3zm-20.4 5.1h3.7l8.9-14.6h-3.7l-3.9 6.3-4.1-6.3h-3.7l6 9.3-3.2 5.3zm-34.1 0l7.5-14.6h-3.5l-4.5 8.8-4.5-8.8h-3.5l7.5 14.6h1zm58.3-40.8l12.8 8.4-9.5 21.9 25-30.3h-28.3zm12.3 26.5h-.7v.6h-4.1v.7h4.1v.6h-2.9v3.2h2.9v.7h-3.6v.7h8v-.7h-.4c-.3-.2-.6-.4-.7-.7h.4v-3.2h-2.9v-.6h4.1v-.7h-4.1v-.6zm-.7 2.7v.5h-2.2v-.5h2.2zm-2.2 1.7v-.5h2.2v.5h-2.2zm5.1 0h-2.2v-.5h2.2v.5zm0 1.5h-2.1v-.7h1.8c0 .2.1.5.3.7zm0-3.2v.5h-2.2v-.5h2.2zm-7 6.5l.5.6c.7-.6 1.1-1.9 1.2-2.1l-.7-.2c-.2.6-.6 1.2-1 1.7zm7.7-2.1l-.5.5c.4.4.7.8.9 1.3l.7-.3c-.2-.5-.6-1.1-1.1-1.5zm-1.4 1.7c-.5.1-.9.1-1.4.1-.6 0-1.3-.1-1.9-.2v-1.7h-.7v2.3l.3.1c.8.2 1.6.3 2.3.3.7 0 1.3 0 1.9-.3l.2-.1v-1.1h-.7v.6zm-1.8-.5l.7-.3c-.2-.6-.7-1-1.3-1v.7s.3 0 .6.6zm13.6-7.5l.3-.1v-.9h-.7v.3c-1.8.3-6.5.5-6.5.5v.7c.3.1 5.3-.2 6.9-.5zm-.5 1.7l.3-.7-.6-.3-.5 1h-1.8v-1h-.7v1h-1.1l-.3-.9-.7.2.2.7h-1.9v2h.7v-1.3h7.4v1.3h.7v-2h-1.7zm-1.6 5.9c.7-.5 1.3-1.2 1.9-1.9l.4-.6h-4.5c.2-.2.3-.5.4-.7h3.6v-.7h-3.3c.1-.3.2-.6.2-.9h-.7c0 .3-.1.6-.2.9h-2.1v.7h1.7c-.7 1.1-1.6 2-2.8 2.6l.4.6c.7-.4 1.4-1 2-1.6.5.6 1 1.1 1.6 1.5-.9.5-1.9.8-3 .7v.7h.2c1.2 0 2.5-.4 3.5-1 1.1.7 2.4 1 3.7 1v-.7c-1 .1-2-.1-3-.6zm-2.1-1.8h3c-.1.8-.9 1.4-1.7 1.3-.7 0-1.3-.6-1.3-1.3z" fill="#fff"/></svg>