<svg version="1.1" id="Слой_1" xmlns="http://www.w3.org/2000/svg" x="0" y="0" viewBox="0 0 140 41" xml:space="preserve"><path d="M57.3 21.5l4.9-6.4 7.8 10 7.8-10 4.9 6.4L99.3 0h-7l-9.6 12.5-1.5-1.9L89.4 0h-8.2L70 14.6 58.8 0h-8.2l8.2 10.6-1.5 1.9L47.7 0h-7l16.6 21.5zm-14.1 5.9h53.5v1.1H43.2zm0 12.5h53.5V41H43.2zm3.6-9.1l.6-.2v-.3h-3.5v.3l.5.2c.1 0 .2.1.3.2.1.2.2.3.3.5l2.2 6.5h.6l1.6-4.3c.1-.2.2-.5.3-.7.1.3.2.5.2.7l1.4 4.3h.6l2.4-6.5c.1-.2.1-.3.2-.4.1-.1.2-.2.3-.2l.6-.2v-.3h-2.5v.3l.5.1c.1 0 .1 0 .2.1l.1.1v.3c0 .1-.1.3-.2.5L52.3 35c-.1.2-.1.4-.2.6 0-.2-.1-.4-.2-.6l-1.5-4.7h-.6L48.1 35c-.1.2-.1.4-.2.6 0-.2-.1-.4-.2-.6l-1.1-3.2c-.1-.2-.1-.4-.1-.5V31c0-.1 0-.1.1-.1s.2 0 .2-.1zm10.3 6.1v.5c0 .1-.1.2-.2.2l-.8.2v.3h5.7l.1-2h-.3l-.7 1.4h-2.3v-3.1H60c.1 0 .2.1.2.2l.2.8h.4V33h-.4l-.2.7c0 .1-.1.1-.2.1h-1.4V31H61l.4 1.3h.3l.4-1.8h-5.8v.3l.8.2c.1 0 .1.1.1.2v5.2c-.1.1-.1.3-.1.5zm9.2-5.9c0-.1.1-.2.1-.2l.7-.2v-.3h-3.4v.3l.7.2c.1 0 .1.1.1.2v6.3c0 .1-.1.2-.2.2l-.7.2v.3h5.7l.1-2.1h-.3l-.8 1.5h-2.2v-5.7c.2-.3.2-.5.2-.7zm5.4 5.9v.5c0 .1-.1.2-.2.2l-.7.2v.3h5.7l.1-2.1h-.3l-.8 1.5h-2.2v-6.4c0-.1.1-.2.1-.2l.7-.2v-.3h-3.4v.3l.7.2c.1 0 .1.1.1.2v5.2c.2.2.2.4.2.6zm7.2 0v.5c0 .1-.1.2-.2.2l-.7.1v.3h3.5c1.4 0 2.5-.4 3.3-1.1.8-.8 1.2-2 1.2-3.1.1-1-.3-1.9-1.1-2.6-.7-.6-1.8-.9-3.2-.9h-3.9v.3l.8.2c.1 0 .1.1.1.2v5.2c.2.3.2.5.2.7zm2.7-6c.7-.1 1.5.2 1.9.8.4.5.6 1.3.6 2.5 0 1.1-.2 2-.6 2.5-.5.6-1.1.9-1.9.8h-.5c-.2 0-.4 0-.5-.1v-6.5h1zM95 37.1c.8-.8 1.2-1.9 1.2-3 .1-1-.3-2.1-1.1-2.8-.7-.7-1.7-1-3-1-1.2-.1-2.3.3-3.2 1.1-.8.8-1.2 1.9-1.2 3-.1 1.1.3 2.1 1.1 2.9.7.7 1.7 1.1 3 1.1 1.1-.1 2.3-.5 3.2-1.3zm-4.8-.3c-.5-.8-.7-1.7-.6-2.7-.1-.9.1-1.8.5-2.5.4-.6 1-.9 1.7-.8.7 0 1.4.3 1.8.9.4.8.6 1.7.6 2.6 0 1.2-.2 2.1-.6 2.6-.4.6-1 .9-1.7.8-.7 0-1.3-.3-1.7-.9z" fill="#fff"/></svg>