<svg version="1.1" id="Слой_1" xmlns="http://www.w3.org/2000/svg" x="0" y="0" viewBox="0 0 140 41" xml:space="preserve"><path d="M2.1 8.8c1.2 0 2.1.9 2.1 2.1S3.3 13 2.1 13 0 12 0 10.9s.9-2.1 2.1-2.1zm0 9.8c1.2 0 2.1.9 2.1 2.1 0 1.2-.9 2.1-2.1 2.1S0 21.9 0 20.7c0-1.2.9-2.1 2.1-2.1zm0 9.4c1.2 0 2.1.9 2.1 2.1s-.9 2.1-2.1 2.1S0 31.3 0 30.1.9 28 2.1 28zM11 8c1.6 0 2.9 1.3 2.9 2.9s-1.3 2.9-2.9 2.9-2.9-1.3-2.9-2.9S9.5 8 11 8zm0 9.3c1.9 0 3.4 1.5 3.4 3.4s-1.5 3.4-3.4 3.4-3.4-1.5-3.4-3.4 1.6-3.4 3.4-3.4zm9.7-.7c2.3 0 4.1 1.8 4.1 4.1s-1.8 4.1-4.1 4.1-4.1-1.8-4.1-4.1 1.9-4.1 4.1-4.1zm0 10c2 0 3.5 1.6 3.5 3.5s-1.6 3.5-3.5 3.5-3.5-1.6-3.5-3.5 1.6-3.5 3.5-3.5zm-9.7.6c1.6 0 2.9 1.3 2.9 2.9 0 1.6-1.3 2.9-2.9 2.9s-2.9-1.3-2.9-2.9c0-1.6 1.3-2.9 2.9-2.9zm9.7-19.9c2 0 3.5 1.6 3.5 3.5s-1.6 3.5-3.5 3.5-3.5-1.6-3.5-3.5 1.6-3.5 3.5-3.5zm34.7 7.6c-1.5.2-1.7.5-2.3 2.1-.5 1.5-2.1 6.1-3.3 10h-1.1c-1-2.8-2.2-5.7-3.4-8.6-1.1 2.9-2.1 5.7-3 8.6H41c-.8-2.7-2.1-6.7-3.3-10.2-.5-1.5-.8-1.8-2.1-1.9v-.7h6.1v.7c-1.5.1-1.6.4-1.3 1.4.7 2.2 1.4 4.5 2.1 6.6 1-2.7 2-5.7 3-8.7h1.1c1.1 3 2.3 5.8 3.4 8.7.8-2.1 1.7-5.3 2-6.4.3-1.1.1-1.5-1.7-1.6v-.7h5l.1.7zm11.7 8.6c-.1.5-.7 2.8-.9 3.3H55.7v-.7c1.9-.2 2-.3 2-1.9v-7.4c0-1.6-.2-1.8-1.6-1.9v-.7h9.7c0 .3.1 1.9.2 3.1l-.8.1c-.2-.7-.5-1.3-.9-1.8-.4-.4-.6-.5-1.7-.5h-1.3c-.8 0-.9 0-.9.7v4h2c1.1 0 1.3-.3 1.6-1.7h.8v4.3H64c-.3-1.4-.5-1.7-1.7-1.7h-2V24c0 1.3 0 1.7 1.3 1.8H63c1.1 0 1.4-.1 1.9-.7s.9-1.2 1.2-1.9l1 .3zm12-.1c-.2.8-.7 2.9-.9 3.4H68.1v-.7c1.8-.1 2-.3 2-1.9v-7.4c0-1.6-.2-1.8-1.7-1.9v-.7h6.3v.7c-1.6.1-1.8.3-1.8 1.9v7.5c0 1.1 0 1.5 1.2 1.6h1.1c.7.1 1.5-.2 2-.8.5-.6 1-1.3 1.3-2l.6.3zm11.7 0c-.2.8-.7 2.9-.9 3.4H79.8v-.7c1.8-.1 2-.3 2-1.9v-7.4c0-1.6-.2-1.8-1.7-1.9v-.7h6.3v.7c-1.6.1-1.8.3-1.8 1.9v7.5c0 1.1 0 1.5 1.2 1.6h1.1c.7.1 1.5-.2 2-.8.5-.6 1-1.3 1.3-2l.6.3zm13.5.3c-.3 1-.7 2-1.1 2.9-1.2.3-2.5.4-3.7.5-4.9 0-7.3-3.1-7.3-6.5 0-4 3.2-6.7 7.7-6.7 1.3 0 2.6.2 3.8.4.1.9.2 2 .4 3l-.6.1c-.4-1.3-.9-2.1-1.9-2.5-.7-.3-1.4-.4-2.1-.4-3.4 0-5.1 2.4-5.1 5.6 0 3.7 2 6.1 5.3 6.1 2.1 0 3.1-.9 4.1-2.8l.5.3zm16.1-9c-1.7.2-1.9.3-1.9 1.9v7.8c0 1.6.2 1.7 1.9 1.9v.5H115v-.5c1.7-.2 1.9-.2 1.9-1.9v-3.9h-7v3.9c0 1.6.2 1.7 1.8 1.9v.5h-5.4v-.5c1.6-.2 1.8-.2 1.8-1.9v-7.8c0-1.6-.2-1.7-1.8-1.9v-.5h5.4v.5c-1.6.1-1.8.3-1.8 1.9v3.1h7v-3.1c0-1.6-.2-1.7-1.9-1.9v-.5h5.5l-.1.5zm2.1 12.1v-.5c1.7-.2 1.8-.3 1.8-1.9v-7.7c0-1.7-.2-1.7-1.8-1.9v-.5h5.5v.5c-1.7.2-1.9.3-1.9 1.9v7.7c0 1.7.2 1.7 1.9 1.9v.5h-5.5zm12.7-12.6c1.2-.1 2.4.2 3.4.8.9.6 1.4 1.7 1.3 2.8 0 2.8-2.5 4-4.5 4h-.5l-1.4-.3v3c0 1.6.1 1.7 2 1.9v.5H130v-.5c1.8-.2 1.8-.3 1.8-1.9v-7.7c0-1.7-.2-1.8-1.8-1.9v-.5h5.2zm-1.6 6.5c.5.2 1 .3 1.5.3 1.6.1 2.9-1 3.1-2.6v-.5c0-2.1-1.5-3-3.2-3-.4 0-.8 0-1.1.2-.2.1-.2.4-.2.9l-.1 4.7z" fill="#fff"/></svg>