<?xml version="1.0" standalone="no"?>
<!DOCTYPE svg PUBLIC "-//W3C//DTD SVG 1.1//EN" "http://www.w3.org/Graphics/SVG/1.1/DTD/svg11.dtd">
<svg xmlns="http://www.w3.org/2000/svg">
<metadata>Copyright (C) 2021 by original authors @ fontello.com</metadata>
<defs>
<font id="fontello" horiz-adv-x="1000" >
<font-face font-family="fontello" font-weight="400" font-stretch="normal" units-per-em="1000" ascent="850" descent="-150" />
<missing-glyph horiz-adv-x="1000" />
<glyph glyph-name="info" unicode="&#xe800;" d="M500 850a500 500 0 1 1 500-500 500 500 0 0 1-500 500z m104-775q-39-15-61-23a163 163 0 0 0-54-8 106 106 0 0 0-73 23 74 74 0 0 0-25 58 210 210 0 0 0 1 27c2 10 4 21 7 33l32 113c3 11 5 22 7 32a138 138 0 0 1 3 26 41 41 0 0 1-9 31 51 51 0 0 1-34 8 90 90 0 0 1-26-4c-9-2-16-5-22-7l8 35q32 13 61 22a179 179 0 0 0 54 9 105 105 0 0 0 72-22 75 75 0 0 0 25-59q0-7-2-26a175 175 0 0 0-6-34l-32-114c-3-9-5-19-7-31a165 165 0 0 1-3-26 38 38 0 0 1 10-31 57 57 0 0 1 35-8 102 102 0 0 1 26 4 151 151 0 0 1 22 7z m-6 461a77 77 0 0 0-54-21 77 77 0 0 0-54 21 67 67 0 0 0-22 50 67 67 0 0 0 22 51 77 77 0 0 0 54 21 76 76 0 0 0 54-21 68 68 0 0 0 0-101z" horiz-adv-x="1000" />

<glyph glyph-name="instagram" unicode="&#xe801;" d="M681-75h-362c-131 0-244 106-244 244v362c0 132 106 244 244 244 0 0 0 0 6 0h369c131 0 244-106 244-244v-368c-13-132-119-238-257-238z m-362 781c-94 0-169-75-175-168v-369c0-94 81-169 175-169l0 0h369c93 0 168 75 168 169v369c0 93-75 168-168 168-7 0-369 0-369 0z m181-593c-131 0-244 106-244 237l0 0c0 131 100 238 232 244h6c131 0 237-100 244-231v-7l0 0c0-131-107-243-238-243z m0 400c-87 0-156-69-156-157s69-156 156-156 156 69 156 156l0 0c0 88-68 157-156 157z m281 68c0-31-25-56-56-56s-56 25-56 56 25 57 56 57l0 0c31 0 56-25 56-57z" horiz-adv-x="1000" />

<glyph glyph-name="layout--grid--4" unicode="&#xe802;" d="M568 851h433v-453h-433v453z m-567 0h433v-453h-433v453z m567-593h433v-407h-433v407z m-567 0h433v-407h-433v407z" horiz-adv-x="1000" />

<glyph glyph-name="layout--grid--6" unicode="&#xe803;" d="M0 850h240v-240h-240v240z m380 0h240v-240h-240v240z m380 0h240v-240h-240v240z m-760-380h240v-240h-240v240z m380 0h240v-240h-240v240z m380 0h240v-240h-240v240z m-760-380h240v-240h-240v240z m380 0h240v-240h-240v240z m380 0h240v-240h-240v240z" horiz-adv-x="1000" />

<glyph glyph-name="layout--list" unicode="&#xe804;" d="M333 850h667v-200h-667v200z m-333 0h200v-200h-200v200z m333-400h667v-200h-667v200z m-333 0h200v-200h-200v200z m333-400h667v-200h-667v200z m-333 0h200v-200h-200v200z" horiz-adv-x="1000" />

<glyph glyph-name="newspaper--outline" unicode="&#xe805;" d="M856 550h-87v156a144 144 0 0 1-144 144h-481a144 144 0 0 1-144-144v-702a154 154 0 0 1 154-154h692a154 154 0 0 1 154 154v402a144 144 0 0 1-144 144z m-779-546v702a67 67 0 0 0 67 67h481a67 67 0 0 0 67-67v-702h0c0-3 0-6 0-10 0 0 0-1 0-2q0-4 1-7l0-3a152 152 0 0 1 4-18l1-1q1-5 2-9l0 0a153 153 0 0 1 13-27h-559a77 77 0 0 0-77 77z m846 0a77 77 0 0 0-77-77h0a77 77 0 0 0-77 77h0v469h87a67 67 0 0 0 67-67z m-744 442h411v-76h-411z m0 116h411v-77h-411z m0-231h411v-77h-411z m0-115h238v-77h-238z" horiz-adv-x="1000" />

<glyph glyph-name="percent--outline" unicode="&#xe806;" d="M500 850h0a500 500 0 0 1-500-500h0a500 500 0 0 1 500-500h0a500 500 0 0 1 500 500h0a500 500 0 0 1-500 500z m0-923a423 423 0 1 0 423 423 424 424 0 0 0-423-423z m193 615l-324-430-62 46 324 430z m-55-204a121 121 0 1 1 121-121 121 121 0 0 1-121 121z m0-165a44 44 0 1 0 44 44 44 44 0 0 0-44-44z m-155 309a121 121 0 1 1-121-120 121 121 0 0 1 121 121z m-165 0a44 44 0 1 0 44-43 44 44 0 0 0-44 44z" horiz-adv-x="1000" />

<glyph glyph-name="phone--circled" unicode="&#xe807;" d="M500 760a406 406 0 0 0 290-120h0a406 406 0 0 0 120-290 408 408 0 0 0-120-290 406 406 0 0 0-290-120 407 407 0 0 0-290 120 406 406 0 0 0-120 290 406 406 0 0 0 120 290h0a406 406 0 0 0 290 120m0 90a496 496 0 0 1-353-147 496 496 0 0 1-147-353 496 496 0 0 1 147-354 496 496 0 0 1 353-146 496 496 0 0 1 354 146 497 497 0 0 1 146 354 496 496 0 0 1-146 353 496 496 0 0 1-354 147z m200-575a271 271 0 0 0-85 13 36 36 0 0 1-37-8l-54-41a301 301 0 0 0-134 134l39 53a38 38 0 0 1 10 38 272 272 0 0 0-14 85 38 38 0 0 1-38 38h-87a38 38 0 0 1-37-38 438 438 0 0 1 437-437 38 38 0 0 1 37 38v87a38 38 0 0 1-37 38z" horiz-adv-x="1000" />

<glyph glyph-name="pinterest" unicode="&#xe808;" d="M507 850c-280 0-500-220-507-500 0 0 0 0 0-7 0-200 120-380 300-460 0 40 0 80 13 120 14 40 67 274 67 274-13 26-20 53-20 80 0 73 47 126 93 126 34 0 67-26 67-60 0 0 0-6 0-6v-14c-7-53-20-113-40-173-7-40 13-80 53-93h20c94 0 160 120 160 266 7 100-73 187-173 194-13 0-20 0-33 0-120 6-234-94-240-220 0 0 0-7 0-7v-13c0-34 13-74 33-100 7-7 7-14 7-27 0-13-7-27-14-40 0-13-13-20-20-20h-6c-74 40-114 113-100 193 6 187 166 327 346 320 0 0 7 0 7 0 167 14 307-113 320-280v-6c0-194-113-347-273-347-47 0-94 20-120 60 0 0-27-120-34-140-13-40-26-73-53-107 267-73 547 80 620 347 73 260-73 533-333 613-47 20-94 27-140 27z" horiz-adv-x="1000" />

<glyph glyph-name="search" unicode="&#xe809;" d="M913-10l-240 240c113 144 87 349-57 463-144 113-350 87-463-57s-87-349 57-463c118-92 288-92 406 0l240-240 57 57z m-498 196c-140 0-249 114-249 249 0 140 114 249 249 249 140 0 249-113 249-249 0-135-114-249-249-249l0 0z" horiz-adv-x="1000" />

<glyph glyph-name="star--solid" unicode="&#xe80a;" d="M526 850l167-333 360-53-263-254 61-360-325 167-324-176 61 369-263 254 360 53 166 333z" horiz-adv-x="1053" />

<glyph glyph-name="text--outline" unicode="&#xe80b;" d="M828 666l-156 156a96 96 0 0 1-68 28h-460a144 144 0 0 1-144-144v-711a144 144 0 0 1 144-145h567a144 144 0 0 1 145 145v603a96 96 0 0 1-28 68z m-210 101l155-155a19 19 0 0 0 6-14v-8h-149a34 34 0 0 0-34 34v149h8a19 19 0 0 0 14-6z m93-840h-567a67 67 0 0 0-67 67v711a67 67 0 0 0 67 68h375v-149a111 111 0 0 1 111-111h149v-519a67 67 0 0 0-68-67z m-488 519h411v-77h-411z m0-115h411v-77h-411z m0-116h237v-77h-237z" horiz-adv-x="856" />

<glyph glyph-name="usd--outline" unicode="&#xe80c;" d="M640 247a142 142 0 0 0-100-135v-73h-77v71a141 141 0 0 0-102 103l75 18a64 64 0 1 1 62 80h0a141 141 0 0 0-35 278v72h77v-72a141 141 0 0 0 99-102l-75-18a64 64 0 1 1-63-81h0a142 142 0 0 0 139-141z m360 103a500 500 0 1 0-500 500 500 500 0 0 0 500-500z m-77 0a423 423 0 1 1-423-423 424 424 0 0 1 423 423z" horiz-adv-x="1000" />

<glyph glyph-name="user--outline" unicode="&#xe80d;" d="M646 282c118 79 144 241 66 354-79 118-240 144-354 66s-144-241-65-354c13-26 39-48 61-66-131-56-214-187-214-327h74c0 157 127 284 284 284s288-131 288-289l0 0h74c0 145-83 276-214 332z m-327 210c0 100 78 179 179 179 100 0 179-79 179-179s-79-179-179-179l0 0c-96 0-179 79-179 179z" horiz-adv-x="1000" />

<glyph glyph-name="youtube" unicode="&#xe80e;" d="M981 594c-12 44-43 75-87 87-131 19-263 25-394 25-131 0-262-12-387-25-44-12-82-43-94-87-25-163-25-325 0-488 12-43 44-81 87-93 132-19 263-26 388-26 131 0 262 7 387 26 44 12 82 43 88 87 37 169 37 331 12 494l0 0z m-581-394v300l263-150-263-150z" horiz-adv-x="1000" />

<glyph glyph-name="arrow--angle--down" unicode="&#xe80f;" d="M501 32l-500 500 134 135 366-366 365 366 135-135-500-500z" horiz-adv-x="1000" />

<glyph glyph-name="arrow--angle--left" unicode="&#xe810;" d="M183 349l500 500 135-134-365-366 365-365-135-135-500 500z" horiz-adv-x="1000" />

<glyph glyph-name="arrow--angle--right" unicode="&#xe811;" d="M818 349l-500-500-135 135 366 365-366 366 135 134 500-500z" horiz-adv-x="1000" />

<glyph glyph-name="arrow--angle--up" unicode="&#xe812;" d="M501 667l500-500-135-135-365 365-366-365-134 135 500 500z" horiz-adv-x="1000" />

<glyph glyph-name="arrow--down" unicode="&#xe813;" d="M498-152l-316 317 55 55 228-227v850h78v-850l228 227 55-55-328-317z" horiz-adv-x="1000" />

<glyph glyph-name="arrow--left" unicode="&#xe814;" d="M-2 348l317 317 56-56-228-228h850v-77h-845l228-228-55-56-323 328z" horiz-adv-x="1000" />

<glyph glyph-name="arrow--long--down" unicode="&#xe815;" d="M498-152l-222 222 39 39 161-161v895h56v-895l161 161 39-39-234-222z" horiz-adv-x="1000" />

<glyph glyph-name="arrow--long--left" unicode="&#xe816;" d="M-2 348l223 222 39-39-162-161h895v-55h-889l161-161-39-39-228 233z" horiz-adv-x="1000" />

<glyph glyph-name="arrow--long--right" unicode="&#xe817;" d="M1000 350l-225-225-38 39 159 159h-896v54h896l-159 159 38 39z" horiz-adv-x="1000" />

<glyph glyph-name="arrow--long--up" unicode="&#xe818;" d="M498 848l223-222-39-39-161 161v-894h-56v894l-161-161-39 39 233 222z" horiz-adv-x="1000" />

<glyph glyph-name="arrow--right" unicode="&#xe819;" d="M1000 350l-319-319-54 55 226 226h-853v77h853l-226 225 54 55z" horiz-adv-x="1000" />

<glyph glyph-name="arrow--tiangle--down" unicode="&#xe81a;" d="M0 597l506-506 494 506h-1000z" horiz-adv-x="1000" />

<glyph glyph-name="arrow--tiangle--left" unicode="&#xe81b;" d="M747 850l-494-506 507-507v1013z" horiz-adv-x="1000" />

<glyph glyph-name="arrow--tiangle--right" unicode="&#xe81c;" d="M253-150l494 494-494 506 0-1000 0 0z" horiz-adv-x="1000" />

<glyph glyph-name="arrow--tiangle--up" unicode="&#xe81d;" d="M1000 103l-494 494-506-506h1000z" horiz-adv-x="1000" />

<glyph glyph-name="arrow--up" unicode="&#xe81e;" d="M498 848l317-317-55-55-228 228v-850h-78v850l-228-228-55 55 327 317z" horiz-adv-x="1000" />

<glyph glyph-name="burger--outline" unicode="&#xe81f;" d="M122 309h756v78h-756v-78z m0-289h756v79h-756v-79z m0 577h756v78h-756v-78z" horiz-adv-x="1000" />

<glyph glyph-name="cancel" unicode="&#xe820;" d="M555 348l336-336-53-53-336 336-336-336-52 53 336 336-341 336 53 53 336-337 336 337 53-53-332-336z" horiz-adv-x="1000" />

<glyph glyph-name="cancel--sm" unicode="&#xe821;" d="M659 350l341-341-159-159-341 341-341-341-159 159 341 341-341 341 159 159 341-341 341 341 159-159-341-341z" horiz-adv-x="1000" />

<glyph glyph-name="cart--outline" unicode="&#xe822;" d="M746 208l122 480h136v75h-192l-31-114-777 0 83-445 659 4z m13 367l-74-293h-542l-56 293 672 0z m-118-642c66 0 118 57 118 122 0 66-52 118-118 118h-454c-65 0-122-52-122-122 0-66 52-122 122-122 66 0 122 52 122 122 0 17-4 30-8 44h231c-26-62 4-132 66-158 13 0 30-4 43-4l0 0z m-410 122c0-26-22-43-44-43-26 0-44 21-44 43 0 26 22 44 44 44 0 0 0 0 0 0 26 0 44-22 44-44z m458 0c0-26-22-43-43-43s-44 21-44 43 22 44 44 44 43-22 43-44z" horiz-adv-x="1000" />

<glyph glyph-name="check--sm" unicode="&#xe823;" d="M364-48l-364 364 159 159 205-204 477 477 159-159-636-637z" horiz-adv-x="1000" />

<glyph glyph-name="clock--circled" unicode="&#xe824;" d="M854 704a496 496 0 0 1-354 146 496 496 0 0 1-354-146 496 496 0 0 1-146-354 496 496 0 0 1 146-354 496 496 0 0 1 354-146 496 496 0 0 1 354 146 497 497 0 0 1 146 354 496 496 0 0 1-146 354z m-64-644a406 406 0 0 0-290-120 407 407 0 0 0-290 120 406 406 0 0 0-120 290 406 406 0 0 0 120 290 406 406 0 0 0 290 120v0a406 406 0 0 0 290-120 406 406 0 0 0 120-290 407 407 0 0 0-120-290z m-59 278a36 36 0 0 0 36-36h0a36 36 0 0 0-36-36h-219a48 48 0 0 0-48 48v267a36 36 0 0 0 36 36h0a36 36 0 0 0 36-36v-243z" horiz-adv-x="1000" />

<glyph glyph-name="email--circled" unicode="&#xe825;" d="M854 704a496 496 0 0 1-354 146 496 496 0 0 1-354-146 496 496 0 0 1-146-354 496 496 0 0 1 146-354 496 496 0 0 1 354-146 496 496 0 0 1 354 146 497 497 0 0 1 146 354 496 496 0 0 1-146 354z m-64-644a406 406 0 0 0-290-120 407 407 0 0 0-290 120 406 406 0 0 0-120 290 406 406 0 0 0 120 290 406 406 0 0 0 290 120v0a406 406 0 0 0 290-120 406 406 0 0 0 120-290 407 407 0 0 0-120-290z m-292 590a298 298 0 0 1-297-298 300 300 0 0 1 297-301 309 309 0 0 1 185 61 36 36 0 0 1 14 24 36 36 0 0 1-7 26 36 36 0 0 1-29 14 36 36 0 0 1-22-7 236 236 0 0 0-140-47 228 228 0 0 0-227 230 227 227 0 0 0 227 226 228 228 0 0 0 229-226v-26a43 43 0 0 0-43-43 43 43 0 0 0-42 43v131a36 36 0 0 1-36 36 36 36 0 0 1-33-22 143 143 0 0 1-75 22 141 141 0 0 1-141-141 141 141 0 0 1 141-141 146 146 0 0 1 99 41 115 115 0 0 1 87-41 115 115 0 0 1 115 115v26a300 300 0 0 1-302 298z m0-367a69 69 0 0 0-68 69 69 69 0 0 0 68 69 72 72 0 0 0 73-69 72 72 0 0 0-73-69z" horiz-adv-x="1000" />

<glyph glyph-name="equalizer--outline" unicode="&#xe826;" d="M310 584c0 65-52 118-118 122v105c5 22-13 39-35 39-22 0-39-17-39-39v-105c-66 0-122-57-122-122 0-66 56-123 122-123v-572c0-22 17-39 39-39 22 0 40 17 40 39v572c65 5 113 57 113 123z m-122-44h-66c-26 0-43 22-43 44s21 43 43 43h66c26 0 43-21 43-43s-17-44-43-44z m738-428c0 66-53 118-118 122v577c0 22-18 39-39 39-22 0-40-17-40-39v-577c-65 0-122-56-122-122 0-65 57-122 122-122v-101c0-22 18-39 40-39 21 0 39 17 39 39v105c65 0 118 53 118 118l0 0z m-122-44h-66c-26 0-44 22-44 44s22 44 44 44h66c26 0 43-22 43-44s-17-44-43-44z m-184 280c0 65-52 118-118 122v341c0 22-17 39-39 39-22 0-39-17-39-39v-341c-66 0-123-57-123-122 0-66 57-122 123-122v-337c0-22 17-39 39-39 22 0 39 17 39 39v341c66 0 118 52 118 118l0 0z m-122-44h-70c-26 0-44 22-44 44s22 44 44 44h65c27 0 44-22 44-44s-13-44-39-44z" horiz-adv-x="926" />

<glyph glyph-name="facebook" unicode="&#xe827;" d="M375 150v194c0 6 0 6-12 6h-57c-6 0-12 0-12 13v118c0 7 0 13 12 13h57c12 0 12 6 12 19v87c0 38 13 69 31 100 25 38 69 56 113 56h137c7 0 13 0 13-12v-119c0-6 0-12-13-12h-68c-25 12-44 0-50-25v-7-75c0-12 6-6 12-6h100c13 0 19 0 13-12-7-32-7-75-13-113 6-25 0-25-12-25h-75c-25 0-19 6-19-12v-376c0-6-6-12-13-18 0 0 0 0-6 0h-137c-7 0-13 6-19 12 0 0 0 0 0 6 6 63 6 132 6 188z" horiz-adv-x="1000" />

<glyph glyph-name="favorite--outline" unicode="&#xe828;" d="M500 850c-278 0-500-222-500-500s222-500 500-500 500 222 500 500-222 500-500 500z m0-922c-233 0-422 189-422 422 0 233 189 422 422 422 233 0 422-189 422-422v0c0-233-189-422-422-422z m267 539l-161 22-73 144c-5 23-33 28-50 17-5 0-16-11-16-17l-73-144-161-22c-22-6-33-23-33-45 0-11 6-16 11-22l117-111-28-161c-6-22 11-39 33-45 6 0 17 0 23 6l144 72 144-78c17-11 45 0 50 17 6 6 6 17 6 22l-28 161 117 111c17 17 17 39 0 56-6 11-17 17-22 17l0 0z m-161-139c-12-11-12-22-12-34l17-100-94 45c-11 5-23 5-34 0l-94-45 17 100c0 12 0 28-12 34l-72 72 106 17c11 0 22 11 28 22l44 89 44-95c6-11 17-16 28-22l106-17-72-66z" horiz-adv-x="1000" />

<glyph glyph-name="gear--outline" unicode="&#xe829;" d="M502 771c13 0 26 0 40 0l26-69 13-35 30-9c9-4 22-9 31-13l35-18 35 18 61 30c22-17 39-35 57-56l-31-66-17-35 17-35c5-4 5-8 5-13s4-9 4-13l13-35 35-13 70-26c4-26 4-53 0-79l-70-26-35-13-13-26c-4-9-9-22-13-31l-18-35 18-35 30-65c-17-22-35-40-56-57l-66 31-35 17-35-17c-4-5-8-5-13-5s-9-4-13-4l-35-13-13-35-26-70c-13 0-26 0-40 0s-26 0-39 0l-17 78-13 35-35 14c-9 4-22 8-31 13l-35 17-35-17-65-31c-22 18-40 35-57 57l31 65 17 35-17 35c-5 5-5 9-5 13s5 0 0 5l-13 35-35 13-70 26c-4 26-4 52 0 79l75 21 34 13 14 35c4 9 8 22 13 31l17 35-22 26-30 66c17 21 35 39 56 56l66-30 35-18 35 18c4 4 9 4 13 4s9 5 13 5l35 13 9 35 26 69c13 0 26 0 39 0l0 0m0-637c31 0 57 4 83 17 109 48 166 175 118 284-35 83-113 136-201 136-30 0-57-5-83-18-57-26-96-65-122-118-22-52-22-113 0-166 35-83 114-139 205-135m0 716c-35 0-65-4-96-9l-44-113c-4 0-13-5-17-9s-9-4-17-4l-105 48c-57-35-101-79-136-136l53-109c-9-9-13-22-18-30l-113-44c-13-66-13-127 0-192l113-40c0-4 5-13 9-17s4-13 9-17l-53-110c35-52 83-100 136-135l109 52c13-4 22-8 35-13l39-113c31-5 66-9 96-9 31 0 66 4 96 9l40 113c4 0 13 5 17 9s13 4 18 9l109-53c52 35 100 83 135 136l-52 109c4 13 8 22 13 35l113 39c13 66 13 127 0 192l-113 40c0 4-5 13-9 17s-4 13-9 18l57 104c-35 53-83 101-135 136l-109-53c-14 5-22 9-35 13l-40 114c-35 9-65 13-96 13l0 0z m0-642c-57 0-109 35-131 87-30 75 5 153 74 184 18 9 35 9 53 9 57 0 109-35 131-88 30-70-4-153-74-183-18-5-35-9-53-9z" horiz-adv-x="1000" />

<glyph glyph-name="cart--processing" unicode="&#xe82a;" d="M415 355l-58-19c-15 15-34 26-57 34l-16 62c-34 7-69 7-100 0l-15-62c-19-8-39-19-58-34l-58 19c-23-27-38-54-50-89l47-42c-4-23-4-46 0-65l-47-43c12-30 27-61 50-88l58 19c16-15 35-27 58-35l15-61c35-8 69-8 100 0l16 61c19 8 38 20 57 35l58-19c23 27 38 54 50 88l-46 43c4 23 4 46 0 65l46 42c-12 35-27 66-50 89z m-181-239c-42 0-77 35-77 77s35 77 77 77 77-34 77-77c0-42-34-77-77-77 0 0 0 0 0 0l0 0z m750 635h-138c-12 0-19-8-19-19v-77h-624v-154c8 0 20 0 27 0 23 0 43-4 66-8l42-7 12-43 7-27c4-4 8-4 12-7l27 7 42 12 27-31c27-27 46-61 58-96l188-54c42-11 42-31-8-31h-184l-4-4-19-19c0-4 0-4 0-7s0-4 0-8l19-19 31-31h257c12 0 20 8 20 19v65l7 43 89 400h84v81c-3 7-11 15-19 15l0 0z m-204-619c-50 0-88-39-88-89 0-50 38-88 88-88 50 0 89 38 89 88 0 0 0 0 0 0 0 50-42 89-89 89z" horiz-adv-x="1000" />

<glyph glyph-name="cart--warning" unicode="&#xe82b;" d="M337 80c-50 0-89-39-89-89 0-50 39-88 89-88 50 0 88 38 88 88v0c0 46-38 89-88 89z m127 488c0 127-104 231-231 231s-231-104-231-231c0-127 104-231 231-231l0 0c127 0 231 104 231 231z m-262 127h58v-154h-58v154z m0-204h58v-50h-58v50z m577-411c-50 0-88-39-88-89 0-50 38-88 88-88 50 0 88 38 88 88v0c0 46-38 89-88 89z m204 615h-139c-11 0-19-8-19-19v-77h-288c15-127-50-250-162-308l335-96c42-11 42-31-8-31h-496v-65c0-12 8-19 19-19h581c11 0 19 7 19 19v65l8 43 88 400h85v69c-8 11-15 19-23 19z" horiz-adv-x="1000" />

<glyph glyph-name="delivery" unicode="&#xe82c;" d="M963 265v107c0 43-31 73-73 73 0 0 0 0 0 0l-50 8-89 131c0 0-4 4-4 4-15 19-34 31-61 31h-646c-23 0-39-20-39-43l0-200v-207c0-24 19-43 43-43 0 0 0 0 0 0h61c12-46 58-81 108-81 50 0 96 35 107 81h370c15-50 57-81 107-81 50 0 97 35 108 81h54c23 0 42 19 42 43v53c0 20-15 39-38 43z m-750-162c-31 0-58 27-58 58 0 31 27 58 58 58 31 0 57-27 57-58-3-35-26-58-57-58l0 0z m388 346c-4 0-4 4-4 4 0 0 0 0 0 0v104c0 4 4 4 4 4 0 0 0 0 0 0h89c0 0 4 0 4-4l69-104c0-4 0-4 0-8 0 0 0 0-4 0l-158 4 0 0z m196-346c-30 0-57 27-57 58 0 31 27 58 57 58 31 0 58-27 58-58 0-31-27-58-58-58l0 0z" horiz-adv-x="1000" />

<glyph glyph-name="cart--locked" unicode="&#xe82d;" d="M386 277h-19v85c0 84-73 154-158 154-84 0-150-70-154-154v-85h-19c-23 0-39-15-39-38v-250c0-24 16-39 39-39h346c23 0 39 15 39 39v250c4 23-12 38-35 38z m-96 0h-158v85c0 42 39 77 81 77 42 0 77-35 77-77v-85z m692 469h-138c-12 0-19-7-19-19v-77h-624v-61c4 0 4 0 8 0 127 0 231-104 231-231v-23c8-4 19-12 27-19l242-70c42-11 42-30-8-30h-200v-85h300c12 0 20 8 20 19v66l7 42 89 400h84v69c0 12-7 19-19 19z m-204-615c-50 0-88-39-88-89 0-50 38-88 88-88 50 0 89 38 89 88v0c0 47-39 89-89 89z" horiz-adv-x="1000" />

<glyph glyph-name="cart--alt" unicode="&#xe82e;" d="M664 148c-47 0-81-35-81-81s34-81 81-81c46 0 80 35 80 81 0 43-34 81-80 81 0 0 0 0 0 0z m-408 0c-46 0-81-35-81-81s35-81 81-81c46 0 81 35 81 81 0 43-35 81-81 81 0 0 0 0 0 0l0 0z m334 81h-457v-62c0-7 7-15 15-15h535c7 0 15 8 15 15v62l8 38 81 370h80v65c0 8-7 15-15 15h-127c-8 0-15-7-15-15v-69h-573v-223c0-8 7-20 15-20l450-127c38-15 35-34-12-34l0 0z" horiz-adv-x="1000" />

<glyph glyph-name="favorite--solid" unicode="&#xe82f;" d="M500 850c-276 0-500-224-500-500s224-500 500-500 500 224 500 500c0 276-224 500-500 500z m197-803l-197 119-193-119 53 224-176 149 228 18 88 210 88-210 228-18-176-149 57-224z" horiz-adv-x="1000" />

<glyph glyph-name="ellipsis-ver" unicode="&#xe830;" d="M500 848c53 0 100-40 100-100s-47-100-100-100-100 47-100 100 47 100 100 100z m0-400c53 0 100-40 100-100s-47-100-100-100-100 47-100 100 47 100 100 100z m0-400c53 0 100-47 100-100s-47-100-100-100-100 46-100 100 47 100 100 100z" horiz-adv-x="1000" />

<glyph glyph-name="globe" unicode="&#xe831;" d="M497 850c-276 0-497-221-497-497s221-498 497-498 498 222 498 498l0 0c5 271-221 497-498 497z m0-917c-110 0-215 44-293 121v67c0 16 6 33 17 49 11 17 22 39 22 56 0 38-33 44-55 44-11 0-22 5-33 11 0 11-6 17-11 28-11 27-33 49-61 66 11 221 193 392 414 392 11 0 22 0 33 0 0 0-5 0-5-5-6-11-6-22 0-33l0 0c5-6 5-6 11-12 0 0-6-5-28-16-38-17-66-50-77-89-6-16 0-38 11-49 6-6 11-6 17-6 27 0 49 6 71 22 23 11 50 22 72 22 83 0 144-16 144-44 0-11 0-11-6-11-11-11-44-11-77-11-5 0-17 0-22 0-17 0-33 0-50 11-16 11-38 11-55 11-44 6-94-11-133-44-27-28-38-66-27-105 0-5 0-11 0-17 0-38 44-60 83-60 44 5 82-6 127-22 0-17 5-34 11-50 5-11 5-22 11-33 0-6 0-11-6-17-11-11-16-27-16-44 5-39 22-72 44-99 5-6 11-6 16-6h6c11 6 122 33 122 105 0 17 5 28 16 39 17 11 22 27 22 44 11 33 33 66 55 88 6 11 6 22 0 28l0 0c-33 22-60 55-77 94 11-6 22-11 28-22 5-6 16-11 27-11 22 5 39 16 56 33 60-221-67-448-288-514-38-6-77-11-116-11l0 0z" horiz-adv-x="1000" />

<glyph glyph-name="refresh" unicode="&#xe832;" d="M1000 414v436l-149-149c-193 199-508 199-707 5s-199-513 0-707 514-199 707 0c61 61 110 144 132 227h-132c-66-199-282-299-481-232s-298 281-232 480 282 299 481 232c55-16 105-49 143-88l-198-199h436v-5z" horiz-adv-x="1000" />

<glyph glyph-name="credit-card" unicode="&#xe833;" d="M894 700h-788c-56 0-106-44-106-106l0 0v-61h1000v61c0 56-50 106-106 106l0 0z m-894-594c0-56 44-106 106-106l0 0h788c56 0 106 44 106 106l0 0v322h-1000v-322z m644 155c28 28 73 33 106 17 6 0 11 5 17 5l0 0h5l0 0c6 0 6 0 11 0l0 0h6l0 0h5c45 0 84-39 84-83s-39-83-84-83h-5l0 0h-6l0 0c-5 0-5 0-11 0l0 0h-5l0 0c-6 0-11 5-17 5-39-22-89-11-111 34-22 38-17 77 5 105l0 0z m-500-11h167c11 0 22-11 22-22 0-11-11-17-22-22h-167c-11 0-22 11-22 22 6 11 11 22 22 22z m0-83h289c11 0 23-6 23-23 0-11-6-22-23-22l0 0h-289c-11 0-22 6-22 22s11 23 22 23l0 0 0 0z" horiz-adv-x="1000" />

<glyph glyph-name="chek--circled" unicode="&#xe834;" d="M500 850c-277 0-500-223-500-500s223-500 500-500 500 223 500 500-223 500-500 500z m-68-714l-173 173 73 73 100-100 236 236 73-72-309-310z" horiz-adv-x="1000" />

<glyph glyph-name="alert--triangle" unicode="&#xe835;" d="M981 103l-354 646c-45 69-133 95-203 50-19-12-38-31-51-50l-354-646c-38-69-19-164 51-202 25-13 50-19 76-19h708c83 0 146 63 146 145 0 26-6 51-19 76z m-481-107c-32 0-57 25-57 57 0 31 25 57 57 57s57-26 57-57c0-32-25-57-57-57z m57 234c0-32-25-57-57-57s-57 25-57 57v291c0 32 25 57 57 57s57-25 57-57v-291z" horiz-adv-x="1000" />

<glyph glyph-name="alert--circle" unicode="&#xe836;" d="M500 850c-278 0-500-221-500-500 0-278 222-500 500-500 279 0 500 222 500 500v0c0 279-221 500-500 500z m0-810c-32 0-63 25-63 63 0 32 25 64 63 64 32 0 63-26 63-64 0-38-31-63-63-63z m63 247c0-32-25-64-63-64-32 0-63 26-63 64v310c0 32 25 63 63 63 32 0 63-25 63-63v-310z" horiz-adv-x="1000" />

<glyph glyph-name="calendar" unicode="&#xe837;" d="M813 806v-131h-57v131h-131v-131h-62v131h-125v-131h-63v131h-125v-131h-62v131h-188v-206h1000v206h-187z m-625 44h62v-44h-62v44z m187 0h63v-44h-63v44z m188 0h62v-44h-62v44z m193 0h57v-44h-57v44z m-756-306v-694h1000v694h-1000z m306-575h-162v162h162v-162z m0 300h-162v156h162v-156z m275-300h-162v162h162v-162z m0 300h-162v156h162v-156z m275-300h-162v162h162v-162z m0 300h-162v156h162v-156z" horiz-adv-x="1000" />

<glyph glyph-name="building" unicode="&#xe838;" d="M868 511v191l-731 148v-339h-137v-661h1005v661z m-731-602h-78v542h78z m295 0v172h141v-172z m377 0h-177v232h-260v-232h-176v869l613-124v-745z m136 0h-77v542h77z m-423 518h194v193h-194z m59 134h75v-75h-75z m-292-134h194v193h-194z m59 134h75v-75h-75z m-59-367h194v193h-194z m59 134h75v-75h-75z m174-134h194v193h-194z m59 134h75v-75h-75z" horiz-adv-x="1004" />

<glyph glyph-name="user--circled" unicode="&#xe839;" d="M961 545a502 502 0 1 1 39-195 498 498 0 0 1-39 195z m-461-636a439 439 0 0 0-269 92c23 128 137 225 269 225 132 0 246-97 269-225a439 439 0 0 0-269-92z m-167 543c0 92 75 167 167 167s167-75 167-167-75-167-167-167-167 75-167 167z m486-406a333 333 0 0 1-196 216 228 228 0 0 1 37 30 226 226 0 1 1-320 0 228 228 0 0 1 38-30 333 333 0 0 1-197-216c-75 80-122 186-122 304 0 243 198 441 441 441s441-198 441-441c0-118-47-224-122-304z" horiz-adv-x="1000" />

<glyph glyph-name="eye" unicode="&#xe83b;" d="M500 486c-75 0-136-61-136-136s61-136 136-136 137 61 137 136-62 136-137 136z m0 205c-227 0-421-141-500-341 79-200 273-341 500-341 228 0 422 141 500 341-79 200-272 341-500 341z m0-568c-125 0-227 102-227 227s102 227 227 227 228-102 228-227-103-227-228-227z" horiz-adv-x="1000" />

<glyph glyph-name="eye--hidden" unicode="&#xe83c;" d="M492 486l144-143 0 7c0 75-61 137-136 137l-8-1z m8 92c126 0 228-102 228-228 0-29-6-57-17-83l133-133c69 58 123 132 156 216-78 200-272 341-500 341-64 0-124-11-181-32l98-98c26 10 54 17 83 17z m-455 123l104-103 21-21c-75-59-134-136-170-227 79-200 273-341 500-341 71 0 138 14 199 39l20-20 132-133 58 58-806 806-58-58z m252-251l70-70c-2-10-3-20-3-30 0-75 61-136 136-136 10 0 20 1 30 3l70-70c-30-15-64-24-100-24-125 0-227 102-227 227 0 36 9 70 24 100z" horiz-adv-x="1000" />

<glyph glyph-name="file-add" unicode="&#xe83d;" d="M600 850h-400c-55 0-100-45-100-100 0 0 0 0 0 0l0-800c0-55 45-100 100-100 0 0 0 0 0 0h600c55 0 100 45 100 100v600l-300 300z m100-700h-150v-150h-100v150h-150v100h150v150h100v-150h150v-100z m-150 350v225l225-225-225 0z" horiz-adv-x="1000" />
</font>
</defs>
</svg>
