<svg xmlns="http://www.w3.org/2000/svg" width="263" height="71" viewBox="0 0 263 71"><g transform="translate(-368 -681)"><rect width="263" height="71" rx="6" transform="translate(368 681)" fill="#2a2a2a"/><g transform="translate(-1593.215 -138)"><path d="M1996.24,841.344l-11.312,20.311a5.581,5.581,0,0,0,4.876,8.3h15.978V859.8h-8.207l5.935-10.656h3.286v20.8h10.148v-20.8h7.611V839h-24.326A4.569,4.569,0,0,0,1996.24,841.344Zm26.285,5.774h-7.611v20.8h-6.089v-20.8h-6.509l-8.2,14.715h9.631v6.089H1989.8a3.552,3.552,0,0,1-3.1-5.28l11.312-20.311a2.539,2.539,0,0,1,2.216-1.3h22.3Z" fill="#d1050c"/><path d="M2292.906,862.119a1.415,1.415,0,0,1-1.331-.646,3.847,3.847,0,0,1-.247-1.708v-7.157h4.26v-5.668h-4.26v-7.684l-7.76,3.975v3.709h-2.853v5.668h2.853v7.1a13.222,13.222,0,0,0,.656,4.891,4.515,4.515,0,0,0,2.025,2.25,9.327,9.327,0,0,0,4.26.741,25.222,25.222,0,0,0,5.364-.627l-.571-5.344A8.512,8.512,0,0,1,2292.906,862.119Z" transform="translate(-146.053 -0.127)" fill="#d1050c"/><path d="M2326.97,853.5a11.655,11.655,0,0,0-8.426,3,10.105,10.105,0,0,0-3.119,7.618,9.925,9.925,0,0,0,3.689,8.026,11.994,11.994,0,0,0,7.874,2.473q5.458,0,8.549-2.976a11,11,0,0,0,.6-14.616Q2333.037,853.5,2326.97,853.5Zm2.805,14.607a3.584,3.584,0,0,1-5.5-.019,6.1,6.1,0,0,1-1.094-3.994,6.032,6.032,0,0,1,1.1-3.966,3.509,3.509,0,0,1,2.8-1.3,3.377,3.377,0,0,1,2.682,1.284,5.957,5.957,0,0,1,1.084,3.909A6.305,6.305,0,0,1,2329.775,868.108Z" transform="translate(-163.15 -7.143)" fill="#d1050c"/><path d="M2388.043,855.412a6.608,6.608,0,0,0-5.031-1.911,8.611,8.611,0,0,0-4.032.865,10.734,10.734,0,0,0-3.271,2.882v-3.291H2368.5v20.2h7.741v-9.7a6.2,6.2,0,0,1,.875-3.823,2.813,2.813,0,0,1,2.282-1.065,2.513,2.513,0,0,1,1.978.789,4.04,4.04,0,0,1,.7,2.691v11.108h7.779V861.318Q2389.86,857.324,2388.043,855.412Z" transform="translate(-189.295 -7.143)" fill="#d1050c"/><path d="M2112.3,853.891a32.052,32.052,0,0,0-5.591-.39,23.668,23.668,0,0,0-4.033.323,9.5,9.5,0,0,0-2.929.913,8.581,8.581,0,0,0-.766.478h16.439A7.345,7.345,0,0,0,2112.3,853.891Z" transform="translate(-56.534 -7.143)" fill="#d1050c"/><path d="M2122.675,891.283c.027.111.054.213.081.3a7.341,7.341,0,0,0,.571,1.189h7.265a12.626,12.626,0,0,1-.621-1.484Z" transform="translate(-68.204 -25.754)" fill="#d1050c"/><path d="M2095.864,891.55a7.99,7.99,0,0,0,5.487,1.673,12.585,12.585,0,0,0,4.774-.837,8.718,8.718,0,0,0,1.858-1.1h-12.391C2095.681,891.373,2095.767,891.463,2095.864,891.55Z" transform="translate(-54.863 -25.754)" fill="#d1050c"/><path d="M2105.408,860.746a3.419,3.419,0,0,1,1.837.4h8.007c-.057-.187-.113-.374-.182-.564a6.471,6.471,0,0,0-.918-1.719h-18.623a5.448,5.448,0,0,0-.362.445,6.922,6.922,0,0,0-.874,1.838h8.662A6.222,6.222,0,0,1,2105.408,860.746Z" transform="translate(-54.223 -9.785)" fill="#d1050c"/><path d="M2101.5,865.349h-7.809c-.016.071-.036.134-.052.208l7.4.78A4.961,4.961,0,0,1,2101.5,865.349Z" transform="translate(-53.899 -12.979)" fill="#d1050c"/><path d="M2120.395,880.379c-.039.076-.093.147-.139.22h8.174v-2.283h-7.582A4.887,4.887,0,0,1,2120.395,880.379Z" transform="translate(-67.012 -19.367)" fill="#d1050c"/><path d="M2118,866.507a26.179,26.179,0,0,1-2.739.923c-.209.057-.481.125-.81.2h11.118v-.858a7.8,7.8,0,0,0-.138-1.425h-7.569A4.373,4.373,0,0,1,2118,866.507Z" transform="translate(-64.154 -12.979)" fill="#d1050c"/><path d="M2115.99,871.832h-15.868l-.089.018q-3.634.722-4.984,2.206c-.017.019-.031.04-.048.059h11.856q.8-.243,1.563-.516v.516h7.57Z" transform="translate(-54.572 -16.173)" fill="#d1050c"/><path d="M2114.753,885.275V884.8h-9.14a5.212,5.212,0,0,1-.474.3,4.815,4.815,0,0,1-2.406.628,2.694,2.694,0,0,1-1.874-.581,1.934,1.934,0,0,1-.3-.352h-8.067a5.163,5.163,0,0,0,.766,2.283h21.6A13.071,13.071,0,0,1,2114.753,885.275Z" transform="translate(-53.335 -22.561)" fill="#d1050c"/><path d="M2100.211,880.465a1.94,1.94,0,0,1,.647-1.427,4.1,4.1,0,0,1,1.342-.722h-9.134a5.618,5.618,0,0,0-.6,2.283h7.755C2100.221,880.554,2100.211,880.512,2100.211,880.465Z" transform="translate(-53.324 -19.367)" fill="#d1050c"/><path d="M2166.321,854.813a14.911,14.911,0,0,0-6.847-1.312,12.624,12.624,0,0,0-6.815,1.715h14.355C2166.791,855.074,2166.561,854.938,2166.321,854.813Z" transform="translate(-82.974 -7.143)" fill="#d1050c"/><path d="M2156.7,860.727a3.821,3.821,0,0,1,1.83.422h8.453a8.889,8.889,0,0,0-1.763-2.283h-16.982c-.078.071-.163.133-.24.207a9.659,9.659,0,0,0-1.625,2.076h8.571A3.636,3.636,0,0,1,2156.7,860.727Z" transform="translate(-79.879 -9.785)" fill="#d1050c"/><path d="M2158.772,884.914a4.4,4.4,0,0,1-2.168.571,3.741,3.741,0,0,1-2.246-.685h-8.337c.09.17.183.339.284.5a10.6,10.6,0,0,0,1.362,1.779h18.02a12.576,12.576,0,0,0,1.783-2.283h-8.529C2158.885,884.838,2158.828,884.882,2158.772,884.914Z" transform="translate(-79.704 -22.561)" fill="#d1050c"/><path d="M2152.82,892.092a14.518,14.518,0,0,0,6.315,1.132,15.342,15.342,0,0,0,7.094-1.321,8.691,8.691,0,0,0,.978-.619h-15.7A8.411,8.411,0,0,0,2152.82,892.092Z" transform="translate(-82.406 -25.754)" fill="#d1050c"/><path d="M2143.666,871.832c-.04.42-.065.849-.065,1.292,0,.338.016.667.039.991h23.354a20.127,20.127,0,0,0-.128-2.283Z" transform="translate(-78.511 -16.173)" fill="#d1050c"/><path d="M2152.582,865.386c.01-.013.02-.024.03-.037h-7.923a10.263,10.263,0,0,0-.7,2.283h7.764A4.916,4.916,0,0,1,2152.582,865.386Z" transform="translate(-78.705 -12.979)" fill="#d1050c"/><path d="M2173.312,867.632h7.66a11.912,11.912,0,0,0-.635-2.283h-7.8A5.555,5.555,0,0,1,2173.312,867.632Z" transform="translate(-92.763 -12.979)" fill="#d1050c"/><path d="M2173.556,882.667h1.794l-1.665-.154C2173.642,882.568,2173.6,882.614,2173.556,882.667Z" transform="translate(-93.267 -21.434)" fill="#d1050c"/><path d="M2151.64,878.316h-7.735a10.614,10.614,0,0,0,.61,2.283h7.84A5.562,5.562,0,0,1,2151.64,878.316Z" transform="translate(-78.662 -19.367)" fill="#d1050c"/><path d="M2196.865,874.115h7.86a15.742,15.742,0,0,1,.327-2.283h-8.187Z" transform="translate(-104.749 -16.173)" fill="#d1050c"/><rect width="7.779" height="1.484" transform="translate(2092.116 865.529)" fill="#d1050c"/><path d="M2221.392,865.918l.248-.569h-2.4A6.129,6.129,0,0,1,2221.392,865.918Z" transform="translate(-115.772 -12.979)" fill="#d1050c"/><path d="M2196.865,880.6h7.779v-.99c0-.453.01-.88.026-1.293h-7.8Z" transform="translate(-104.749 -19.367)" fill="#d1050c"/><rect width="7.779" height="2.283" transform="translate(2092.116 862.239)" fill="#d1050c"/><path d="M2214.515,854.309a4.788,4.788,0,0,0-.912.907h7.125l.283-.65a8.179,8.179,0,0,0-3.748-1.065A4.55,4.55,0,0,0,2214.515,854.309Z" transform="translate(-112.994 -7.143)" fill="#d1050c"/><path d="M2204.112,859.909v-1.044h-7.247v2.283h14.188l.992-2.283h-7.374C2204.483,859.182,2204.3,859.529,2204.112,859.909Z" transform="translate(-104.749 -9.785)" fill="#d1050c"/><path d="M2196.865,867.632h8.472a4.725,4.725,0,0,1,.5-1.03,2.672,2.672,0,0,1,2.329-1.253h-11.306Z" transform="translate(-104.749 -12.979)" fill="#d1050c"/><rect width="7.246" height="1.259" transform="translate(2092.116 846.814)" fill="#d1050c"/><path d="M2246.326,853.5a12.611,12.611,0,0,0-6.773,1.715h13.765A13.182,13.182,0,0,0,2246.326,853.5Z" transform="translate(-125.777 -7.143)" fill="#d1050c"/><path d="M2245.99,893.223a12.673,12.673,0,0,0,7.245-1.94h-14.4A12.447,12.447,0,0,0,2245.99,893.223Z" transform="translate(-125.422 -25.754)" fill="#d1050c"/><path d="M2237.909,873.124a10.479,10.479,0,0,1,.076-1.292h-7.762a12.543,12.543,0,0,0-.074,1.312c0,.331.016.654.041.972h7.765C2237.927,873.8,2237.909,873.474,2237.909,873.124Z" transform="translate(-121.144 -16.173)" fill="#d1050c"/><path d="M2239.16,880.313a4.511,4.511,0,0,1-.9-2h-7.79a9.968,9.968,0,0,0,.664,2.283h8.294C2239.335,880.51,2239.246,880.415,2239.16,880.313Z" transform="translate(-121.302 -19.367)" fill="#d1050c"/><path d="M2258.188,880.331c-.08.1-.164.183-.249.268h8.266a10.283,10.283,0,0,0,.661-2.283h-7.794A4.485,4.485,0,0,1,2258.188,880.331Z" transform="translate(-134.833 -19.367)" fill="#d1050c"/><path d="M2252.322,859.662a9.429,9.429,0,0,0-.794-.8h-16.482c-.1.093-.216.177-.317.273a10.138,10.138,0,0,0-1.616,2.01h20.29A9.88,9.88,0,0,0,2252.322,859.662Z" transform="translate(-122.604 -9.785)" fill="#d1050c"/><path d="M2257.805,865.946a4.28,4.28,0,0,1,.829,1.686h7.834a10.085,10.085,0,0,0-.7-2.283h-8.59A3.985,3.985,0,0,1,2257.805,865.946Z" transform="translate(-134.46 -12.979)" fill="#d1050c"/><path d="M2239.226,865.965a3.949,3.949,0,0,1,.655-.616h-8.556a10.035,10.035,0,0,0-.742,2.283h7.81A4.305,4.305,0,0,1,2239.226,865.965Z" transform="translate(-121.359 -12.979)" fill="#d1050c"/><path d="M2260.417,871.832a10.5,10.5,0,0,1,.067,1.216c0,.379-.019.73-.048,1.067h7.78c.029-.355.046-.716.046-1.086,0-.409-.024-.806-.061-1.2Z" transform="translate(-136.054 -16.173)" fill="#d1050c"/><path d="M2232.771,884.8a10.014,10.014,0,0,0,1.825,2.283h16.924c.01-.01.023-.019.034-.029a9.959,9.959,0,0,0,1.753-2.253h-20.536Z" transform="translate(-122.436 -22.561)" fill="#d1050c"/></g></g></svg>