<svg xmlns="http://www.w3.org/2000/svg" width="186.583" height="26.28" viewBox="0 0 186.583 26.28"><g transform="translate(-1924.557 -1021.846)"><rect width="7.358" height="26.279" transform="translate(1954.516 1021.846)"/><path d="M1974.518,1021.846a9.461,9.461,0,0,0-9.46,9.46v16.819h7.358v-16.819a2.1,2.1,0,0,1,4.2,0v16.819h7.358v-16.819A9.461,9.461,0,0,0,1974.518,1021.846Z" transform="translate(2.072 0)"/><rect width="7.358" height="26.279" transform="translate(2045.968 1021.846)"/><path d="M1937.7,1021.846h-13.139v26.279h7.358V1029.2h5.781a5.781,5.781,0,1,1,0,11.563h-3.679v7.358h3.679a13.14,13.14,0,1,0,0-26.279Z" transform="translate(0 0)" fill="#181398"/><path d="M2065.2,1029.2a5.789,5.789,0,0,1,5.682,4.73h7.406a13.14,13.14,0,1,0,0,2.1h-7.406a5.78,5.78,0,1,1-5.682-6.833Z" transform="translate(6.524 0)"/><path d="M1996.518,1021.846a9.461,9.461,0,0,0-9.46,9.46v16.819h7.358v-5.781h2.1v-7.358h-2.1v-3.679a2.1,2.1,0,1,1,4.2,0v16.819h7.358v-16.819A9.46,9.46,0,0,0,1996.518,1021.846Z" transform="translate(3.198 0)"/><path d="M2028.5,1021.846a8.888,8.888,0,0,1-10.512,0,8.936,8.936,0,0,0-8.935,8.935v17.344h7.358v-17.344a1.577,1.577,0,0,1,3.154,0v17.344h7.358v-17.344a1.577,1.577,0,0,1,3.154,0v17.344h7.358v-17.344A8.935,8.935,0,0,0,2028.5,1021.846Z" transform="translate(4.324 0)"/><path d="M2103.132,1021.846h-7.358l-7.358,12.614v-12.614h-7.358v26.279h7.358v-12.614l7.358,12.614h7.358l-7.664-13.14Z" transform="translate(8.008 0)" fill="#8a090c"/></g></svg>