<svg xmlns="http://www.w3.org/2000/svg" width="103.182" height="90.729" viewBox="0 0 103.182 90.729"><g transform="translate(0 0.038)"><g transform="translate(0 -0.038)"><path d="M132.1,98.686h25.309a15.2,15.2,0,0,0,1.4-2.356H133.837A19.432,19.432,0,0,1,132.1,98.686Z" transform="translate(-60.386 -44.005)" fill="#e4332d"/><path d="M54.907,96.948c-14.869,4.093-33.23,1.167-38.691-1.411l8.04-9.886S36.7,93.527,47.317,93.527s22.758-3.035,22.758-11.08c0-7.09-6.373-6.645-14.853-9.587H0c.945,20.586,23.4,36.992,50.96,36.992,19.039,0,35.64-7.779,44.4-19.348H69.223C66.3,92.86,61.916,95.015,54.907,96.948Z" transform="translate(0 -33.277)" fill="#e4332d"/><path d="M45.466,64.19H.19C.1,64.977.033,65.759,0,66.546H49.4A17.742,17.742,0,0,1,45.466,64.19Z" transform="translate(0 -29.313)" fill="#e4332d"/><path d="M54.64,0C33.864,0,15.992,9.365,8.05,22.692H46.567c.271-.391.575-1.086.917-1.629C52.371,13.328,63.57,6.8,73,6.8s12.437,4.4,7.888,9.859S74.059,23.784,71.936,25c1.971-3.339,2.579-5.309,2.579-8.648S70.872,12.1,66.779,12.1,56,14.815,53.272,18.93s-1.819,9.419,3.643,10.928,15.934,3.74,19.571,6.015a7.66,7.66,0,0,1,3.2,4.468h25.852c.043-.787.065-1.363.065-2.009C105.622,17.215,82.794,0,54.64,0Z" transform="translate(-3.68 0.029)" fill="#e4332d"/><path d="M43.6,46.5H4.763A15.326,15.326,0,0,0,3.71,48.851H43.161A10.369,10.369,0,0,1,43.6,46.5Z" transform="translate(-1.696 -21.227)" fill="#e4332d"/><path d="M42.253,55.17H1.678c-.233.782-.44,1.764-.608,2.351H43.5a5.087,5.087,0,0,1-1.249-2.351Z" transform="translate(-0.489 -25.19)" fill="#e4332d"/><path d="M140.71,81.021h24.761c.185-.782.337-1.569.461-2.351H140.791A11.362,11.362,0,0,1,140.71,81.021Z" transform="translate(-64.321 -35.932)" fill="#e4332d"/><path d="M138.2,89.1c-.152.315-.3.543-.461.923h24.782c.337-.977.635-1.569.9-2.351H138.788C138.619,88.061,138.424,88.615,138.2,89.1Z" transform="translate(-62.964 -40.047)" fill="#e4332d"/><path d="M111.244,150.044c-1.781-.369-3.122-.646-3.122-1.943,0-1.211.955-1.906,2.606-1.906s2.714.679,2.861,2.345h1.477c-.1-2.476-1.781-3.61-4.224-3.61-2.074,0-4.18.923-4.18,3.257s2.172,2.714,4.017,3.16,3.35.727,3.35,2.215c0,1.629-1.52,2.106-2.866,2.106-1.846,0-3.366-.727-3.431-2.818H106.26c0,2.785,2.02,4.061,4.772,4.061,2.2,0,4.484-.939,4.484-3.5C115.516,151.016,113.122,150.435,111.244,150.044Z" transform="translate(-48.574 -66.221)"/><rect width="1.52" height="11.525" transform="translate(67.589 78.937)"/><path d="M137.352,154.7l-6.086-9.354H129.6v11.525h1.455V147.63l6.053,9.245h1.716V145.35h-1.471Z" transform="translate(-59.243 -66.413)"/><path d="M153.337,150.559V151.8h3.692c-.065,2.22-1.2,3.871-3.626,3.871s-4.066-1.846-4.066-4.728,1.574-4.772,4.082-4.772a3.105,3.105,0,0,1,3.333,2.508h1.471c-.206-2.492-2.508-3.8-4.821-3.8-3.594,0-5.6,2.714-5.6,6.1,0,3.545,2.22,5.939,5.489,5.939a4.392,4.392,0,0,0,3.724-1.715l.385,1.444h.972v-6.091Z" transform="translate(-67.562 -66.198)"/><path d="M29.877,145.35l-3.415,5.489L23.01,145.35H21.18l4.484,6.813v4.712h1.509v-4.712l4.452-6.813Z" transform="translate(-9.682 -66.413)"/><path d="M40.113,145.35,35.58,156.875h1.629l1.314-3.529h4.837l1.281,3.529h1.7l-4.5-11.525Zm-1.167,6.781,1.992-5.342,1.96,5.326Z" transform="translate(-16.264 -66.413)"/><path d="M50.04,146.675h3.871v10.2h1.52v-10.2H59.3V145.35H50.04Z" transform="translate(-22.874 -66.413)"/><path d="M183.6,8.785a1.628,1.628,0,0,0-.376-.235,1.633,1.633,0,0,0,1.006-.436,1.187,1.187,0,0,0,.335-.845,1.342,1.342,0,0,0-.2-.711,1.053,1.053,0,0,0-.523-.446,2.787,2.787,0,0,0-.983-.121h-2.09v4.7h.624V8.6h.724a2.09,2.09,0,0,1,.335.02.932.932,0,0,1,.285.127,1.342,1.342,0,0,1,.315.312c.117.151.268.369.449.651l.647.973h.785l-.822-1.281A3.2,3.2,0,0,0,183.6,8.785Zm-.852-.721H181.4V6.5h1.489a1.147,1.147,0,0,1,.768.215.708.708,0,0,1,.242.55.768.768,0,0,1-.124.423.691.691,0,0,1-.366.282A1.982,1.982,0,0,1,182.746,8.064Z" transform="translate(-84.038 -3.979)"/><path d="M178.36,0a4.36,4.36,0,1,0,4.36,4.36A4.36,4.36,0,0,0,178.36,0Zm0,8.218a3.857,3.857,0,1,1,3.857-3.857,3.857,3.857,0,0,1-3.857,3.857Z" transform="translate(-79.539)"/></g></g></svg>