<svg xmlns="http://www.w3.org/2000/svg" width="162.226" height="58.544" viewBox="0 0 162.226 58.544"><g transform="translate(0)"><g transform="translate(0 0)"><path d="M21.822,45.026a165.267,165.267,0,0,0,41.31,7.865,244.031,244.031,0,0,0,41.358-.453c1.838-.174,3.713-.453,5.54-.618V15.99l5.27-.027v3.459c.546-.523,1.327-2.925,4.088-3.81a7.346,7.346,0,0,1,6.316.933c3.027,2.169,4.528,6.189,4.528,11.4-.014,5.1-1.374,9.3-4.163,11.681a6.993,6.993,0,0,1-8.8.061,6.211,6.211,0,0,1-.926-1.08c-.278-.371-.509-.869-.786-1.2l-.027,13.628c2.914-.344,8.716-1.524,11.663-2.2,9.755-2.228,22.208-6.135,29.33-12.148,2.051-1.73,4.9-4.5,5.589-8.249a10.172,10.172,0,0,0-2.117-7.923,14.745,14.745,0,0,0-1.619-1.9c-.328-.3-.534-.566-.865-.853a34.882,34.882,0,0,0-7.176-4.94A65.46,65.46,0,0,0,140.7,8.635C126.063,3.561,110.347,1.345,93.611.369A228.081,228.081,0,0,0,41.882,3.414c-.118.435-.041,10.414-.041,11.772a38.091,38.091,0,0,0,.025,3.914c.969-2.359,3.255-3.978,6.629-3.808a6.627,6.627,0,0,1,6.112,4.478c.906,2.588.6,7.018.6,10.036,0,.874.054,9.977-.025,10.588H49.747c-.129-1.791-.014-4.03-.014-5.859V28.649c0-3.706.623-8.258-3.957-7.905a4,4,0,0,0-3.38,2.515c-.711,1.567-.582,3.45-.582,5.318v5.886c0,1.872.106,4.075-.011,5.915l-5.433.016V4.533a50.178,50.178,0,0,0-5,1.17C22,8.125,8.146,12.888,2.688,20.124-6.763,32.652,12.158,41.718,21.822,45.026Zm68.3-29.049.023,3.509a10.134,10.134,0,0,1,2.377-2.993,6.99,6.99,0,0,1,10.457,3.133c.987,2.422.659,7.208.659,10.113,0,.874.054,10.04-.02,10.663H98.188c-.129-1.811-.014-4.075-.014-5.927V28.588c0-3.622.566-8.222-3.953-7.828a4.026,4.026,0,0,0-3.373,2.59c-.668,1.637-.541,3.4-.541,5.311,0,.973.057,11.059-.02,11.738l-5.433-.018V15.954ZM72.985,21.808c-.835-1.605-4.272-1.721-5.537-.575-.786.713-.849,1.383-1.073,2.676H61.147a11.759,11.759,0,0,1,1.345-5.046c1.811-3.194,5.671-3.849,9.227-3.511A8.693,8.693,0,0,1,76.4,17.113a6.167,6.167,0,0,1,2.2,4.245c.174,1.569.063,10.5.063,12.827,0,1.881-.244,4.555,1.168,5.3l-.018.921-5.834-.016a10.436,10.436,0,0,1-.5-2.665c-.226.036-.091.023-.247.181a19.468,19.468,0,0,1-1.673,1.628c-4.134,3.26-10.479,1.881-11.093-4.539-.417-4.353,1.476-8.136,6.1-8.91,1.447-.258,5.3-.711,6.135-1.39A2.327,2.327,0,0,0,72.985,21.808Z" transform="translate(-0.089 -0.024)" fill="#384b99" fill-rule="evenodd"/><path d="M162.2,136.957a.853.853,0,0,0-.048-.2l-.052-.125c-.05.079,0-.038-.084.168a1.168,1.168,0,0,0-.054.172,11.027,11.027,0,0,1-1.983,4.249c-6.3,8.408-21.072,12.924-31.039,15.394-14.663,3.645-32,5.168-47.982,5.159-16.25,0-32.982-1.585-47.921-5.207-8.68-2.108-23.132-6.674-29.486-13.735C.194,139.105.52,137.229.1,136.4a7.865,7.865,0,0,0,.192,3.09,13.892,13.892,0,0,0,3.889,6.289A18.812,18.812,0,0,0,6.007,147.4c.654.507,1.218.967,1.927,1.44a59.541,59.541,0,0,0,13.7,6.66c18.065,6.293,39.579,8.553,59.313,8.569,20.965.014,50.6-2.925,68.925-12.589,2.117-1.116,6.4-3.749,8.023-5.594.548-.625.944-.906,1.641-1.8a13.41,13.41,0,0,0,1.358-2.022A10.6,10.6,0,0,0,162.2,136.957Z" transform="translate(0.001 -105.527)" fill="#384b99" fill-rule="evenodd"/><path d="M514.4,107.076c2.954-.582,3.951-4.829,3.787-8.279s-1.551-7.283-5.433-6.527c-3.561.695-3.925,5.207-3.824,8.249a9.183,9.183,0,0,0,1.279,4.729A4,4,0,0,0,514.4,107.076Z" transform="translate(-393.706 -71.313)" fill="#384b99" fill-rule="evenodd"/><path d="M290.69,131.038c0,5.173,7.43,3.115,7.43-1.791V126.06c-.364.181-.55.376-1,.561C294.4,127.744,290.69,127.09,290.69,131.038Z" transform="translate(-224.882 -97.528)" fill="#384b99" fill-rule="evenodd"/></g></g></svg>