<svg xmlns="http://www.w3.org/2000/svg" width="192" height="38.982" viewBox="0 0 192 38.982"><rect width="3.635" height="14.975" transform="translate(46.853 12.719)"/><path d="M476.587,112.77H470.56v14.975H474.2v-5.556h1.985a4.016,4.016,0,0,0,3.263-1.277,5.36,5.36,0,0,0,1.069-3.545,5.231,5.231,0,0,0-.981-3.4A3.6,3.6,0,0,0,476.587,112.77Zm-.024,5.92a1.937,1.937,0,0,1-1.473.465H474.2v-3.341h1.032a1.645,1.645,0,0,1,1.385.491,1.939,1.939,0,0,1,.368,1.2,1.692,1.692,0,0,1-.422,1.19Z" transform="translate(-417.486 -100.051)" fill-rule="evenodd"/><path d="M581.95,121.882l-1.84-9.112h-4.77v14.975h2.97v-11.42l2.285,11.42h2.689l2.289-11.42v11.42h2.971V112.77h-4.768Z" transform="translate(-510.447 -100.051)" fill-rule="evenodd"/><rect width="4.739" height="3.218" transform="translate(79.569 20.626)"/><path d="M754.01,116.468h3.7v11.277h3.627V116.468h3.7v-3.7H754.01Z" transform="translate(-668.965 -100.051)" fill-rule="evenodd"/><path d="M863.321,110.51a5.346,5.346,0,0,0-4.46,2.043,9.059,9.059,0,0,0-1.6,5.711,10.4,10.4,0,0,0,.809,4.372,5.713,5.713,0,0,0,2.11,2.554,6.149,6.149,0,0,0,3.287.808,5.471,5.471,0,0,0,3.262-.935,5.9,5.9,0,0,0,2.008-2.614,11.447,11.447,0,0,0,.693-4.306,8.889,8.889,0,0,0-1.579-5.623A5.425,5.425,0,0,0,863.321,110.51Zm1.834,11.053a2.143,2.143,0,0,1-3.6-.02,8.393,8.393,0,0,1,0-6.537,2.036,2.036,0,0,1,1.764-.993,2.09,2.09,0,0,1,1.814.976,5.567,5.567,0,0,1,.668,3.09,6.73,6.73,0,0,1-.643,3.483Z" transform="translate(-760.57 -98.046)" fill-rule="evenodd"/><path d="M990.476,121.056l-4.42-8.286H982.67v14.975h3.411v-8.222l4.4,8.222h3.419V112.77h-3.419Z" transform="translate(-871.835 -100.051)" fill-rule="evenodd"/><path d="M1107.125,121.4h5.644v-3.054h-5.644v-2.38h6.085v-3.2h-9.72v14.975h9.9v-3.39h-6.261Z" transform="translate(-979.027 -100.051)" fill-rule="evenodd"/><path d="M1218.278,122.458a4.4,4.4,0,0,0-.58-.79,3.326,3.326,0,0,0-.944-.552,3.5,3.5,0,0,0,2.419-2.058,5.1,5.1,0,0,0,.416-2.151,4.991,4.991,0,0,0-.545-2.425,2.915,2.915,0,0,0-1.432-1.365,7.037,7.037,0,0,0-2.57-.368H1209v14.977h3.642V121.65h.32a1.3,1.3,0,0,1,.889.347,3.5,3.5,0,0,1,.656,1.154l1.937,4.576h4.1l-1.756-4.339A6.206,6.206,0,0,0,1218.278,122.458Zm-2.559-4.312a.961.961,0,0,1-.589.47,4.378,4.378,0,0,1-.961.2h-1.53v-3.045h1.594a1.827,1.827,0,0,1,1.354.388,1.571,1.571,0,0,1,.36,1.113A1.644,1.644,0,0,1,1215.719,118.146Z" transform="translate(-1072.637 -100.033)" fill-rule="evenodd"/><ellipse cx="2.845" cy="2.842" rx="2.845" ry="2.842" transform="translate(20.316 22.74)"/><ellipse cx="2.845" cy="2.842" rx="2.845" ry="2.842" transform="translate(28.442 22.74)"/><ellipse cx="2.845" cy="2.842" rx="2.845" ry="2.842" transform="translate(36.52 22.815)"/><ellipse cx="2.842" cy="2.845" rx="2.842" ry="2.845" transform="translate(33.312 21.921) rotate(-89.89)"/><ellipse cx="2.842" cy="2.845" rx="2.842" ry="2.845" transform="translate(25.186 21.921) rotate(-89.89)"/><ellipse cx="2.845" cy="2.842" rx="2.845" ry="2.842" transform="translate(29.255 9.746)"/><ellipse cx="2.845" cy="2.842" rx="2.845" ry="2.842" transform="translate(149.527 9.746)"/><path d="M1400.625,92.095a2.842,2.842,0,1,0-2.844-2.842A2.842,2.842,0,0,0,1400.625,92.095Z" transform="translate(-1240.125 -76.664)" fill-rule="evenodd"/><path d="M1472.651,86.41a2.842,2.842,0,1,0,2.844,2.843A2.842,2.842,0,0,0,1472.651,86.41Z" transform="translate(-1304.03 -76.664)" fill-rule="evenodd"/><ellipse cx="2.845" cy="2.842" rx="2.845" ry="2.842" transform="translate(162.529 16.243)"/><ellipse cx="2.842" cy="2.845" rx="2.842" ry="2.845" transform="translate(154.392 21.921) rotate(-89.89)"/><ellipse cx="2.845" cy="2.842" rx="2.845" ry="2.842" transform="translate(158.465 22.74)"/><path d="M24.1,0,0,38.982H167.9L192,0ZM166.378,34.922H6.542L25.622,4.06H185.454Z" fill-rule="evenodd"/></svg>