<svg xmlns="http://www.w3.org/2000/svg" width="179.922" height="30.65" viewBox="0 0 179.922 30.65"><g transform="translate(0 0)"><path d="M126.411,13.72a101.565,101.565,0,0,0,1.181,16.244h-7.649s-1.743-2.067-3.662-4.43c-1.108-1.373-12.552-16.244-13.719-18-.443-.62-1.122-.369-1.181.384s-.5,8.181-.31,13.807c-.162-4.858,0,6.35,1.063,8.24H94.16c1.152-2.112,1.063-12.877.975-8.137,0-3.825.148-8.993.1-11.282a76.078,76.078,0,0,0-1-10.425H105.28a8.861,8.861,0,0,0,1.3,2.776c8.461,12.522,12.508,18.016,13.6,17.72.31,0,.31-.487.31-1.048s.458-6.453.266-12.389V6.736S120.5,1.419,119.81.12h7.959C126.736,2.025,126.411,11.668,126.411,13.72Z" transform="translate(44.886 0.057)" fill="#004990"/><path d="M85.421,30.579A33.4,33.4,0,0,1,73.607,28.7a7.132,7.132,0,0,1-4.341-6.5c-.251-2.112,0-6.748.118-12.862,0,3.116.236-6.852-1.034-9.215h7.974c-.724,1.344-.96,6.66-.96,6.66a102.083,102.083,0,0,0,0,13.29C75.674,24.7,78.155,25.4,79.9,25.9a23.716,23.716,0,0,0,5.671.679h0a23.88,23.88,0,0,0,5.657-.679c1.727-.5,4.223-1.2,4.518-5.818a102.08,102.08,0,0,0,0-13.29S95.3,1.415,94.576.13h7.974c-1.285,2.363-.989,12.33-1.048,9.215.133,6.114.369,10.75.133,12.862a7.118,7.118,0,0,1-4.43,6.5,33.226,33.226,0,0,1-11.814,1.875Z" transform="translate(32.582 0.062)" fill="#004990"/><path d="M56.776,30.023H64.75c-1.122-2.067-1.477-11.533-1.477-12.389V5.7s-.133-1,1.61-1.181a74.412,74.412,0,0,1,10.869.118L76.092.15H45.45l.192,4.5a74.412,74.412,0,0,1,10.869-.118c1.728.177,1.61,1.181,1.61,1.181V17.649C58.179,18.86,58.076,27.572,56.776,30.023Z" transform="translate(21.666 0.072)" fill="#004990"/><path d="M51.286,4.521a6.232,6.232,0,0,0-1.078,1.654A124.482,124.482,0,0,0,44.3,18.889c-2.112,5.3-3.839,11.164-3.839,11.164H23.952L13.187,21.281c-.989-.812-3.47-2.88-4.09-3.308s-1.92-.5-1.92.62v4.77c0,.162.251,5.331.975,6.675H.251A101.89,101.89,0,0,0,1.477,13.706C1.477,11.653,1.034,2.04,0,.12H8.284c-1.2,2.245-1.078,13.113-.989,7.354,0,4.312,0,4.622.428,4.681A4.253,4.253,0,0,0,10.9,10.841c1.477-1.314,8.2-6.808,8.993-7.561S22.151.932,22.933.12H33.8S28.057,3.59,23.066,7.326s-8.018,6.2-8.506,6.645,0,1.24.93,1.994,11.09,9.082,14.339,10.868a16.406,16.406,0,0,0,2.953,1.713c.546,0,4.991-7.723,8-14.235C41.732,12.244,45.866,2.5,45.733.15H57.547c-.133,2.407,4.017,12.109,4.962,14.161a114.562,114.562,0,0,0,8.86,15.756H62.878S61.15,24.161,59.038,18.9A124.486,124.486,0,0,0,53.132,6.189a6.232,6.232,0,0,0-1.063-1.654.532.532,0,0,0-.384-.162A.5.5,0,0,0,51.286,4.521Z" transform="translate(0 0.057)" fill="#004990"/><path d="M117.84,2.953a2.953,2.953,0,1,1,2.953,2.953,2.953,2.953,0,0,1-2.953-2.953Zm2.953,2.422a2.333,2.333,0,0,0,2.318-2.422,2.348,2.348,0,1,0-2.333,2.363Zm-.62-.753h-.5v-3.4h1.27c.8,0,1.181.3,1.181.945a.871.871,0,0,1-.871.93l.96,1.477h-.576L120.764,3.1h-.591Zm.605-1.875c.428,0,.812,0,.812-.546s-.369-.487-.724-.487h-.694V2.747Z" transform="translate(56.174)" fill="#004990"/></g></svg>