<svg xmlns="http://www.w3.org/2000/svg" width="182.12" height="36.529" viewBox="0 0 182.12 36.529"><g transform="translate(-69.505 -340.352)"><g transform="translate(96.253 364.585)"><path d="M138.387,401.435a25.021,25.021,0,0,1,3.711-.253c1.81,0,3.037.271,3.808.959a2.715,2.715,0,0,1,.754,2.554,3.912,3.912,0,0,1-2.588,3.006l-.007.055c.8.344,1.153,1.159,1.3,2.281a33.373,33.373,0,0,0,.5,3.442h-2.825a13.838,13.838,0,0,1-.441-2.844c-.107-1.521-.571-1.937-1.69-1.955h-.833l-.692,4.8h-2.734Zm1.976,5.251h1.085a2.2,2.2,0,0,0,2.444-1.756c.161-1.122-.517-1.684-1.782-1.7a7.2,7.2,0,0,0-1.261.09Z" transform="translate(-136.649 -401.182)" fill="#8ec43d"/><path d="M176.089,401.409l-1.762,12.205h-2.769l1.761-12.205Z" transform="translate(-157.651 -401.319)" fill="#8ec43d"/><path d="M192.466,413.614l1.761-12.205h3.221l1.889,4.472a30.652,30.652,0,0,1,1.388,4.183h.054a45.531,45.531,0,0,1,.5-5.088l.515-3.567h2.534l-1.761,12.205h-2.9l-1.927-4.709a38.673,38.673,0,0,1-1.5-4.31l-.057.018c-.159,1.611-.372,3.332-.66,5.324l-.53,3.677Z" transform="translate(-170.23 -401.319)" fill="#8ec43d"/><path d="M236.319,403.727h-3.277l.335-2.318h9.376l-.335,2.318h-3.331l-1.426,9.888h-2.769Z" transform="translate(-194.642 -401.319)" fill="#8ec43d"/><path d="M272.644,408.453h-4.488l-.418,2.9h5.014l-.326,2.264h-7.783l1.761-12.205h7.53l-.326,2.263h-4.76l-.367,2.535h4.488Z" transform="translate(-213.653 -401.319)" fill="#8ec43d"/><path d="M298.6,401.435a25.007,25.007,0,0,1,3.71-.253c1.81,0,3.038.271,3.808.959a2.716,2.716,0,0,1,.753,2.554,3.911,3.911,0,0,1-2.587,3.006l-.007.055c.8.344,1.153,1.159,1.3,2.281a33.841,33.841,0,0,0,.5,3.442h-2.822a13.7,13.7,0,0,1-.441-2.844c-.106-1.521-.572-1.937-1.69-1.955h-.833l-.693,4.8h-2.734Zm1.975,5.251h1.086a2.194,2.194,0,0,0,2.443-1.756c.162-1.122-.516-1.684-1.781-1.7a7.213,7.213,0,0,0-1.262.09Z" transform="translate(-233.039 -401.182)" fill="#8ec43d"/></g><g transform="translate(173.713 364.675)"><path d="M342.353,408.942c.158-1.467.361-3.242.616-5.016h-.054c-.6,1.558-1.362,3.3-2.04,4.726l-2.172,4.763h-2.154l-.621-4.727c-.191-1.431-.357-3.169-.416-4.763h-.036c-.31,1.648-.636,3.531-.946,5.053l-.886,4.636h-2.552l2.54-12.205H337.3l.607,4.075c.176,1.412.336,2.933.4,4.364h.054c.549-1.413,1.2-3.025,1.79-4.382l1.889-4.056h3.6l-1.092,12.205h-2.7Z" transform="translate(-331.091 -401.409)" fill="#f79323"/><path d="M380,410.481l-1.322,3.133h-2.858l5.49-12.205h3.62l2.021,12.205h-2.969l-.488-3.133Zm3.393-2.064L383,405.828c-.112-.725-.2-1.63-.276-2.354h-.037c-.284.724-.6,1.648-.9,2.354l-1.1,2.589Z" transform="translate(-357.999 -401.409)" fill="#f79323"/><path d="M415.422,413.614l.721-5-2.814-7.207h3.148l.826,2.933c.253.888.411,1.539.6,2.336h.037c.38-.76.772-1.467,1.259-2.336l1.655-2.933h3.1l-5.046,7.116-.734,5.089Z" transform="translate(-380.568 -401.409)" fill="#f79323"/><path d="M450.571,401.409l-1.761,12.205h-2.771l1.762-12.205Z" transform="translate(-400.247 -401.409)" fill="#f79323"/><path d="M466.946,413.614l1.761-12.205h3.221l1.889,4.472a30.822,30.822,0,0,1,1.388,4.183h.054a45.532,45.532,0,0,1,.5-5.088l.516-3.567h2.534l-1.761,12.205h-2.9l-1.927-4.709a38.679,38.679,0,0,1-1.5-4.31l-.057.018c-.159,1.611-.372,3.332-.66,5.324l-.529,3.677Z" transform="translate(-412.826 -401.409)" fill="#f79323"/></g><rect width="8.527" height="32.955" transform="translate(78.888 343.925)" fill="#f79323"/><path d="M80.813,348.083A65.232,65.232,0,0,0,69.5,353.2a45.054,45.054,0,0,1,5.889-2.5c11.279-3.894,21.881-2.821,23.682,2.4s-5.884,12.6-17.162,16.494a45.257,45.257,0,0,1-6.179,1.662,65.109,65.109,0,0,0,12.055-2.951c14.4-4.97,24.507-13.523,22.579-19.1S95.211,343.114,80.813,348.083Z" transform="translate(0 -2.59)" fill="#8ec43d"/><path d="M200.1,377.192" transform="translate(-78.567 -22.164)" fill="#8ec43d" stroke="#83b72b" stroke-miterlimit="10" stroke-width="1.5"/><g transform="translate(117.641 345.095)"><g transform="translate(0 9.254)"><g transform="translate(0.093)"><path d="M203.361,382.2h-12.79l1.415-6.711h12.79Zm-10.819-1.6h9.522l.741-3.513h-9.522Z" transform="translate(-190.571 -375.488)" fill="#8ec43d"/></g><g transform="translate(1.613 2.578)"><rect width="11.156" height="1.599" fill="#8ec43d"/></g><g transform="translate(11.156 5.745)"><rect width="1.436" height="1.598" transform="matrix(0.207, -0.978, 0.978, 0.207, 0, 1.405)" fill="#8ec43d"/></g><g transform="translate(0 5.745)"><rect width="1.436" height="1.598" transform="matrix(0.207, -0.978, 0.978, 0.207, 0, 1.405)" fill="#8ec43d"/></g></g><g transform="translate(0.544 6.675)"><rect width="15.473" height="1.599" fill="#8ec43d"/></g><g transform="translate(0.832 2.162)"><path d="M206.525,361.15l-1.166-1.1.725-.771H195.018l.482.96-1.428.717-1.645-3.276H209.78Z" transform="translate(-192.426 -357.685)" fill="#8ec43d"/></g><g transform="translate(9.744 0)"><path d="M216.319,359.977l-1.522-.49a41.612,41.612,0,0,1,1.823-4.615c.993-2.054,1.3-2.614,1.3-2.614l1.4.763c-.01.02-.313.58-1.264,2.546A40.621,40.621,0,0,0,216.319,359.977Z" transform="translate(-214.797 -352.258)" fill="#8ec43d"/></g><g transform="translate(5.406 0.285)"><path d="M205.563,360.242l-1.59-.16a32.807,32.807,0,0,0,.122-4.384c-.12-1.955-.187-2.526-.187-2.532l1.586-.193c0,.024.073.6.2,2.628A33.881,33.881,0,0,1,205.563,360.242Z" transform="translate(-203.907 -352.973)" fill="#8ec43d"/></g></g><g transform="translate(142.159 344.857)"><g transform="translate(4.71)"><path d="M275.511,359.993h-11.8v-1.6h10.508l1.085-5.136h-10.17v-1.6h12.142Z" transform="translate(-263.706 -351.66)" fill="#8ec43d"/></g><g transform="translate(5.416 3.397)"><rect width="11.156" height="1.599" fill="#8ec43d"/></g><g transform="translate(9.398 7.922)"><path d="M282.215,380.986a13.341,13.341,0,0,1-4.455-3.42,11.263,11.263,0,0,1-2.285-5.923l1.6-.1a9.755,9.755,0,0,0,1.913,4.992,11.783,11.783,0,0,0,3.864,2.981Z" transform="translate(-275.475 -371.545)" fill="#8ec43d"/></g><g transform="translate(0 7.624)"><path d="M252.431,380.553l-.548-1.5a21.547,21.547,0,0,0,5.289-3.076,16.847,16.847,0,0,0,4.181-5.178l1.44.7a18.282,18.282,0,0,1-4.628,5.736A22.8,22.8,0,0,1,252.431,380.553Z" transform="translate(-251.883 -370.797)" fill="#8ec43d"/></g><g transform="translate(2.917 9.212)"><rect width="1.598" height="2.873" transform="translate(0 0.973) rotate(-37.49)" fill="#8ec43d"/></g><g transform="translate(13.036 9.087)"><rect width="3.541" height="1.599" transform="translate(0 2.278) rotate(-40.034)" fill="#8ec43d"/></g></g><g transform="translate(170.265 345.22)"><g transform="translate(1.023 0)"><rect width="16.732" height="1.598" transform="translate(0 16.371) rotate(-78.076)" fill="#8ec43d"/></g><g transform="translate(1.376 4.247)"><rect width="5.71" height="1.599" fill="#8ec43d"/></g><g transform="translate(0 9.963)"><rect width="5.607" height="1.599" transform="translate(0 1.138) rotate(-11.71)" fill="#8ec43d"/></g><g transform="translate(12.934 0)"><rect width="5.836" height="1.598" transform="translate(0 5.71) rotate(-78.062)" fill="#8ec43d"/></g><g transform="translate(8.017 5.076)"><rect width="11.135" height="1.599" fill="#8ec43d"/></g><g transform="translate(10.267 2.221)"><rect width="7.553" height="1.599" fill="#8ec43d"/></g><g transform="translate(7.141 9.221)"><rect width="11.135" height="1.599" fill="#8ec43d"/></g><g transform="translate(10.546 5.776)"><path d="M348.91,378.63v-1.6c2.953,0,4.541-7.377,4.865-9.961l1.586.2C355.216,368.432,353.8,378.63,348.91,378.63Z" transform="translate(-348.91 -367.07)" fill="#8ec43d"/></g><g transform="translate(7.817 12.043)"><rect width="1.812" height="1.598" transform="translate(0 1.772) rotate(-78.076)" fill="#8ec43d"/></g></g><g transform="translate(194.706 345.446)"><g transform="translate(2.78 1.967)"><rect width="15.505" height="1.599" fill="#8ec43d"/></g><g transform="translate(3.08 4.913)"><rect width="13.662" height="1.599" fill="#8ec43d"/></g><g transform="translate(1.536 7.861)"><rect width="15.505" height="1.599" fill="#8ec43d"/></g><g transform="translate(0.913 10.808)"><rect width="15.505" height="1.599" fill="#8ec43d"/></g><g transform="translate(7.825 2.601)"><path d="M409.939,373.576a10.629,10.629,0,0,1-4.742-.85c-2.066-1.219-1.757-3.92-1.743-4.034l1.9-9.023,1.564.33-1.891,8.956h0s-.163,1.72.978,2.394c1.039.612,3.679.691,5.1.593l.108,1.6C411.082,373.546,410.6,373.576,409.939,373.576Z" transform="translate(-403.43 -359.669)" fill="#8ec43d"/></g><g transform="translate(0 2.601)"><path d="M385.021,373.573c-.7,0-1.177-.031-1.233-.036l.11-1.595c.035,0,3.633.237,5.464-.628a4.963,4.963,0,0,0,2.3-2.756l1.874-8.89,1.563.33-1.89,8.957a6.515,6.515,0,0,1-3.167,3.8A13.062,13.062,0,0,1,385.021,373.573Z" transform="translate(-383.788 -359.669)" fill="#8ec43d"/></g><g transform="translate(13.347 0)"><rect width="3.029" height="1.6" transform="translate(0 2.223) rotate(-47.217)" fill="#8ec43d"/></g><g transform="translate(5.342 0.183)"><rect width="1.599" height="2.489" transform="translate(0 0.72) rotate(-26.769)" fill="#8ec43d"/></g></g><g transform="translate(220.474 345.863)"><g transform="translate(0 0.008)"><path d="M448.471,367.718l2.652-12.558,6.74-.953.225,1.583-5.632.8-1.928,9.132,5.07-.926.287,1.573Z" transform="translate(-448.471 -354.206)" fill="#8ec43d"/></g><g transform="translate(2.298 5.71)"><rect width="6.001" height="1.599" fill="#8ec43d"/></g><g transform="translate(7.272 0)"><path d="M468.287,370.244l-1.563-.33,3.32-15.728h7.3l-2.133,9.876a3.525,3.525,0,0,1-2.868,1.578v-1.6a1.874,1.874,0,0,0,1.44-.727l1.59-7.529h-4.031Z" transform="translate(-466.724 -354.186)" fill="#8ec43d"/></g></g><g transform="translate(242.981 340.352)"><g transform="translate(0)"><path d="M509.292,349a4.323,4.323,0,1,1,4.322-4.323A4.328,4.328,0,0,1,509.292,349Zm0-7.86a3.537,3.537,0,1,0,3.536,3.537A3.541,3.541,0,0,0,509.292,341.138Z" transform="translate(-504.969 -340.352)" fill="#8ec43d"/></g><g transform="translate(2.052 1.7)"><path d="M510.121,349.781V344.62h2.193a3.775,3.775,0,0,1,1.2.139,1.182,1.182,0,0,1,.6.5,1.477,1.477,0,0,1,.226.813,1.38,1.38,0,0,1-.341.96,1.644,1.644,0,0,1-1.022.476,2.444,2.444,0,0,1,.558.433,5.821,5.821,0,0,1,.594.838l.63,1.007h-1.246l-.754-1.123a7.035,7.035,0,0,0-.55-.759.784.784,0,0,0-.312-.214,1.694,1.694,0,0,0-.526-.059h-.21v2.155Zm1.043-2.979h.77a4.051,4.051,0,0,0,.937-.062.551.551,0,0,0,.292-.22.663.663,0,0,0,.106-.386.613.613,0,0,0-.139-.42.63.63,0,0,0-.393-.2c-.083-.011-.337-.018-.759-.018h-.813Z" transform="translate(-510.121 -344.62)" fill="#8ec43d"/></g></g></g></svg>