<svg xmlns="http://www.w3.org/2000/svg" width="172.867" height="50.735" viewBox="0 0 172.867 50.735"><g transform="translate(-1157 -308.952)"><g transform="translate(1157 308.952)"><path d="M1434.112,366.921a4.48,4.48,0,0,1-1.17,3.313,5.038,5.038,0,0,1-6.474-.018,4.489,4.489,0,0,1-1.17-3.3V351.191h-7.951v15.365a15.4,15.4,0,0,0,.739,4.36,8.165,8.165,0,0,0,1.7,2.971,9.312,9.312,0,0,0,2.735,2.224,10.753,10.753,0,0,0,3.721,1.046,35.113,35.113,0,0,0,4.108.263,16.074,16.074,0,0,0,5.577-.861,8.912,8.912,0,0,0,3.193-2.136,9.325,9.325,0,0,0,2.234-3.551,12.942,12.942,0,0,0,.712-4.315V341l-7.951,4.463Z" transform="translate(-1364.533 -334.499)" fill="#fc492d"/><path d="M1560.279,424.186a7.965,7.965,0,0,0-3.729.8,9.916,9.916,0,0,0-3.025,2.665v-3.044h-6.667V443.29h7.159v-8.971a5.734,5.734,0,0,1,.809-3.536,2.6,2.6,0,0,1,2.111-.985,2.324,2.324,0,0,1,1.829.73,3.742,3.742,0,0,1,.651,2.489V447.68l7.2-3.043V431.416q0-3.694-1.68-5.462A6.111,6.111,0,0,0,1560.279,424.186Z" transform="translate(-1467.77 -400.809)" fill="#fc492d"/><rect width="7.16" height="18.682" transform="translate(100.338 23.799)" fill="#fc492d"/><rect width="7.16" height="4.873" transform="translate(100.338 16.692)" fill="#fc492d"/><path d="M1718.2,394.155l-9.71-14.268h-7.441v25.789h7.494v-14.16l9.658,14.16h7.511V377H1718.2Z" transform="translate(-1590.685 -363.196)" fill="#fc492d"/><path d="M1847.853,425.4a13.794,13.794,0,0,0-6.333-1.214,10.691,10.691,0,0,0-7.749,2.709,9.409,9.409,0,0,0-2.806,7.089,10.036,10.036,0,0,0,1.4,5.357,8.574,8.574,0,0,0,3.527,3.325,13.43,13.43,0,0,0,5.84,1.047,14.185,14.185,0,0,0,6.562-1.223,10.1,10.1,0,0,0,3.905-4.037l-7.054-.651a4.716,4.716,0,0,1-1.249,1.179,4.069,4.069,0,0,1-2.006.528,3.394,3.394,0,0,1-2.709-1.214,4.632,4.632,0,0,1-.933-2.568H1852.6v-.809a12.862,12.862,0,0,0-1.214-6A8.2,8.2,0,0,0,1847.853,425.4Zm-9.587,6.9a4.959,4.959,0,0,1,.827-2.515,3.505,3.505,0,0,1,5.11-.457,4.789,4.789,0,0,1,1.117,2.973Z" transform="translate(-1694.243 -400.809)" fill="#fc492d"/><path d="M1953.525,403.154a7.859,7.859,0,0,1-2.217.457,1.309,1.309,0,0,1-1.231-.6,3.559,3.559,0,0,1-.229-1.58v-6.619h3.94v-5.242h-3.94v-9.338l-7.177,3.677v5.662h-2.639v5.242h2.639v6.571a12.234,12.234,0,0,0,.607,4.524,4.178,4.178,0,0,0,1.874,2.082,8.63,8.63,0,0,0,3.94.685,23.323,23.323,0,0,0,4.961-.58Z" transform="translate(-1781.185 -365.774)" fill="#fc492d"/><path d="M1207.2,329.234a25.378,25.378,0,0,0-21.876-20.1c-.052-.061-.1-.123-.156-.184l-.159.148a25.612,25.612,0,0,0-5.313,0l-.159-.148-.156.184a25.312,25.312,0,0,0-22.37,24.31c-.01.29-.016.581-.016.873a25.342,25.342,0,0,0,22.386,25.183l.156.184.159-.148a25.595,25.595,0,0,0,5.313,0l.159.148.156-.184a25.335,25.335,0,0,0,22.387-25.183c0-.292-.007-.583-.017-.873A25.417,25.417,0,0,0,1207.2,329.234Zm-3.839,1.565a60.161,60.161,0,0,1-8.749,2.491,38.811,38.811,0,0,0-.977-7.714,51.309,51.309,0,0,0,7.041-2.105A21.154,21.154,0,0,1,1203.366,330.8Zm-14.59,14.6c-2.123.186-4.263.285-6.417.285s-4.294-.1-6.418-.285a34.52,34.52,0,0,1-1.595-7.307,65.444,65.444,0,0,0,16.025,0A34.512,34.512,0,0,1,1188.775,345.394Zm-5.488,10.2c-.308.013-.618.022-.929.022s-.621-.008-.929-.022a34.464,34.464,0,0,1-3.76-6q2.327.141,4.689.143t4.689-.143A34.465,34.465,0,0,1,1183.287,355.6Zm-.929-21.076a61.619,61.619,0,0,1-8.212-.55,34.912,34.912,0,0,1,.925-7.672,51.968,51.968,0,0,0,14.574,0,34.934,34.934,0,0,1,.924,7.672A61.616,61.616,0,0,1,1182.358,334.522Zm-.929-21.482c.308-.013.618-.022.929-.022s.621.008.929.022a34.371,34.371,0,0,1,5.181,9.329,48.446,48.446,0,0,1-12.22,0A34.371,34.371,0,0,1,1181.429,313.04Zm16.745,7.027a47.111,47.111,0,0,1-5.657,1.6,38.564,38.564,0,0,0-3.606-7.62A21.355,21.355,0,0,1,1198.174,320.068Zm-22.37-6.016a38.55,38.55,0,0,0-3.606,7.62,47.1,47.1,0,0,1-5.657-1.6A21.355,21.355,0,0,1,1175.8,314.052Zm-4.729,11.524a38.793,38.793,0,0,0-.977,7.714,60.158,60.158,0,0,1-8.749-2.491,21.156,21.156,0,0,1,2.684-7.329A51.3,51.3,0,0,0,1171.075,325.576ZM1161.069,335a64.438,64.438,0,0,0,9.14,2.436,38.6,38.6,0,0,0,1.331,7.437,71.11,71.11,0,0,1-8.62-1.848A21.155,21.155,0,0,1,1161.069,335Zm4.958,12.976q3.448.754,7.007,1.19a38.608,38.608,0,0,0,2.769,5.417A21.367,21.367,0,0,1,1166.028,347.98Zm22.884,6.607a38.593,38.593,0,0,0,2.769-5.417q3.557-.435,7.007-1.19A21.369,21.369,0,0,1,1188.911,354.587Zm4.263-9.71a38.614,38.614,0,0,0,1.331-7.437,64.455,64.455,0,0,0,9.141-2.436,21.16,21.16,0,0,1-1.851,8.025A71.115,71.115,0,0,1,1193.174,344.877Z" transform="translate(-1157 -308.952)" fill="#fc492d"/></g></g></svg>