<svg xmlns="http://www.w3.org/2000/svg" width="196.676" height="84.132" viewBox="0 0 196.676 84.132"><g transform="translate(-4306.451 -2908.979)"><path d="M4381.45,2962.989h-12.874v6.5H4381.2v17.122h-9.831a3.477,3.477,0,0,1,0-6.953h2.646v-6.5h-2.646a9.977,9.977,0,0,0,0,19.953H4387.7v-23.872A6.258,6.258,0,0,0,4381.45,2962.989Z"/><path d="M4343.357,2978.479c.726-5.453,3.452-7.975,10.2-8.733-2.9,5.815-4.991,10.024-4.991,10.024l5.822,2.891s3.353-6.753,7.461-14.969l2.352-4.7h-5.259c-6.007,0-20.074,0-22.024,14.631a13.973,13.973,0,0,0,8.572,15.292l.543.2h12.909v-6.5H4347.3C4345.987,2985.941,4342.66,2983.7,4343.357,2978.479Z"/><path d="M4436.95,2982.661s3.352-6.753,7.461-14.969l2.351-4.7H4441.5c-6.006,0-20.073,0-22.025,14.631a13.974,13.974,0,0,0,8.573,15.292l.543.2H4441.5v-6.5h-11.639c-1.312-.67-4.639-2.908-3.943-8.132.728-5.453,3.454-7.975,10.2-8.733-2.9,5.815-4.992,10.024-4.992,10.024Z"/><path d="M4394.7,2993.111h7.619l18.424-30.122h-7.619l-7.967,13.025-8.373-13.025h-7.727l12.332,19.185Z"/><path d="M4324.286,2993.111l15.487-30.122h-7.309l-9.377,18.239-9.333-18.239h-7.3l15.414,30.122Z"/><path d="M4444.733,2908.979l26.457,17.386-19.653,45.165,51.59-62.551Z" fill="#d62f2d"/><path d="M4470.192,2963.782h-1.5v1.235h-8.557v1.5h8.557v1.145h-6.047v6.7h6.047v1.524h-7.423v1.5h16.441v-1.5h-.817a3.026,3.026,0,0,1-1.416-1.524h.762v-6.7h-6.047v-1.145h8.557v-1.5h-8.557Zm-1.5,5.38v1.1h-4.547v-1.1Zm-4.547,3.7v-1.1h4.547v1.1Zm10.594,0h-4.547v-1.1h4.547Zm-.116,3.024h-4.431v-1.524h3.746A3.3,3.3,0,0,0,4474.623,2975.883Zm.116-6.721v1.1h-4.547v-1.1Z"/><path d="M4460.214,2982.678l.976,1.138c1.448-1.241,2.31-4.01,2.4-4.322l-1.438-.431A9.35,9.35,0,0,1,4460.214,2982.678Z"/><path d="M4476.143,2978.258l-1.025,1.1a8.716,8.716,0,0,1,1.893,2.748l1.4-.545A10.138,10.138,0,0,0,4476.143,2978.258Z"/><path d="M4473.18,2981.748a12.931,12.931,0,0,1-2.935.276,18.986,18.986,0,0,1-3.88-.408v-3.566h-1.5v4.722l.544.156a19.26,19.26,0,0,0,4.836.6,10.418,10.418,0,0,0,4-.54l.44-.2v-2.372h-1.5Z"/><path d="M4469.465,2980.717l1.371-.61a2.91,2.91,0,0,0-2.637-2.048l.094,1.5C4468.319,2979.555,4468.956,2979.572,4469.465,2980.717Z"/><path d="M4497.642,2965.275l.613-.114v-1.851h-1.5v.592c-3.782.565-13.317,1.11-13.419,1.116l.086,1.5C4483.865,2966.49,4494.326,2965.892,4497.642,2965.275Z"/><path d="M4496.592,2968.891l.686-1.372-1.342-.67-1.021,2.042h-3.723v-2.085h-1.5v2.085h-2.283l-.676-1.952-1.418.49.506,1.462h-3.948v4.151h1.5v-2.651H4498.6v2.651h1.5v-4.151Z"/><path d="M4493.338,2980.961a18.434,18.434,0,0,0,3.87-3.88l.9-1.2h-9.383a13.141,13.141,0,0,0,.9-1.524h7.365v-1.5h-6.74a7.731,7.731,0,0,0,.4-1.808l-1.5-.084a6.829,6.829,0,0,1-.49,1.892h-4.335v1.5h3.595a15.6,15.6,0,0,1-5.679,5.409l.766,1.289a19.366,19.366,0,0,0,4.184-3.284,18.313,18.313,0,0,0,3.317,3.188,12.67,12.67,0,0,1-6.134,1.538l-.1,1.5c.036,0,.16.01.362.01a14.874,14.874,0,0,0,7.287-2.113,14.42,14.42,0,0,0,7.647,2.1l-.1-1.5A12.733,12.733,0,0,1,4493.338,2980.961Zm-4.526-3.578h6.22a3.135,3.135,0,0,1-6.22,0Z"/></g></svg>