<svg xmlns="http://www.w3.org/2000/svg" width="136.496" height="95.487" viewBox="0 0 136.496 95.487"><g transform="translate(-4293.589 -2635.725)"><g transform="translate(4293.588 2635.724)"><path d="M4473.441,2685.839l38.634-50.115h-16.237l-22.4,29.052Z" transform="translate(-4375.579 -2635.724)" fill="#282526"/><path d="M4458.837,2698.794l-17.431-22.61,6.955-12.041,10.476,13.589Z" transform="translate(-4360.975 -2648.679)" fill="#8b8b8f"/><path d="M4419.016,2694.28l45.142-58.556h-18.972l-26.17,33.946Z" transform="translate(-4350.768 -2635.724)" fill="#b12532"/><path d="M4332.223,2685.839l-38.634-50.115h16.237l22.4,29.052Z" transform="translate(-4293.588 -2635.724)" fill="#282526"/><path d="M4364.59,2698.794l17.431-22.61-6.955-12.041-10.476,13.589Z" transform="translate(-4325.957 -2648.679)" fill="#8b8b8f"/><path d="M4381.2,2694.28l-45.142-58.556h18.973l26.169,33.946Z" transform="translate(-4312.947 -2635.724)" fill="#5c1b21"/></g><g transform="translate(4299.523 2699.593)"><rect width="124.626" height="2.622" transform="translate(0)" fill="#5c1b21"/><rect width="124.626" height="2.622" transform="translate(0 28.997)" fill="#5c1b21"/></g><g transform="translate(4300.911 2706.13)"><g transform="translate(0 0)"><path d="M4325.96,2776.588a11.441,11.441,0,0,1,.356,1.35c.141-.462.285-.9.436-1.312l2.741-7.556q.263-.745.376-1.142a2.5,2.5,0,0,0,.112-.637.423.423,0,0,0-.125-.328.876.876,0,0,0-.376-.176l-1.266-.341-.04-.669q1.912.051,3.111.051,1.252,0,2.86-.051l.066.644-1.411.39a1.51,1.51,0,0,0-.758.468,3.6,3.6,0,0,0-.507.984l-5.682,15.176-1.437.114-3.335-10q-.264-.794-.541-1.716-.316.909-.606,1.7l-3.638,9.9-1.423.114-5.142-15.138a3.613,3.613,0,0,0-.586-1.179,1.709,1.709,0,0,0-.784-.461l-1.279-.353-.04-.644q1.781.051,3.585.051,2.373,0,4.64-.051l.08.644-1.306.353a.927.927,0,0,0-.382.189.45.45,0,0,0-.119.341,2.9,2.9,0,0,0,.1.656q.1.4.323,1.1l2.452,7.531q.21.682.356,1.35c.141-.462.281-.9.422-1.312l3.9-10.861,1.331-.114Z" transform="translate(-4307.045 -2765.36)" fill="#272425"/><path d="M4363.555,2765.934h3.335q3.2,0,6.643-.051l.092.1-.817,4.2-.712.1-.843-3.065h-5.1v6.7h.711q1.148,0,2.466-.025a.45.45,0,0,0,.448-.34l.475-1.729.869-.038q-.038,1.83-.039,2.738,0,.883.039,2.7l-.869.063-.488-1.778a.433.433,0,0,0-.408-.354q-1.345-.025-2.5-.026h-.7v4.327q0,1.388.026,2.751h5.272l1.661-3.318.8-.114-.316,4.718-.092.088q-3.283-.037-6.394-.037h-3.493q-1.7,0-3.506.037l-.066-.631,1.767-.466a.425.425,0,0,0,.355-.391c.009-.336.016-.712.02-1.129s.007-.877.007-1.381v-10.054q0-.631-.007-1.148c0-.344-.011-.66-.02-.946a.411.411,0,0,0-.316-.417l-1.766-.491-.04-.644Q4361.894,2765.934,4363.555,2765.934Z" transform="translate(-4331.208 -2765.466)" fill="#272425"/><path d="M4398.115,2769.478v9.978q0,1.388.026,2.751h5.154l1.805-3.583.8-.113-.33,4.982-.092.088q-3.256-.037-6.367-.037h-3.269q-1.964,0-3.638.037l-.066-.631,1.634-.466a.425.425,0,0,0,.356-.391c.008-.336.016-.712.02-1.129s.007-.877.007-1.381v-10.054q0-.631-.007-1.148c0-.344-.011-.66-.02-.946a.411.411,0,0,0-.316-.417l-1.635-.491-.04-.644q1.7.051,3.928.051,2.294,0,3.981-.051l.065.644-1.635.466a.4.4,0,0,0-.342.378q-.013.455-.02,1.293T4398.115,2769.478Z" transform="translate(-4345.839 -2765.466)" fill="#272425"/><path d="M4428.71,2769.478v9.978q0,1.388.026,2.751h5.154l1.806-3.583.8-.113-.329,4.982-.092.088q-3.256-.037-6.366-.037h-3.27q-1.964,0-3.639.037l-.066-.631,1.635-.466a.425.425,0,0,0,.356-.391q.013-.5.02-1.129c0-.416.006-.877.006-1.381v-10.054c0-.421,0-.8-.006-1.148s-.011-.66-.02-.946a.411.411,0,0,0-.316-.417l-1.634-.491-.041-.644q1.7.051,3.929.051,2.293,0,3.98-.051l.066.644-1.634.466a.4.4,0,0,0-.343.378c-.008.3-.016.734-.02,1.293S4428.71,2769.5,4428.71,2769.478Z" transform="translate(-4359.786 -2765.466)" fill="#272425"/><g transform="translate(79.467 0.341)"><path d="M4456.663,2783.48q-1.7,0-3.506.037l-.066-.631,1.767-.466a.421.421,0,0,0,.355-.391q.013-.5.02-1.129t.007-1.381v-10.054q0-.631-.007-1.148t-.02-.946a.411.411,0,0,0-.316-.417l-1.766-.491-.04-.644q1.846.051,3.533.051,1.423,0,2.729-.063t2.7-.064q4.917,0,7.4,2.013a7.242,7.242,0,0,1,2.479,5.973,9.458,9.458,0,0,1-2.749,7.248q-2.748,2.579-7.731,2.579-1.371,0-2.439-.038T4456.663,2783.48Zm2.531-1.286a10.058,10.058,0,0,0,1.238.145q.606.031,1.227.031a5.161,5.161,0,0,0,4.35-1.93q1.489-1.93,1.489-5.879,0-3.847-1.423-5.708a5.286,5.286,0,0,0-4.482-1.86q-1.134,0-2.4.1Z" transform="translate(-4453.091 -2765.743)" fill="#b02335"/></g><g transform="translate(102.021)"><path d="M4514.312,2773.986a9.426,9.426,0,0,1-2.689,7.02,10.193,10.193,0,0,1-7.487,2.655q-4.587,0-7.091-2.453a8.872,8.872,0,0,1-2.5-6.642,9.026,9.026,0,0,1,2.7-6.907,10.476,10.476,0,0,1,7.475-2.542q4.586,0,7.091,2.378A8.522,8.522,0,0,1,4514.312,2773.986Zm-15.343.164a11.142,11.142,0,0,0,1.423,6.175,4.7,4.7,0,0,0,4.179,2.138,4.488,4.488,0,0,0,4.013-1.943q1.3-1.942,1.3-6.105a11,11,0,0,0-1.371-6.011,4.71,4.71,0,0,0-4.245-2.1,4.453,4.453,0,0,0-4.04,1.949A11.027,11.027,0,0,0,4498.969,2774.149Z" transform="translate(-4494.539 -2765.117)" fill="#b02335"/></g></g></g></g></svg>