<svg xmlns="http://www.w3.org/2000/svg" width="182.61" height="34.316" viewBox="0 0 182.61 34.316"><g transform="translate(0 0)"><circle cx="2.731" cy="2.731" r="2.731" transform="translate(0 1.876)" fill="#495eae"/><circle cx="2.731" cy="2.731" r="2.731" transform="translate(0 14.686)" fill="#495eae"/><circle cx="2.731" cy="2.731" r="2.731" transform="translate(0 26.979)" fill="#495eae"/><circle cx="3.728" cy="3.728" r="3.728" transform="translate(10.667 0.879)"/><circle cx="4.422" cy="4.422" r="4.422" transform="translate(9.972 12.995)" fill="#495eae"/><circle cx="5.355" cy="5.355" r="5.355" transform="translate(21.7 12.063)"/><circle cx="4.607" cy="4.607" r="4.607" transform="translate(22.448 25.103)"/><circle cx="3.826" cy="3.826" r="3.826" transform="translate(10.568 25.883)"/><circle cx="4.607" cy="4.607" r="4.607" transform="translate(22.448 0)"/><path d="M338.388,60.93c-1.91.228-2.256.606-3,2.682-.69,1.937-2.682,7.931-4.352,13.085h-1.49c-1.354-3.638-2.867-7.377-4.379-11.166-1.375,3.811-2.7,7.5-3.95,11.157h-1.539c-1.062-3.562-2.759-8.791-4.246-13.261-.663-1.921-1.061-2.35-2.682-2.5V60h8.014v.934c-1.991.177-2.043.557-1.672,1.87.876,2.905,1.8,5.86,2.682,8.613,1.353-3.561,2.627-7.375,3.849-11.291h1.407c1.459,3.865,2.98,7.629,4.431,11.324.982-2.728,2.256-6.946,2.628-8.385.371-1.49.106-1.946-2.177-2.123V60h6.475Z" transform="translate(-266.152 -51.06)"/><path d="M502.388,71.831c-.133.682-.876,3.588-1.114,4.294H487.5v-.909c2.414-.228,2.573-.353,2.573-2.476V63.091c0-2.147-.317-2.3-2.123-2.451v-.93h8.625c2.786,0,3.716-.025,4.087-.051.027.456.159,2.533.265,4.093l-1.034.127a6.28,6.28,0,0,0-1.144-2.354c-.478-.505-.822-.657-2.177-.657H494.85c-1.007,0-1.114.051-1.114.909v5.28h2.6c1.49,0,1.751-.378,2.15-2.172h1.034v5.634h-1.034c-.425-1.868-.632-2.166-2.177-2.166h-2.575V72.7c0,1.742.054,2.272,1.7,2.3h1.885c1.49,0,1.883-.176,2.467-.858a11.286,11.286,0,0,0,1.62-2.525Z" transform="translate(-414.865 -50.771)"/><path d="M610.353,71.969c-.213,1.086-.955,3.765-1.192,4.446H596v-.934c2.335-.149,2.548-.328,2.548-2.451V63.406c0-2.122-.265-2.324-2.256-2.476V60h8.275v.934c-2.069.177-2.335.355-2.335,2.476v9.8c0,1.39.052,2.02,1.512,2.046.054.025,1.274.025,1.38.025a2.724,2.724,0,0,0,2.548-.985,10.54,10.54,0,0,0,1.672-2.627Z" transform="translate(-507.199 -51.06)"/><path d="M713.1,71.969c-.211,1.086-.955,3.765-1.192,4.446H698.74v-.934c2.336-.149,2.548-.328,2.548-2.451V63.406c0-2.122-.265-2.324-2.256-2.476V60h8.281v.934c-2.071.177-2.336.355-2.336,2.476v9.8c0,1.39.054,2.02,1.512,2.046.054.025,1.274.025,1.381.025a2.726,2.726,0,0,0,2.548-.985,10.542,10.542,0,0,0,1.672-2.627Z" transform="translate(-594.631 -51.06)"/><path d="M822.206,70.332a31.024,31.024,0,0,1-1.46,3.814,25.536,25.536,0,0,1-4.856.606c-6.343,0-9.58-4.023-9.58-8.438,0-5.154,4.114-8.715,10.057-8.715a27.661,27.661,0,0,1,5.017.581c.106,1.137.3,2.652.5,3.916l-.819.182c-.53-1.693-1.168-2.728-2.521-3.259a7.69,7.69,0,0,0-2.786-.48c-4.379,0-6.688,3.083-6.688,7.25,0,4.875,2.654,8.007,6.954,8.007,2.707,0,4.033-1.192,5.388-3.713Z" transform="translate(-686.174 -49.018)" fill="#495eae"/><path d="M948.591,60.7c-2.2.2-2.415.328-2.415,2.449V73.284c0,2.122.238,2.2,2.415,2.426v.706h-7.113V75.71c2.2-.253,2.415-.3,2.415-2.426V68.23h-9.075v5.052c0,2.1.212,2.172,2.384,2.426v.706H930.12v-.706c2.15-.228,2.384-.3,2.384-2.426V63.151c0-2.122-.238-2.247-2.384-2.449V60h7.086v.708c-2.123.177-2.384.353-2.384,2.449V67.18H943.9V63.157c0-2.1-.3-2.272-2.415-2.449V60H948.6Z" transform="translate(-791.537 -51.06)" fill="#495eae"/><path d="M1072.08,76.415v-.706c2.177-.228,2.384-.329,2.384-2.476V63.2c0-2.172-.212-2.274-2.384-2.5V60h7.111v.708c-2.2.226-2.414.328-2.414,2.5V73.237c0,2.172.212,2.248,2.414,2.476v.706Z" transform="translate(-912.345 -51.06)" fill="#495eae"/><path d="M1144.648,60a7.8,7.8,0,0,1,4.485,1.086,4.179,4.179,0,0,1,1.751,3.588c0,3.688-3.317,5.178-5.838,5.178a4.883,4.883,0,0,1-.717-.051l-1.831-.447v3.941c0,2.122.186,2.172,2.627,2.426v.706H1137.8V75.72c2.283-.228,2.384-.38,2.384-2.476V63.2c0-2.248-.291-2.3-2.384-2.5V60Zm-2.15,8.463a5.119,5.119,0,0,0,1.937.328,3.684,3.684,0,0,0,3.981-4.041c0-2.779-1.91-3.89-4.141-3.89a2.53,2.53,0,0,0-1.49.3c-.213.177-.3.48-.3,1.162Z" transform="translate(-968.273 -51.06)" fill="#495eae"/></g></svg>