<svg xmlns="http://www.w3.org/2000/svg" width="744.594" height="74.343" viewBox="0 0 744.594 74.343">
  <defs>
    <style>
      .cls-1 {
        fill: #fff;
        fill-rule: evenodd;
      }
    </style>
  </defs>
  <path id="Logo_копия" data-name="Logo копия" class="cls-1" d="M1183.99,522.807c-0.38,1.11-.67,2.251-1.13,3.323-1.62,3.79-4.85,5.159-8.65,5.615a13.663,13.663,0,0,1-1.63.058q-36.645,0-73.27,0h-1.29V457.578h12.21v61.568h24.56V457.617h12.36v61.569h24.54V457.473h12.3v65.334Zm-550.924-3.529c-14,0-28,.087-41.993-0.057a57.559,57.559,0,0,1-11.347-1.259c-7.434-1.59-13.442-5.3-16.479-12.72a30.157,30.157,0,0,1-1.766-13.327c0.529-9.562,5.77-16.459,14.808-19.585a44.294,44.294,0,0,1,14.334-2.257c14.2-.079,28.392-0.055,42.588-0.071H635V457.6c-0.514-.03-0.949-0.078-1.383-0.078-13.7,0-27.4-.045-41.1.016a69.6,69.6,0,0,0-19.137,2.325c-10.859,3.132-18.789,9.5-22.23,20.591a49.549,49.549,0,0,0-.861,25.347c2.4,11.243,9.184,18.779,19.975,22.714a51.466,51.466,0,0,0,17.191,3.142c15.633,0.153,31.268.078,46.9,0.085a2.9,2.9,0,0,0,.659-0.151V519.278h-1.952Zm245.321-60.012q0.074,26.688.154,53.376a35.639,35.639,0,0,0,.167,3.868c0.735,6.525,3.91,11.239,10.2,13.6a32.036,32.036,0,0,0,11.406,1.7l62.525-.05h1.513V519.278h-1.874q-28.359,0-56.721-.016a31.834,31.834,0,0,1-4.736-.368c-5.619-.857-9.147-4.067-10.016-9.116a22.99,22.99,0,0,1-.251-3.858q-0.024-23.336-.013-46.672c0-.82.235-1.748-1.143-1.734-3.666.037-7.333,0.012-11.214,0.012C878.387,458.189,878.385,458.728,878.387,459.266ZM768.643,531.682h12.3V501h73.526V488.629H768.643v43.053ZM525.268,470.055V457.812H439.413v12.243h85.855Zm329.236,0V457.84H768.6v12.218h85.9Zm-415.035,30.9h85.672V488.59H439.469v12.365Zm-0.025,18.636v12.1h85.77v-12.1h-85.77ZM1011.42,460.2c-11.33,3.523-18.895,10.771-21.793,22.482a51.741,51.741,0,0,0-.706,20.71c1.914,12.081,8.41,20.557,19.929,24.955a54.586,54.586,0,0,0,16.42,3.27c8.45,0.491,16.85.165,25.05-2.243,11.17-3.278,19.01-10.07,22.2-21.543a49.789,49.789,0,0,0,.56-24.045c-2.5-11.682-9.64-19.287-20.88-23.132a64.974,64.974,0,0,0-21.1-3.039C1023.3,457.622,1017.4,458.338,1011.42,460.2Zm4.39,56.977c-9.46-3.141-14.73-10.028-15.27-20.01a30.55,30.55,0,0,1,1.49-12.338c2.58-7.043,7.91-11.061,14.87-12.959a53.491,53.491,0,0,1,27.81-.195c11.57,2.992,17.51,11.292,17.14,23.429-0.16,5.365-1.16,10.472-4.56,14.826-3.81,4.9-9.11,7.262-15,8.339-3.69.674-7.46,0.886-11.2,1.306A56.114,56.114,0,0,1,1015.81,517.177ZM721.054,529.355c11.887-3.54,19.778-11.021,22.563-23.353a51.394,51.394,0,0,0,.168-21.742c-2.135-10.529-8.022-18.078-17.9-22.413a50.946,50.946,0,0,0-16.713-3.926c-8.8-.68-17.557-0.461-26.117,1.981-11.348,3.237-19.31,10.083-22.55,21.747a50.748,50.748,0,0,0-1.015,21.574c1.914,12.331,8.54,20.923,20.365,25.27,7.036,2.588,14.36,3.3,21.788,3.32A66.969,66.969,0,0,0,721.054,529.355Zm-4.291-57.283c9.843,3.219,15.021,9.958,15.627,20.346a31.564,31.564,0,0,1-.98,10.484A19.226,19.226,0,0,1,718.9,516.48a49.662,49.662,0,0,1-34.1.033c-7.909-2.82-12.21-8.859-13.372-17.128a29.982,29.982,0,0,1,1.243-14.554c2.568-7.107,8-10.991,14.993-13.031a54.041,54.041,0,0,1,14.257-1.77A50.864,50.864,0,0,1,716.763,472.072Z" transform="translate(-439.406 -457.469)"/>
</svg>
