<svg xmlns="http://www.w3.org/2000/svg" width="263" height="71"><g transform="translate(-368 -681)"><rect width="263" height="71" rx="6" transform="translate(368 681)" fill="#2a2a2a"/><path d="M403.025 703.344l-11.312 20.311a5.581 5.581 0 004.876 8.3h15.978V721.8h-8.207l5.935-10.656h3.286v20.8h10.148v-20.8h7.611V701h-24.326a4.569 4.569 0 00-3.989 2.344zm26.285 5.774h-7.611v20.8h-6.089v-20.8h-6.509l-8.2 14.715h9.631v6.089h-13.947a3.552 3.552 0 01-3.1-5.28l11.312-20.311a2.539 2.539 0 012.216-1.3h22.3zm124.328 14.874a1.415 1.415 0 01-1.331-.646 3.847 3.847 0 01-.247-1.708v-7.157h4.26v-5.668h-4.26v-7.684l-7.76 3.975v3.709h-2.853v5.668h2.853v7.1a13.222 13.222 0 00.656 4.891 4.515 4.515 0 002.025 2.25 9.327 9.327 0 004.26.741 25.222 25.222 0 005.364-.627l-.571-5.344a8.512 8.512 0 01-2.396.5zm16.967-15.635a11.655 11.655 0 00-8.426 3 10.105 10.105 0 00-3.119 7.618 9.925 9.925 0 003.689 8.026 11.994 11.994 0 007.874 2.473q5.458 0 8.549-2.976a11 11 0 00.6-14.616q-3.1-3.525-9.167-3.525zm2.805 14.607a3.584 3.584 0 01-5.5-.019 6.1 6.1 0 01-1.094-3.994 6.032 6.032 0 011.1-3.966 3.509 3.509 0 012.8-1.3 3.377 3.377 0 012.682 1.284 5.957 5.957 0 011.084 3.909 6.305 6.305 0 01-1.072 4.087zm32.123-12.695a6.608 6.608 0 00-5.031-1.911 8.611 8.611 0 00-4.032.865 10.734 10.734 0 00-3.271 2.882v-3.291h-7.209v20.2h7.741v-9.7a6.2 6.2 0 01.875-3.823 2.813 2.813 0 012.282-1.065 2.513 2.513 0 011.978.789 4.04 4.04 0 01.7 2.691v11.108h7.779v-12.839q.005-3.994-1.812-5.906zm-142.982-1.521a32.052 32.052 0 00-5.591-.39 23.668 23.668 0 00-4.033.323 9.5 9.5 0 00-2.929.913 8.581 8.581 0 00-.766.478h16.439a7.345 7.345 0 00-3.12-1.324zm-1.295 18.781c.027.111.054.213.081.3a7.341 7.341 0 00.571 1.189h7.265a12.626 12.626 0 01-.621-1.484zm-13.47.267a7.99 7.99 0 005.487 1.673 12.585 12.585 0 004.774-.837 8.718 8.718 0 001.858-1.1h-12.391c.089.087.175.177.272.264zm10.184-14.835a3.419 3.419 0 011.837.4h8.007c-.057-.187-.113-.374-.182-.564a6.471 6.471 0 00-.918-1.719h-18.623a5.448 5.448 0 00-.362.445 6.922 6.922 0 00-.874 1.838h8.662a6.222 6.222 0 012.453-.4zm-3.584 1.409h-7.809c-.016.071-.036.134-.052.208l7.4.78a4.961 4.961 0 01.461-.988zm5.782 8.642c-.039.076-.093.147-.139.22h8.174v-2.283h-7.582a4.887 4.887 0 01-.453 2.063zm.463-7.484a26.179 26.179 0 01-2.739.923 20.31 20.31 0 01-.81.2H468.2v-.858a7.8 7.8 0 00-.138-1.425h-7.569a4.373 4.373 0 01.138 1.16zm7.572 2.131h-15.868l-.089.018q-3.634.722-4.984 2.206c-.017.019-.031.04-.048.059h11.856q.8-.243 1.563-.516v.516h7.57zm0 7.055v-.475h-9.14a5.212 5.212 0 01-.474.3 4.815 4.815 0 01-2.406.628 2.694 2.694 0 01-1.874-.581 1.934 1.934 0 01-.3-.352h-8.067a5.163 5.163 0 00.766 2.283h21.6a13.071 13.071 0 01-.105-1.803zm-14.531-1.616a1.94 1.94 0 01.647-1.427 4.1 4.1 0 011.342-.722h-9.134a5.618 5.618 0 00-.6 2.283h7.755c0-.045-.01-.087-.01-.134zm36.46-13.428a14.911 14.911 0 00-6.847-1.312 12.624 12.624 0 00-6.815 1.715h14.355a9.221 9.221 0 00-.693-.403zm-6.526 3.272a3.821 3.821 0 011.83.422h8.453a8.889 8.889 0 00-1.763-2.283h-16.982c-.078.071-.163.133-.24.207a9.659 9.659 0 00-1.625 2.076h8.571a3.636 3.636 0 011.756-.422zm2.247 11.411a4.4 4.4 0 01-2.168.571 3.741 3.741 0 01-2.246-.685h-8.337c.09.17.183.339.284.5a10.6 10.6 0 001.362 1.779h18.02a12.576 12.576 0 001.783-2.283h-8.529c-.056.042-.113.086-.169.118zm-8.654 3.985a14.518 14.518 0 006.315 1.132 15.342 15.342 0 007.094-1.321 8.691 8.691 0 00.978-.619h-15.7a8.411 8.411 0 001.313.808zm-5.259-10.679c-.04.42-.065.849-.065 1.292 0 .338.016.667.039.991h23.354a20.127 20.127 0 00-.128-2.283zm8.722-3.252l.03-.037h-7.923a10.263 10.263 0 00-.7 2.283h7.764a4.916 4.916 0 01.829-2.246zm6.672 2.246h7.66a11.912 11.912 0 00-.635-2.283h-7.8a5.555 5.555 0 01.775 2.283zm-.26 6.58h1.794l-1.665-.154c-.043.055-.085.101-.129.154zm-7.311-2.284h-7.735a10.614 10.614 0 00.61 2.283h7.84a5.562 5.562 0 01-.715-2.283zm19.138-1.007h7.86a15.742 15.742 0 01.327-2.283h-8.187zm0 7.587h7.779v1.484h-7.779zm13.504-12.59l.248-.569h-2.4a6.129 6.129 0 012.152.569zm-13.504 8.294h7.779v-.99c0-.453.01-.88.026-1.293h-7.8zm0 1.006h7.779v2.283h-7.779zm9.405-15.073a4.788 4.788 0 00-.912.907h7.125l.283-.65a8.179 8.179 0 00-3.748-1.065 4.55 4.55 0 00-2.748.808zm-2.158 2.958v-1.044h-7.247v2.283h14.188l.992-2.283h-7.374c-.188.317-.371.664-.559 1.044zm-7.247 4.529h8.472a4.725 4.725 0 01.5-1.03 2.672 2.672 0 012.329-1.253h-11.306zm0-7.839h7.246v1.259h-7.246zm28.433-.457a12.611 12.611 0 00-6.773 1.715h13.765a13.182 13.182 0 00-6.992-1.715zm.019 21.112a12.673 12.673 0 007.245-1.94h-14.4a12.447 12.447 0 007.155 1.94zm-3.803-10.518a10.479 10.479 0 01.076-1.292h-7.762a12.543 12.543 0 00-.074 1.312c0 .331.016.654.041.972h7.765a11.125 11.125 0 01-.046-.992zm1.093 3.995a4.511 4.511 0 01-.9-2h-7.79a9.968 9.968 0 00.664 2.283h8.294a3.15 3.15 0 01-.268-.283zm5.497.018c-.08.1-.164.183-.249.268h8.266a10.283 10.283 0 00.661-2.283h-7.794a4.485 4.485 0 01-.884 2.015zm6.363-11.087a9.429 9.429 0 00-.794-.8h-16.482c-.1.093-.216.177-.317.273a10.138 10.138 0 00-1.616 2.01h20.29a9.88 9.88 0 00-1.081-1.483zm-6.373 3.09a4.28 4.28 0 01.829 1.686h7.834a10.085 10.085 0 00-.7-2.283h-8.59a3.985 3.985 0 01.627.597zm-5.478.019a3.949 3.949 0 01.655-.616h-8.556a10.035 10.035 0 00-.742 2.283h7.81a4.305 4.305 0 01.833-1.667zm6.496 2.673a10.5 10.5 0 01.067 1.216c0 .379-.019.73-.048 1.067h7.78c.029-.355.046-.716.046-1.086 0-.409-.024-.806-.061-1.2zm-14.028 6.58a10.014 10.014 0 001.825 2.283h16.924c.01-.01.023-.019.034-.029a9.959 9.959 0 001.753-2.253H517.12z" fill="#d1050c"/></g></svg>