<svg xmlns="http://www.w3.org/2000/svg" width="186.583" height="26.28"><path d="M29.959 0h7.358v26.279h-7.358zm22.074 0a9.461 9.461 0 00-9.46 9.46v16.819h7.358V9.46a2.1 2.1 0 014.2 0v16.819h7.358V9.46A9.461 9.461 0 0052.033 0zm69.378 0h7.358v26.279h-7.358z"/><path d="M13.143 0H.004v26.279h7.358V7.354h5.781a5.782 5.782 0 110 11.563H9.464v7.358h3.679a13.14 13.14 0 100-26.279z" fill="#181398"/><path d="M147.167 7.354a5.789 5.789 0 015.682 4.73h7.406a13.14 13.14 0 100 2.1h-7.406a5.78 5.78 0 11-5.682-6.833zM75.159 0a9.461 9.461 0 00-9.46 9.46v16.819h7.358v-5.781h2.1V13.14h-2.1V9.461a2.1 2.1 0 114.2 0V26.28h7.358V9.461A9.46 9.46 0 0075.159 0zm33.108 0a8.888 8.888 0 01-10.512 0 8.936 8.936 0 00-8.935 8.935v17.344h7.358V8.935a1.577 1.577 0 013.154 0v17.344h7.358V8.935a1.577 1.577 0 013.154 0v17.344h7.358V8.935A8.935 8.935 0 00108.267 0z"/><path d="M186.583 0h-7.358l-7.358 12.614V0h-7.358v26.279h7.358V13.665l7.358 12.614h7.358l-7.664-13.14z" fill="#8a090c"/></svg>