<svg xmlns="http://www.w3.org/2000/svg" width="186.281" height="49.272"><path d="M19.355 20.96a14.224 14.224 0 001.9-6.506 25 25 0 00-.1-4.218 13.972 13.972 0 00-1.042-4.182A9.129 9.129 0 0011.745.117C11.263.091 10.782.039 10.301 0H.001v25.476h7.11c.455 0 .455 0 .455.455v22.861h5.072V25.857c0-.574 0-.564.573-.68a8.833 8.833 0 006.144-4.217zm-3.443-5.433a9.3 9.3 0 01-1.048 3.509 4 4 0 01-2.226 1.774v-4.429H7.582c-.005.109-.015.217-.015.325v4.115c0 .405 0 .405-.418.405-.6 0-1.194-.005-1.792 0-.19 0-.283-.059-.263-.256.005-.056 0-.112 0-.168v-16.1c0-.413 0-.413.4-.413 1.11 0 2.221-.013 3.331.009a12.859 12.859 0 013.138.294 4.994 4.994 0 013.609 3.733 13.143 13.143 0 01.447 3.005 24.3 24.3 0 01-.107 4.198zm144.69 15.445a9.938 9.938 0 00-6.287-.892 8.678 8.678 0 00-7.342 6.216 11.1 11.1 0 00-.2 5.8 8.642 8.642 0 007.335 6.994c.458.071.921.12 1.381.18h1.008c.441-.06.886-.1 1.324-.182a8.632 8.632 0 005.306-2.963 9.994 9.994 0 002.036-9.211 8.86 8.86 0 00-4.561-5.942zm-.571 11.586a4.322 4.322 0 01-8.069-.04 8 8 0 010-5.82 4.154 4.154 0 013.142-2.717 4.34 4.34 0 014.932 2.672 7.4 7.4 0 01.507 2.925 7.647 7.647 0 01-.512 2.98zM75.225 30.869a10.049 10.049 0 00-6.089-.788 8.667 8.667 0 00-7.248 5.961 11.049 11.049 0 00-.289 6.038 8.693 8.693 0 007.346 7.014c.44.063.882.119 1.322.178h1.064c.441-.06.886-.1 1.324-.183a8.612 8.612 0 005.138-2.779 9.952 9.952 0 002.209-9.347 8.835 8.835 0 00-4.777-6.094zm-.358 11.678a4.323 4.323 0 01-8.07-.017 7.975 7.975 0 010-5.845 4.125 4.125 0 013.4-2.751 4.339 4.339 0 014.677 2.734 7.66 7.66 0 01.509 2.982 7.78 7.78 0 01-.516 2.896zm44.515 3.579a28.209 28.209 0 01-.22-3.6c-.024-1.8.038-3.6.022-5.4-.009-.949-.075-1.9-.17-2.844a4.044 4.044 0 00-2.313-3.371 5.3 5.3 0 00-1.211-.493 18.552 18.552 0 00-2.417-.4 15.487 15.487 0 00-4.674.232 6.237 6.237 0 00-4.86 4.871 1 1 0 00.183.074q1.881.342 3.764.677c.4.072.407.066.568-.319a2.683 2.683 0 011.9-1.776 5.871 5.871 0 013.038.093 1.746 1.746 0 011.4 1.585c.028.344.033.689.068 1.032a.339.339 0 01-.291.42c-1.152.3-2.3.607-3.455.9-1.317.329-2.664.558-3.952.973a5.177 5.177 0 00-3.438 6.948 5.082 5.082 0 003.9 3.305c.475.121.969.164 1.455.242h.9c.182-.028.364-.058.546-.083a8.1 8.1 0 004.431-2.148c.081-.074.163-.146.271-.242.053.146.1.256.134.37.144.452.295.9.423 1.359a.329.329 0 00.381.291c1.4-.014 2.8-.007 4.2-.008.08 0 .16-.008.269-.014-.046-.108-.087-.19-.115-.276a15.31 15.31 0 01-.737-2.398zm-5.159-2.685a2.335 2.335 0 01-.737 1.2 3.937 3.937 0 01-3.858 1.059 2.452 2.452 0 01-1.694-2.988 1.966 1.966 0 011.063-1.234 11.391 11.391 0 012.574-.815c.914-.218 1.823-.453 2.734-.68a1.208 1.208 0 01.15-.013 13.66 13.66 0 01-.232 3.471zm72.001-7.176c-.062-.592-.1-1.188-.185-1.777a4.9 4.9 0 00-2.97-3.95 7.368 7.368 0 00-4.3-.48 7.216 7.216 0 00-4.5 2.7l-.281.333c-.011-.187-.021-.285-.021-.382 0-.672-.01-1.344 0-2.015 0-.236-.052-.326-.309-.323-1.287.013-2.575.005-3.862.007-.1 0-.194.016-.288.024v18.391h4.827v-.383c0-2.995-.018-5.99.017-8.984a16.227 16.227 0 01.272-2.831 3.634 3.634 0 013.475-2.949 2.767 2.767 0 013.149 2.612 27.314 27.314 0 01.16 2.761c.02 3.144.008 6.288.009 9.432v.365h.44l4.421.013V36.623c-.016-.124-.041-.241-.054-.358zm-52.142 10.118c-.06-.522-.122-1.044-.186-1.588-.309.1-.579.193-.857.264s-.563.128-.847.171a1.208 1.208 0 01-1.516-1.027c-.035-.371-.06-.744-.061-1.117q-.012-4.269-.012-8.537c0-.1.01-.2.017-.323h3.276v-3.861h-3.3v-6.466c-.091.04-.151.06-.2.091q-2.222 1.3-4.445 2.591a.355.355 0 00-.191.36c.005 1.054 0 2.109.006 3.163 0 .2-.059.279-.272.274-.56-.013-1.12.006-1.679-.009-.234-.006-.3.072-.3.3.01 1.045 0 2.09 0 3.135v.409c.131.01.231.023.331.024h1.288c.626 0 .626 0 .626.641 0 2.407-.013 4.815.006 7.222.009 1.146.053 2.293.125 3.437A3.682 3.682 0 00129 49.095c.354.073.713.119 1.07.177h1.008a2.563 2.563 0 01.324-.062 9.492 9.492 0 002.666-.574.307.307 0 00.233-.394c-.088-.618-.148-1.239-.219-1.859zM77.776 25.101c0 .376 0 .376.382.376h4.114c.108 0 .216-.013.35-.021V.39c0-.13.013-.26.02-.389h-4.871v.364q.005 12.367.005 24.736zM23.921 4.189c0 .267.085.326.333.324 1.4-.01 2.794 0 4.191-.006.1 0 .2-.012.335-.021V0h-4.871c.006.111.018.222.018.333.001 1.285.008 2.571-.006 3.856zm24.394 20.212a8.4 8.4 0 002.958-4.779 15.522 15.522 0 00.34-4.721 10.183 10.183 0 00-.959-3.908 7.267 7.267 0 00-6.162-4.348 6.6 6.6 0 00-6.06 2.814l-.187.246-.066-.03v-2.59H33.74v41.989h4.838V23.298l.072-.029c.252.262.5.53.756.785a6.715 6.715 0 008.909.347zm-8.974-4.357a6.439 6.439 0 01-.771-2.547c-.056-.49-.071-.985-.091-1.284a8.272 8.272 0 01.539-3.339 3.843 3.843 0 015.093-2.128 3.782 3.782 0 012.133 2.4 10.056 10.056 0 01-.049 6.424 3.518 3.518 0 01-2.751 2.447 3.82 3.82 0 01-4.103-1.974zm20.251 4.792a10.124 10.124 0 006.192.974 8.681 8.681 0 005.265-2.588 9.615 9.615 0 002.686-5.855 9.952 9.952 0 00-.794-5.323 8.73 8.73 0 00-5.33-4.943 11 11 0 00-5.057-.352 8.592 8.592 0 00-4.552 2.041 9.622 9.622 0 00-3.244 7.33c.1.849.148 1.708.3 2.547a8.373 8.373 0 004.534 6.169zm.241-9.653a6.963 6.963 0 01.411-1.757 4.2 4.2 0 013.324-2.8 4.315 4.315 0 014.7 2.542 7.22 7.22 0 01.581 2.993 8.171 8.171 0 01-.451 2.909 4.3 4.3 0 01-4.132 2.9 4.385 4.385 0 01-4.1-3.01 8.323 8.323 0 01-.332-3.777z" fill="#a4198a"/><path d="M31.673 37.23a21.326 21.326 0 00-.174-2.562 4.984 4.984 0 00-3.635-4.373 7.615 7.615 0 00-3.949-.185 7.292 7.292 0 00-4.24 2.676c-.067.08-.138.157-.207.235l-.06-.028v-2.606c-.131-.006-.231-.014-.332-.014-1.278 0-2.556.008-3.834-.007-.28 0-.335.09-.335.35q.01 8.872.005 17.744v.338h4.846v-.376c.016-3.237.017-6.474.058-9.71a10.864 10.864 0 01.249-2.188 3.683 3.683 0 013.676-2.887 2.709 2.709 0 012.919 2.49 21.7 21.7 0 01.168 2.7c.02 3.209.009 6.418.01 9.628v.337h4.844v-.315c-.001-3.746.013-7.497-.009-11.247zm25.415-2.8a4.681 4.681 0 00-1.928-3.281 6.978 6.978 0 00-5.633-1.026 7.128 7.128 0 00-4.145 2.575c-.093.108-.183.219-.327.39-.01-.188-.02-.287-.02-.387 0-.672-.01-1.344 0-2.015.005-.25-.082-.317-.323-.315-1.287.01-2.575 0-3.863.005-.091 0-.182.01-.284.017v18.4h4.825v-.387c.018-3.321.023-6.642.066-9.962a9.216 9.216 0 01.254-1.99 3.684 3.684 0 013.57-2.809 2.736 2.736 0 013.021 2.567 22.675 22.675 0 01.162 2.648c.019 3.191.008 6.382.008 9.572v.362h4.851v-.3c0-3.779.014-7.557-.011-11.336a21.116 21.116 0 00-.223-2.728zm39.345-4.061c-.18 0-.237.089-.29.234-1.458 4.005-3.083 7.95-4.366 12.019-.029.093-.068.183-.129.345-.058-.157-.091-.239-.118-.322-.29-.894-.551-1.8-.872-2.681-1.139-3.132-2.3-6.256-3.445-9.385-.065-.178-.171-.21-.338-.209h-4.507c-.081 0-.162.01-.274.018.032.1.046.15.067.2q3.639 9 7.275 18a.317.317 0 00.354.224c1.25-.008 2.5-.011 3.751 0a.379.379 0 00.418-.293q3.259-8.217 6.532-16.43l.672-1.694a1.317 1.317 0 00-.168-.027c-1.52.005-3.041.007-4.562.001zm45.675-.002c-1.381.01-2.762 0-4.143 0-.368 0-.368 0-.368.367v17.72c0 .109.013.219.021.339h4.822v-.306q0-8.9.006-17.8c-.001-.269-.093-.321-.338-.32zM23.937 25.478h4.471c.363 0 .364 0 .364-.366V7.09h-4.835zm113.66 2.053c0 .09.014.181.022.273a1.506 1.506 0 00.161.02c1.474 0 2.948 0 4.421.005.212 0 .242-.093.241-.27v-3.945c0-.072-.014-.144-.026-.251h-.282c-1.408 0-2.817.006-4.225-.006-.246 0-.318.065-.316.313.01 1.282.003 2.569.004 3.861zM49.373 5.826h1.775v1.77h.559V5.804h1.67V5.25H51.73c-.009-.107-.019-.18-.02-.253 0-.438-.01-.877 0-1.315.006-.212-.07-.292-.275-.265-.1.013-.195.016-.307.025v1.8c-.138.007-.239.017-.34.017-.4 0-.8.007-1.2 0-.184 0-.258.064-.237.245.011.096.014.194.022.322zm7.101 22.869c-.051.487-.051.487.384.487h3.3c.462 0 .474-.015.375-.487zM12.581 10.411c0-.081-.011-.162-.017-.254H7.75c0 .105-.011.179-.011.253 0 1.3.005 2.61-.006 3.914 0 .238.076.3.3.3q2.125-.013 4.25 0c.226 0 .3-.056.3-.3-.007-1.299-.001-2.604-.002-3.913z" fill="#a4198a"/></svg>