<svg xmlns="http://www.w3.org/2000/svg" width="103.182" height="90.729"><path d="M71.714 54.681h25.309a15.2 15.2 0 001.4-2.356H73.451a19.432 19.432 0 01-1.737 2.356z" fill="#e4332d"/><path d="M54.907 63.671c-14.869 4.093-33.23 1.167-38.691-1.411l8.04-9.886S36.7 60.25 47.317 60.25s22.758-3.035 22.758-11.08c0-7.09-6.373-6.645-14.853-9.587H0c.945 20.586 23.4 36.992 50.96 36.992 19.039 0 35.64-7.779 44.4-19.348H69.223c-2.923 2.356-7.307 4.511-14.316 6.444zm-9.441-28.794H.19c-.09.787-.157 1.569-.19 2.356h49.4a17.742 17.742 0 01-3.934-2.356zM50.96.029c-20.776 0-38.648 9.365-46.59 22.692h38.517c.271-.391.575-1.086.917-1.629C48.691 13.357 59.89 6.829 69.32 6.829s12.437 4.4 7.888 9.859-6.829 7.125-8.952 8.341c1.971-3.339 2.579-5.309 2.579-8.648s-3.643-4.252-7.736-4.252-10.779 2.715-13.507 6.83-1.819 9.419 3.643 10.928 15.934 3.74 19.571 6.015a7.66 7.66 0 013.2 4.468h25.852c.043-.787.065-1.363.065-2.009C101.942 17.244 79.114.029 50.96.029z" fill="#e4332d"/><path d="M41.904 25.273H3.067a15.326 15.326 0 00-1.053 2.351h39.451a10.369 10.369 0 01.439-2.351zm-.14 4.707H1.189c-.233.782-.44 1.764-.608 2.351h42.43a5.087 5.087 0 01-1.249-2.351zm34.625 15.109h24.761c.185-.782.337-1.569.461-2.351H76.47a11.362 11.362 0 01-.081 2.351zm-1.153 3.964c-.152.315-.3.543-.461.923h24.782c.337-.977.635-1.569.9-2.351H75.824c-.169.389-.364.943-.588 1.428z" fill="#e4332d"/><path d="M62.67 83.823c-1.781-.369-3.122-.646-3.122-1.943 0-1.211.955-1.906 2.606-1.906s2.714.679 2.861 2.345h1.477c-.1-2.476-1.781-3.61-4.224-3.61-2.074 0-4.18.923-4.18 3.257s2.172 2.714 4.017 3.16 3.35.727 3.35 2.215c0 1.629-1.52 2.106-2.866 2.106-1.846 0-3.366-.727-3.431-2.818h-1.472c0 2.785 2.02 4.061 4.772 4.061 2.2 0 4.484-.939 4.484-3.5 0-2.395-2.394-2.976-4.272-3.367zm4.919-4.886h1.52v11.525h-1.52zm10.52 9.35l-6.086-9.354h-1.666v11.525h1.455v-9.241l6.053 9.245h1.716V78.937H78.11zm7.666-3.926v1.241h3.692c-.065 2.22-1.2 3.871-3.626 3.871s-4.066-1.846-4.066-4.728 1.574-4.772 4.082-4.772a3.105 3.105 0 013.333 2.508h1.471c-.206-2.492-2.508-3.8-4.821-3.8-3.594 0-5.6 2.714-5.6 6.1 0 3.545 2.22 5.939 5.489 5.939a4.392 4.392 0 003.724-1.715l.385 1.444h.972v-6.091zm-65.58-5.424l-3.415 5.489-3.452-5.489h-1.83l4.484 6.813v4.712h1.509V85.75l4.452-6.813zm3.654 0l-4.533 11.525h1.629l1.314-3.529h4.837l1.281 3.529h1.7l-4.5-11.525zm-1.167 6.781l1.992-5.342 1.96 5.326zm4.484-5.456h3.871v10.2h1.52v-10.2h3.869v-1.325h-9.26zM99.562 4.806a1.628 1.628 0 00-.376-.235 1.633 1.633 0 001.006-.436 1.187 1.187 0 00.335-.845 1.342 1.342 0 00-.2-.711 1.053 1.053 0 00-.523-.446 2.787 2.787 0 00-.983-.121h-2.09v4.7h.624V4.621h.724a2.09 2.09 0 01.335.02.932.932 0 01.285.127 1.342 1.342 0 01.315.312c.117.151.268.369.449.651l.647.973h.785l-.822-1.281a3.2 3.2 0 00-.511-.617zm-.852-.721h-1.348V2.521h1.489a1.147 1.147 0 01.768.215.708.708 0 01.242.55.768.768 0 01-.124.423.691.691 0 01-.366.282 1.982 1.982 0 01-.663.094z"/><path d="M98.821 0a4.36 4.36 0 104.36 4.36A4.36 4.36 0 0098.821 0zm0 8.218a3.857 3.857 0 113.857-3.857 3.857 3.857 0 01-3.857 3.857z"/></svg>