<svg xmlns="http://www.w3.org/2000/svg" width="162.226" height="58.544"><g fill="#384b99" fill-rule="evenodd"><path d="M21.733 45.002a165.267 165.267 0 0041.31 7.865 244.031 244.031 0 0041.358-.453c1.838-.174 3.713-.453 5.54-.618v-35.83l5.27-.027v3.459c.546-.523 1.327-2.925 4.088-3.81a7.346 7.346 0 016.316.933c3.027 2.169 4.528 6.189 4.528 11.4-.014 5.1-1.374 9.3-4.163 11.681a6.993 6.993 0 01-8.8.061 6.211 6.211 0 01-.926-1.08c-.278-.371-.509-.869-.786-1.2l-.027 13.628c2.914-.344 8.716-1.524 11.663-2.2 9.755-2.228 22.208-6.135 29.33-12.148 2.051-1.73 4.9-4.5 5.589-8.249a10.172 10.172 0 00-2.117-7.923 14.745 14.745 0 00-1.619-1.9c-.328-.3-.534-.566-.865-.853a34.882 34.882 0 00-7.176-4.94 65.46 65.46 0 00-9.635-4.187c-14.637-5.074-30.353-7.29-47.089-8.266A228.081 228.081 0 0041.793 3.39c-.118.435-.041 10.414-.041 11.772a38.091 38.091 0 00.025 3.914c.969-2.359 3.255-3.978 6.629-3.808a6.627 6.627 0 016.112 4.478c.906 2.588.6 7.018.6 10.036 0 .874.054 9.977-.025 10.588h-5.435c-.129-1.791-.014-4.03-.014-5.859v-5.886c0-3.706.623-8.258-3.957-7.905a4 4 0 00-3.38 2.515c-.711 1.567-.582 3.45-.582 5.318v5.886c0 1.872.106 4.075-.011 5.915l-5.433.016V4.509a50.178 50.178 0 00-5 1.17C21.911 8.101 8.057 12.864 2.599 20.1c-9.451 12.528 9.47 21.594 19.134 24.902zm68.3-29.049l.023 3.509a10.134 10.134 0 012.377-2.993 6.99 6.99 0 0110.457 3.133c.987 2.422.659 7.208.659 10.113 0 .874.054 10.04-.02 10.663h-5.43c-.129-1.811-.014-4.075-.014-5.927v-5.887c0-3.622.566-8.222-3.953-7.828a4.026 4.026 0 00-3.373 2.59c-.668 1.637-.541 3.4-.541 5.311 0 .973.057 11.059-.02 11.738l-5.433-.018V15.93zm-17.137 5.831c-.835-1.605-4.272-1.721-5.537-.575-.786.713-.849 1.383-1.073 2.676h-5.228a11.759 11.759 0 011.345-5.046c1.811-3.194 5.671-3.849 9.227-3.511a8.693 8.693 0 014.681 1.761 6.167 6.167 0 012.2 4.245c.174 1.569.063 10.5.063 12.827 0 1.881-.244 4.555 1.168 5.3l-.018.921-5.834-.016a10.436 10.436 0 01-.5-2.665c-.226.036-.091.023-.247.181a19.468 19.468 0 01-1.673 1.628c-4.134 3.26-10.479 1.881-11.093-4.539-.417-4.353 1.476-8.136 6.1-8.91 1.447-.258 5.3-.711 6.135-1.39a2.327 2.327 0 00.284-2.887z"/><path d="M162.201 31.43a.853.853 0 00-.048-.2l-.052-.125c-.05.079 0-.038-.084.168a1.168 1.168 0 00-.054.172 11.027 11.027 0 01-1.983 4.249c-6.3 8.408-21.072 12.924-31.039 15.394-14.663 3.645-32 5.168-47.982 5.159-16.25 0-32.982-1.585-47.921-5.207-8.68-2.108-23.132-6.674-29.486-13.735C.195 33.578.521 31.702.101 30.873a7.865 7.865 0 00.192 3.09 13.892 13.892 0 003.889 6.289 18.812 18.812 0 001.826 1.621c.654.507 1.218.967 1.927 1.44a59.541 59.541 0 0013.7 6.66c18.065 6.293 39.579 8.553 59.313 8.569 20.965.014 50.6-2.925 68.925-12.589 2.117-1.116 6.4-3.749 8.023-5.594.548-.625.944-.906 1.641-1.8a13.41 13.41 0 001.358-2.022 10.6 10.6 0 001.306-5.107z"/><path d="M120.694 35.763c2.954-.582 3.951-4.829 3.787-8.279s-1.551-7.283-5.433-6.527c-3.561.695-3.925 5.207-3.824 8.249a9.183 9.183 0 001.279 4.729 4 4 0 004.191 1.828zM65.808 33.51c0 5.173 7.43 3.115 7.43-1.791v-3.187c-.364.181-.55.376-1 .561-2.72 1.123-6.43.469-6.43 4.417z"/></g></svg>