<svg xmlns="http://www.w3.org/2000/svg" width="192" height="38.982"><path d="M46.853 12.719h3.635v14.975h-3.635z"/><path d="M59.101 12.719h-6.027v14.975h3.64v-5.556h1.985a4.016 4.016 0 003.263-1.277 5.36 5.36 0 001.069-3.545 5.231 5.231 0 00-.981-3.4 3.6 3.6 0 00-2.949-1.197zm-.024 5.92a1.937 1.937 0 01-1.473.465h-.89v-3.341h1.032a1.645 1.645 0 011.385.491 1.939 1.939 0 01.368 1.2 1.692 1.692 0 01-.422 1.19zm12.426 3.192l-1.84-9.112h-4.77v14.975h2.97v-11.42l2.285 11.42h2.689l2.289-11.42v11.42h2.971V12.719h-4.768z" fill-rule="evenodd"/><path d="M79.569 20.626h4.739v3.218h-4.739z"/><path d="M85.045 16.417h3.7v11.277h3.627V16.417h3.7v-3.7H85.045zm17.706-3.953a5.346 5.346 0 00-4.46 2.043 9.059 9.059 0 00-1.6 5.711 10.4 10.4 0 00.809 4.372 5.713 5.713 0 002.11 2.554 6.149 6.149 0 003.287.808 5.471 5.471 0 003.262-.935 5.9 5.9 0 002.008-2.614 11.447 11.447 0 00.693-4.306 8.889 8.889 0 00-1.579-5.623 5.425 5.425 0 00-4.53-2.01zm1.834 11.053a2.143 2.143 0 01-3.6-.02 8.393 8.393 0 010-6.537 2.036 2.036 0 011.764-.993 2.09 2.09 0 011.814.976 5.567 5.567 0 01.668 3.09 6.73 6.73 0 01-.643 3.483zm14.056-2.512l-4.42-8.286h-3.386v14.975h3.411v-8.222l4.4 8.222h3.419V12.719h-3.419zm9.457.344h5.644v-3.054h-5.644v-2.38h6.085v-3.2h-9.72V27.69h9.9V24.3h-6.261zm17.543 1.076a4.4 4.4 0 00-.58-.79 3.326 3.326 0 00-.944-.552 3.5 3.5 0 002.419-2.058 5.1 5.1 0 00.416-2.151 4.991 4.991 0 00-.545-2.425 2.915 2.915 0 00-1.432-1.365 7.037 7.037 0 00-2.57-.368h-6.042v14.977h3.642v-6.076h.32a1.3 1.3 0 01.889.347 3.5 3.5 0 01.656 1.154l1.937 4.576h4.1l-1.756-4.339a6.206 6.206 0 00-.51-.93zm-2.559-4.312a.961.961 0 01-.589.47 4.378 4.378 0 01-.961.2h-1.53v-3.045h1.594a1.827 1.827 0 011.354.388 1.571 1.571 0 01.36 1.113 1.644 1.644 0 01-.228.874z" fill-rule="evenodd"/><ellipse cx="2.845" cy="2.842" rx="2.845" ry="2.842" transform="translate(20.316 22.74)"/><ellipse cx="2.845" cy="2.842" rx="2.845" ry="2.842" transform="translate(28.442 22.74)"/><ellipse cx="2.845" cy="2.842" rx="2.845" ry="2.842" transform="translate(36.52 22.815)"/><ellipse cx="2.842" cy="2.845" rx="2.842" ry="2.845" transform="rotate(-89.89 27.638 -5.728)"/><ellipse cx="2.842" cy="2.845" rx="2.842" ry="2.845" transform="rotate(-89.89 23.575 -1.657)"/><ellipse cx="2.845" cy="2.842" rx="2.845" ry="2.842" transform="translate(29.255 9.746)"/><ellipse cx="2.845" cy="2.842" rx="2.845" ry="2.842" transform="translate(149.527 9.746)"/><path d="M160.5 15.431a2.842 2.842 0 10-2.844-2.842 2.842 2.842 0 002.844 2.842zm8.121-5.685a2.842 2.842 0 102.844 2.843 2.842 2.842 0 00-2.844-2.843z" fill-rule="evenodd"/><ellipse cx="2.845" cy="2.842" rx="2.845" ry="2.842" transform="translate(162.529 16.243)"/><ellipse cx="2.842" cy="2.845" rx="2.842" ry="2.845" transform="rotate(-89.89 88.178 -66.384)"/><ellipse cx="2.845" cy="2.842" rx="2.845" ry="2.842" transform="translate(158.465 22.74)"/><path d="M24.1 0L0 38.982h167.9L192 0zm142.278 34.922H6.542L25.622 4.06h159.832z" fill-rule="evenodd"/></svg>