<svg xmlns="http://www.w3.org/2000/svg" width="179.922" height="30.65"><path d="M171.297 13.777a101.565 101.565 0 001.181 16.244h-7.649s-1.743-2.067-3.662-4.43c-1.108-1.373-12.552-16.244-13.719-18-.443-.62-1.122-.369-1.181.384s-.5 8.181-.31 13.807c-.162-4.858 0 6.35 1.063 8.24h-7.974c1.152-2.112 1.063-12.877.975-8.137 0-3.825.148-8.993.1-11.282a76.078 76.078 0 00-1-10.425h11.045a8.861 8.861 0 001.3 2.776c8.461 12.522 12.508 18.016 13.6 17.72.31 0 .31-.487.31-1.048s.458-6.453.266-12.389v-.444s-.256-5.317-.946-6.616h7.959c-1.033 1.905-1.358 11.548-1.358 13.6zm-53.294 16.864a33.4 33.4 0 01-11.814-1.879 7.132 7.132 0 01-4.341-6.5c-.251-2.112 0-6.748.118-12.862 0 3.116.236-6.852-1.034-9.215h7.974c-.724 1.344-.96 6.66-.96 6.66a102.083 102.083 0 000 13.29c.31 4.627 2.791 5.327 4.536 5.827a23.716 23.716 0 005.671.679 23.88 23.88 0 005.657-.679c1.727-.5 4.223-1.2 4.518-5.818a102.08 102.08 0 000-13.29s-.446-5.377-1.17-6.662h7.974c-1.285 2.363-.989 12.33-1.048 9.215.133 6.114.369 10.75.133 12.862a7.118 7.118 0 01-4.43 6.5 33.226 33.226 0 01-11.814 1.875zm-39.561-.546h7.974c-1.122-2.067-1.477-11.533-1.477-12.389V5.772s-.133-1 1.61-1.181a74.412 74.412 0 0110.869.118l.34-4.487H67.116l.192 4.5a74.412 74.412 0 0110.869-.118c1.728.177 1.61 1.181 1.61 1.181v11.936c.058 1.211-.045 9.923-1.345 12.374zM51.286 4.578a6.232 6.232 0 00-1.078 1.654A124.482 124.482 0 0044.3 18.946c-2.112 5.3-3.839 11.164-3.839 11.164H23.952l-10.765-8.772c-.989-.812-3.47-2.88-4.09-3.308s-1.92-.5-1.92.62v4.77c0 .162.251 5.331.975 6.675H.251a101.89 101.89 0 001.226-16.332C1.477 11.71 1.034 2.097 0 .177h8.284c-1.2 2.245-1.078 13.113-.989 7.354 0 4.312 0 4.622.428 4.681a4.253 4.253 0 003.177-1.314c1.477-1.314 8.2-6.808 8.993-7.561s2.258-2.348 3.04-3.16H33.8s-5.743 3.47-10.734 7.206-8.018 6.2-8.506 6.645 0 1.24.93 1.994 11.09 9.082 14.339 10.868a16.406 16.406 0 002.953 1.713c.546 0 4.991-7.723 8-14.235.95-2.067 5.084-11.811 4.951-14.161h11.814c-.133 2.407 4.017 12.109 4.962 14.161a114.562 114.562 0 008.86 15.756h-8.491s-1.728-5.906-3.84-11.167a124.486 124.486 0 00-5.906-12.711 6.232 6.232 0 00-1.063-1.654.532.532 0 00-.384-.162.5.5 0 00-.399.148zm122.728-1.625a2.953 2.953 0 112.953 2.953 2.953 2.953 0 01-2.953-2.953zm2.953 2.422a2.333 2.333 0 002.318-2.422 2.348 2.348 0 10-2.333 2.363zm-.62-.753h-.5v-3.4h1.27c.8 0 1.181.3 1.181.945a.871.871 0 01-.871.93l.96 1.477h-.576l-.873-1.474h-.591zm.605-1.875c.428 0 .812 0 .812-.546s-.369-.487-.724-.487h-.694v1.033z" fill="#004990"/></svg>