<svg xmlns="http://www.w3.org/2000/svg" width="172.867" height="50.735"><path d="M69.579 32.422a4.48 4.48 0 01-1.17 3.313 5.038 5.038 0 01-6.474-.018 4.489 4.489 0 01-1.17-3.3V16.692h-7.951v15.365a15.4 15.4 0 00.739 4.36 8.165 8.165 0 001.7 2.971 9.312 9.312 0 002.735 2.224 10.753 10.753 0 003.721 1.046 35.113 35.113 0 004.108.263 16.074 16.074 0 005.577-.861 8.912 8.912 0 003.193-2.136 9.325 9.325 0 002.234-3.551 12.942 12.942 0 00.712-4.315V6.501l-7.951 4.463zm22.93-9.045a7.965 7.965 0 00-3.729.8 9.916 9.916 0 00-3.025 2.665v-3.044h-6.667v18.683h7.159V33.51a5.734 5.734 0 01.809-3.536 2.6 2.6 0 012.111-.985 2.324 2.324 0 011.829.73 3.742 3.742 0 01.651 2.489v14.663l7.2-3.043V30.607q0-3.694-1.68-5.462a6.111 6.111 0 00-4.658-1.768zm7.829.422h7.16v18.682h-7.16zm0-7.107h7.16v4.873h-7.16zm27.177 14.267l-9.71-14.268h-7.441V42.48h7.494V28.32l9.658 14.16h7.511V13.804h-7.512zm26.095-6.368a13.794 13.794 0 00-6.333-1.214 10.691 10.691 0 00-7.749 2.709 9.409 9.409 0 00-2.806 7.089 10.036 10.036 0 001.4 5.357 8.574 8.574 0 003.527 3.325 13.43 13.43 0 005.84 1.047 14.185 14.185 0 006.562-1.223 10.1 10.1 0 003.905-4.037l-7.054-.651a4.716 4.716 0 01-1.249 1.179 4.069 4.069 0 01-2.006.528 3.394 3.394 0 01-2.709-1.214 4.632 4.632 0 01-.933-2.568h14.352v-.809a12.862 12.862 0 00-1.214-6 8.2 8.2 0 00-3.533-3.518zm-9.587 6.9a4.959 4.959 0 01.827-2.515 3.505 3.505 0 015.11-.457 4.789 4.789 0 011.117 2.973zm28.317 5.889a7.859 7.859 0 01-2.217.457 1.309 1.309 0 01-1.231-.6 3.559 3.559 0 01-.229-1.58v-6.619h3.94v-5.242h-3.94v-9.338l-7.177 3.677v5.662h-2.639v5.242h2.639v6.571a12.234 12.234 0 00.607 4.524 4.178 4.178 0 001.874 2.082 8.63 8.63 0 003.94.685 23.323 23.323 0 004.961-.58zM50.2 20.282A25.378 25.378 0 0028.324.182c-.052-.061-.1-.123-.156-.184l-.159.148a25.612 25.612 0 00-5.313 0l-.159-.148-.156.184a25.312 25.312 0 00-22.37 24.31c-.01.29-.016.581-.016.873a25.342 25.342 0 0022.386 25.183l.156.184.159-.148a25.595 25.595 0 005.313 0l.159.148.156-.184a25.335 25.335 0 0022.387-25.183c0-.292-.007-.583-.017-.873a25.417 25.417 0 00-.494-4.21zm-3.839 1.565a60.161 60.161 0 01-8.749 2.491 38.811 38.811 0 00-.977-7.714 51.309 51.309 0 007.041-2.105 21.154 21.154 0 012.69 7.329zm-14.59 14.6c-2.123.186-4.263.285-6.417.285s-4.294-.1-6.418-.285a34.52 34.52 0 01-1.595-7.307 65.444 65.444 0 0016.025 0 34.512 34.512 0 01-1.591 7.302zm-5.488 10.2a20.465 20.465 0 01-1.858 0 34.464 34.464 0 01-3.76-6q2.327.141 4.689.143t4.689-.143a34.465 34.465 0 01-3.756 6.001zm-.929-21.076a61.619 61.619 0 01-8.212-.55 34.912 34.912 0 01.925-7.672 51.968 51.968 0 0014.574 0 34.934 34.934 0 01.924 7.672 61.616 61.616 0 01-8.207.549zm-.929-21.482a20.465 20.465 0 011.858 0 34.371 34.371 0 015.181 9.329 48.446 48.446 0 01-12.22 0 34.371 34.371 0 015.185-9.33zm16.745 7.027a47.111 47.111 0 01-5.657 1.6 38.564 38.564 0 00-3.606-7.62 21.355 21.355 0 019.267 6.02zM18.8 5.1a38.55 38.55 0 00-3.606 7.62 47.1 47.1 0 01-5.657-1.6A21.355 21.355 0 0118.8 5.1zm-4.729 11.524a38.793 38.793 0 00-.977 7.714 60.158 60.158 0 01-8.749-2.491 21.156 21.156 0 012.684-7.329 51.3 51.3 0 007.046 2.106zM4.069 26.048a64.438 64.438 0 009.14 2.436 38.6 38.6 0 001.331 7.437 71.11 71.11 0 01-8.62-1.848 21.155 21.155 0 01-1.851-8.025zm4.958 12.976q3.448.754 7.007 1.19a38.608 38.608 0 002.769 5.417 21.367 21.367 0 01-9.775-6.603zm22.884 6.607a38.593 38.593 0 002.769-5.417q3.557-.435 7.007-1.19a21.369 21.369 0 01-9.776 6.611zm4.263-9.71a38.614 38.614 0 001.331-7.437 64.455 64.455 0 009.141-2.436 21.16 21.16 0 01-1.851 8.025 71.115 71.115 0 01-8.621 1.852z" fill="#fc492d"/></svg>