<svg xmlns="http://www.w3.org/2000/svg" width="196.676" height="84.132"><path d="M74.999 54.01H62.125v6.5h12.624v17.122h-9.831a3.477 3.477 0 010-6.953h2.646v-6.5h-2.646a9.977 9.977 0 000 19.953h16.331V60.26a6.258 6.258 0 00-6.25-6.25z"/><path d="M36.906 69.5c.726-5.453 3.452-7.975 10.2-8.733-2.9 5.815-4.991 10.024-4.991 10.024l5.822 2.891s3.353-6.753 7.461-14.969l2.352-4.7h-5.259c-6.007 0-20.074 0-22.024 14.631a13.973 13.973 0 008.572 15.292l.543.2h12.909v-6.5H40.849c-1.313-.674-4.64-2.915-3.943-8.136zm93.593 4.182s3.352-6.753 7.461-14.969l2.351-4.7h-5.262c-6.006 0-20.073 0-22.025 14.631a13.974 13.974 0 008.573 15.292l.543.2h12.909v-6.5H123.41c-1.312-.67-4.639-2.908-3.943-8.132.728-5.453 3.454-7.975 10.2-8.733-2.9 5.815-4.992 10.024-4.992 10.024zm-42.25 10.45h7.619l18.424-30.122h-7.619l-7.967 13.025-8.373-13.025h-7.727l12.332 19.185zm-70.414 0L33.322 54.01h-7.309l-9.377 18.239L7.303 54.01h-7.3l15.414 30.122z"/><path d="M138.282 0l26.457 17.386-19.653 45.165L196.676 0z" fill="#d62f2d"/><path d="M163.741 54.803h-1.5v1.235h-8.557v1.5h8.557v1.145h-6.047v6.7h6.047v1.524h-7.423v1.5h16.441v-1.5h-.817a3.026 3.026 0 01-1.416-1.524h.762v-6.7h-6.047v-1.145h8.557v-1.5h-8.557zm-1.5 5.38v1.1h-4.547v-1.1zm-4.547 3.7v-1.1h4.547v1.1zm10.594 0h-4.547v-1.1h4.547zm-.116 3.024h-4.431v-1.524h3.746a3.3 3.3 0 00.685 1.521zm.116-6.721v1.1h-4.547v-1.1zm-14.525 13.513l.976 1.138c1.448-1.241 2.31-4.01 2.4-4.322l-1.438-.431a9.35 9.35 0 01-1.938 3.615zm15.929-4.42l-1.025 1.1a8.716 8.716 0 011.893 2.748l1.4-.545a10.138 10.138 0 00-2.268-3.303zm-2.963 3.49a12.931 12.931 0 01-2.935.276 18.986 18.986 0 01-3.88-.408v-3.566h-1.5v4.722l.544.156a19.26 19.26 0 004.836.6 10.418 10.418 0 004-.54l.44-.2v-2.372h-1.5z"/><path d="M163.014 71.738l1.371-.61a2.91 2.91 0 00-2.637-2.048l.094 1.5c.026-.004.663.013 1.172 1.158zm28.177-15.442l.613-.114v-1.851h-1.5v.592c-3.782.565-13.317 1.11-13.419 1.116l.086 1.5c.443-.028 10.904-.626 14.22-1.243zm-1.05 3.616l.686-1.372-1.342-.67-1.021 2.042h-3.723v-2.085h-1.5v2.085h-2.283l-.676-1.952-1.418.49.506 1.462h-3.948v4.151h1.5v-2.651h15.227v2.651h1.5v-4.151z"/><path d="M186.887 71.982a18.434 18.434 0 003.87-3.88l.9-1.2h-9.383a13.141 13.141 0 00.9-1.524h7.365v-1.5h-6.74a7.731 7.731 0 00.4-1.808l-1.5-.084a6.829 6.829 0 01-.49 1.892h-4.335v1.5h3.595a15.6 15.6 0 01-5.679 5.409l.766 1.289a19.366 19.366 0 004.184-3.284 18.313 18.313 0 003.317 3.188 12.67 12.67 0 01-6.134 1.538l-.1 1.5c.036 0 .16.01.362.01a14.874 14.874 0 007.287-2.113 14.42 14.42 0 007.647 2.1l-.1-1.5a12.733 12.733 0 01-6.132-1.533zm-4.526-3.578h6.22a3.135 3.135 0 01-6.22 0z"/></svg>