<svg xmlns="http://www.w3.org/2000/svg" width="182.61" height="34.316"><circle cx="2.731" cy="2.731" r="2.731" transform="translate(0 1.876)" fill="#495eae"/><circle cx="2.731" cy="2.731" r="2.731" transform="translate(0 14.686)" fill="#495eae"/><circle cx="2.731" cy="2.731" r="2.731" transform="translate(0 26.979)" fill="#495eae"/><circle cx="3.728" cy="3.728" r="3.728" transform="translate(10.667 .879)"/><circle cx="4.422" cy="4.422" r="4.422" transform="translate(9.972 12.995)" fill="#495eae"/><circle cx="5.355" cy="5.355" r="5.355" transform="translate(21.7 12.063)"/><circle cx="4.607" cy="4.607" r="4.607" transform="translate(22.448 25.103)"/><circle cx="3.826" cy="3.826" r="3.826" transform="translate(10.568 25.883)"/><circle cx="4.607" cy="4.607" r="4.607" transform="translate(22.448)"/><path d="M72.236 9.87c-1.91.228-2.256.606-3 2.682-.69 1.937-2.682 7.931-4.352 13.085h-1.49c-1.354-3.638-2.867-7.377-4.379-11.166-1.375 3.811-2.7 7.5-3.95 11.157h-1.539c-1.062-3.562-2.759-8.791-4.246-13.261-.663-1.921-1.061-2.35-2.682-2.5V8.94h8.014v.934c-1.991.177-2.043.557-1.672 1.87.876 2.905 1.8 5.86 2.682 8.613 1.353-3.561 2.627-7.375 3.849-11.291h1.407c1.459 3.865 2.98 7.629 4.431 11.324.982-2.728 2.256-6.946 2.628-8.385.371-1.49.106-1.946-2.177-2.123V8.94h6.475zm15.287 11.19c-.133.682-.876 3.588-1.114 4.294H72.635v-.909c2.414-.228 2.573-.353 2.573-2.476V12.32c0-2.147-.317-2.3-2.123-2.451v-.93h8.625c2.786 0 3.716-.025 4.087-.051.027.456.159 2.533.265 4.093l-1.034.127a6.28 6.28 0 00-1.144-2.354c-.478-.505-.822-.657-2.177-.657h-1.722c-1.007 0-1.114.051-1.114.909v5.28h2.6c1.49 0 1.751-.378 2.15-2.172h1.034v5.634h-1.034c-.425-1.868-.632-2.166-2.177-2.166h-2.575v4.347c0 1.742.054 2.272 1.7 2.3h1.885c1.49 0 1.883-.176 2.467-.858a11.286 11.286 0 001.62-2.525zm15.631-.151c-.213 1.086-.955 3.765-1.192 4.446H88.801v-.934c2.335-.149 2.548-.328 2.548-2.451v-9.624c0-2.122-.265-2.324-2.256-2.476v-.93h8.275v.934c-2.069.177-2.335.355-2.335 2.476v9.8c0 1.39.052 2.02 1.512 2.046.054.025 1.274.025 1.38.025a2.724 2.724 0 002.548-.985 10.54 10.54 0 001.672-2.627zm15.315 0c-.211 1.086-.955 3.765-1.192 4.446h-13.168v-.934c2.336-.149 2.548-.328 2.548-2.451v-9.624c0-2.122-.265-2.324-2.256-2.476v-.93h8.281v.934c-2.071.177-2.336.355-2.336 2.476v9.8c0 1.39.054 2.02 1.512 2.046.054.025 1.274.025 1.381.025a2.726 2.726 0 002.548-.985 10.542 10.542 0 001.672-2.627z"/><path d="M136.032 21.314a31.024 31.024 0 01-1.46 3.814 25.536 25.536 0 01-4.856.606c-6.343 0-9.58-4.023-9.58-8.438 0-5.154 4.114-8.715 10.057-8.715a27.661 27.661 0 015.017.581c.106 1.137.3 2.652.5 3.916l-.819.182c-.53-1.693-1.168-2.728-2.521-3.259a7.69 7.69 0 00-2.786-.48c-4.379 0-6.688 3.083-6.688 7.25 0 4.875 2.654 8.007 6.954 8.007 2.707 0 4.033-1.192 5.388-3.713zM157.054 9.64c-2.2.2-2.415.328-2.415 2.449v10.135c0 2.122.238 2.2 2.415 2.426v.706h-7.113v-.706c2.2-.253 2.415-.3 2.415-2.426V17.17h-9.075v5.052c0 2.1.212 2.172 2.384 2.426v.706h-7.082v-.706c2.15-.228 2.384-.3 2.384-2.426V12.091c0-2.122-.238-2.247-2.384-2.449V8.94h7.086v.708c-2.123.177-2.384.353-2.384 2.449v4.023h9.078v-4.023c0-2.1-.3-2.272-2.415-2.449V8.94h7.115zm2.681 15.715v-.706c2.177-.228 2.384-.329 2.384-2.476V12.14c0-2.172-.212-2.274-2.384-2.5v-.7h7.111v.708c-2.2.226-2.414.328-2.414 2.5v10.029c0 2.172.212 2.248 2.414 2.476v.706zm16.64-16.415a7.8 7.8 0 014.485 1.086 4.179 4.179 0 011.751 3.588c0 3.688-3.317 5.178-5.838 5.178a4.883 4.883 0 01-.717-.051l-1.831-.447v3.941c0 2.122.186 2.172 2.627 2.426v.706h-7.325v-.707c2.283-.228 2.384-.38 2.384-2.476V12.14c0-2.248-.291-2.3-2.384-2.5v-.7zm-2.15 8.463a5.119 5.119 0 001.937.328 3.684 3.684 0 003.981-4.041c0-2.779-1.91-3.89-4.141-3.89a2.53 2.53 0 00-1.49.3c-.213.177-.3.48-.3 1.162z" fill="#495eae"/></svg>