<svg xmlns="http://www.w3.org/2000/svg" viewBox="0 0 177.97 169.45"><defs><style>.cls-1{fill:#bababa}</style></defs><g id="Слой_2" data-name="Слой 2"><g id="Слой_1-2" data-name="Слой 1"><path class="cls-1" d="M174.27 156.2c-3.4-6.41-8.58-11.51-17.58-15.93s-24.3-8.83-29.31-10.49-9.81-2.93-13.55-7.26-3.57-12.36-3.57-12.36v-12H67.7v12s.17 8-3.56 12.36-8.54 5.6-13.55 7.26-20.31 6.07-29.31 10.49S7.09 149.79 3.7 156.2A35 35 0 000 169.45h178a35 35 0 00-3.73-13.25z"/><path class="cls-1" d="M39.82 133.2s-5.88-15.14-4.54-23 8.91-22.72 10.51-29.1S47.25 67.66 47 60.46s1.21-23.7 6.24-33.26S63.31 9.68 70.76 4.52s13.45-3 13.45-3S87.14 0 94.34 0s14.33 2.93 21.4 9.05S124 20 127 23.89s7.2 12.11 8 19.69 1.08 21 2.93 29.75 4.52 21.09 6.44 25.81a22.38 22.38 0 011.46 13.06c-.7 5-3.12 12-3.82 14.68a44.82 44.82 0 00-.87 7.36z"/><path d="M150.52 137.59c-8.66-3.42-19.15-6.49-23.14-7.81-5-1.66-9.81-2.93-13.55-7.26s-3.57-12.36-3.57-12.36v-12H67.7v12s.17 8-3.56 12.36-8.54 5.6-13.55 7.26c-4 1.32-14.49 4.39-23.15 7.81C56.63 157.55 89 155.52 89 155.52s32.34 2.03 61.52-17.93z" fill="#c9c9c9"/><path d="M89 15.86c-32.87 0-35.38 36.32-35.16 43.2s1.52 15.33 3.9 26.67 13.21 19.59 19.37 24.34A20.25 20.25 0 0089 114.28a20.25 20.25 0 0011.9-4.21c6.16-4.75 17-13 19.37-24.34s3.69-19.79 3.9-26.67-2.31-43.2-35.17-43.2z" fill="#d3d3d3"/><path class="cls-1" d="M71.91 17.27c1.44 6.15 17.09 27.82 52.24 41.79H127v-22.3l-25-24.91H73.69s-1.83 3.99-1.78 5.42z"/><path class="cls-1" d="M52.16 61.44S70.63 39.9 77 15.86H65.67L52.16 38.1z"/></g></g></svg>