<svg xmlns="http://www.w3.org/2000/svg" width="59.35" height="58.311"><path d="M40.157 35.944c-11.228-9.43-28.4-3.621-39.39-13.651a2.335 2.335 0 01-.608-2.573L7.411 1.113a1.745 1.745 0 012.749-.7c11.228 9.43 28.4 3.621 39.39 13.652a2.336 2.336 0 01.608 2.573l-7.255 18.604a1.745 1.745 0 01-2.746.702z" fill="#00d0d2"/><circle cx="5.021" cy="5.021" r="5.021" transform="translate(20.137 13.155)" fill="#00aeb9"/><circle cx="1.969" cy="1.969" r="1.969" transform="translate(33.625 20.275)" fill="#00aeb9"/><circle cx="1.969" cy="1.969" r="1.969" transform="translate(12.901 12.198)" fill="#00aeb9"/><g transform="translate(9.034 21.957)"><path d="M10.159 35.944c11.228-9.43 28.4-3.621 39.39-13.651a2.335 2.335 0 00.608-2.573L42.905 1.114a1.745 1.745 0 00-2.749-.7c-11.228 9.43-28.4 3.621-39.39 13.652a2.335 2.335 0 00-.608 2.573L7.41 35.246a1.745 1.745 0 002.749.698z" fill="#72e5e3"/><circle cx="5.021" cy="5.021" r="5.021" transform="translate(20.137 13.155)" fill="#00d0d2"/><circle cx="1.969" cy="1.969" r="1.969" transform="translate(12.754 20.275)" fill="#00d0d2"/><circle cx="1.969" cy="1.969" r="1.969" transform="translate(33.478 12.198)" fill="#00d0d2"/></g><path d="M51.94 23.069a1.745 1.745 0 00-2.749-.7 20.91 20.91 0 01-1.792 1.345l2.759-7.078a2.336 2.336 0 00-.608-2.573c-4.391-4.007-9.768-5.485-15.357-6.418v44.356c8.59-1.4 17.651-1.6 24.391-7.75a2.335 2.335 0 00.608-2.573z" fill="#00627c" opacity=".26"/></svg>