<svg xmlns="http://www.w3.org/2000/svg" width="161" height="59.599"><g fill="#fff" stroke="#707070"><path d="M19.595 21.9h61.091v32.274H19.595z" stroke="none"/><path fill="none" d="M20.095 22.4h60.091v31.274H20.095z"/></g><g fill="#fff" font-size="11" font-family="MullerBold, Muller"><text transform="translate(97 34.443)"><tspan x="0" y="0">YOU PRINT</tspan></text><text transform="translate(97 48.523)"><tspan x="0" y="0">WE SUPPLY</tspan></text></g><g fill="#f2951d"><path d="M81.298 14.9H21.375a1.944 1.944 0 01-1.943-1.943V1.944A1.944 1.944 0 0017.489 0H1.942A1.944 1.944 0 00-.001 1.944v15.547a1.944 1.944 0 001.943 1.944h11.013a1.944 1.944 0 011.943 1.943v35.306a2.915 2.915 0 002.915 2.915h63.485a2.915 2.915 0 002.915-2.915V17.815a2.915 2.915 0 00-2.915-2.915zM46.323 40.722a6.831 6.831 0 01-1.9 2.447 7.941 7.941 0 01-2.782 1.356 15.884 15.884 0 01-4.2.457h-7.952V28.869h7.725a17.724 17.724 0 014.423.416 7.862 7.862 0 012.747 1.389 6.686 6.686 0 011.97 2.539 9.316 9.316 0 01.715 3.877 8.225 8.225 0 01-.745 3.632zm18.6 4.259h-3.582l-3.33-12.052-3.3 12.052h-3.638l-4-16.112h3.453l2.5 11.073 3.047-11.073h4.012l2.926 11.26 2.577-11.26h3.384z"/><path d="M41.098 32.519a4.646 4.646 0 00-2.016-.781 26.524 26.524 0 00-3.439-.143h-1.92v10.661H36.9a12.828 12.828 0 002.959-.242 3.845 3.845 0 001.5-.729 3.549 3.549 0 00.969-1.544 8.265 8.265 0 00.384-2.776 8.132 8.132 0 00-.393-2.822 3.432 3.432 0 00-1.221-1.624z"/></g></svg>