<svg version="1.1" id="Слой_1" xmlns="http://www.w3.org/2000/svg" x="0" y="0" viewBox="0 0 161 59.6" xml:space="preserve"><style>.st0{fill:#fff}.st2{fill:#f2951d}</style><path class="st0" d="M0 0h61.1v32.3H0z" transform="translate(19.595 21.9)"/><path fill="none" stroke="#707070" d="M.5.5h60.1v31.3H.5z" transform="translate(19.595 21.9)"/><path class="st0" d="M-1306 2614.4h1.7v-2.7l3-5h-1.9l-1.9 3.5-2-3.5h-1.9l3 5zm12.7-3.8c0-2.1-1.4-4-4.1-4s-4.1 1.9-4.1 4 1.4 4 4.1 4 4.1-1.9 4.1-4zm-4.1 2.5c-1.6 0-2.4-1.1-2.4-2.5s.8-2.5 2.4-2.5c1.6 0 2.4 1.1 2.4 2.5 0 1.3-.8 2.5-2.4 2.5zm12-1.6v-4.8h-1.6v4.7c0 1.2-.7 1.7-1.7 1.7s-1.7-.4-1.7-1.7v-4.7h-1.7v4.8c0 2.3 1.7 3 3.4 3s3.3-.7 3.3-3zm5.7.4h1.3c1.9 0 3.3-.6 3.3-2.6s-1.5-2.6-3.3-2.6h-2.9v7.7h1.7v-2.5zm0-3.7h1.3c.8 0 1.6.2 1.6 1.1 0 .9-.7 1.1-1.6 1.1h-1.3v-2.2zm7.3 3.5h1.2l2.1 2.7h1.9l-2.3-2.9c.9-.3 1.7-1 1.7-2.3 0-1.9-1.6-2.5-3.1-2.5h-3.2v7.7h1.7v-2.7zm0-3.5h1.6c.7 0 1.3.3 1.3 1.1s-.6 1.1-1.3 1.1h-1.6v-2.2zm6.1-1.5h1.7v7.7h-1.7zm10.1 0h-1.7v5.1l-3.6-5h-1.6v7.7h1.7v-5.1l3.6 5h1.6v-7.7zm3.3 7.7h1.7v-6.2h2.3v-1.5h-6.4v1.5h2.4zm-47.9 12.2l-1.7-5.8h-1.4l-1.7 5.8-1.5-5.8h-1.8l2.4 7.7h1.8l1.5-5.2 1.5 5.2h1.8l2.4-7.7h-1.8zm5.9-1.2h3.4v-1.5h-3.4v-1.6h3.8v-1.5h-5.5v7.7h5.5v-1.4h-3.8zm8.9-2.6c0-.5.4-.7 1.3-.7s1.7.2 2.4.7v-1.5c-.7-.4-1.6-.6-2.5-.6-1.5 0-2.8.7-2.8 2.2 0 2.7 4.2 2.2 4.2 3.6 0 .5-.5.7-1.4.7-.9 0-1.8-.2-2.7-.8v1.6c.8.4 1.8.7 2.8.7 1.6 0 3-.5 3-2.3-.1-2.7-4.3-2.2-4.3-3.6zm10.4 2.7c0 1.2-.7 1.7-1.7 1.7s-1.7-.4-1.7-1.7v-4.7h-1.7v4.8c0 2.3 1.7 3 3.4 3s3.4-.8 3.4-3v-4.8h-1.6v4.7zm6.1-4.7h-2.9v7.7h1.7v-2.5h1.3c1.9 0 3.3-.6 3.3-2.6-.1-2-1.5-2.6-3.4-2.6zm.1 3.7h-1.3v-2.3h1.3c.8 0 1.6.2 1.6 1.1-.1 1-.8 1.2-1.6 1.2zm7.2-3.7h-2.9v7.7h1.7v-2.5h1.3c1.9 0 3.3-.6 3.3-2.6s-1.5-2.6-3.4-2.6zm.1 3.7h-1.3v-2.3h1.3c.8 0 1.6.2 1.6 1.1 0 1-.7 1.2-1.6 1.2zm6-3.7h-1.7v7.7h5.5v-1.5h-3.8zm8.5 0l-2 3.5-2-3.5h-1.8l3 5v2.7h1.6v-2.7l3-5z" transform="translate(1406 -2580)"/><path class="st2" d="M2630.3 855.9h-59.9c-1.1 0-1.9-.9-1.9-1.9v-11c0-1.1-.9-1.9-1.9-1.9h-15.5c-1.1 0-1.9.9-1.9 1.9v15.5c0 1.1.9 1.9 1.9 1.9h11c1.1 0 1.9.9 1.9 1.9v35.3c0 1.6 1.3 2.9 2.9 2.9h63.5c1.6 0 2.9-1.3 2.9-2.9v-38.9c-.1-1.5-1.4-2.8-3-2.8zm-35 25.8c-.4 1-1.1 1.8-1.9 2.4-.8.6-1.8 1.1-2.8 1.4-1.4.3-2.8.5-4.2.5h-8v-16.1h7.7c1.5 0 3 .1 4.4.4 1 .3 1.9.7 2.7 1.4.9.7 1.5 1.5 2 2.5.5 1.2.8 2.5.7 3.9.2 1.2-.1 2.5-.6 3.6zm18.6 4.3h-3.6l-3.3-12.1-3.3 12.1h-3.6l-4-16.1h3.5l2.5 11.1 3-11.1h4l2.9 11.3 2.6-11.3h3.4l-4.1 16.1z" transform="translate(-2549.002 -841)"/><path class="st2" d="M2590.1 873.5c-.6-.4-1.3-.7-2-.8-1.1-.1-2.3-.2-3.4-.1h-1.9v10.7h3.2c1 0 2 0 3-.2.5-.1 1.1-.4 1.5-.7.5-.4.8-1 1-1.5.3-.9.4-1.8.4-2.8 0-1-.1-1.9-.4-2.8-.4-.8-.8-1.4-1.4-1.8z" transform="translate(-2549.002 -841)"/></svg>