<svg xmlns="http://www.w3.org/2000/svg" width="94.672" height="67"><g fill="#fff" stroke="#707070"><path d="M26.261 27.09h64.675v34.168H26.261z" stroke="none"/><path fill="none" d="M26.761 27.59h63.675v33.168H26.761z"/></g><path d="M91.398 16.75H24.034a2.185 2.185 0 01-2.184-2.184V2.185A2.186 2.186 0 0019.665 0H2.188A2.185 2.185 0 00.004 2.185v17.478a2.185 2.185 0 002.184 2.185h12.38a2.185 2.185 0 012.184 2.184v39.69a3.277 3.277 0 003.277 3.277h71.369a3.277 3.277 0 003.278-3.277v-43.7a3.277 3.277 0 00-3.278-3.272zM52.08 45.778a7.679 7.679 0 01-2.136 2.751 8.928 8.928 0 01-3.127 1.524 17.854 17.854 0 01-4.722.514h-8.939V32.454h8.684a19.919 19.919 0 014.972.467 8.838 8.838 0 013.088 1.562 7.513 7.513 0 012.215 2.854 10.466 10.466 0 01.8 4.359 9.257 9.257 0 01-.839 4.083zm20.907 4.788H68.96l-3.744-13.549-3.71 13.549h-4.09l-4.492-18.113h3.882l2.814 12.448 3.426-12.448h4.51l3.289 12.658 2.9-12.658h3.8z" fill="#f2951d"/><path d="M45.979 36.948a4.919 4.919 0 00-2.134-.827 28.059 28.059 0 00-3.641-.151h-2.033v11.286h3.363A13.584 13.584 0 0044.667 47a4.074 4.074 0 001.589-.772 3.757 3.757 0 001.026-1.634 8.75 8.75 0 00.406-2.939 8.6 8.6 0 00-.416-2.988 3.631 3.631 0 00-1.293-1.719z" fill="#f2951d"/></svg>