<svg xmlns="http://www.w3.org/2000/svg" width="100" height="100"><defs><clipPath id="a"><circle cx="50" cy="50" r="50" fill="#e6e6e6"/></clipPath></defs><circle cx="50" cy="50" r="50" fill="#fff" opacity=".26"/><g clip-path="url(#a)"><path d="M93.291 89.305c-1.212-1.958-2.259-2.428-5.772-3.984s-8.275-3.174-13.227-4.793a31.38 31.38 0 01-8.883-4.233c-1.524-1.058-2.19-1.757-2.428-3.312s-.143-8.608-.143-8.608H37.68s.1 7.058-.143 8.608-.91 2.264-2.428 3.312a32.4 32.4 0 01-8.883 4.233c-4.931 1.635-9.693 3.238-13.227 4.793s-4.539 2.005-5.751 3.984a43.769 43.769 0 00-4.022 10.82h94.086a42.884 42.884 0 00-4.021-10.82z" fill="#ffe6b4"/><path d="M73.239 80.137a30.84 30.84 0 01-7.809-3.852c-1.518-1.058-2.19-1.757-2.428-3.312s-.143-8.608-.143-8.608H37.68s.1 7.058-.143 8.608-.91 2.264-2.428 3.312a30.48 30.48 0 01-7.545 3.757 31.535 31.535 0 0022.883 10.391 31.529 31.529 0 0022.792-10.296z" fill="#fff7e5"/><path d="M69.159 41.356a2.164 2.164 0 00-1.661.381l.1-1.217V23.806H33.484v18.412a2.116 2.116 0 00-2.116-.836c-2.3.312-1.8 2.968-1.1 5.132a54.581 54.581 0 011.168 5.692c.561 2.518 2.645 2.005 2.645 2.005l.132 2.291c0 5.291 4.275 8.963 8.508 12.7a11.893 11.893 0 007.545 3.254 11.894 11.894 0 007.55-3.254c4.233-3.735 8.508-7.407 8.508-12.7v-.048l.132-2.249s2.074.529 2.645-2.005a56.232 56.232 0 011.169-5.694c.699-2.156 1.207-4.817-1.111-5.15z" fill="#fffefc"/><path d="M31.886 41.329a20.47 20.47 0 01-1.206-5.857c-.116-3.074-.254-7.407.354-10.217a29.739 29.739 0 011.339-5.016c.508-1.312 1.227-1.45 1.227-1.45a12.45 12.45 0 016.27-5.143c0-.91.741-1.365 4.185-1.466.995-1.215 3.46-2.644 7.936-.808 1.689-.206 3.289-.391 3.884.371a2.6 2.6 0 001.405-.79 4.375 4.375 0 01.529 1.058c1.958 0 3.614 1.058 3.7 3.243a7.238 7.238 0 014.64 0 1.349 1.349 0 00-.81.995 4.852 4.852 0 013.841 3.604 29.338 29.338 0 011.148 8.545c0 1.619-.439 5.079-.529 7.09a26.317 26.317 0 01-1.058 5.857 19.34 19.34 0 00-1.492 6.238c-.307-.942-.069-5.164-.439-6.878a14.9 14.9 0 01-.645-3.614 20.841 20.841 0 00-1.058-7.566c-1.164-3.111-3.381-4.423-5.2-4.354s-3.82.439-4.7.1a5.82 5.82 0 00-3.614-.339 18.651 18.651 0 01-6.143.608c-1.958-.27-2.873-1.058-4.529-1.058s-2.871 1.683-3.379 2.871-1.958 6.01-2.6 6.957l-.645.942v4.391c0 1.794-.5 4.021-.5 5.291v4.164a7.068 7.068 0 01-.746-3.307v-2.029a25.319 25.319 0 01-1.165-2.433z" fill="#ffebc4"/></g></svg>