<svg xmlns="http://www.w3.org/2000/svg" width="111" height="111"><defs><clipPath id="a"><circle cx="55.5" cy="55.5" r="55.5" fill="none"/></clipPath></defs><g clip-path="url(#a)"><path fill="#fff" opacity=".26" d="M-2.745 0h116.489v111H-2.745z"/><path d="M103.158 99.014c-1.342-2.169-2.5-2.69-6.394-4.414s-9.167-3.516-14.653-5.31a34.758 34.758 0 01-9.84-4.689c-1.688-1.172-2.426-1.946-2.69-3.669s-.159-9.536-.159-9.536H41.553s.105 7.819-.159 9.536-1.008 2.509-2.69 3.669a35.872 35.872 0 01-9.84 4.689c-5.463 1.811-10.738 3.587-14.652 5.31s-5.029 2.221-6.371 4.414a48.482 48.482 0 00-4.455 11.99h104.227c-1.348-5.355-3.107-9.845-4.455-11.99z" fill="#fff7e5"/><path d="M72.295 84.59c-1.682-1.172-2.427-1.946-2.69-3.669s-.159-9.536-.159-9.536H41.552s.105 7.819-.159 9.536-1.008 2.509-2.69 3.669c-2.58 1.768 16.992 9.86 16.992 9.86s19.267-8.04 16.6-9.86z" fill="#fff7e5"/><path d="M76.426 45.895a2.4 2.4 0 00-1.84.422l.107-1.348V26.454H36.906v20.4a2.345 2.345 0 00-2.344-.926c-2.544.346-1.993 3.288-1.219 5.685s.674 3.516 1.3 6.306 2.931 2.221 2.931 2.221l.146 2.538c0 5.861 4.736 9.929 9.425 14.067a13.176 13.176 0 008.358 3.6 13.178 13.178 0 008.363-3.6c4.689-4.138 9.425-8.205 9.425-14.067v-.052l.146-2.491s2.3.586 2.931-2.221.521-3.915 1.3-6.306 1.325-5.339-1.242-5.713z" fill="#fffefc"/><path d="M35.135 45.867a22.652 22.652 0 01-1.336-6.488c-.129-3.406-.282-8.205.392-11.317a32.922 32.922 0 011.479-5.557c.563-1.454 1.359-1.606 1.359-1.606a13.8 13.8 0 016.946-5.7c0-1.008.821-1.512 4.636-1.623 1.1-1.348 3.833-2.931 8.792-.9 1.87-.229 3.646-.434 4.3.41a2.879 2.879 0 001.553-.873 4.821 4.821 0 01.586 1.172c2.169 0 4 1.173 4.1 3.593a8.017 8.017 0 015.14 0 1.5 1.5 0 00-.9 1.1 5.375 5.375 0 014.249 3.985 32.5 32.5 0 011.285 9.471c0 1.794-.487 5.627-.586 7.854a29.154 29.154 0 01-1.172 6.488 21.422 21.422 0 00-1.653 6.91c-.34-1.043-.076-5.72-.486-7.619a16.486 16.486 0 01-.715-4 23.092 23.092 0 00-1.172-8.381c-1.29-3.446-3.746-4.9-5.761-4.823s-4.232.486-5.205.111a6.442 6.442 0 00-4-.375 20.669 20.669 0 01-6.8.674c-2.169-.3-3.183-1.173-5.017-1.173s-3.177 1.87-3.74 3.183-2.168 6.658-2.878 7.707l-.723 1.044v4.864c0 1.987-.557 4.454-.557 5.861v4.612a7.831 7.831 0 01-.827-3.663v-2.246a28 28 0 01-1.289-2.695z" fill="#ffebc4"/><path d="M33.226 87.635l5.463-4.384 1.322.328 15.485 7.953-8.926 8.28zm44.541 0l-5.463-4.384-1.322.328-15.485 7.952 8.926 8.28z" fill="#fffefc"/><path d="M55.497 91.545l-7.214 6.675 4.869 5.482 2.342-.016 2.346.016 4.869-5.482z" fill="#ffebc4"/><path d="M57.842 103.7l-2.343-.016-2.343.016-1.5 7.3h7.684zm45.316-4.686c-1.342-2.169-2.5-2.69-6.394-4.414s-9.167-3.516-14.653-5.31a36.821 36.821 0 01-5.739-2.775l-11.246 24.484h42.489c-1.351-5.351-3.109-9.841-4.457-11.985zm-95.318 0c1.342-2.169 2.5-2.69 6.394-4.414s9.167-3.516 14.653-5.31a36.821 36.821 0 005.739-2.775l11.246 24.484H3.386c1.348-5.351 3.106-9.841 4.454-11.985zm66.84-52.6v-1.319c-.974-.071-3.008-.6-5.974-1.074a24.416 24.416 0 00-8.414.442 28.1 28.1 0 01-4.794.92 28.092 28.092 0 01-4.8-.92 24.415 24.415 0 00-8.41-.438c-2.966.473-5 1-5.974 1.074v1.319a1.453 1.453 0 00.573 1.189 2.916 2.916 0 011.074 1.818 22.385 22.385 0 001.547 4.27c.716 1.347 1.877 2.278 5.014 2.65s5.979-.532 7.622-3.066a11.957 11.957 0 001.848-4.04 1.6 1.6 0 013.009 0 11.972 11.972 0 001.848 4.04c1.642 2.534 4.485 3.438 7.622 3.066s4.3-1.3 5.014-2.65a22.385 22.385 0 001.547-4.27 2.916 2.916 0 011.075-1.819 1.453 1.453 0 00.573-1.192zm-22.2 4.422c-.554 1.414-2.1 4.282-5.425 4.661s-5.177-.344-6.151-1.3-1.72-3.687-1.872-4.929-.172-2.5.688-3.247 3.632-1.442 6.437-1.318c3.038.134 5.119.611 6.495 1.872.964.882.385 2.85-.169 4.26zm19.478-1.567c-.153 1.242-.9 3.974-1.872 4.929s-2.831 1.678-6.151 1.3-4.871-3.248-5.425-4.661-1.133-3.379-.172-4.26c1.376-1.26 3.457-1.738 6.495-1.872 2.806-.124 5.578.573 6.437 1.318s.84 2.002.688 3.246z" fill="#ffebc4"/></g></svg>