<svg version="1.1" id="Layer_1" xmlns="http://www.w3.org/2000/svg" x="0" y="0" viewBox="0 0 695.8 695.8" xml:space="preserve"><circle cx="347.9" cy="347.9" r="347.9" opacity=".2" fill="#00ab5e"/><ellipse cx="347.9" cy="348" rx="255.9" ry="256" fill="#00df76"/><path d="M347.9 92h-.3v512h.3c141.3 0 255.9-114.6 255.9-256S489.2 92 347.9 92z" fill="#00ab5e"/><path d="M203.2 353.1l103.5 103.5c4.5 4.5 11.8 4.5 16.3 0l170-170c4.5-4.5 4.5-11.8 0-16.3l-30.9-30.9c-4.5-4.5-11.8-4.5-16.3 0L322.1 363c-4.5 4.5-11.8 4.5-16.3 0l-55.4-55.4c-4.4-4.4-11.6-4.5-16.1-.2l-30.8 29.1c-4.8 4.5-4.9 12-.3 16.6z" fill="#fff5f5"/><path d="M462.1 239.4c-4.5-4.5-11.8-4.5-16.3 0l-98.2 98.2v94.6L493 286.6c4.5-4.5 4.5-11.8 0-16.4l-30.9-30.8z" fill="#dfebf1"/></svg>