<svg version="1.1" id="Layer_1" xmlns="http://www.w3.org/2000/svg" x="0" y="0" viewBox="0 0 695.8 695.8" xml:space="preserve"><circle cx="347.9" cy="347.9" r="347.9" opacity=".1" fill="#ae2538"/><ellipse cx="348" cy="348" rx="255.9" ry="256" fill="#ff0031"/><path d="M348.3 92v512C489.5 603.9 604 489.3 604 348S489.5 92.1 348.3 92z" fill="#ae2538"/><path d="M464.1 274.8l-43.7-43.7c-2.1-2.1-5.6-2.1-7.8 0l-61.1 61.1c-2.1 2.1-5.6 2.1-7.8 0l-61.1-61.1c-2.1-2.1-5.6-2.1-7.8 0l-43.7 43.7c-2.1 2.1-2.1 5.6 0 7.8l61.1 61.1c2.1 2.1 2.1 5.6 0 7.8l-61.1 61.1c-2.1 2.1-2.1 5.6 0 7.8l43.7 43.7c2.1 2.1 5.6 2.1 7.8 0l61.1-61.1c2.1-2.1 5.6-2.1 7.8 0l61.1 61.1c2.1 2.1 5.6 2.1 7.8 0l43.7-43.7c2.1-2.1 2.1-5.6 0-7.8L403 351.5c-2.1-2.1-2.1-5.6 0-7.8l61.1-61.1c2.2-2.2 2.2-5.7 0-7.8z" fill="#fff5f5"/><path d="M464.1 282.5c2.1-2.1 2.1-5.6 0-7.8L420.4 231c-2.1-2.1-5.6-2.1-7.8 0l-61.1 61.1c-1 1-2.3 1.5-3.6 1.6v107.5c1.3.1 2.6.6 3.6 1.6l61.1 61.1c2.1 2.1 5.6 2.1 7.8 0l43.7-43.7c2.1-2.1 2.1-5.6 0-7.8L403 351.5c-2.1-2.1-2.1-5.6 0-7.8l61.1-61.2z" fill="#dfebf1"/></svg>