<svg xmlns="http://www.w3.org/2000/svg" width="100" height="100"><defs><clipPath id="a"><circle cx="50" cy="50" r="50" fill="#e6e6e6"/></clipPath></defs><circle cx="50" cy="50" r="50" fill="#fff" opacity=".26"/><g clip-path="url(#a)"><path d="M95.041 93.001c-1.8-3.386-4.532-6.08-9.286-8.414s-12.835-4.664-15.482-5.541-5.182-1.548-7.157-3.835-1.886-6.527-1.886-6.527v-6.34H38.75v6.34s.09 4.226-1.88 6.529-4.511 2.958-7.157 3.835-10.729 3.204-15.483 5.536-7.5 5.029-9.286 8.414a18.487 18.487 0 00-1.954 7h94.021a18.487 18.487 0 00-1.97-7z" fill="#ffe6b4"/><path d="M24.023 80.852s-3.106-8-2.4-12.149 4.706-12 5.551-15.371a39.883 39.883 0 00.639-10.9c-.132-3.8.639-12.518 3.3-17.568s5.319-9.254 9.254-11.98 7.103-1.589 7.103-1.589 1.548-.8 5.351-.8 7.569 1.548 11.3 4.78 4.363 5.784 5.948 7.839a23.357 23.357 0 014.226 10.4c.423 4 .57 11.092 1.548 15.714s2.387 11.14 3.4 13.633a11.821 11.821 0 01.771 6.9 68.542 68.542 0 01-2.018 7.754 23.674 23.674 0 00-.46 3.888z" fill="#ffebc4"/><path d="M82.496 83.171c-4.574-1.806-10.115-3.428-12.223-4.125-2.641-.877-5.182-1.548-7.157-3.835s-1.886-6.529-1.886-6.529v-6.338H38.75v6.34s.09 4.226-1.88 6.529-4.511 2.958-7.157 3.835c-2.113.7-7.654 2.319-12.228 4.125a57.109 57.109 0 0032.516 9.471 57.05 57.05 0 0032.495-9.473z" fill="#fff7e5"/><path d="M50 18.872c-17.362 0-18.688 19.184-18.572 22.819a84.407 84.407 0 002.06 14.087c1.257 5.99 6.978 10.348 10.231 12.857a9.988 9.988 0 0012.566 0c3.254-2.509 8.98-6.867 10.231-12.857a84.408 84.408 0 002.06-14.087c.112-3.635-1.219-22.819-18.576-22.819z" fill="#fffefc"/><path d="M40.974 19.617c.761 3.248 9.027 14.695 27.594 22.074h1.505V29.912L56.864 16.754h-14.95a11.3 11.3 0 00-.94 2.863z" fill="#ffebc4"/><path d="M30.541 42.948s9.756-11.378 13.121-24.076h-5.981l-7.14 11.747z" fill="#ffebc4"/></g></svg>