<svg version="1.1" id="Слой_1" xmlns="http://www.w3.org/2000/svg" x="0" y="0" viewBox="0 0 285.3 139.6" xml:space="preserve"><path d="M45.7 57.2l12.9 20.5H32.7l13-20.5m0-19.6l-32 50.6h63.9L45.7 37.6z" fill="#c9c9c8"/><path fill="#e30917" d="M65.2 88.2H38.5l13.4-21.1-6.2-9.9-26.2 41.5h52.3z"/><path d="M117.9 70.4c-1-.5-2.7-.7-5.3-.7h-9.4l-4.7 28.7h8c3.5 0 5.7-.1 6.7-.4 1.4-.3 2.8-1.2 4-2.7 1.2-1.4 2-3.2 2.4-5.3.3-1.7.1-3.2-.5-4.4-.6-1.2-1.5-2-2.9-2.5 1.1-.5 2-1.4 2.8-2.5.8-1.1 1.3-2.4 1.5-3.7.2-1.5.1-2.8-.4-4-.5-1.2-1.3-2.1-2.2-2.5zm-3.2 19.3c-.1.9-.5 1.7-.9 2.3-.5.6-1 1-1.6 1.2-.6.2-1.8.3-3.8.3H104l1.2-7.7h3.8c2 0 3.4.1 4 .3.6.2 1.1.6 1.4 1.2.3.7.4 1.5.3 2.4zm1.1-12c-.2 1-.5 1.7-1.1 2.3-.5.6-1.2.9-2.1 1-.5.1-1.6.1-3.5.1H106l1.1-6.6h2.7c2.5 0 4 .1 4.5.2s.9.5 1.2 1c.3.4.4 1.1.3 2zm25.8-8h-18.7l-.8 4.8h7l-3.9 23.8h4.8l3.8-23.8h7zm40.8 0l-3.5 21.2c-.2 1.3-.5 2.1-.9 2.5-.4.3-1.1.5-2.1.5h-1l-.7 4.5c1.5.1 2.5.2 3 .2 1.7 0 2.9-.4 3.8-1.2.9-.8 1.5-2 2-3.5.4-1.5.9-3.9 1.4-7.1l2-12.3h7l-3.9 23.8h4.7l4.7-28.7h-16.5zm46.5 3.4c-1.5-2.6-3.9-3.9-7.2-3.9-3.1 0-5.7 1.1-7.9 3.2s-3.8 5.2-4.8 9.2h-3.8l2-11.9h-4.7l-4.7 28.7h4.7l1.9-11.9h3.8c-.3 2.7 0 5.1.8 7.1.8 2.1 1.8 3.5 3.1 4.2 1.3.7 2.9 1.1 4.9 1.1 3.3 0 6-1.3 8.4-3.9 2.3-2.6 3.8-6.3 4.6-10.9.7-4.8.4-8.4-1.1-11zm-3.8 10.6c-1.1 6.9-3.6 10.4-7.5 10.4-1.8 0-3.1-.9-3.9-2.6-.8-1.7-.9-4.1-.4-7.2 1.1-6.8 3.6-10.2 7.4-10.2 1.9 0 3.2.8 4 2.5.8 1.7.9 4 .4 7.1zm18.6-1.9c.5-.6 1.1-1.8 1.9-3.5.8-1.8 1.5-3 2.1-3.6.6-.6 1.5-.9 2.9-.9h.7l.7-4.3c-2 .1-3.4.2-4.2.5-.8.2-1.7.8-2.6 1.8-.9 1-1.8 2.6-2.9 4.8-1 2.2-1.8 3.6-2.3 4.2-.5.6-1.3.9-2.4 1.1l2-12.2h-4.7l-4.7 28.7h4.7l2-12.5c1 0 1.7.4 2.1 1.2.4.8.8 2.1 1.2 4l1.6 7.4h5.6l-1.9-7.8c-.6-2.3-1.1-3.9-1.6-4.9-.5-1-1.2-1.7-2.2-2.1.9-.7 1.6-1.3 2-1.9zm18.9 10.6c-1.1 1-2.2 1.5-3.5 1.5-1.7 0-3-.8-3.8-2.3-.8-1.5-.9-4.1-.3-7.7.6-3.5 1.5-6 2.9-7.5 1.3-1.5 2.9-2.3 4.6-2.3 1.2 0 2.2.4 3 1.2s1.2 2 1.2 3.6l4.9-1.4c-.2-2.5-.8-4.4-1.9-5.7-1.5-1.8-3.5-2.7-6.2-2.7-3.2 0-6 1.2-8.3 3.6-2.7 2.8-4.4 6.6-5.2 11.5-.8 4.6-.3 8.3 1.5 11 1.5 2.4 3.8 3.5 6.9 3.5 2.4 0 4.6-.7 6.5-2.2 1.9-1.5 3.5-3.8 4.7-7l-4.3-1.8c-.7 2.2-1.6 3.7-2.7 4.7zM157.5 65.9c-9.6 0-17.4 8.1-17.4 18.1s7.8 18.1 17.4 18.1c9.6 0 17.4-8.1 17.4-18.1s-7.7-18.1-17.4-18.1zm-1.3 32.4c-2.8-.3-5.3-1.4-7.3-3.2 2.1-1.7 4.6-2.7 7.3-3v6.2zm0-8.8c-3.4.3-6.5 1.6-9.2 3.7-1.7-2.2-2.9-4.9-3.1-7.9h12.3v4.2zm0-6.8h-12.3c.3-3 1.4-5.7 3.1-7.9 2.6 2.2 5.8 3.5 9.2 3.7v4.2zm0-6.8c-2.7-.3-5.2-1.3-7.3-3 2-1.7 4.6-2.9 7.3-3.2v6.2zm2.7-6.2c2.8.3 5.3 1.4 7.3 3.2-2.1 1.7-4.6 2.7-7.3 3v-6.2zm0 8.8c3.4-.3 6.5-1.6 9.2-3.7 1.7 2.2 2.9 4.9 3.1 7.9h-12.3v-4.2zm0 19.8v-6.2c2.7.3 5.2 1.3 7.3 3-2.1 1.7-4.6 2.9-7.3 3.2zm9.1-5.1c-2.6-2.2-5.8-3.5-9.2-3.7v-4.2h12.3c-.2 3-1.3 5.7-3.1 7.9zM87.7 69.7L73.8 98.3h5l3-6.5h9.4l1 6.5h5.1l-4.7-28.7h-4.9zM84.1 87L89 76.4 90.6 87h-6.5z" fill="#4d3a8f"/></svg>