<svg version="1.1" id="Слой_1" xmlns="http://www.w3.org/2000/svg" x="0" y="0" viewBox="0 0 285.3 139.6" xml:space="preserve"><g id="Слой_2_1_"><g id="Слой_1-2"><path d="M71.3 62.2c0-6.3-1.9-11.3-5.8-14.8s-9.4-5.3-16.4-5.3H35.5v41h12.2c7.6 0 13.5-1.8 17.5-5.4 4.1-3.6 6.1-8.8 6.1-15.5zM48.6 75.9h-3.9V49.3h4.9c8.2 0 12.3 4.4 12.3 13.2-.1 8.9-4.5 13.4-13.3 13.4zm51.7-.7c-1.6.8-3.3 1.4-5 1.8-1.7.4-3.4.6-5.1.6-2.3 0-4.1-.7-5.4-2-1.3-1.3-2-3.1-2.1-5.5H102v-4c0-4.3-1.2-7.6-3.5-10-2.4-2.4-5.7-3.6-9.9-3.6-4.4 0-7.9 1.4-10.4 4.1-2.5 2.8-3.8 6.6-3.8 11.6 0 4.9 1.4 8.7 4.1 11.3 2.7 2.7 6.5 4 11.3 4 2 0 4-.1 6-.5 1.6-.3 3.1-.9 4.6-1.6v-6.2zM84.5 60c1.1-1.1 2.5-1.7 4.1-1.7 1.6-.1 3.1.5 4.1 1.7 1 1.1 1.6 2.7 1.6 4.7H82.8c.2-2.1.8-3.6 1.7-4.7zm21.8-20.1h8.7v43.2h-8.7zM121.9 52h8.8v31.1h-8.8zm4.4-2.7c1.6 0 2.8-.4 3.6-1.2.8-.9 1.3-2.2 1.2-3.5 0-3.1-1.6-4.7-4.8-4.7-3.2 0-4.8 1.6-4.8 4.7s1.6 4.7 4.8 4.7zm27.2 33.8L164.9 53h-8.6l-5.8 17.1c-.6 2-1 4.1-1.2 6.2h-.2c-.2-2.1-.6-4.2-1.2-6.2L142.1 53h-8.6L145 83.1h8.5zm25.6-30.6c-4.4 0-7.9 1.4-10.4 4.1-2.5 2.8-3.8 6.6-3.8 11.7 0 4.9 1.4 8.7 4.1 11.3 2.7 2.7 6.5 4 11.3 4 2 0 4-.1 6-.5 1.6-.3 3.1-.9 4.6-1.6v-6.3c-1.6.8-3.3 1.4-5.1 1.8-1.7.4-3.4.6-5.1.6-2.3 0-4.1-.7-5.4-2-1.3-1.3-2-3.1-2.1-5.5h19.4v-4c0-4.3-1.2-7.6-3.5-10-2.4-2.4-5.7-3.6-10-3.6zm-5.7 12.2c.1-2 .7-3.6 1.7-4.7 1.1-1.1 2.5-1.7 4.1-1.7 1.6-.1 3.1.5 4.1 1.7 1 1.1 1.6 2.7 1.6 4.7h-11.5zm35.1-10.6c-1.6 1-2.9 2.4-3.8 4.1h-.4l-1.2-5.1h-6.2v30.1h8.2V67.8c0-2.4.7-4.3 2.2-5.6 1.5-1.4 3.5-2 6.1-2 .8 0 1.6.1 2.4.3l.6-7.7c-.9-.2-1.8-.3-2.8-.2-1.8-.1-3.6.4-5.1 1.5zm31.6-1L234.6 70c-.6 1.7-1 3.4-1.2 5.2h-.2c-.1-1.8-.5-3.5-1-5.2l-5.7-16.9h-9L229.4 83l-.5 1.4c-.5 1.6-1.3 2.9-2.5 4-1.1.9-2.4 1.4-3.8 1.3-1.1 0-2.2-.1-3.2-.3v6.5c1.4.3 2.8.5 4.2.5 2.7.1 5.4-.8 7.6-2.3 2.2-1.6 3.8-3.9 5-7l12.7-33.9-8.8-.1zm-172 47h6.2v7.9c-1.6.6-3.2.9-4.9.9-3 0-5.2-.8-6.8-2.5-1.5-1.7-2.3-4.2-2.3-7.6 0-3.1.8-5.6 2.4-7.4 1.6-1.8 3.8-2.7 6.6-2.7 2 0 3.9.5 5.6 1.3l.6-1.4c-1.9-.9-4-1.4-6.1-1.4-2 0-3.9.5-5.6 1.4-1.6 1-2.9 2.4-3.8 4.1-.9 1.9-1.3 4-1.3 6.1 0 3.7.9 6.5 2.6 8.5 1.8 2 4.3 3 7.6 3 2.3 0 4.7-.4 6.8-1.4V98.6H68v1.5zm24.5-2.6c.8-1.1 1.2-2.4 1.1-3.8 0-2.1-.6-3.6-1.9-4.6-1.3-1-3.2-1.5-5.8-1.5h-5V110h1.5v-9.8h5.2l5.4 9.8h1.7l-5.7-10.2c1.5-.5 2.7-1.2 3.5-2.3zm-6 1.3h-4v-9.9H86c2.2 0 3.7.4 4.7 1.2 1 .8 1.4 2 1.4 3.7 0 1.7-.5 2.9-1.5 3.7-1.1.9-2.6 1.4-4 1.3zm20.5-11.6c-3.2 0-5.7 1-7.5 3.1-1.8 2-2.8 4.9-2.8 8.4 0 3.6.9 6.4 2.7 8.5 1.8 2.1 4.3 3.1 7.5 3.1s5.7-1 7.6-3.1c1.8-2.1 2.7-4.9 2.7-8.4s-.9-6.4-2.7-8.4c-1.8-2.2-4.3-3.2-7.5-3.2zm6.3 18.9c-1.5 1.8-3.6 2.6-6.3 2.6s-4.9-.9-6.3-2.6c-1.5-1.7-2.2-4.2-2.2-7.4s.7-5.7 2.2-7.4c1.5-1.7 3.6-2.6 6.3-2.6s4.8.9 6.3 2.6c1.5 1.7 2.2 4.2 2.2 7.4s-.7 5.7-2.2 7.4zm22.1-3.9c0 2.1-.5 3.7-1.6 4.9-1.1 1.2-2.6 1.8-4.6 1.8s-3.6-.6-4.7-1.8c-1.1-1.2-1.7-2.9-1.7-5V87.5h-1.5v14.4c0 2.6.7 4.6 2 6.1 1.4 1.5 3.3 2.2 5.7 2.2 2.5 0 4.4-.7 5.8-2.2 1.4-1.4 2.1-3.5 2.1-6V87.5h-1.5v14.7zm11.7-14.7H142v22.4h1.5v-9.3h3.2c2.5 0 4.5-.6 5.8-1.7 1.4-1.2 2.1-2.8 2.1-5 0-4.2-2.5-6.4-7.4-6.4zm4.3 10.6c-1 .8-2.8 1.3-5.1 1.3h-2.9V88.9h3.5c2.1 0 3.6.4 4.6 1.3 1 .8 1.5 2.1 1.5 3.8 0 1.9-.6 3.2-1.6 4.1z"/><path fill="#6aaa39" d="M243.2 29.4h-16.9L233 39l-6.7 9.5h16.9l6.7-9.5z"/><path fill="#3f55a9" d="M219.6 29.4h-16.8l6.7 9.6-6.7 9.5h16.8l6.7-9.5z"/><path fill="#dcdcdc" d="M196.1 29.4h-16.8L186 39l-6.7 9.5h16.8l6.7-9.5z"/><path fill="#fecc09" d="M172.6 29.4h-16.9l6.7 9.6-6.7 9.5h16.9l6.7-9.5z"/></g></g></svg>