<svg version="1.1" id="Слой_1" xmlns="http://www.w3.org/2000/svg" x="0" y="0" viewBox="0 0 285.3 139.6" xml:space="preserve"><style>.st1{fill:#fcbf00}</style><path d="M207.5 69.8c1.7-.5 3.3-1 5-1.6 0-3.1-.4-6.3-.8-9.4-1.7-.2-3.5-.4-5.2-.5v-.2c1.6-.7 3.1-1.5 4.7-2.3l-.5-2.3-.3-1.2-.3-1.1-.6-2.3-.8-2.2c-1.7.1-3.4.2-5.2.4 0-.1 0-.1-.1-.2 1.4-1 2.8-2 4.2-3.1-.5-1.5-1.3-2.9-1.9-4.3-.7-1.4-1.4-2.8-2.2-4.2-1.7.4-3.4.8-5 1.3 0-.1-.1-.1-.1-.2 1.2-1.3 2.4-2.5 3.5-3.8-1.6-2.7-3.6-5.2-5.5-7.6-1.6.7-3.2 1.4-4.7 2.2l-.1-.1c1-1.4 1.9-2.9 2.8-4.4-2.1-2.3-4.4-4.5-6.8-6.5-1.4 1-2.9 2-4.3 3l-.1-.1c.7-1.6 1.3-3.2 2-4.8-2.5-1.9-5.1-3.7-7.9-5.2-1.2 1.2-2.5 2.4-3.6 3.7-.1 0-.1-.1-.2-.1.4-1.7.7-3.4 1.1-5.1-1.4-.7-2.8-1.4-4.3-2-.7-.3-1.5-.6-2.2-.9-.7-.3-1.5-.6-2.2-.8-1 1.4-2 2.8-2.9 4.3-.1 0-.1 0-.2-.1.1-1.7.1-3.5.2-5.2l-2.3-.6c-.8-.2-1.5-.4-2.3-.6-1.5-.4-3.1-.6-4.6-.9-.7 1.6-1.4 3.2-2.1 4.7h-.2c-.2-1.7-.5-3.4-.8-5.1-.8-.1-1.6-.1-2.3-.2-.8 0-1.6-.1-2.4-.2-1.6 0-3.1-.1-4.7 0-.4 1.7-.9 3.4-1.2 5h-.2c-.5-1.7-1.1-3.3-1.7-4.9l-2.4.2-2.3.3c-1.6.2-3.1.5-4.7.8-.1 1.7-.2 3.5-.3 5.2h-.2c-.8-1.5-1.6-3-2.5-4.5-3 .8-6.1 1.7-9 2.9l.6 5.1c-.1 0-.1.1-.2.1-1.1-1.3-2.2-2.7-3.3-4-1.4.6-2.8 1.4-4.2 2.1l-2.1 1.2-1 .6-1 .6c.5 1.7 1 3.3 1.5 4.9-.1 0-.1.1-.2.1-1.3-1.1-2.6-2.3-3.9-3.3-2.6 1.8-5 3.8-7.4 5.9.8 1.6 1.6 3.1 2.4 4.6l-.1.1c-1.5-.9-3-1.8-4.5-2.6-2.2 2.3-4.3 4.6-6.2 7.1 1 1.4 2.1 2.7 3.2 4.1 0 .1-.1.1-.1.2-1.6-.6-3.2-1.2-4.9-1.7-1.8 2.6-3.4 5.3-4.8 8.1 1.3 1.2 2.5 2.3 3.8 3.5 0 .1-.1.1-.1.2-1.7-.3-3.4-.6-5.1-.8-1.3 2.9-2.4 5.8-3.3 8.8 1.5.9 2.9 1.8 4.4 2.7 0 .1 0 .1-.1.2-1.7 0-3.5 0-5.2.1-.3 1.5-.7 3.1-1 4.6-.3 1.5-.5 3.1-.7 4.7 1.6.7 3.2 1.3 4.8 1.9v.2c-1.7.3-3.4.6-5.1 1l-.1 1.2v1.2l-.1 2.4.1 2.4v1.2l.1 1.2c1.7.4 3.4.7 5.1 1v.2c-1.6.6-3.2 1.2-4.8 1.9.2 1.6.4 3.1.7 4.7.2 1.6.6 3.1 1 4.6 1.7.1 3.5.1 5.2.1 0 .1 0 .1.1.2-1.5.9-2.9 1.8-4.4 2.7.9 3 2 6 3.3 8.8 1.7-.2 3.4-.5 5.1-.8 0 .1.1.1.1.2-1.3 1.1-2.6 2.3-3.8 3.5 1.4 2.8 3.1 5.5 4.8 8.1 1.6-.6 3.3-1.1 4.9-1.7 0 .1.1.1.1.2-1.1 1.3-2.1 2.7-3.2 4.1 1.9 2.5 4 4.9 6.2 7.1 1.5-.8 3-1.7 4.5-2.6l.1.1c-.8 1.5-1.6 3-2.4 4.6 2.3 2.1 4.8 4.1 7.4 5.9 1.3-1.1 2.7-2.2 3.9-3.3.1 0 .1.1.2.1-.5 1.6-1 3.3-1.5 4.9l1 .6 1 .6 2.1 1.2c1.4.7 2.8 1.5 4.2 2.1 1.1-1.3 2.2-2.6 3.3-4 .1 0 .1.1.2.1l-.6 5.1c2.9 1.2 5.9 2.1 9 2.9.9-1.5 1.7-3 2.5-4.5h.2c.1 1.7.2 3.4.3 5.2 1.6.3 3.1.6 4.7.8l2.3.3 2.4.2c.6-1.6 1.1-3.2 1.7-4.9h.2c.4 1.7.8 3.3 1.2 5 1.6.1 3.1 0 4.7 0 .8 0 1.6-.1 2.4-.2.8-.1 1.6-.1 2.3-.2.3-1.7.6-3.4.8-5.1h.2c.7 1.6 1.4 3.2 2.1 4.7 1.5-.3 3.1-.5 4.6-.9.8-.2 1.5-.3 2.3-.6l2.3-.6c0-1.7-.1-3.5-.2-5.2.1 0 .1 0 .2-.1.9 1.4 1.9 2.9 2.9 4.3.8-.2 1.5-.5 2.2-.8.7-.3 1.5-.6 2.2-.9 1.4-.7 2.9-1.3 4.3-2-.3-1.7-.7-3.4-1.1-5.1.1 0 .1-.1.2-.1 1.2 1.3 2.4 2.5 3.6 3.7 2.8-1.5 5.4-3.3 7.9-5.2-.6-1.6-1.3-3.2-2-4.8l.1-.1c1.4 1 2.8 2 4.3 3 2.4-2 4.7-4.2 6.8-6.5-.9-1.5-1.8-2.9-2.8-4.4l.1-.1c1.6.8 3.1 1.5 4.7 2.2 2-2.4 3.9-4.9 5.5-7.6-1.2-1.3-2.3-2.6-3.5-3.8 0-.1.1-.1.1-.2 1.7.5 3.3.9 5 1.3.8-1.3 1.5-2.8 2.2-4.2.6-1.4 1.3-2.8 1.9-4.3-1.4-1.1-2.8-2.1-4.2-3.1 0-.1 0-.1.1-.2 1.7.2 3.5.3 5.2.4l.8-2.2.6-2.3.3-1.1.3-1.2.5-2.3c-1.5-.8-3.1-1.6-4.7-2.3v-.2c1.7-.1 3.4-.3 5.2-.5.4-3.1.8-6.2.8-9.4-1.6-1.2-3.3-1.6-5-2.2 0 .1 0 0 0 0z" fill="#0b0f13"/><path class="st1" d="M115.7 50.7c-5 0-9.1 4.1-9.1 9.1s4.1 9.1 9.1 9.1 9.1-4.1 9.1-9.1-4-9.1-9.1-9.1zm0 13.9c-2.7 0-4.8-2.2-4.8-4.8 0-2.7 2.2-4.8 4.8-4.8 2.7 0 4.8 2.2 4.8 4.8.1 2.6-2.1 4.8-4.8 4.8zm53.9 4.3c5 0 9.1-4.1 9.1-9.1s-4.1-9.1-9.1-9.1-9.1 4.1-9.1 9.1 4.1 9.1 9.1 9.1zm0-14c2.7 0 4.8 2.2 4.8 4.8 0 2.7-2.2 4.8-4.8 4.8-2.7 0-4.8-2.2-4.8-4.8 0-2.6 2.2-4.8 4.8-4.8zm-76.5 6.7h8.2v7.3h4.2V50.7h-4.2v7.2h-8.2v-7.2h-4.3v18.2h4.3zm54.1 0h8.2v7.3h4.2V50.7h-4.2v7.2h-8.2v-7.2h-4.3v18.2h4.3zm-21.6 26.2h4.2V73.9h6.4v13.9h4.3V69.7h-14.9zm66.7-30v11.1h4.2V50.7h-4.2l-8.2 11.1V50.7h-4.3v18.2h4.3zm-56.1-.2h-5.8c-.5 0-.8-.4-.8-.8v-6.1h-4.3v6.1c0 2.8 2.3 5.1 5.1 5.1h5.8v7h4.3V50.7h-4.3v6.9zm12.7 12.1h-6.1v22.1h4.3v-3.9h1.8c5 0 9.1-4.1 9.1-9.1 0-5.1-4-9.1-9.1-9.1zm0 14.1h-1.8V73.7h1.8c2.8 0 5 2.3 5 5s-2.2 5.1-5 5.1zm45.9-10.1h1.7v-4.1h-1.7c-3 0-5.6 1.5-7.3 3.7v-3.7h-1.7c-5 0-9.1 4.1-9.1 9.1s4.1 9.1 9.1 9.1h1.7v-3.7c1.7 2.2 4.3 3.7 7.3 3.7h1.7v-4.1h-1.7c-2.8 0-5-2.3-5-5s2.3-5 5-5zm-9 10.1c-2.8 0-5-2.3-5-5s2.3-5 5-5h1.5c-1 1.4-1.5 3.2-1.5 5 0 1.9.6 3.6 1.5 5h-1.5zm-72.4-5.1c0 5 4.1 9.1 9.1 9.1h1.7v-4.1h-1.7c-2.8 0-5-2.3-5-5s2.3-5 5-5h1.7v-4.1h-1.7c-5 .1-9.1 4.1-9.1 9.1zm-22.9-9h-1.7v4.1h1.7c2.2 0 4 1.4 4.7 3.3h-6.4v3.5h6.4c-.7 1.9-2.6 3.3-4.7 3.3h-1.7V88h1.7c5 0 9.1-4.1 9.1-9.1 0-5.2-4-9.2-9.1-9.2zm76.9.1c-5 0-9.1 4.1-9.1 9.1s4.1 9.1 9.1 9.1c3.3 0 6.1-1.7 7.7-4.3l-3.3-2.8c-.8 1.7-2.4 2.9-4.4 2.9-2.1 0-3.9-1.4-4.6-3.3h13.7v-1.7c-.1-5-4.2-9-9.1-9zm-4.4 7c.8-1.6 2.4-2.7 4.3-2.7s3.5 1.1 4.3 2.7H163z"/><path class="st1" d="M116.4 69.7H111l-5.5 6.8v-6.8h-4.2v18.1h4.2V81l5.9 6.8h5.6l-7.8-9.1z"/><path d="M94.5 39.8c.4-.7 1-1.3 1.7-1.8l1.5.9c-.6.2-1.2.8-1.6 1.4-.7 1.2-.8 2.9.9 4 1.6.9 3 .1 3.8-1.2.4-.7.6-1.5.5-2.2l1.5.9c-.1.8-.3 1.6-.8 2.3-1.1 1.9-3.4 3.2-5.9 1.7-2.7-1.5-2.8-4.1-1.6-6zm4.7-6.3c1.3-1.5 2.8-2.3 4.4-1 1.6 1.4 1.1 3-.2 4.5l-.9 1 2.1 1.7-1.1 1.4-6.4-5.3 2.1-2.3zm1.3.9l-.9 1.1 1.9 1.6.9-1.1c.6-.7.9-1.5.1-2.1-.7-.6-1.4-.2-2 .5zm5.5-7.9c2.2-1.9 4.7-1.3 6.1.5 1.4 1.7 1.7 4.2-.6 6.1-2.2 1.9-4.7 1.3-6.1-.5s-1.6-4.3.6-6.1zm1.1 1.2c-1.3 1.1-1.2 2.6-.3 3.7.9 1.1 2.4 1.5 3.7.4 1.3-1.1 1.2-2.6.3-3.7-1-1.1-2.4-1.5-3.7-.4zm12.7-.5l-1.5-2.6c-.5.6-1.1 1-1.6 1.4-1.6.9-3.1.7-4-1l-1.4-2.4 1.5-.9 1.4 2.4c.4.8 1.3.8 2.1.3.5-.3.9-.6 1.3-1.1l-1.9-3.2 1.5-.9 4.1 7.2-1.5.8zm6.7-11.8l2.9 7.8-1.7.6-1.2-3.1L123 22l1.2 3.1-1.7.6-2.9-7.8 1.7-.6 1.2 3.1 3.5-1.3-1.2-3.1 1.7-.6zm4.2 7.4l-1.3-8.2 1.8-.3.4 2.7 1.3-.2c2-.3 3.6.1 4 2.2.3 2.1-1.1 3-3.1 3.3l-3.1.5zm1.5-1.9l1.4-.2c.9-.1 1.6-.5 1.5-1.5-.1-1-.9-1.1-1.8-.9l-1.4.2.3 2.4zm5.8.7l-1.3-8.2 1.8-.3 1.3 8.2-1.8.3zm9.3-8.3v1.6l-4.1-.1v1.8l3.7.1v1.6l-3.7-.1V20l4.1.1v1.6l-5.9-.2.2-8.3 5.7.1zm-54.4 83l7.1-4.2 2.9 5-1.4.8-2-3.5-5.8 3.4-.8-1.5zm12.4 3.7c1.3 1.6 1.7 3.2.1 4.5-1.7 1.3-3.2.5-4.4-1l-.8-1.1-2.1 1.7-1.1-1.4 6.5-5.2 1.8 2.5zm-1.2 1l-.9-1.1-1.9 1.5.9 1.1c.6.7 1.2 1.2 2 .5.8-.5.5-1.3-.1-2zm-.8 9.3c-.3-.3-.6-.6-.8-1l1-1.1c.1.3.4.5.6.8.4.4.8.6 1.4.3l.3-.1 1.5-6.6 1.5 1.3-1.3 4.6 4.2-1.9 1.4 1.3-6.5 2.7c-1.6.7-2.5.4-3.3-.3zm7.7 6.2c-.8-.5-1.5-1.2-2.2-2.2l1-1.4c.6 1 1.3 1.7 2.1 2.2.7.5 1.6.8 2.1.1.4-.6 0-1.2-.7-1.6l-1.6-1 .9-1.3 1.4 1c.6.4 1.2.5 1.6 0 .4-.5 0-1.1-.8-1.7-.6-.4-1.4-.8-2.5-.9l.9-1.4c1 .2 1.9.6 2.6 1.1 1.6 1.1 2.3 2.4 1.4 3.7-.5.8-1.3 1-2.1.8.6.7.9 1.7.2 2.7-1.2 1.4-3 .8-4.3-.1zm11.9-3.1c2.7 1.2 3.2 3.7 2.2 5.7-.9 2-3.1 3.3-5.8 2.1-2.7-1.2-3.2-3.7-2.2-5.7.9-2.1 3.1-3.4 5.8-2.1zm-.7 1.5c-1.6-.7-2.9 0-3.5 1.3-.6 1.3-.3 2.8 1.3 3.5 1.6.7 2.8 0 3.5-1.4.5-1.3.3-2.7-1.3-3.4zm3.4 8.7l2-8 7 1.7-2 8-1.7-.4 1.6-6.5-3.6-.9-1.6 6.5-1.7-.4zm16.1-5.7l-.1 1.6-4-.3-.1 1.8 3.7.3-.1 1.5-3.7-.3-.2 1.8 4.1.4-.1 1.6-5.9-.5.7-8.3 5.7.4zm4.1-.2c2-.1 3.6.4 3.7 2.5.1 2.1-1.4 2.9-3.4 3l-1.3.1.2 2.7-1.8.1-.5-8.3 3.1-.1zm.2 1.6l-1.4.1.2 2.4 1.4-.1c.9-.1 1.7-.4 1.6-1.3-.1-1-.9-1.2-1.8-1.1zm9.8-3.2l.3 1.5-4 .9.4 1.7 3.6-.8.3 1.5-3.6.8.4 1.8 4-.9.3 1.5-5.8 1.3-1.8-8.1 5.9-1.2zm4.3-1.5c1.6-.7 2.9-.4 3.4.9.4.9.1 1.6-.5 2.1.8-.1 1.8.2 2.2 1.3.7 1.7-.8 2.8-2.2 3.4l-3.3 1.3-3.1-7.7 3.5-1.3zm.3 1.4l-1.6.6.7 1.8 1.7-.7c.6-.2 1-.7.7-1.3-.2-.6-.7-.7-1.5-.4zm1.4 2.9l-1.7.7.8 2 1.6-.7c.7-.3 1.3-.7 1-1.5-.3-.8-1-.7-1.7-.5zm5.4-8c2.5-1.5 4.8-.5 6 1.4 1.2 1.9.9 4.5-1.6 6s-4.8.5-6-1.4c-1.1-2-.9-4.5 1.6-6zm.9 1.4c-1.5.9-1.6 2.4-.9 3.6.7 1.3 2.1 1.8 3.6 1 1.5-.9 1.6-2.4.9-3.6-.8-1.3-2.2-1.9-3.6-1zm11 .7c-.7.6-1.6 1.2-2.7 1.6l-1.1-1.3c1.2-.3 2-.8 2.7-1.4.7-.6 1.2-1.3.6-2-.5-.6-1.2-.3-1.8.2l-1.4 1.2-1-1.2 1.3-1.1c.6-.5.8-1.1.4-1.5-.4-.5-1.1-.3-1.9.3-.6.5-1.1 1.1-1.6 2.2l-1.1-1.3c.5-.9 1.1-1.6 1.7-2.2 1.5-1.3 3-1.6 4-.4.6.7.6 1.5.2 2.2.8-.4 1.8-.4 2.6.6 1.3 1.5.3 3-.9 4.1zm4-3.9l-6.3-5.4 1.2-1.3 2.5 2.2.9-1-1.1-3.7 1.3-1.5 1.3 4.7 5.1.6-1.3 1.5-4-.5-.9 1 2.6 2.2-1.3 1.2zm8.6-11.6l-3.7-2.2c-.3-.2-.7-.4-1-.6l2.6 6.1-.9 1.4-7.1-4.3.9-1.5 3.7 2.2c.3.2.7.4 1 .6l-2.6-6.1.9-1.4 7.1 4.3-.9 1.5zm-49-64.9c1.4 0 2.9.1 4.4.3l.2-1.5c-1.6-.2-3.1-.3-4.6-.3-12 0-23.2 5.5-30.6 15l1.2.9c7.1-9.1 17.8-14.4 29.4-14.4zm30.4 58.7c-7 9.8-18.3 15.7-30.4 15.7-12 0-23.4-5.9-30.4-15.7l-1.2.9c7.3 10.2 19.1 16.4 31.6 16.4s24.3-6.1 31.6-16.4l-1.2-.9z" fill="#8f96a4"/><path class="st1" d="M164.9 28c12.2 0 22 9.9 22 22 0 2.4-.4 4.7-1.1 6.9 2.1-3.2 3.3-7 3.3-11 0-11.1-9-20-20-20-4.1 0-7.9 1.2-11 3.3 2.1-.8 4.4-1.2 6.8-1.2z"/></svg>