<svg version="1.1" id="Слой_1" xmlns="http://www.w3.org/2000/svg" x="0" y="0" viewBox="0 0 285.3 139.6" xml:space="preserve"><path d="M70.9 109.7c-.6-.4-1.2-.9-1.7-1.4-4.5-4.6-9.1-9.1-13.6-13.7-.3-.2-.7-.5-.5-.9.2-.4.6-.5 1-.5h5.8c1.6 0 2.3-.7 2.3-2.3V80c0-1.8.6-2.4 2.5-2.4h9.9c1.9 0 2.6.7 2.6 2.6v10.4c0 2.1.6 2.7 2.6 2.7h4.9c.4 0 .9 0 1.1.5.2.5-.3.7-.5 1-4.6 4.7-9.3 9.3-13.9 14-.4.4-.9.8-1.5 1.1l-1-.2zm82.7-24c0-6.8 5.5-12.3 12.3-12.3 6.8 0 12.3 5.5 12.3 12.3 0 6.8-5.5 12.3-12.3 12.3-6.8 0-12.3-5.5-12.3-12.3zm5.6 0a6.7 6.7 0 1013.4 0 6.7 6.7 0 00-13.4 0zm36.1 11.9h-11.1c-2.2 0-3-.7-3-2.9V78.5H179V74h5.2c1-.1 1.9.7 2 1.7V93h6.5V74h5l.1 19h6.4V77.3c0-2.5 1-3.2 2.3-3.2h5v4.5h-2s-.1 16.4-.1 16.7c-.2 1.8-.9 2.4-2.6 2.4H203l-7.7-.1zm55.6 0c-1.1 0-2.2-.7-2.5-1.8-.4-1.1-1.6-4.1-1.6-4.1h-6.9s-1.2 3-1.7 4.1c-.3 1.1-1.4 1.9-2.5 1.8h-3.5V93h1.6c.2-.3.3-.6.4-1 2-5.6 4.1-11.3 6.1-16.9.1-.8.9-1.3 1.6-1.1.4 0 1.7.1 2.8.1.7 0 1.1-.2 1.9 2 1.9 5.2 6.1 17 6.1 17h1.5v4.7H252c-.4-.2-.7-.2-1.1-.2zm-9.7-10.4h4.3l-2.1-6.3h-.2l-2 6.3zm-20.1 10.4V78.3H218v2.2h-4.8s0-3.4.1-4.3c.1-1.7.7-2.3 2.4-2.3h16c1.9 0 2.5.7 2.6 2.6v3.9h-4.8v-2.2h-3.2s.1 18.9 0 19.1v.3h-5.2zm-74.2 0c-1.1 0-2.1-.9-2.1-2.1v-.3c-.1-3.4 0-16.8 0-16.8H136l-.2 19.2h-5s.1-17.5.2-19.2h-2.2v-4.5h17.9c2.8 0 3.5.6 3.5 3.4v15.6h2v4.7h-5.3zM46.8 85.9c-.3-.2-.5-.4-.7-.6-4.8-4.8-9.5-9.6-14.3-14.4l-.7-.7v-1.1c.3-.5.7-1 1.1-1.4 4.6-4.6 9.2-9.1 13.9-13.7.4-.4.7-1 1.4-.7.6.3.5 1 .5 1.5v30.5c-.1.5-.3.8-.6.8s-.4 0-.6-.2zm49.1-.2c-.4-.1-.5-.5-.5-.9V54.2c.1-.6.5-.8 1-.3.3.3.6.6.9.8l13.5 13.2c.5.4.8.9 1 1.5.1.6-.1 1.3-.6 1.7-4.8 4.8-9.6 9.5-14.4 14.3-.2.2-.4.4-.7.4 0 0-.1 0-.2-.1zm57.7-30.3c0-6.8 5.5-12.3 12.3-12.3 6.8 0 12.3 5.5 12.3 12.3 0 6.8-5.5 12.3-12.3 12.3-6.8 0-12.3-5.5-12.3-12.3zm5.6 0a6.7 6.7 0 106.7-6.7c-3.7 0-6.7 3-6.7 6.7zm40.7 11.1v-3.2c0-.6.2-.8.7-.7.7.1 1-.3 1.3-.9 2-5.6 4.1-11.3 6.1-16.9.3-1 .8-1.4 1.8-1.2h1.3c2.5-.1 2.5-.1 3.3 2.2 1.9 5.3 3.8 10.5 5.7 15.8.2.6.4 1.2 1.3 1 .4-.1.5.2.5.6v3.5c0 .4-.1.6-.5.6h-3.2c-1-.1-1.9-.8-2.1-1.8-.4-1.2-.9-2.3-1.4-3.5-.1-.4-.5-.7-1-.6h-2.9c-.8 0-1.7.1-2.5 0-.5-.1-.9.2-1 .7-.4 1.2-.9 2.3-1.3 3.5-.3 1.1-1.3 1.8-2.5 1.8h-3c-.4-.2-.6-.4-.6-.9zm10.7-9.7c.8 0 1.7 0 2.5-.1-.7-2.1-1.5-4.2-2.1-6.3h-.2c-.5 2.1-1.1 4.1-1.9 6.1.1.2.2.3.4.2h.3c.5.1.7.1 1 .1zm-26.8 10.3c-1.1.1-2-.7-2.1-1.8-.1-.5-.1-1-.1-1.5v-16h-2.2v-4.3H190c.9 0 1.9.1 2.8.3 3.3.8 5.4 4.1 4.7 7.4-.2 1-.7 1.9-1.4 2.7-.5.6-.4.8.2 1.3 2.8 2.3 3.2 6.4.9 9.2-.4.4-.8.8-1.2 1.1-1.7 1.2-3.8 1.8-5.9 1.6h-6.3zm2.9-10v5.4h4.1c1.6-.3 2.3-1 2.4-2.4.3-1.4-.7-2.7-2.1-3-.7-.1-1.5-.1-2.2-.1s-1.4 0-2.2.1zm0-9.1v4.8h3.4c1.2.1 2.3-.8 2.4-2v-.5c.1-1.3-.9-2.3-2.2-2.4-1.3.1-3.6.1-3.6.1zm-41.5 19.1v-9.5H136v9.5h-5.1V47.9h-2.2v-4.5h4.9c1.1-.1 2.2.7 2.3 1.8v.4c.1 2.1 0 7.3 0 7.3h9.3v-6.8c0-1.9.8-2.7 2.7-2.7h4.5v4.4h-2.2V67l-5 .1zm-78.6-5.6c-1.6 0-2.3-.7-2.3-2.3V49.1c0-1.7-.6-2.3-2.4-2.3H56c-.5 0-1 .1-1.2-.4-.2-.5.2-.9.5-1.3 4.8-4.7 9.6-9.5 14.4-14.2.3-.3.6-.5 1-.7h1.5c.7.4 1.3.8 1.8 1.4 4.4 4.4 8.9 8.8 13.3 13.2.2.1.3.3.4.5.3.4.7.7.4 1.2-.2.5-.7.4-1.1.4h-5.7c-1-.2-2 .6-2.2 1.6v10.7c0 1.8-.7 2.5-2.4 2.5h-4.3c-1.9-.2-3.9-.2-5.8-.2z" fill="#ec1c22"/></svg>