<svg version="1.1" id="Слой_1" xmlns="http://www.w3.org/2000/svg" x="0" y="0" viewBox="0 0 285.3 139.6" xml:space="preserve"><style>.st0{fill:#006425}.st1{fill:#e7171d}</style><path class="st0" d="M27.2 72.5h4L39 36.1l40.3-14.2-3.2-5.6-42.7 15.5z"/><path transform="rotate(-48.312 92.845 28.636)" class="st0" d="M92.1 15.1h1.5v27h-1.5z"/><path class="st0" d="M108.5 96.3l-2.9 8.2-40.4 14.2-27.6-21.8-.9 1.2 32 25.2 43.1-15.5 2-11.5zM277 82.7v-5.4l-259.7 8z"/><path class="st1" d="M285.3 84.6V89L0 92z"/><path class="st0" d="M126.9 100.9l-.1-5.9h4.4v.9h-3.3v1.5h3v.9h-3v1.6h3.4v.9l-4.4.1zm5.6-.1l-.1-5.9h1v3l2.8-3h1.3l-2.4 2.6 2.6 3.3h-1.3l-2-2.6-.9 1v1.7l-1-.1zm8.9 0c-.9 0-1.6-.3-2.1-.9-.6-.6-.9-1.3-.9-2.2 0-.9.3-1.6.8-2.2.6-.6 1.3-.9 2.2-.9.5 0 .9.1 1.3.2.4.2.7.4 1 .7l-.7.8c-.5-.5-1.1-.7-1.7-.7-.6 0-1 .2-1.4.6-.4.4-.5.9-.5 1.5s.2 1.1.6 1.5c.4.4.8.6 1.4.6.3 0 .6-.1.9-.2.3-.1.5-.3.8-.6l.7.7c-.3.4-.7.6-1 .8-.5.2-.9.3-1.4.3zm3.4-.1l-.1-5.9 4.8-.1.1 5.9h-1l-.1-5h-2.7l.1 5-1.1.1zm6.4-.1l-.1-5.9h2.3c.7 0 1.2.2 1.6.5.4.4.6.8.6 1.4 0 .6-.2 1.1-.7 1.5-.4.4-1 .5-1.7.5H152v1.9l-.8.1zm1-2.8h1.2c.4 0 .7-.1.9-.3.2-.2.3-.5.3-.8 0-.3-.1-.6-.3-.8s-.5-.3-.9-.3h-1.2v2.2zm4.6 2.7l-.1-5.9h4.4v.9h-3.3V97h3v.9h-3v1.6h3.4v.9l-4.4.1zm8.4 0c-.9 0-1.6-.3-2.1-.9-.6-.6-.9-1.3-.9-2.2 0-.9.3-1.6.8-2.2.6-.6 1.3-.9 2.2-.9.5 0 .9.1 1.3.2.4.2.7.4 1 .7l-.7.8c-.5-.5-1.1-.7-1.7-.7-.6 0-1 .2-1.4.6-.4.4-.5.9-.5 1.5s.2 1.1.6 1.5c.4.4.8.6 1.4.6.3 0 .6-.1.9-.2.3-.1.5-.3.8-.6l.7.7c-.3.4-.7.6-1 .8-.5.2-.9.3-1.4.3zm3.1-2.2v-1h2.5v1h-2.5zm3.1 3.3v-2.2h.6c.5-1 .7-2.4.7-4.1v-.8h4.1l.1 5h.7l-.1 2.2h-.9v-1.3h-4.1l-.1 1.3-1-.1zm1.7-2.2h2.7v-4h-2.1v.7c0 1.3-.2 2.5-.6 3.3zm10.4.1c-.6.6-1.3.9-2.2.9-.9 0-1.6-.3-2.2-.9-.6-.6-.9-1.3-.9-2.2 0-.8.3-1.6.9-2.2.6-.6 1.3-.9 2.2-.9.9 0 1.6.3 2.2.9.6.6.9 1.3.9 2.2 0 .8-.3 1.6-.9 2.2zm-3.6-.7c.4.4.9.6 1.4.6.6 0 1.1-.2 1.4-.6.4-.4.5-.9.5-1.5s-.2-1.1-.6-1.5c-.4-.4-.9-.6-1.4-.6-.6 0-1.1.2-1.4.6-.4.4-.6.9-.5 1.5 0 .6.2 1.1.6 1.5zm8.5 1.5c-.9 0-1.6-.3-2.1-.9-.6-.6-.9-1.3-.9-2.2 0-.9.3-1.6.8-2.2.6-.6 1.3-.9 2.2-.9.5 0 .9.1 1.3.2.4.2.7.4 1 .7l-.7.8c-.5-.5-1.1-.7-1.7-.7-.6 0-1 .2-1.4.6-.4.4-.5.9-.5 1.5s.2 1.1.6 1.5c.4.4.8.6 1.4.6.3 0 .6-.1.9-.2.3-.1.5-.3.8-.6l.7.7c-.3.4-.7.6-1 .8-.5.2-.9.3-1.4.3zm4.9-.2l-.1-4.9h-1.9v-1l4.8-.1v1h-1.9l.1 4.9-1 .1zm3.5 0l2.5-6h1l2.7 5.9h-1.1l-.6-1.4h-2.8l-.6 1.4-1.1.1zm2-2.4h2l-1-2.3-1 2.3zm5.1 2.3l-.1-5.9h2.6c.7 0 1.2.2 1.5.5.3.3.4.6.4 1 0 .6-.3 1-.8 1.3.8.3 1.2.7 1.2 1.4 0 .5-.2.9-.6 1.2-.4.3-.9.4-1.6.4l-2.6.1zm1-3.4h1.4c.3 0 .6-.1.8-.2.2-.1.3-.3.3-.6 0-.2-.1-.4-.3-.5-.2-.1-.4-.2-.8-.2h-1.5l.1 1.5zm.1 2.5h1.7c.4 0 .6-.1.8-.2.2-.1.3-.3.3-.6 0-.5-.4-.8-1.2-.8H205v1.6zm5 .9l-.1-5.9h1v3l2.8-3h1.3l-2.4 2.6 2.6 3.3h-1.3l-2-2.6-.9 1v1.7l-1-.1zm5.6-.1l2.5-6h1l2.7 5.9h-1.1l-.6-1.4h-2.8l-.6 1.4-1.1.1zm2-2.4h2l-1-2.3-1 2.3zm7.7 2.3l-.1-5.9h2.6c.7 0 1.2.2 1.5.5.3.3.4.6.4 1 0 .6-.3 1-.8 1.3.8.3 1.2.7 1.2 1.4 0 .5-.2.9-.6 1.2-.4.3-.9.4-1.6.4l-2.6.1zm1-3.4h1.4c.3 0 .6-.1.8-.2.2-.1.3-.3.3-.6 0-.2-.1-.4-.3-.5-.2-.1-.4-.2-.8-.2h-1.5l.1 1.5zm0 2.5h1.7c.4 0 .6-.1.8-.2.2-.1.3-.3.3-.6 0-.5-.4-.8-1.2-.8h-1.6v1.6zm4.6.8l2.5-6h1l2.7 5.9H236l-.6-1.4h-2.8l-.6 1.4-1.1.1zm2-2.3h2l-1-2.3-1 2.3zm5.1 2.3l-.1-5.9h1v2.4h2.8v-2.4h1l.1 5.9h-1v-2.5H239v2.5h-1zm7.9-.1l-.1-4.9h-1.9v-1l4.8-.1v1h-1.9l.1 4.9-1 .1zm3.5-.1l2.5-6h1l2.7 5.9h-1.1l-.6-1.4h-2.8l-.6 1.4-1.1.1zm2-2.3h2l-1-2.3-1 2.3zm9.4 2.2h-1v-1.6l-.9-1-1.7 2.6H256l2.3-3.4-2.2-2.5h1.2l2.6 3v-3.1h1v3.1l2.5-3.1h1.2l-2.2 2.5 2.4 3.4h-1.2l-1.8-2.6-.9 1.1-.1 1.6zm4.9 0l-.1-5.9h1l.1 5.9h-1zm2.6-.1l-.1-5.9h2.6c.7 0 1.2.2 1.5.5.3.3.4.6.4 1 0 .6-.3 1-.8 1.3.8.3 1.2.7 1.2 1.4 0 .5-.2.9-.6 1.2-.4.3-.9.4-1.6.4l-2.6.1zm1-3.4h1.4c.3 0 .6-.1.8-.2.2-.1.3-.3.3-.6 0-.2-.1-.4-.3-.5-.2-.1-.4-.2-.8-.2h-1.5l.1 1.5zm0 2.5h1.7c.4 0 .6-.1.8-.2.2-.1.3-.3.3-.6 0-.5-.4-.8-1.2-.8h-1.6v1.6z"/><path class="st1" d="M52.6 42.2l11.5-.3h.7c3.2 0 5.6.7 7.1 2.1 1.6 1.5 2.4 3.4 2.4 5.8 0 2.1-.6 4-1.7 5.5-.9 1.3-2.2 2.3-3.7 2.9 2.3 1.2 3.4 3.3 3.4 6.3S71.2 70 69 72c-2.1 1.9-5.3 3-9.4 3.1l-14.5.4 7.5-33.3zm2.5 24.9l5.1-.1c1.2 0 2.1-.3 2.8-.9.7-.6 1-1.3 1-2.2 0-.9-.3-2-2.7-2h-.2l-4.8.1-1.2 5.1zm2.8-12.3l4.5-.1c1.2 0 2.1-.3 2.8-.9.6-.5.9-1.2.9-2.1 0-.8-.3-1.9-2.6-1.9h-.2l-4.4.2-1 4.8zm21.4 20c-1.7 0-3.2-.6-4.3-1.9-1.1-1.3-1.7-3-1.7-5.1 0-2.8.9-5.1 2.6-6.8 1.7-1.7 4.1-2.6 6.9-2.7h.4c1.5 0 3 .2 4.6.7.1-.6.2-1 .2-1.3 0-.9-.3-2.1-2.9-2.1h-.2c-1.9.1-3.8.5-5.5 1.4l-.5.3-1.2-7.2.3-.1c2.5-1.1 5.3-1.7 8.4-1.8h.6c2.9 0 5.1.7 6.7 2 1.6 1.4 2.5 3.4 2.5 6.1 0 1.1-.1 2.4-.4 3.7l-3.3 14-8.1.2.4-1.8c-1.7 1.6-3.4 2.4-5.3 2.4h-.2zm5.3-11.3c-1.1 0-1.9.3-2.5.9-.6.6-.9 1.3-.9 2.3 0 .6.2 1 .5 1.4.3.3.7.4 1.1.4.9 0 1.6-.4 2.4-1.2.8-.8 1.3-1.8 1.6-3.1l.1-.5c-.7-.2-1.4-.3-2.1-.3l-.2.1zm16.5-15.4l8.2-.2-4 17.9 4.2-.2 4-17.8 8.2-.3-4 17.9 4.3-.1 4-17.9 8.2-.2-5.8 25.7-33.1 1zm55 16.4c-1.4.6-3 .9-4.8.9h-.2c-1.8 0-3.2-.6-4.3-1.8-1.1-1.2-1.6-2.9-1.6-4.9 0-.8.1-1.7.3-2.7l2.1-9.3 8.2-.2-1.7 7.6c-.2.8-.3 1.4-.3 1.7 0 1.3.6 1.5 1.1 1.5 1.2 0 2.2-.3 2.9-.9l2.3-10.1 8.2-.2-5.7 25.9-8.2.2 1.7-7.7zm16.4 7.7c-1.7 0-3.2-.6-4.3-1.9-1.1-1.3-1.7-3-1.7-5.1 0-2.8.9-5.1 2.6-6.8 1.7-1.7 4.1-2.6 6.9-2.7h.4c1.5 0 3 .2 4.6.7.1-.6.2-1 .2-1.3 0-.9-.3-2.1-2.9-2.1h-.2c-1.9.1-3.8.5-5.5 1.4l-.5.3-1.2-7.2.3-.1c2.5-1.1 5.3-1.7 8.4-1.8h.6c2.9 0 5.1.7 6.7 2 1.6 1.4 2.5 3.4 2.5 6.1 0 1.1-.1 2.4-.4 3.7l-3.1 14.1-8.1.2.4-1.8c-1.7 1.6-3.4 2.4-5.3 2.4l-.4-.1zm5.3-11.4c-1.1 0-1.9.3-2.5.9-.6.6-.9 1.4-.9 2.3 0 .6.2 1 .5 1.4.3.3.7.5 1.1.5.9 0 1.6-.4 2.4-1.2.8-.8 1.3-1.8 1.6-3.1l.1-.5c-.7-.2-1.4-.3-2.1-.3h-.2zm22.5 10.7c-2.8 0-5.1-1-7-2.9-1.9-2-2.9-4.7-2.9-8.1 0-4.2 1.3-7.9 3.7-11 2.5-3.1 5.6-4.7 9.2-4.8h.4c2.2 0 4.1.6 5.6 1.8 1.6 1.3 2.7 2.9 3.3 5l.1.3-6.4 4.1-.2-.5c-.7-1.8-1.7-2.7-3.1-2.7h-.1c-1.2 0-2.3.7-3.2 2.2-.9 1.4-1.4 3.1-1.4 4.9 0 1.1.3 2.1.8 2.7.5.6 1.1.9 1.9.9h.1c1.2 0 2.4-.8 3.6-2.2l.3-.4 5 5.1-.2.3c-2.4 3.4-5.5 5.2-9.2 5.3h-.3z"/></svg>