<svg xmlns="http://www.w3.org/2000/svg" viewBox="0 0 177.83 169.45"><defs><style>.cls-1{fill:#bababa;}.cls-2{fill:#c9c9c9;}.cls-3{fill:#d3d3d3;}</style></defs><g id="Слой_2" data-name="Слой 2"><g id="Слой_1-2" data-name="Слой 1"><path class="cls-1" d="M170.23,149c-2.29-3.7-4.27-4.59-10.91-7.53s-15.64-6-25-9.06-13.91-6-16.79-8-4.14-3.32-4.59-6.26-.27-16.27-.27-16.27H65.12s.18,13.34-.27,16.27-1.72,4.28-4.59,6.26-7.47,4.91-16.79,8-18.32,6.12-25,9.06S9.89,145.26,7.6,149,2.3,160.32,0,169.45H177.83C175.53,160.32,172.53,152.66,170.23,149Z"/><path class="cls-2" d="M132.33,131.67a58.29,58.29,0,0,1-14.76-7.28c-2.87-2-4.14-3.32-4.59-6.26s-.27-16.27-.27-16.27H65.12s.18,13.34-.27,16.27-1.72,4.28-4.59,6.26A57.61,57.61,0,0,1,46,131.49h0c19.43,20.87,43.25,19.64,43.25,19.64S112.93,152.35,132.33,131.67Z"/><path class="cls-3" d="M124.62,58.37a4.09,4.09,0,0,0-3.14.72l.18-2.3V25.2H57.19V60a4,4,0,0,0-4-1.58c-4.34.59-3.4,5.61-2.08,9.7s1.15,6,2.21,10.76,5,3.79,5,3.79L58.57,87c0,10,8.08,16.94,16.08,24,4,3.53,9.13,6.15,14.26,6.15s10.28-2.62,14.27-6.15c8-7.06,16.08-14,16.08-24,0,0,0-.06,0-.09h0l.25-4.25s3.92,1,5-3.79.89-6.68,2.21-10.76S129,59,124.62,58.37Z"/><path class="cls-1" d="M54.17,58.32a38.69,38.69,0,0,1-2.28-11.07c-.22-5.81-.48-14,.67-19.31s1.57-7,2.53-9.48,2.32-2.74,2.32-2.74S61.5,8.54,69.26,6c0-1.72,1.4-2.58,7.91-2.77,1.88-2.3,6.54-5,15-1.53,3.19-.39,6.22-.74,7.34.7A4.91,4.91,0,0,0,102.16.91a8.27,8.27,0,0,1,1,2c3.7,0,6.83,2,7,6.13a13.68,13.68,0,0,1,8.77,0,2.55,2.55,0,0,0-1.53,1.88s5.24.51,7.25,6.8a55.45,55.45,0,0,1,2.17,16.15c0,3.06-.83,9.6-1,13.4a49.74,49.74,0,0,1-2,11.07S121,64.9,121,70.13c-.58-1.78-.13-9.76-.83-13s-1.22-4.28-1.22-6.83.2-8.42-2-14.3-6.39-8.36-9.83-8.23-7.22.83-8.88.19a11,11,0,0,0-6.83-.64c-2.8.7-7.91,1.66-11.61,1.15s-5.43-2-8.56-2-5.42,3.19-6.38,5.43-3.7,11.36-4.91,13.15l-1.22,1.78v8.3c0,3.39-.95,7.6-.95,10V73a13.36,13.36,0,0,1-1.41-6.25V62.92A47.85,47.85,0,0,1,54.17,58.32Z"/></g></g></svg>