<svg xmlns="http://www.w3.org/2000/svg" width="59.35" height="58.311" viewBox="0 0 59.35 58.311"><g transform="translate(-224.197 -377.597)"><g transform="translate(224.197 377.597)"><g transform="translate(0 0)"><path d="M264.354,413.541c-11.228-9.43-28.4-3.621-39.39-13.651a2.335,2.335,0,0,1-.608-2.573l7.252-18.607a1.745,1.745,0,0,1,2.749-.7c11.228,9.43,28.4,3.621,39.39,13.652a2.336,2.336,0,0,1,.608,2.573L267.1,412.839A1.745,1.745,0,0,1,264.354,413.541Z" transform="translate(-224.197 -377.597)" fill="#00d0d2"/><circle cx="5.021" cy="5.021" r="5.021" transform="translate(20.137 13.155)" fill="#00aeb9"/><circle cx="1.969" cy="1.969" r="1.969" transform="translate(33.625 20.275)" fill="#00aeb9"/><circle cx="1.969" cy="1.969" r="1.969" transform="translate(12.901 12.198)" fill="#00aeb9"/></g><g transform="translate(9.034 21.957)"><path d="M313.182,605.13c11.228-9.43,28.4-3.621,39.39-13.651a2.335,2.335,0,0,0,.608-2.573L345.928,570.3a1.745,1.745,0,0,0-2.749-.7c-11.228,9.43-28.4,3.621-39.39,13.652a2.335,2.335,0,0,0-.608,2.573l7.252,18.607A1.745,1.745,0,0,0,313.182,605.13Z" transform="translate(-303.023 -569.186)" fill="#72e5e3"/><circle cx="5.021" cy="5.021" r="5.021" transform="translate(20.137 13.155)" fill="#00d0d2"/><circle cx="1.969" cy="1.969" r="1.969" transform="translate(12.754 20.275)" fill="#00d0d2"/><circle cx="1.969" cy="1.969" r="1.969" transform="translate(33.478 12.198)" fill="#00d0d2"/></g></g><path d="M540.287,459.713a1.745,1.745,0,0,0-2.749-.7,20.91,20.91,0,0,1-1.792,1.345l2.759-7.078a2.336,2.336,0,0,0-.608-2.573c-4.391-4.007-9.768-5.485-15.357-6.418v44.356c8.59-1.4,17.651-1.6,24.391-7.75a2.335,2.335,0,0,0,.608-2.573Z" transform="translate(-264.15 -59.047)" fill="#00627c" opacity="0.26"/></g></svg>