<?xml version="1.0" encoding="utf-8"?>
<!-- Generator: Adobe Illustrator 25.2.1, SVG Export Plug-In . SVG Version: 6.00 Build 0)  -->
<svg version="1.1" id="Слой_1" xmlns="http://www.w3.org/2000/svg" xmlns:xlink="http://www.w3.org/1999/xlink" x="0px" y="0px"
	 viewBox="0 0 161 59.6" style="enable-background:new 0 0 161 59.6;" xml:space="preserve">
<style type="text/css">
	.st0{fill:#FFFFFF;}
	.st1{fill:none;stroke:#707070;}
	.st2{fill:#F2951D;}
</style>
<g transform="translate(1406 -2580)">
	<g transform="translate(-1386.405 2601.9)">
		<rect x="0" y="0" class="st0" width="61.1" height="32.3"/>
		<rect x="0.5" y="0.5" class="st1" width="60.1" height="31.3"/>
	</g>
	<g>
		<polygon class="st0" points="-1306,2614.4 -1304.3,2614.4 -1304.3,2611.7 -1301.3,2606.7 -1303.2,2606.7 -1305.1,2610.2 
			-1307.1,2606.7 -1309,2606.7 -1306,2611.7 		"/>
		<path class="st0" d="M-1293.3,2610.6c0-2.1-1.4-4-4.1-4s-4.1,1.9-4.1,4c0,2.1,1.4,4,4.1,4S-1293.3,2612.7-1293.3,2610.6z
			 M-1297.4,2613.1c-1.6,0-2.4-1.1-2.4-2.5c0-1.4,0.8-2.5,2.4-2.5c1.6,0,2.4,1.1,2.4,2.5C-1295,2611.9-1295.8,2613.1-1297.4,2613.1z
			"/>
		<path class="st0" d="M-1285.4,2611.5v-4.8h-1.6v4.7c0,1.2-0.7,1.7-1.7,1.7c-1,0-1.7-0.4-1.7-1.7v-4.7h-1.7v4.8c0,2.3,1.7,3,3.4,3
			S-1285.4,2613.8-1285.4,2611.5z"/>
		<path class="st0" d="M-1279.7,2611.9h1.3c1.9,0,3.3-0.6,3.3-2.6c0-2-1.5-2.6-3.3-2.6h-2.9v7.7h1.7V2611.9z M-1279.7,2608.2h1.3
			c0.8,0,1.6,0.2,1.6,1.1c0,0.9-0.7,1.1-1.6,1.1h-1.3V2608.2z"/>
		<path class="st0" d="M-1272.4,2611.7h1.2l2.1,2.7h1.9l-2.3-2.9c0.9-0.3,1.7-1,1.7-2.3c0-1.9-1.6-2.5-3.1-2.5h-3.2v7.7h1.7V2611.7z
			 M-1272.4,2608.2h1.6c0.7,0,1.3,0.3,1.3,1.1c0,0.8-0.6,1.1-1.3,1.1h-1.6V2608.2z"/>
		<rect x="-1266.3" y="2606.7" class="st0" width="1.7" height="7.7"/>
		<path class="st0" d="M-1256.2,2606.7h-1.7v4c0,0.4,0,0.7,0,1.1l-3.6-5h-1.6v7.7h1.7v-4c0-0.4,0-0.7,0-1.1l3.6,5h1.6V2606.7z"/>
		<polygon class="st0" points="-1252.9,2614.4 -1251.2,2614.4 -1251.2,2608.2 -1248.9,2608.2 -1248.9,2606.7 -1255.3,2606.7 
			-1255.3,2608.2 -1252.9,2608.2 		"/>
		<polygon class="st0" points="-1300.8,2626.6 -1302.5,2620.8 -1303.9,2620.8 -1305.6,2626.6 -1307.1,2620.8 -1308.9,2620.8 
			-1306.5,2628.5 -1304.7,2628.5 -1303.2,2623.3 -1301.7,2628.5 -1299.9,2628.5 -1297.5,2620.8 -1299.3,2620.8 		"/>
		<polygon class="st0" points="-1294.9,2625.4 -1291.5,2625.4 -1291.5,2623.9 -1294.9,2623.9 -1294.9,2622.3 -1291.1,2622.3 
			-1291.1,2620.8 -1296.6,2620.8 -1296.6,2628.5 -1291.1,2628.5 -1291.1,2627.1 -1294.9,2627.1 		"/>
		<path class="st0" d="M-1286,2622.8c0-0.5,0.4-0.7,1.3-0.7c0.9,0,1.7,0.2,2.4,0.7v-1.5c-0.7-0.4-1.6-0.6-2.5-0.6
			c-1.5,0-2.8,0.7-2.8,2.2c0,2.7,4.2,2.2,4.2,3.6c0,0.5-0.5,0.7-1.4,0.7c-0.9,0-1.8-0.2-2.7-0.8v1.6c0.8,0.4,1.8,0.7,2.8,0.7
			c1.6,0,3-0.5,3-2.3C-1281.8,2623.7-1286,2624.2-1286,2622.8z"/>
		<path class="st0" d="M-1275.6,2625.5c0,1.2-0.7,1.7-1.7,1.7c-1,0-1.7-0.4-1.7-1.7v-4.7h-1.7v4.8c0,2.3,1.7,3,3.4,3
			c1.7,0,3.4-0.8,3.4-3v-4.8h-1.6V2625.5z"/>
		<path class="st0" d="M-1269.5,2620.8h-2.9v7.7h1.7v-2.5h1.3c1.9,0,3.3-0.6,3.3-2.6C-1266.2,2621.4-1267.6,2620.8-1269.5,2620.8z
			 M-1269.4,2624.5h-1.3v-2.3h1.3c0.8,0,1.6,0.2,1.6,1.1C-1267.9,2624.3-1268.6,2624.5-1269.4,2624.5z"/>
		<path class="st0" d="M-1262.2,2620.8h-2.9v7.7h1.7v-2.5h1.3c1.9,0,3.3-0.6,3.3-2.6C-1258.8,2621.4-1260.3,2620.8-1262.2,2620.8z
			 M-1262.1,2624.5h-1.3v-2.3h1.3c0.8,0,1.6,0.2,1.6,1.1C-1260.5,2624.3-1261.2,2624.5-1262.1,2624.5z"/>
		<polygon class="st0" points="-1256.1,2620.8 -1257.8,2620.8 -1257.8,2628.5 -1252.3,2628.5 -1252.3,2627 -1256.1,2627 		"/>
		<polygon class="st0" points="-1247.6,2620.8 -1249.6,2624.3 -1251.6,2620.8 -1253.4,2620.8 -1250.4,2625.8 -1250.4,2628.5 
			-1248.8,2628.5 -1248.8,2625.8 -1245.8,2620.8 		"/>
	</g>
	<g transform="translate(-3955.002 1739)">
		<path class="st2" d="M2630.3,855.9h-59.9c-1.1,0-1.9-0.9-1.9-1.9v-11c0-1.1-0.9-1.9-1.9-1.9h-15.5c-1.1,0-1.9,0.9-1.9,1.9v15.5
			c0,1.1,0.9,1.9,1.9,1.9h11c1.1,0,1.9,0.9,1.9,1.9v35.3c0,1.6,1.3,2.9,2.9,2.9l0,0h63.5c1.6,0,2.9-1.3,2.9-2.9l0,0v-38.9
			C2633.2,857.2,2631.9,855.9,2630.3,855.9L2630.3,855.9z M2595.3,881.7c-0.4,1-1.1,1.8-1.9,2.4c-0.8,0.6-1.8,1.1-2.8,1.4
			c-1.4,0.3-2.8,0.5-4.2,0.5h-8v-16.1h7.7c1.5,0,3,0.1,4.4,0.4c1,0.3,1.9,0.7,2.7,1.4c0.9,0.7,1.5,1.5,2,2.5
			c0.5,1.2,0.8,2.5,0.7,3.9C2596.1,879.3,2595.8,880.6,2595.3,881.7L2595.3,881.7z M2613.9,886h-3.6l-3.3-12.1l-3.3,12.1h-3.6
			l-4-16.1h3.5l2.5,11.1l3-11.1h4l2.9,11.3l2.6-11.3h3.4L2613.9,886z"/>
		<path class="st2" d="M2590.1,873.5c-0.6-0.4-1.3-0.7-2-0.8c-1.1-0.1-2.3-0.2-3.4-0.1h-1.9v10.7h3.2c1,0,2,0,3-0.2
			c0.5-0.1,1.1-0.4,1.5-0.7c0.5-0.4,0.8-1,1-1.5c0.3-0.9,0.4-1.8,0.4-2.8c0-1-0.1-1.9-0.4-2.8
			C2591.1,874.5,2590.7,873.9,2590.1,873.5z"/>
	</g>
</g>
</svg>
