<svg xmlns="http://www.w3.org/2000/svg" width="161" height="59.599" viewBox="0 0 161 59.599"><g transform="translate(1406 -2580)"><g transform="translate(-1386.405 2601.9)" fill="#fff" stroke="#707070" stroke-width="1"><rect width="61.091" height="32.274" stroke="none"/><rect x="0.5" y="0.5" width="60.091" height="31.274" fill="none"/></g><g transform="translate(-1309 2605.443)"><text transform="translate(0 9)" fill="#fff" font-size="11" font-family="MullerBold, Muller"><tspan x="0" y="0">YOU PRINT</tspan></text><text transform="translate(0 23.08)" fill="#fff" font-size="11" font-family="MullerBold, Muller"><tspan x="0" y="0">WE SUPPLY</tspan></text></g><g transform="translate(-3955.002 1739)"><path d="M2630.3,855.9h-59.923a1.944,1.944,0,0,1-1.943-1.943V842.944a1.944,1.944,0,0,0-1.943-1.944h-15.547a1.944,1.944,0,0,0-1.943,1.944v15.547a1.944,1.944,0,0,0,1.943,1.944h11.013a1.944,1.944,0,0,1,1.943,1.943v35.306a2.915,2.915,0,0,0,2.915,2.915H2630.3a2.915,2.915,0,0,0,2.915-2.915V858.815A2.915,2.915,0,0,0,2630.3,855.9Zm-34.975,25.822a6.831,6.831,0,0,1-1.9,2.447,7.941,7.941,0,0,1-2.782,1.356,15.884,15.884,0,0,1-4.2.457h-7.952V869.869h7.725a17.724,17.724,0,0,1,4.423.416,7.862,7.862,0,0,1,2.747,1.389,6.686,6.686,0,0,1,1.97,2.539,9.316,9.316,0,0,1,.715,3.877A8.225,8.225,0,0,1,2595.326,881.722Zm18.6,4.259h-3.582l-3.33-12.052-3.3,12.052h-3.638l-4-16.112h3.453l2.5,11.073,3.047-11.073h4.012l2.926,11.26,2.577-11.26h3.384Z" fill="#f2951d"/><path d="M2590.1,873.519a4.646,4.646,0,0,0-2.016-.781,26.524,26.524,0,0,0-3.439-.143h-1.92v10.661h3.177a12.828,12.828,0,0,0,2.959-.242,3.845,3.845,0,0,0,1.5-.729,3.549,3.549,0,0,0,.969-1.544,8.265,8.265,0,0,0,.384-2.776,8.132,8.132,0,0,0-.393-2.822A3.432,3.432,0,0,0,2590.1,873.519Z" fill="#f2951d"/></g></g></svg>