<svg xmlns="http://www.w3.org/2000/svg" width="94.672" height="67" viewBox="0 0 94.672 67"><g transform="translate(26.261 27.09)" fill="#fff" stroke="#707070" stroke-width="1"><rect width="64.675" height="34.168" stroke="none"/><rect x="0.5" y="0.5" width="63.675" height="33.168" fill="none"/></g><path d="M2640.4,857.75h-67.364a2.185,2.185,0,0,1-2.184-2.184V843.185a2.186,2.186,0,0,0-2.185-2.185h-17.477a2.185,2.185,0,0,0-2.184,2.185v17.478a2.185,2.185,0,0,0,2.184,2.185h12.38a2.185,2.185,0,0,1,2.184,2.184v39.69a3.277,3.277,0,0,0,3.277,3.277H2640.4a3.277,3.277,0,0,0,3.278-3.277v-43.7A3.277,3.277,0,0,0,2640.4,857.75Zm-39.318,29.028a7.679,7.679,0,0,1-2.136,2.751,8.928,8.928,0,0,1-3.127,1.524,17.854,17.854,0,0,1-4.722.514h-8.939V873.454h8.684a19.919,19.919,0,0,1,4.972.467,8.838,8.838,0,0,1,3.088,1.562,7.513,7.513,0,0,1,2.215,2.854,10.466,10.466,0,0,1,.8,4.359A9.257,9.257,0,0,1,2601.078,886.779Zm20.907,4.788h-4.027l-3.744-13.549-3.71,13.549h-4.09l-4.492-18.113h3.882l2.814,12.448,3.426-12.448h4.51l3.289,12.658,2.9-12.658h3.8Z" transform="translate(-2549.002 -841)" fill="#f2951d"/><path d="M2590.529,873.574a4.919,4.919,0,0,0-2.134-.827,28.059,28.059,0,0,0-3.641-.151h-2.033v11.286h3.363a13.584,13.584,0,0,0,3.133-.256,4.074,4.074,0,0,0,1.589-.772,3.757,3.757,0,0,0,1.026-1.634,8.75,8.75,0,0,0,.406-2.939,8.6,8.6,0,0,0-.416-2.988A3.631,3.631,0,0,0,2590.529,873.574Z" transform="translate(-2544.55 -836.626)" fill="#f2951d"/></svg>