<svg xmlns="http://www.w3.org/2000/svg" xmlns:xlink="http://www.w3.org/1999/xlink" width="100" height="100" viewBox="0 0 100 100"><defs><clipPath id="a"><circle cx="50" cy="50" r="50" fill="#e6e6e6"/></clipPath></defs><g transform="translate(-489 -650)"><circle cx="50" cy="50" r="50" transform="translate(489 650)" fill="#fff" opacity="0.26"/><g transform="translate(489 650)" clip-path="url(#a)"><g transform="translate(3.226 10.495)"><g transform="translate(0 0)"><path d="M90.065,126.81c-1.212-1.958-2.259-2.428-5.772-3.984s-8.275-3.174-13.227-4.793a31.38,31.38,0,0,1-8.883-4.233c-1.524-1.058-2.19-1.757-2.428-3.312s-.143-8.608-.143-8.608H34.454s.1,7.058-.143,8.608-.91,2.264-2.428,3.312A32.4,32.4,0,0,1,23,118.033c-4.931,1.635-9.693,3.238-13.227,4.793s-4.539,2.005-5.751,3.984A43.769,43.769,0,0,0,0,137.63H94.086A42.884,42.884,0,0,0,90.065,126.81Z" transform="translate(0 -48)" fill="#ffe6b4"/><path d="M91.675,117.632a30.84,30.84,0,0,1-7.809-3.852c-1.518-1.058-2.19-1.757-2.428-3.312s-.143-8.608-.143-8.608H56.116s.1,7.058-.143,8.608-.91,2.264-2.428,3.312A30.48,30.48,0,0,1,46,117.537h0a31.535,31.535,0,0,0,22.883,10.391A31.529,31.529,0,0,0,91.675,117.632Z" transform="translate(-21.662 -47.99)" fill="#fff7e5"/><path d="M89.482,42.75a2.164,2.164,0,0,0-1.661.381l.1-1.217V25.2H53.807V43.612a2.116,2.116,0,0,0-2.116-.836c-2.3.312-1.8,2.968-1.1,5.132A54.581,54.581,0,0,1,51.759,53.6c.561,2.518,2.645,2.005,2.645,2.005l.132,2.291c0,5.291,4.275,8.963,8.508,12.7a11.893,11.893,0,0,0,7.545,3.254,11.894,11.894,0,0,0,7.55-3.254c4.233-3.735,8.508-7.407,8.508-12.7v-.048h0l.132-2.249s2.074.529,2.645-2.005A56.232,56.232,0,0,1,90.593,47.9C91.292,45.744,91.8,43.083,89.482,42.75Z" transform="translate(-23.549 -11.889)" fill="#fffefc"/><path d="M53.006,30.876A20.47,20.47,0,0,1,51.8,25.019c-.116-3.074-.254-7.407.354-10.217a29.739,29.739,0,0,1,1.339-5.016c.508-1.312,1.227-1.45,1.227-1.45a12.45,12.45,0,0,1,6.27-5.143c0-.91.741-1.365,4.185-1.466C66.17.512,68.635-.917,73.111.919,74.8.713,76.4.528,76.995,1.29A2.6,2.6,0,0,0,78.4.5a4.375,4.375,0,0,1,.529,1.058c1.958,0,3.614,1.058,3.7,3.243a7.238,7.238,0,0,1,4.64,0,1.349,1.349,0,0,0-.81.995A4.852,4.852,0,0,1,90.3,9.4a29.338,29.338,0,0,1,1.148,8.545c0,1.619-.439,5.079-.529,7.09a26.317,26.317,0,0,1-1.058,5.857,19.34,19.34,0,0,0-1.492,6.238c-.307-.942-.069-5.164-.439-6.878a14.9,14.9,0,0,1-.645-3.614,20.841,20.841,0,0,0-1.058-7.566c-1.164-3.111-3.381-4.423-5.2-4.354s-3.82.439-4.7.1a5.82,5.82,0,0,0-3.614-.339,18.651,18.651,0,0,1-6.143.608c-1.958-.27-2.873-1.058-4.529-1.058S59.17,15.712,58.662,16.9s-1.958,6.01-2.6,6.957l-.645.942v4.391c0,1.794-.5,4.021-.5,5.291v4.164a7.068,7.068,0,0,1-.746-3.307V33.309A25.319,25.319,0,0,1,53.006,30.876Z" transform="translate(-24.346 -0.042)" fill="#ffebc4"/></g></g></g></g></svg>