<svg xmlns="http://www.w3.org/2000/svg" xmlns:xlink="http://www.w3.org/1999/xlink" width="111" height="111" viewBox="0 0 111 111"><defs><clipPath id="a"><circle cx="55.5" cy="55.5" r="55.5" fill="none"/></clipPath></defs><g transform="translate(-4.19)"><g transform="translate(4.19 0)" clip-path="url(#a)"><g transform="translate(-2.745 0)"><rect width="116.489" height="111" fill="#fff" opacity="0.26"/><g transform="translate(6.131 11.709)"><path d="M109.132,136.61c-1.342-2.169-2.5-2.69-6.394-4.414s-9.167-3.516-14.653-5.31a34.758,34.758,0,0,1-9.84-4.689c-1.688-1.172-2.426-1.946-2.69-3.669s-.159-9.536-.159-9.536H47.527s.105,7.819-.159,9.536-1.008,2.509-2.69,3.669a35.872,35.872,0,0,1-9.84,4.689c-5.463,1.811-10.738,3.587-14.652,5.31s-5.029,2.221-6.371,4.414A48.482,48.482,0,0,0,9.36,148.6H113.587C112.239,143.245,110.48,138.755,109.132,136.61Z" transform="translate(-9.36 -49.305)" fill="#fff7e5"/><path d="M96.743,122.18c-1.682-1.172-2.427-1.946-2.69-3.669s-.159-9.536-.159-9.536H66s.105,7.819-.159,9.536-1.008,2.509-2.69,3.669c-2.58,1.768,16.992,9.86,16.992,9.86S99.41,124,96.743,122.18Z" transform="translate(-27.834 -49.299)" fill="#fff7e5"/><path d="M97.833,59.826a2.4,2.4,0,0,0-1.84.422L96.1,58.9V40.385H58.313v20.4a2.345,2.345,0,0,0-2.344-.926c-2.544.346-1.993,3.288-1.219,5.685s.674,3.516,1.3,6.306,2.931,2.221,2.931,2.221l.146,2.538c0,5.861,4.736,9.929,9.425,14.067a13.176,13.176,0,0,0,8.358,3.6,13.178,13.178,0,0,0,8.363-3.6c4.689-4.138,9.425-8.205,9.425-14.067v-.052h0l.146-2.491s2.3.586,2.931-2.221.521-3.915,1.3-6.306S100.4,60.2,97.833,59.826Z" transform="translate(-24.793 -25.64)" fill="#fffefc"/><path d="M57.065,52.033a22.652,22.652,0,0,1-1.336-6.488c-.129-3.406-.282-8.205.392-11.317A32.922,32.922,0,0,1,57.6,28.671c.563-1.454,1.359-1.606,1.359-1.606a13.8,13.8,0,0,1,6.946-5.7c0-1.008.821-1.512,4.636-1.623,1.1-1.348,3.833-2.931,8.792-.9,1.87-.229,3.646-.434,4.3.41a2.879,2.879,0,0,0,1.553-.873,4.821,4.821,0,0,1,.586,1.172c2.169,0,4,1.173,4.1,3.593a8.017,8.017,0,0,1,5.14,0,1.5,1.5,0,0,0-.9,1.1,5.375,5.375,0,0,1,4.249,3.985A32.5,32.5,0,0,1,99.646,37.7c0,1.794-.487,5.627-.586,7.854a29.154,29.154,0,0,1-1.172,6.488,21.422,21.422,0,0,0-1.653,6.91c-.34-1.043-.076-5.72-.486-7.619a16.486,16.486,0,0,1-.715-4,23.092,23.092,0,0,0-1.172-8.381c-1.29-3.446-3.746-4.9-5.761-4.823s-4.232.486-5.205.111a6.442,6.442,0,0,0-4-.375,20.669,20.669,0,0,1-6.8.674c-2.169-.3-3.183-1.173-5.017-1.173s-3.177,1.87-3.74,3.183-2.168,6.658-2.878,7.707L59.738,45.3v4.864c0,1.987-.557,4.454-.557,5.861v4.612a7.831,7.831,0,0,1-.827-3.663V54.728A28,28,0,0,1,57.065,52.033Z" transform="translate(-25.316 -17.875)" fill="#ffebc4"/><path d="M54.913,131.474l5.463-4.384,1.322.328,15.485,7.953-8.926,8.28Z" transform="translate(-25.073 -55.548)" fill="#fffefc"/><path d="M111.181,131.474l-5.463-4.384-1.322.328L88.911,135.37l8.926,8.28Z" transform="translate(-36.8 -55.548)" fill="#fffefc"/><path d="M85.114,139.752,77.9,146.427l4.869,5.482,2.342-.016,2.346.016,4.869-5.482Z" transform="translate(-33.003 -59.916)" fill="#ffebc4"/><path d="M89.234,158.3l-2.343-.016h0l-2.343.016-1.5,7.3h7.684Z" transform="translate(-34.778 -66.309)" fill="#ffebc4"/><path d="M141.643,144.572c-1.342-2.169-2.5-2.69-6.394-4.414s-9.167-3.516-14.653-5.31a36.821,36.821,0,0,1-5.739-2.775l-11.246,24.484H146.1C144.749,151.206,142.991,146.716,141.643,144.572Z" transform="translate(-41.871 -57.267)" fill="#ffebc4"/><path d="M13.814,144.572c1.342-2.169,2.5-2.69,6.394-4.414s9.167-3.516,14.653-5.31a36.821,36.821,0,0,0,5.739-2.775l11.246,24.484H9.36C10.708,151.206,12.466,146.716,13.814,144.572Z" transform="translate(-9.36 -57.267)" fill="#ffebc4"/><path d="M97.992,69.489V68.17c-.974-.071-3.008-.6-5.974-1.074a24.416,24.416,0,0,0-8.414.442,28.1,28.1,0,0,1-4.794.92,28.092,28.092,0,0,1-4.8-.92A24.415,24.415,0,0,0,65.6,67.1c-2.966.473-5,1-5.974,1.074v1.319a1.453,1.453,0,0,0,.573,1.189A2.916,2.916,0,0,1,61.273,72.5a22.385,22.385,0,0,0,1.547,4.27c.716,1.347,1.877,2.278,5.014,2.65s5.979-.532,7.622-3.066a11.957,11.957,0,0,0,1.848-4.04,1.6,1.6,0,0,1,3.009,0,11.972,11.972,0,0,0,1.848,4.04c1.642,2.534,4.485,3.438,7.622,3.066s4.3-1.3,5.014-2.65a22.385,22.385,0,0,0,1.547-4.27,2.916,2.916,0,0,1,1.075-1.819A1.453,1.453,0,0,0,97.992,69.489Zm-22.2,4.422c-.554,1.414-2.1,4.282-5.425,4.661s-5.177-.344-6.151-1.3-1.72-3.687-1.872-4.929-.172-2.5.688-3.247,3.632-1.442,6.437-1.318c3.038.134,5.119.611,6.495,1.872C76.928,70.532,76.349,72.5,75.795,73.91ZM95.27,72.344c-.153,1.242-.9,3.974-1.872,4.929s-2.831,1.678-6.151,1.3-4.871-3.248-5.425-4.661-1.133-3.379-.172-4.26c1.376-1.26,3.457-1.738,6.495-1.872,2.806-.124,5.578.573,6.437,1.318S95.422,71.1,95.27,72.344Z" transform="translate(-26.698 -34.784)" fill="#ffebc4"/></g></g></g></g></svg>