<?xml version="1.0" standalone="no"?>
<!DOCTYPE svg PUBLIC "-//W3C//DTD SVG 20010904//EN"
 "http://www.w3.org/TR/2001/REC-SVG-20010904/DTD/svg10.dtd">
<svg version="1.0" xmlns="http://www.w3.org/2000/svg"
 width="2432.000000pt" height="2432.000000pt" viewBox="0 0 2432.000000 2432.000000"
 preserveAspectRatio="xMidYMid meet">
<metadata>
Created by potrace 1.11, written by Peter Selinger 2001-2013
</metadata>
<g transform="translate(0.000000,2432.000000) scale(0.100000,-0.100000)"
fill="#000000" stroke="none">
<path d="M0 12160 l0 -4970 2849 0 c1566 0 2851 3 2854 6 3 3 34 7 69 9 80 4
235 15 268 20 21 4 70 9 190 20 14 1 43 5 65 8 22 4 65 9 95 13 107 12 124 15
205 28 17 2 50 7 75 11 25 3 52 7 60 9 35 7 87 16 120 21 49 8 70 12 110 20
19 4 46 9 60 10 14 2 34 6 45 9 16 4 146 32 240 52 29 6 62 13 85 19 11 3 29
7 40 10 11 3 28 7 38 9 55 13 78 19 87 25 6 3 18 7 27 8 19 3 276 89 318 106
14 5 34 12 45 14 10 2 22 7 25 12 4 7 49 23 72 25 4 1 13 7 20 14 6 6 18 12
25 12 12 0 84 31 93 40 3 3 12 6 20 8 16 4 154 66 180 82 8 5 42 23 75 39 33
17 92 48 130 71 39 22 82 45 98 51 15 6 27 15 27 20 0 5 5 9 11 9 6 0 31 13
56 30 24 17 46 30 48 30 5 0 216 141 231 155 6 5 22 17 34 25 21 14 102 74
125 92 163 131 417 383 551 548 16 19 33 40 39 47 42 48 76 92 74 95 -1 2 9
15 23 31 14 15 61 80 104 145 44 64 82 119 87 120 4 2 7 8 7 13 0 5 15 32 34
61 43 68 125 220 125 232 -1 5 4 12 9 15 12 7 107 202 104 214 -1 4 2 7 6 7 5
0 9 6 9 13 0 6 12 37 26 67 22 49 83 193 92 220 1 3 5 12 8 20 9 20 78 221 82
240 2 8 13 44 25 80 19 57 26 85 34 125 1 6 4 15 8 20 3 6 9 26 12 46 3 20 10
49 16 65 6 16 11 30 11 32 -1 1 -1 3 0 5 1 1 2 13 4 27 2 14 7 39 10 55 4 17
8 36 8 43 0 6 4 12 9 12 5 0 7 4 3 9 -3 6 -1 29 5 53 6 24 13 59 15 78 2 19 6
47 9 63 14 67 20 112 31 227 2 19 6 53 9 75 15 111 19 228 20 655 1 456 -4
590 -29 780 -2 14 -6 50 -9 81 -3 31 -8 72 -11 90 -6 33 -12 75 -20 129 -1 14
-8 52 -15 85 -17 90 -22 118 -24 141 -1 11 -6 26 -10 33 -4 7 -6 15 -3 18 3 3
1 17 -5 32 -5 14 -12 40 -15 56 -6 37 -61 254 -70 275 -7 17 -9 25 -16 60 -3
14 -22 72 -42 130 -19 58 -38 116 -41 129 -3 14 -8 29 -12 35 -4 6 -7 14 -8
19 -1 4 -3 9 -4 12 -1 3 -3 8 -5 13 -1 4 -6 18 -12 32 -6 14 -22 57 -36 95
-14 39 -35 89 -46 112 -12 23 -21 46 -21 52 0 5 -9 26 -21 45 -12 20 -17 36
-12 36 4 0 3 4 -3 8 -6 4 -32 50 -59 102 -26 52 -56 107 -66 122 -11 14 -19
28 -19 31 0 3 -23 42 -50 86 -28 44 -50 85 -50 91 0 5 -3 10 -7 10 -5 0 -21
21 -38 48 -16 26 -33 52 -37 57 -5 6 -47 62 -94 125 -47 63 -93 121 -102 128
-9 6 -13 12 -9 12 4 0 -1 8 -10 18 -10 11 -49 54 -88 97 -116 130 -296 306
-415 405 -14 12 -34 29 -45 38 -11 10 -38 31 -60 47 -22 16 -42 32 -45 35 -41
41 -400 290 -418 290 -6 0 -12 4 -14 8 -6 14 -411 240 -438 243 -3 1 -22 10
-42 20 -21 11 -38 16 -38 12 0 -5 -4 -3 -8 2 -6 9 -32 22 -157 75 -69 30 -317
117 -395 140 -41 12 -82 24 -90 27 -18 7 -27 9 -60 16 -14 3 -45 10 -70 16
-25 7 -58 14 -75 16 -40 7 -70 13 -70 15 0 1 -11 3 -25 6 -14 2 -47 9 -75 14
-50 10 -112 20 -150 26 -11 1 -20 3 -20 4 0 3 -41 11 -80 15 -22 2 -40 5 -40
5 0 2 -27 7 -85 15 -30 4 -64 9 -75 11 -25 6 -79 14 -125 19 -19 3 -48 6 -65
8 -29 4 -126 16 -175 22 -47 6 -125 14 -190 20 -36 3 -78 8 -95 10 -16 2 -79
6 -140 10 -60 4 -132 9 -160 12 -27 4 -1336 8 -2907 10 l-2858 3 0 -4970z
m4080 3039 c0 8 53 6 68 -3 7 -4 17 -4 24 0 17 10 58 11 64 2 3 -5 11 -5 17
-1 16 9 107 10 135 1 13 -5 22 -3 22 3 0 6 4 8 9 4 6 -3 115 -8 243 -11 128
-3 262 -7 298 -9 138 -7 307 -17 355 -20 28 -3 88 -7 135 -10 47 -3 105 -7
130 -10 25 -2 77 -7 115 -10 39 -3 84 -7 100 -10 17 -2 50 -6 75 -10 40 -5
108 -17 180 -31 52 -10 186 -45 210 -55 14 -5 39 -12 55 -15 16 -3 32 -10 36
-15 3 -6 9 -10 13 -10 11 2 61 -12 81 -23 11 -5 23 -11 28 -12 4 -1 8 -2 10
-4 1 -1 9 -3 17 -5 16 -3 201 -87 234 -106 11 -6 40 -23 65 -37 25 -14 70 -40
99 -59 29 -18 55 -33 58 -33 2 0 10 -5 17 -10 7 -6 43 -34 82 -63 100 -74 188
-156 290 -268 51 -55 165 -207 165 -218 0 -5 4 -11 8 -13 19 -8 139 -235 184
-348 6 -14 14 -33 19 -42 5 -10 9 -27 9 -38 0 -11 4 -20 8 -20 5 0 9 -6 10
-12 1 -15 10 -53 12 -53 1 0 3 -8 6 -17 2 -10 6 -26 8 -35 3 -10 5 -18 6 -18
1 0 3 -11 6 -24 2 -14 9 -30 15 -38 6 -7 9 -13 6 -13 -3 0 -1 -15 4 -32 12
-38 11 -34 38 -150 11 -47 23 -101 26 -119 3 -18 7 -35 9 -38 2 -3 7 -26 10
-51 3 -25 8 -56 11 -70 3 -14 7 -41 9 -61 2 -20 6 -41 9 -45 2 -5 8 -38 11
-74 4 -36 9 -81 12 -100 2 -19 6 -72 8 -117 2 -45 7 -86 10 -91 7 -11 0 -931
-7 -987 -3 -22 -8 -74 -12 -115 -3 -41 -8 -84 -11 -95 -2 -11 -6 -40 -8 -65
-3 -25 -7 -54 -9 -65 -2 -11 -8 -42 -11 -70 -11 -75 -54 -289 -78 -380 -11
-44 -22 -91 -24 -104 -3 -13 -10 -34 -16 -45 -6 -12 -10 -21 -9 -21 4 0 -17
-79 -37 -140 -9 -27 -15 -53 -14 -57 1 -5 -3 -8 -8 -8 -5 0 -9 -3 -8 -7 1 -5
-4 -24 -11 -43 -8 -19 -15 -37 -15 -40 -1 -3 -11 -26 -23 -52 -12 -25 -24 -56
-28 -67 -3 -12 -11 -21 -16 -21 -5 0 -9 -5 -9 -12 0 -17 -53 -118 -62 -118 -4
0 -8 -5 -8 -10 0 -15 -87 -142 -157 -231 -121 -152 -259 -273 -435 -380 -104
-64 -331 -168 -433 -199 -22 -6 -47 -14 -55 -17 -8 -3 -24 -8 -34 -10 -11 -2
-38 -10 -61 -18 -23 -7 -60 -16 -81 -18 -21 -3 -46 -8 -54 -11 -17 -6 -81 -17
-125 -21 -16 -2 -30 -4 -30 -5 0 -3 -37 -9 -80 -14 -22 -3 -51 -7 -65 -10 -14
-3 -41 -7 -60 -10 -19 -2 -57 -8 -83 -12 -27 -3 -67 -8 -90 -9 -23 -2 -42 -4
-42 -5 0 -1 -16 -3 -35 -5 -19 -1 -66 -5 -105 -9 -133 -11 -220 -17 -315 -21
-52 -2 -105 -6 -117 -9 -13 -3 -23 0 -23 5 0 6 -6 7 -12 3 -17 -11 -337 -12
-366 -2 -13 4 -21 5 -18 0 5 -8 -62 -7 -71 1 -3 3 -16 2 -30 -4 -16 -6 -22 -6
-18 1 4 7 -2 7 -19 0 -14 -5 -28 -6 -30 -1 -3 5 -18 6 -33 4 -57 -8 -78 -8
-90 1 -8 5 -13 4 -13 -3 0 -8 -6 -9 -17 -3 -10 5 -27 8 -38 6 -18 -3 -48 -5
-85 -4 -8 0 -28 -1 -45 -3 -16 -1 -36 2 -42 7 -8 5 -13 4 -13 -3 0 -8 -6 -9
-17 -3 -10 5 -27 8 -38 6 -18 -3 -48 -5 -85 -4 -8 0 -28 -1 -45 -3 -16 -1 -36
2 -42 7 -8 5 -13 4 -13 -3 0 -8 -6 -9 -17 -3 -10 5 -27 8 -38 6 -18 -3 -48 -5
-85 -4 -8 0 -28 -1 -45 -3 -16 -1 -36 2 -42 7 -8 5 -13 4 -13 -3 0 -8 -6 -9
-17 -3 -10 5 -27 8 -38 6 -18 -3 -48 -5 -85 -4 -8 0 -28 -1 -45 -3 -16 -1 -36
2 -42 7 -8 5 -13 4 -13 -3 0 -8 -6 -9 -17 -3 -10 5 -27 8 -38 6 -18 -3 -48 -5
-85 -4 -8 0 -28 -1 -45 -3 -16 -1 -36 2 -42 7 -8 5 -13 4 -13 -3 0 -8 -6 -9
-17 -3 -10 5 -27 8 -38 6 -18 -3 -48 -5 -85 -4 -8 0 -28 -1 -45 -3 -16 -1 -36
2 -42 7 -8 5 -13 4 -13 -3 0 -8 -6 -9 -17 -3 -10 5 -27 8 -38 6 -26 -5 -64 -5
-95 -2 l-25 3 0 3095 0 3095 632 0 c348 0 633 3 633 6 0 4 16 3 35 -1 19 -4
35 -5 35 -1z"/>
<path d="M10830 17123 c0 -5 16 -71 36 -148 19 -77 37 -151 40 -165 3 -14 9
-38 14 -55 5 -16 11 -41 14 -55 15 -75 21 -100 29 -120 4 -8 9 -26 11 -40 3
-14 10 -45 17 -70 6 -25 12 -52 14 -60 2 -8 11 -44 20 -80 9 -36 18 -76 21
-90 3 -13 9 -29 15 -36 5 -6 6 -13 3 -17 -3 -3 -1 -21 5 -39 5 -18 13 -44 15
-58 3 -14 21 -88 41 -165 19 -77 37 -149 40 -160 13 -59 68 -277 80 -320 7
-27 17 -66 20 -85 3 -19 10 -46 15 -60 5 -14 11 -36 13 -50 2 -14 7 -32 10
-40 4 -8 8 -28 11 -45 2 -16 5 -30 6 -30 2 0 11 -35 14 -55 1 -9 6 -21 10 -28
4 -7 5 -16 2 -19 -3 -3 1 -21 9 -39 8 -19 14 -37 15 -39 0 -3 0 -6 1 -7 0 -2
2 -14 4 -28 8 -45 10 -55 18 -67 5 -7 6 -13 4 -13 -3 0 6 -42 20 -92 13 -51
26 -102 28 -113 2 -11 17 -76 35 -145 17 -69 33 -132 35 -140 2 -8 29 -114 60
-235 31 -121 58 -233 60 -250 2 -16 4 -31 5 -32 2 -2 3 -6 4 -10 2 -5 8 -26
14 -48 6 -22 13 -49 14 -60 2 -11 7 -26 11 -32 5 -7 6 -13 3 -13 -2 0 0 -15 5
-32 6 -18 12 -44 15 -57 3 -13 23 -96 45 -185 23 -88 42 -168 44 -176 2 -8 15
-62 30 -120 15 -58 28 -112 30 -120 2 -8 16 -64 30 -125 15 -60 29 -117 30
-125 2 -8 4 -16 5 -17 2 -2 3 -6 4 -10 1 -5 8 -31 15 -59 7 -29 14 -60 16 -70
2 -11 4 -19 5 -19 1 0 3 -9 5 -21 3 -11 12 -47 20 -80 9 -32 18 -70 21 -84 3
-14 10 -43 16 -65 6 -22 13 -49 14 -60 2 -11 46 -191 99 -400 53 -209 97 -389
99 -400 1 -12 5 -25 8 -30 3 -6 9 -28 13 -50 5 -22 10 -46 12 -52 1 -7 5 -21
7 -30 3 -10 5 -18 6 -18 1 0 4 -13 6 -30 3 -16 7 -37 11 -45 8 -18 7 -15 18
-65 4 -22 10 -44 11 -50 3 -10 14 -62 18 -80 1 -5 5 -16 10 -23 4 -7 5 -16 2
-19 -3 -3 -1 -12 5 -20 6 -7 9 -13 6 -13 -3 0 -1 -15 5 -32 5 -18 11 -42 13
-53 2 -11 4 -20 5 -20 1 0 3 -7 5 -15 2 -8 8 -35 14 -60 7 -25 14 -56 17 -70
2 -14 7 -32 10 -40 3 -8 8 -26 10 -40 3 -14 21 -88 40 -165 20 -77 37 -147 39
-155 2 -8 8 -35 15 -60 7 -25 14 -52 16 -60 2 -8 13 -51 24 -95 12 -44 22 -92
23 -107 1 -16 5 -28 9 -28 5 0 8 -13 8 -28 0 -16 3 -32 7 -36 4 -3 8 -14 9
-24 10 -62 15 -81 28 -119 8 -22 12 -43 9 -46 -2 -3 0 -14 6 -25 6 -10 13 -32
16 -48 13 -75 16 -88 21 -96 6 -9 10 -25 26 -110 6 -32 14 -58 18 -58 3 0 7
-10 8 -23 1 -13 34 -151 73 -308 39 -156 71 -294 71 -306 0 -13 4 -23 8 -23 4
0 10 -15 13 -32 3 -18 11 -53 17 -78 6 -25 13 -54 15 -65 2 -11 18 -76 36
-145 17 -69 33 -132 35 -140 2 -8 19 -78 39 -155 19 -77 37 -149 39 -160 6
-28 11 -50 31 -125 9 -36 18 -72 20 -80 2 -8 11 -44 20 -80 9 -36 18 -74 20
-85 2 -11 17 -72 34 -135 16 -63 32 -128 35 -143 3 -16 9 -34 15 -40 7 -9 287
-12 1120 -12 610 1 1113 4 1116 7 5 5 25 70 40 128 2 8 4 15 5 15 1 0 3 7 5
15 17 70 18 72 35 130 7 25 13 49 12 53 -1 4 2 16 7 26 6 10 13 31 16 47 3 16
12 54 21 84 8 30 27 96 40 145 14 50 30 106 35 125 5 19 12 45 14 56 3 12 13
51 24 85 10 35 40 143 66 239 47 176 51 191 54 200 1 5 47 168 56 200 12 43
26 98 31 119 3 14 7 28 10 33 3 4 7 16 9 25 2 10 15 61 29 113 15 52 28 102
31 111 2 10 18 68 35 130 17 63 38 137 45 164 8 28 28 100 45 160 28 99 38
141 44 170 1 6 4 15 8 20 3 6 10 28 14 50 10 48 9 46 17 65 3 8 9 29 13 45 4
17 9 37 11 45 3 8 6 22 7 30 2 8 6 23 10 32 4 9 9 25 11 35 2 10 4 18 5 18 1
0 3 9 5 20 2 11 13 54 25 95 12 41 23 82 25 90 2 8 4 15 5 15 1 0 3 11 6 24 2
13 20 80 40 150 20 69 37 133 39 141 2 8 18 65 35 125 17 61 33 117 35 125 2
8 4 15 5 15 1 0 3 9 5 20 2 11 13 54 25 95 12 41 23 82 24 90 1 9 5 21 10 28
4 6 4 17 1 22 -3 6 -1 10 6 10 7 0 10 3 6 6 -3 4 0 22 8 40 8 19 12 34 10 34
-2 0 1 15 6 33 6 17 12 39 14 47 2 8 13 50 25 92 11 43 23 85 25 95 2 10 8 31
14 46 6 15 13 40 16 55 3 15 21 83 40 152 20 69 39 139 41 155 3 17 11 36 16
43 6 6 8 12 5 12 -3 0 3 27 13 60 10 33 16 60 14 60 -3 0 0 8 5 18 6 11 12 30
15 43 3 13 15 58 26 99 12 41 23 82 25 90 2 8 4 16 5 18 3 3 6 12 15 57 4 22
10 45 14 50 3 6 6 15 7 20 6 32 14 64 24 95 6 19 13 43 15 53 2 9 15 59 30
110 75 270 147 534 150 547 2 8 8 29 14 47 5 17 7 34 3 37 -3 3 0 6 7 6 7 0 9
5 6 10 -3 6 -3 16 2 23 4 6 8 17 9 23 1 6 10 38 19 70 9 33 19 67 21 77 2 9 7
27 10 40 3 12 7 29 8 37 2 8 8 28 15 43 6 15 13 41 16 57 3 16 9 40 14 53 6
14 7 28 4 31 -4 3 -1 6 6 6 7 0 10 4 7 8 -3 5 5 45 18 88 26 88 85 299 91 327
2 10 7 27 10 37 3 10 8 27 10 37 6 27 36 136 43 153 3 8 4 19 3 24 -1 4 2 13
7 20 5 6 8 19 6 30 -2 14 0 16 9 7 6 -6 12 -16 13 -23 2 -18 44 -170 51 -188
3 -8 5 -19 4 -23 0 -4 3 -16 8 -26 6 -10 12 -29 14 -42 4 -19 19 -75 32 -119
1 -3 5 -18 10 -35 4 -16 21 -77 37 -135 16 -58 38 -136 49 -175 10 -38 28
-104 40 -145 39 -140 51 -185 54 -203 2 -9 6 -21 9 -25 3 -5 7 -19 10 -33 3
-13 10 -40 15 -59 11 -38 41 -149 44 -165 2 -5 6 -16 10 -22 5 -7 6 -17 2 -22
-3 -5 -1 -12 4 -15 5 -3 12 -23 15 -43 4 -21 11 -49 16 -63 5 -14 21 -70 35
-125 15 -55 38 -138 51 -185 14 -47 29 -101 34 -120 6 -19 28 -102 51 -185 23
-82 52 -188 66 -235 13 -47 26 -94 27 -105 2 -11 9 -33 15 -50 7 -16 12 -31
12 -32 -1 -2 -1 -4 0 -5 0 -2 2 -10 4 -18 1 -8 15 -58 29 -110 15 -52 29 -102
31 -110 2 -8 14 -51 26 -95 12 -44 29 -108 38 -142 10 -34 20 -66 24 -69 4 -4
7 -18 7 -30 0 -13 4 -33 9 -46 5 -13 14 -41 20 -63 6 -22 20 -74 32 -115 12
-41 23 -84 25 -97 2 -12 8 -33 14 -47 5 -13 6 -27 3 -30 -4 -3 -2 -6 3 -6 5 0
10 -8 11 -17 1 -10 16 -67 33 -128 17 -60 32 -118 33 -127 1 -10 4 -18 7 -18
4 0 7 -7 7 -15 0 -8 5 -32 12 -52 6 -21 32 -112 57 -203 25 -91 51 -187 59
-215 39 -140 67 -243 72 -265 2 -14 7 -32 10 -40 7 -17 9 -26 17 -55 3 -11 13
-47 22 -80 9 -33 17 -64 19 -70 1 -5 5 -17 8 -25 4 -8 8 -27 11 -42 3 -15 7
-31 10 -36 3 -5 7 -19 10 -33 3 -13 17 -67 31 -119 15 -52 29 -102 30 -110 2
-8 15 -55 30 -105 14 -49 30 -106 35 -125 5 -19 28 -99 50 -176 22 -78 41
-150 43 -160 2 -11 7 -26 10 -34 3 -8 9 -28 13 -45 10 -40 11 -44 14 -50 4 -7
6 -16 15 -60 4 -22 10 -44 14 -50 3 -5 7 -21 9 -35 2 -13 8 -30 14 -37 6 -7 8
-13 5 -13 -3 0 -1 -15 5 -32 5 -18 11 -40 13 -48 1 -8 5 -22 7 -30 3 -8 13
-44 23 -80 9 -36 21 -76 26 -90 4 -14 19 -68 33 -120 14 -52 34 -129 46 -170
12 -41 23 -79 24 -85 2 -5 8 -30 15 -55 8 -25 15 -52 16 -60 2 -8 4 -17 6 -20
1 -3 3 -9 4 -15 2 -5 4 -13 5 -17 1 -5 4 -12 5 -18 1 -5 4 -11 5 -12 1 -2 4
-12 6 -23 2 -18 65 -246 96 -350 6 -22 15 -44 19 -50 5 -7 382 -10 1101 -9
601 1 1096 2 1100 3 5 1 7 4 6 9 -1 4 3 30 10 57 7 28 14 59 17 70 2 11 14 56
26 100 11 44 23 87 24 95 2 8 4 15 5 15 1 0 3 9 5 20 1 11 10 49 19 85 9 36
19 72 21 80 2 8 4 15 5 15 1 0 3 9 5 20 3 11 21 85 41 165 20 80 38 152 39
160 1 8 5 22 8 30 6 17 37 140 41 161 1 8 5 23 9 34 3 11 9 32 12 48 13 67 16
81 24 96 5 9 9 19 9 24 0 7 4 24 17 82 2 11 16 65 30 120 14 55 28 111 31 124
3 13 9 32 14 41 5 10 7 19 5 21 -2 3 5 36 16 74 11 39 21 79 23 90 2 11 36
148 76 305 40 157 73 292 75 300 2 8 12 47 23 85 11 39 20 73 21 78 0 4 1 8 2
10 0 1 2 9 4 17 1 8 15 62 29 120 24 96 32 127 41 170 2 8 4 16 5 18 3 2 3 2
15 57 4 22 10 45 11 50 11 32 76 292 77 303 0 6 4 12 9 12 5 0 7 4 4 9 -3 5 4
44 15 87 12 44 22 86 24 94 2 8 20 80 40 160 20 79 37 151 38 160 2 8 6 20 10
27 7 11 16 56 20 96 1 9 5 17 9 17 4 0 7 3 6 8 -1 4 1 21 5 37 4 17 10 40 12
53 3 12 8 32 11 45 3 12 7 29 9 37 2 8 4 15 5 15 1 0 4 11 7 25 7 38 11 55 13
58 2 1 3 5 4 10 19 93 30 132 38 132 5 0 7 4 4 9 -3 4 17 98 45 207 28 110 52
204 53 209 1 6 11 46 22 90 10 44 19 85 19 90 0 6 3 12 7 15 4 3 10 21 13 40
6 42 10 60 18 80 4 8 9 26 11 40 3 14 11 50 20 80 8 30 12 58 10 62 -3 5 0 8
7 8 7 0 10 3 7 6 -4 3 -2 20 4 37 5 18 11 41 13 52 2 11 9 38 15 60 6 22 12
49 14 60 2 11 4 20 5 20 1 0 4 11 6 25 2 14 13 55 24 92 10 36 17 69 13 72 -3
3 0 6 7 6 7 0 10 4 7 8 -4 8 27 146 41 182 3 8 7 22 8 30 1 8 19 80 40 160 21
80 38 155 38 168 1 12 4 22 7 22 4 0 7 6 8 13 0 6 3 22 6 35 9 33 13 50 31
127 8 39 18 77 22 85 3 8 8 24 10 34 2 10 13 55 24 100 25 98 29 115 34 141 3
11 25 99 50 195 25 96 48 184 50 195 3 11 12 47 20 80 24 92 36 149 37 162 0
5 4 15 9 24 4 9 11 29 13 45 3 16 10 44 15 62 5 17 7 32 4 32 -3 0 -1 6 5 13
5 6 13 32 18 57 9 53 11 59 14 63 1 1 4 11 6 22 2 11 8 38 14 60 6 22 13 54
16 70 3 17 11 36 16 43 6 6 8 12 6 12 -6 0 -1 24 92 390 40 157 74 292 76 300
2 8 13 53 25 100 11 47 23 92 25 100 17 70 26 108 29 123 2 9 6 21 9 25 3 5 8
22 11 38 7 35 5 26 35 149 13 55 27 102 30 105 3 3 6 14 6 25 2 32 9 59 17 73
5 6 6 12 3 12 -3 0 -1 12 5 28 6 15 12 36 14 47 2 11 6 30 9 43 3 12 8 30 10
40 9 38 67 268 72 285 5 16 -49 17 -1039 17 l-1044 0 -8 -32 c-4 -18 -9 -37
-10 -43 -2 -5 -6 -23 -9 -40 -3 -16 -9 -43 -12 -60 -4 -16 -8 -37 -9 -45 -1
-8 -5 -22 -8 -30 -6 -18 -39 -158 -53 -230 -3 -14 -14 -61 -25 -105 -11 -44
-22 -93 -25 -110 -3 -16 -7 -34 -8 -40 -1 -5 -13 -55 -25 -110 -13 -55 -25
-107 -28 -115 -4 -8 -6 -18 -5 -22 1 -3 -5 -32 -14 -64 -12 -47 -44 -191 -59
-264 -2 -8 -4 -15 -5 -15 -3 0 -12 -51 -13 -72 -1 -13 -4 -23 -8 -23 -4 0 -7
-8 -7 -17 1 -10 -5 -38 -12 -63 -7 -25 -13 -54 -15 -65 -1 -11 -5 -29 -8 -40
-3 -11 -8 -31 -11 -45 -3 -14 -8 -36 -11 -50 -3 -14 -8 -34 -10 -45 -9 -39
-15 -65 -20 -85 -13 -51 -16 -67 -20 -90 -2 -14 -9 -40 -14 -57 -5 -18 -8 -33
-6 -33 3 0 0 -11 -5 -26 -6 -14 -12 -39 -15 -57 -4 -18 -11 -50 -16 -72 -5
-22 -11 -49 -14 -60 -2 -11 -6 -31 -10 -45 -4 -14 -8 -35 -10 -47 -2 -11 -6
-30 -9 -41 -7 -20 -13 -45 -22 -92 -3 -14 -14 -61 -24 -105 -10 -44 -24 -102
-30 -130 -7 -27 -14 -59 -16 -70 -3 -11 -7 -31 -10 -45 -3 -14 -14 -61 -24
-105 -11 -44 -22 -93 -25 -110 -2 -16 -9 -45 -14 -63 -5 -18 -10 -35 -10 -37
-1 -3 -1 -6 -2 -7 -1 -3 -3 -15 -13 -60 -16 -76 -26 -118 -30 -133 -1 -5 -8
-37 -15 -70 -7 -33 -17 -65 -22 -71 -5 -6 -6 -13 -3 -16 3 -3 0 -26 -6 -49 -7
-24 -14 -53 -16 -64 -8 -46 -55 -249 -59 -255 -2 -4 -7 -22 -10 -41 -5 -28
-18 -89 -60 -269 -2 -8 -15 -64 -29 -125 -14 -60 -27 -121 -30 -135 -3 -14
-10 -45 -17 -70 -6 -25 -13 -56 -14 -70 -2 -14 -11 -54 -20 -90 -9 -35 -18
-74 -20 -85 -2 -11 -4 -22 -5 -25 -2 -3 -2 -8 -1 -12 0 -5 -4 -8 -10 -8 -5 0
-8 -4 -4 -10 3 -5 -8 -69 -25 -142 -18 -73 -33 -141 -35 -151 -2 -10 -6 -26
-9 -35 -3 -9 -7 -28 -10 -42 -2 -14 -10 -47 -16 -75 -6 -27 -13 -57 -15 -65
-1 -8 -8 -33 -13 -55 -6 -22 -13 -51 -16 -65 -5 -28 -7 -38 -37 -165 -11 -49
-23 -101 -25 -115 -3 -14 -9 -41 -14 -60 -10 -38 -20 -84 -25 -115 -2 -11 -4
-21 -5 -22 -3 -3 -3 -3 -15 -58 -4 -22 -10 -47 -12 -55 -2 -8 -6 -25 -8 -37
-1 -11 -6 -30 -10 -42 -3 -11 -8 -31 -11 -43 -4 -23 -10 -52 -18 -85 -17 -72
-28 -121 -31 -138 -2 -11 -18 -78 -34 -150 -17 -71 -38 -161 -47 -200 -8 -38
-16 -74 -18 -80 -1 -5 -9 -38 -16 -72 -7 -35 -16 -63 -21 -63 -7 0 -23 50 -24
75 0 6 -3 12 -7 15 -4 3 -8 20 -10 38 -1 18 -5 32 -8 32 -6 0 -9 14 -13 60 -1
14 -5 27 -8 30 -4 3 -9 19 -10 35 -2 17 -7 32 -10 35 -4 3 -10 21 -13 40 -3
19 -12 57 -20 84 -8 27 -13 53 -10 57 2 4 0 10 -5 13 -5 4 -13 25 -17 49 -9
48 -10 55 -14 62 -3 6 -3 5 -20 80 -8 33 -19 63 -24 67 -6 4 -8 8 -5 8 7 0 -8
63 -61 265 -47 181 -48 185 -43 185 3 0 1 6 -5 13 -5 6 -13 26 -16 42 -3 17
-12 54 -20 83 -8 28 -12 52 -10 52 3 0 -2 14 -11 30 -9 17 -13 30 -11 30 3 0
0 15 -5 33 -11 33 -16 55 -23 85 -2 9 -10 37 -17 62 -14 49 -15 53 -22 90 -3
14 -20 79 -37 145 -29 108 -36 137 -43 170 -2 6 -5 15 -8 20 -4 6 -10 28 -14
50 -11 53 -11 53 -25 105 -7 25 -14 52 -16 60 -2 8 -15 60 -30 115 -15 55 -28
107 -29 115 -1 8 -5 22 -8 30 -5 13 -15 52 -22 85 -2 6 -10 34 -19 64 -8 29
-13 57 -10 62 3 5 1 9 -4 9 -5 0 -9 6 -10 13 -1 14 -7 41 -20 90 -6 20 -7 38
-4 41 3 3 -1 6 -8 6 -7 0 -11 3 -8 6 4 3 2 20 -3 37 -5 18 -12 45 -15 61 -2
16 -9 37 -15 47 -5 10 -9 22 -8 26 1 4 0 10 -1 13 -3 8 -9 33 -19 75 -9 38
-38 150 -125 480 -21 77 -39 149 -40 160 -1 12 -5 25 -8 30 -5 9 -12 34 -23
85 -13 55 -47 188 -52 200 -3 8 -7 22 -8 30 -4 19 -11 45 -24 88 -5 18 -10 35
-10 37 -1 3 -1 6 -2 8 -1 3 -7 29 -12 52 -3 11 -15 58 -27 105 -20 77 -27 105
-33 135 -2 6 -6 16 -10 23 -5 6 -6 12 -3 12 3 0 -1 21 -9 48 -12 41 -50 181
-61 222 -2 8 -17 69 -34 135 -18 66 -34 131 -37 145 -2 14 -7 32 -10 40 -7 19
-11 30 -16 55 -3 11 -10 40 -17 65 -7 25 -13 52 -15 60 -2 8 -29 112 -60 230
-55 210 -83 320 -90 350 -2 8 -4 15 -5 15 -1 0 -3 9 -5 21 -3 11 -12 47 -20
80 -9 32 -18 66 -20 74 -2 8 -13 51 -25 95 -12 44 -23 87 -25 96 -2 9 -8 33
-13 53 -6 20 -8 36 -5 36 3 0 1 6 -5 13 -6 7 -13 24 -16 37 -2 14 -9 45 -15
70 -7 25 -13 53 -16 63 -2 10 -7 27 -10 37 -3 10 -8 29 -11 42 -3 13 -6 28 -8
33 -2 6 -6 24 -10 40 -4 17 -10 37 -13 45 -4 8 -7 23 -8 33 -2 9 -3 22 -4 27
-1 7 -422 10 -1240 10 -1172 0 -1240 -1 -1245 -17 -11 -39 -59 -219 -60 -228
-1 -5 -5 -15 -9 -22 -4 -6 -8 -23 -9 -37 -1 -14 -6 -26 -11 -26 -4 0 -5 -4 -2
-10 3 -5 3 -16 -2 -22 -4 -7 -8 -20 -9 -28 0 -8 -4 -22 -7 -30 -4 -8 -9 -26
-11 -40 -3 -14 -5 -26 -7 -27 -2 -3 -2 -5 -13 -48 -21 -80 -58 -212 -63 -225
-3 -8 -8 -24 -10 -35 -2 -11 -8 -36 -13 -55 -5 -19 -10 -39 -11 -45 -1 -5 -6
-21 -11 -35 -5 -14 -11 -32 -14 -40 -7 -28 -25 -95 -29 -110 -2 -8 -20 -73
-40 -145 -20 -71 -45 -161 -56 -200 -10 -38 -21 -79 -23 -90 -7 -29 -11 -45
-26 -95 -7 -25 -14 -50 -16 -56 -1 -6 -10 -38 -19 -70 -9 -33 -19 -70 -22 -83
-2 -14 -7 -29 -11 -35 -3 -6 -7 -17 -8 -26 -3 -23 -6 -32 -94 -345 -79 -284
-90 -325 -94 -355 -1 -8 -8 -28 -14 -43 -7 -15 -11 -31 -10 -35 1 -4 -4 -20
-10 -35 -11 -26 -22 -72 -26 -107 -1 -9 -5 -20 -9 -26 -3 -6 -11 -28 -16 -50
-36 -143 -46 -180 -50 -184 -4 -3 -7 -14 -9 -25 -4 -26 -108 -407 -138 -509
-13 -44 -22 -82 -19 -84 3 -3 0 -11 -5 -17 -6 -7 -11 -24 -12 -39 -1 -14 -6
-26 -10 -26 -4 0 -8 -9 -8 -21 0 -11 -5 -30 -11 -41 -8 -15 -8 -19 1 -13 7 5
6 -3 -3 -21 -12 -23 -27 -75 -32 -104 0 -3 -4 -11 -8 -17 -5 -7 -6 -13 -3 -13
3 0 1 -12 -5 -27 -6 -16 -13 -37 -15 -48 -3 -11 -6 -24 -8 -30 -2 -5 -6 -27
-11 -47 -4 -21 -11 -38 -17 -38 -5 0 -7 -4 -4 -9 3 -5 -10 -67 -30 -138 -20
-70 -44 -157 -54 -193 -10 -36 -30 -110 -45 -165 -15 -55 -31 -113 -35 -130
-5 -16 -16 -57 -25 -90 -10 -33 -19 -67 -21 -75 -14 -54 -35 -127 -40 -140 -4
-8 -8 -22 -9 -30 -4 -30 -18 -85 -23 -95 -4 -5 -8 -19 -9 -30 -2 -11 -6 -27
-10 -35 -3 -8 -7 -17 -8 -20 -2 -7 -15 -62 -20 -85 -2 -11 -20 -76 -40 -145
-20 -69 -38 -133 -40 -142 -2 -9 -13 -52 -26 -95 -12 -43 -23 -85 -24 -93 -2
-8 -4 -15 -5 -15 -1 0 -3 -7 -5 -15 -1 -8 -10 -41 -20 -74 -9 -32 -19 -66 -20
-75 -2 -9 -4 -16 -5 -16 -2 0 -11 -37 -15 -60 -1 -11 -7 -33 -14 -48 -6 -16
-11 -37 -11 -48 0 -10 -4 -19 -9 -19 -5 0 -8 -8 -7 -17 2 -10 -5 -40 -15 -68
-9 -27 -15 -53 -13 -57 3 -5 0 -8 -6 -8 -6 0 -9 -4 -6 -9 4 -5 2 -21 -4 -35
-5 -15 -12 -37 -15 -49 -2 -12 -14 -56 -26 -97 -12 -41 -28 -103 -37 -137 -9
-35 -19 -63 -22 -63 -4 0 -17 46 -30 103 -13 56 -25 107 -26 112 -1 6 -10 44
-19 85 -9 41 -19 84 -21 95 -5 21 -11 47 -18 80 -2 11 -9 40 -15 65 -7 25 -14
54 -16 65 -3 11 -8 31 -11 45 -3 14 -6 33 -6 43 1 9 -2 17 -6 17 -4 0 -8 10
-8 23 -2 19 -5 39 -19 107 -2 8 -4 15 -5 15 -3 0 -11 39 -12 55 0 8 -4 20 -8
25 -4 6 -6 18 -5 28 2 9 -1 17 -6 17 -4 0 -6 7 -3 15 3 8 2 20 -2 27 -4 7 -9
19 -10 28 -1 8 -5 29 -8 45 -4 17 -9 39 -11 50 -8 40 -14 65 -18 73 -3 4 -8
25 -12 47 -4 22 -8 45 -9 50 -1 6 -8 37 -15 70 -7 33 -16 67 -19 75 -3 8 -7
24 -8 35 -3 18 -26 120 -54 240 -5 22 -16 72 -25 110 -8 39 -20 88 -25 110 -6
22 -12 51 -14 65 -2 14 -7 32 -10 40 -3 8 -8 26 -10 40 -6 30 -12 58 -28 130
-7 30 -13 60 -14 65 -1 6 -3 12 -4 15 -3 10 -15 62 -27 120 -4 19 -6 38 -5 43
1 4 -2 7 -8 7 -5 0 -7 7 -4 15 3 8 2 20 -2 27 -5 7 -10 22 -11 33 -3 17 -12
61 -38 175 -29 127 -36 158 -40 175 -3 11 -7 31 -11 45 -3 14 -7 34 -9 45 -2
11 -13 61 -26 110 -12 50 -23 99 -24 110 -1 11 -4 27 -7 35 -8 21 -48 194 -53
227 -2 16 -16 78 -30 138 -15 61 -28 119 -29 130 -2 11 -6 27 -9 35 -5 13 -20
80 -31 135 -3 11 -7 31 -10 45 -4 14 -8 36 -11 50 -3 14 -9 40 -14 58 -5 18
-10 35 -10 37 -1 3 -1 6 -2 8 0 1 -2 13 -5 27 -2 14 -8 43 -14 65 -5 22 -12
51 -14 65 -3 14 -23 104 -46 200 -47 202 -75 326 -96 425 -21 99 -20 98 -27
115 -3 8 -8 31 -12 50 -6 33 -12 64 -20 100 -2 8 -4 15 -5 15 -1 0 -4 11 -6
25 -2 14 -10 52 -18 85 -8 33 -22 94 -31 135 -9 41 -18 82 -20 90 -4 13 -26
112 -40 178 -3 12 -8 34 -11 50 -3 15 -7 32 -8 37 -17 68 -54 224 -60 255 -8
40 -13 62 -24 105 -6 22 -13 54 -16 70 -3 17 -8 44 -11 60 -4 17 -8 35 -9 40
-1 6 -5 19 -9 30 -3 11 -9 32 -12 48 -10 52 -16 80 -31 146 -18 75 -25 109
-29 131 -1 8 -5 22 -8 30 -4 8 -8 29 -11 45 -2 17 -5 31 -6 33 -2 1 -3 8 -4
15 -1 9 -222 13 -1063 15 -585 1 -1063 -1 -1063 -5z"/>
</g>
</svg>
