<?xml version="1.0" encoding="utf-8"?>
<!-- Generator: Adobe Illustrator 25.0.0, SVG Export Plug-In . SVG Version: 6.00 Build 0)  -->
<svg version="1.1" id="Layer_1" xmlns="http://www.w3.org/2000/svg" xmlns:xlink="http://www.w3.org/1999/xlink" x="0px" y="0px"
	 viewBox="0 0 695.8 695.8" style="enable-background:new 0 0 695.8 695.8;" xml:space="preserve">
<style type="text/css">
	.st0{opacity:0.2;fill:#00AB5E;}
	.st1{fill:#00DF76;}
	.st2{fill:#00AB5E;}
	.st3{fill:#FFF5F5;}
	.st4{fill:#DFEBF1;}
</style>
<circle class="st0" cx="347.9" cy="347.9" r="347.9"/>
<g>
	<g>
		<ellipse class="st1" cx="347.9" cy="348" rx="255.9" ry="256"/>
	</g>
	<path class="st2" d="M347.9,92c-0.1,0-0.2,0-0.3,0v512c0.1,0,0.2,0,0.3,0c141.3,0,255.9-114.6,255.9-256S489.2,92,347.9,92
		L347.9,92z"/>
	<path class="st3" d="M203.2,353.1l103.5,103.5c4.5,4.5,11.8,4.5,16.3,0l170-170c4.5-4.5,4.5-11.8,0-16.3l-30.9-30.9
		c-4.5-4.5-11.8-4.5-16.3,0L322.1,363c-4.5,4.5-11.8,4.5-16.3,0l-55.4-55.4c-4.4-4.4-11.6-4.5-16.1-0.2l-30.8,29.1
		C198.7,341,198.6,348.5,203.2,353.1L203.2,353.1z"/>
	<path class="st4" d="M462.1,239.4c-4.5-4.5-11.8-4.5-16.3,0l-98.2,98.2v94.6L493,286.6c4.5-4.5,4.5-11.8,0-16.4L462.1,239.4z"/>
</g>
</svg>
