<?xml version="1.0" encoding="utf-8"?>
<!-- Generator: Adobe Illustrator 25.0.0, SVG Export Plug-In . SVG Version: 6.00 Build 0)  -->
<svg version="1.1" id="Layer_1" xmlns="http://www.w3.org/2000/svg" xmlns:xlink="http://www.w3.org/1999/xlink" x="0px" y="0px"
	 viewBox="0 0 695.8 695.8" style="enable-background:new 0 0 695.8 695.8;" xml:space="preserve">
<style type="text/css">
	.st0{opacity:0.1;fill:#AE2538;}
	.st1{fill:#FF0031;}
	.st2{fill:#AE2538;}
	.st3{fill:#FFF5F5;}
	.st4{fill:#DFEBF1;}
</style>
<circle class="st0" cx="347.9" cy="347.9" r="347.9"/>
<g>
	<g>
		<g>
			<ellipse class="st1" cx="348" cy="348" rx="255.9" ry="256"/>
		</g>
		<path class="st2" d="M348.3,92v512c141.2-0.1,255.7-114.7,255.7-256S489.5,92.1,348.3,92L348.3,92z"/>
	</g>
	<path class="st3" d="M464.1,274.8l-43.7-43.7c-2.1-2.1-5.6-2.1-7.8,0l-61.1,61.1c-2.1,2.1-5.6,2.1-7.8,0l-61.1-61.1
		c-2.1-2.1-5.6-2.1-7.8,0l-43.7,43.7c-2.1,2.1-2.1,5.6,0,7.8l61.1,61.1c2.1,2.1,2.1,5.6,0,7.8l-61.1,61.1c-2.1,2.1-2.1,5.6,0,7.8
		l43.7,43.7c2.1,2.1,5.6,2.1,7.8,0l61.1-61.1c2.1-2.1,5.6-2.1,7.8,0l61.1,61.1c2.1,2.1,5.6,2.1,7.8,0l43.7-43.7
		c2.1-2.1,2.1-5.6,0-7.8L403,351.5c-2.1-2.1-2.1-5.6,0-7.8l61.1-61.1C466.3,280.4,466.3,276.9,464.1,274.8z"/>
	<path class="st4" d="M464.1,282.5c2.1-2.1,2.1-5.6,0-7.8l-43.7-43.7c-2.1-2.1-5.6-2.1-7.8,0l-61.1,61.1c-1,1-2.3,1.5-3.6,1.6v107.5
		c1.3,0.1,2.6,0.6,3.6,1.6l61.1,61.1c2.1,2.1,5.6,2.1,7.8,0l43.7-43.7c2.1-2.1,2.1-5.6,0-7.8L403,351.5c-2.1-2.1-2.1-5.6,0-7.8
		L464.1,282.5z"/>
</g>
</svg>
