<svg xmlns="http://www.w3.org/2000/svg" xmlns:xlink="http://www.w3.org/1999/xlink" width="100" height="100" viewBox="0 0 100 100"><defs><clipPath id="a"><circle cx="50" cy="50" r="50" fill="#e6e6e6"/></clipPath></defs><g transform="translate(-489 -650)"><circle cx="50" cy="50" r="50" transform="translate(489 650)" fill="#fff" opacity="0.26"/><g transform="translate(489 650)" clip-path="url(#a)"><g transform="translate(2.99 10.495)"><path d="M92.051,128.817c-1.8-3.386-4.532-6.08-9.286-8.414s-12.835-4.664-15.482-5.541-5.182-1.548-7.157-3.835S58.24,104.5,58.24,104.5V98.16H35.76V104.5s.09,4.226-1.88,6.529-4.511,2.958-7.157,3.835S15.994,118.068,11.24,120.4s-7.5,5.029-9.286,8.414a18.487,18.487,0,0,0-1.954,7H94.021a18.487,18.487,0,0,0-1.97-7Z" transform="translate(0 -46.311)" fill="#ffe6b4"/><path d="M37.584,70.357s-3.106-8-2.4-12.149,4.706-12,5.551-15.371a39.883,39.883,0,0,0,.639-10.9c-.132-3.8.639-12.518,3.3-17.568s5.319-9.254,9.254-11.98S61.031.8,61.031.8,62.579,0,66.382,0s7.569,1.548,11.3,4.78,4.363,5.784,5.948,7.839a23.357,23.357,0,0,1,4.226,10.4c.423,4,.57,11.092,1.548,15.714s2.387,11.14,3.4,13.633a11.821,11.821,0,0,1,.771,6.9,68.542,68.542,0,0,1-2.018,7.754,23.674,23.674,0,0,0-.46,3.888Z" transform="translate(-16.551)" fill="#ffebc4"/><path d="M92.452,118.987h0c-4.574-1.806-10.115-3.428-12.223-4.125-2.641-.877-5.182-1.548-7.157-3.835s-1.886-6.529-1.886-6.529V98.16H48.706V104.5s.09,4.226-1.88,6.529-4.511,2.958-7.157,3.835c-2.113.7-7.654,2.319-12.228,4.125h0a57.109,57.109,0,0,0,32.516,9.471A57.05,57.05,0,0,0,92.452,118.987Z" transform="translate(-12.946 -46.311)" fill="#fff7e5"/><path d="M72.406,15.86c-17.362,0-18.688,19.184-18.572,22.819a84.407,84.407,0,0,0,2.06,14.087c1.257,5.99,6.978,10.348,10.231,12.857a9.988,9.988,0,0,0,12.566,0c3.254-2.509,8.98-6.867,10.231-12.857a84.408,84.408,0,0,0,2.06-14.087C91.094,35.044,89.763,15.86,72.406,15.86Z" transform="translate(-25.396 -7.483)" fill="#fffefc"/><path d="M71.91,14.713c.761,3.248,9.027,14.695,27.594,22.074h1.505V25.008L87.8,11.85H72.85A11.3,11.3,0,0,0,71.91,14.713Z" transform="translate(-33.926 -5.591)" fill="#ffebc4"/><path d="M52.16,39.936S61.916,28.558,65.281,15.86H59.3L52.16,27.607Z" transform="translate(-24.609 -7.483)" fill="#ffebc4"/></g></g></g></svg>