<?xml version="1.0" encoding="utf-8"?>
<!-- Generator: Adobe Illustrator 25.2.1, SVG Export Plug-In . SVG Version: 6.00 Build 0)  -->
<svg version="1.1" id="Слой_1" xmlns="http://www.w3.org/2000/svg" xmlns:xlink="http://www.w3.org/1999/xlink" x="0px" y="0px"
	 viewBox="0 0 285.3 139.6" style="enable-background:new 0 0 285.3 139.6;" xml:space="preserve">
<style type="text/css">
	.st0{fill:#C9C9C8;}
	.st1{fill:#E30917;}
	.st2{fill:#4D3A8F;}
</style>
<g>
	<g>
		<path class="st0" d="M45.7,57.2l12.9,20.5H32.7L45.7,57.2 M45.7,37.6L13.7,88.2h63.9L45.7,37.6L45.7,37.6z"/>
		<polygon class="st1" points="65.2,88.2 38.5,88.2 51.9,67.1 45.7,57.2 19.5,98.7 71.8,98.7 		"/>
	</g>
	<g>
		<path class="st2" d="M117.9,70.4c-1-0.5-2.7-0.7-5.3-0.7h-9.4l-4.7,28.7h8c3.5,0,5.7-0.1,6.7-0.4c1.4-0.3,2.8-1.2,4-2.7
			c1.2-1.4,2-3.2,2.4-5.3c0.3-1.7,0.1-3.2-0.5-4.4c-0.6-1.2-1.5-2-2.9-2.5c1.1-0.5,2-1.4,2.8-2.5c0.8-1.1,1.3-2.4,1.5-3.7
			c0.2-1.5,0.1-2.8-0.4-4C119.6,71.7,118.8,70.8,117.9,70.4z M114.7,89.7c-0.1,0.9-0.5,1.7-0.9,2.3c-0.5,0.6-1,1-1.6,1.2
			c-0.6,0.2-1.8,0.3-3.8,0.3H104l1.2-7.7h3.8c2,0,3.4,0.1,4,0.3c0.6,0.2,1.1,0.6,1.4,1.2C114.7,88,114.8,88.8,114.7,89.7z
			 M115.8,77.7c-0.2,1-0.5,1.7-1.1,2.3c-0.5,0.6-1.2,0.9-2.1,1c-0.5,0.1-1.6,0.1-3.5,0.1H106l1.1-6.6h2.7c2.5,0,4,0.1,4.5,0.2
			c0.5,0.1,0.9,0.5,1.2,1C115.8,76.1,115.9,76.8,115.8,77.7z"/>
		<polygon class="st2" points="141.6,69.7 122.9,69.7 122.1,74.5 129.1,74.5 125.2,98.3 130,98.3 133.8,74.5 140.8,74.5 		"/>
		<path class="st2" d="M182.4,69.7l-3.5,21.2c-0.2,1.3-0.5,2.1-0.9,2.5c-0.4,0.3-1.1,0.5-2.1,0.5h-1l-0.7,4.5c1.5,0.1,2.5,0.2,3,0.2
			c1.7,0,2.9-0.4,3.8-1.2c0.9-0.8,1.5-2,2-3.5c0.4-1.5,0.9-3.9,1.4-7.1l2-12.3h7l-3.9,23.8h4.7l4.7-28.7H182.4z"/>
		<path class="st2" d="M228.9,73.1c-1.5-2.6-3.9-3.9-7.2-3.9c-3.1,0-5.7,1.1-7.9,3.2c-2.2,2.1-3.8,5.2-4.8,9.2h-3.8l2-11.9h-4.7
			l-4.7,28.7h4.7l1.9-11.9h3.8c-0.3,2.7,0,5.1,0.8,7.1c0.8,2.1,1.8,3.5,3.1,4.2c1.3,0.7,2.9,1.1,4.9,1.1c3.3,0,6-1.3,8.4-3.9
			c2.3-2.6,3.8-6.3,4.6-10.9C230.7,79.3,230.4,75.7,228.9,73.1z M225.1,83.7c-1.1,6.9-3.6,10.4-7.5,10.4c-1.8,0-3.1-0.9-3.9-2.6
			c-0.8-1.7-0.9-4.1-0.4-7.2c1.1-6.8,3.6-10.2,7.4-10.2c1.9,0,3.2,0.8,4,2.5C225.5,78.3,225.6,80.6,225.1,83.7z"/>
		<path class="st2" d="M243.7,81.8c0.5-0.6,1.1-1.8,1.9-3.5c0.8-1.8,1.5-3,2.1-3.6c0.6-0.6,1.5-0.9,2.9-0.9h0.7l0.7-4.3
			c-2,0.1-3.4,0.2-4.2,0.5c-0.8,0.2-1.7,0.8-2.6,1.8c-0.9,1-1.8,2.6-2.9,4.8c-1,2.2-1.8,3.6-2.3,4.2c-0.5,0.6-1.3,0.9-2.4,1.1
			l2-12.2h-4.7l-4.7,28.7h4.7l2-12.5c1,0,1.7,0.4,2.1,1.2c0.4,0.8,0.8,2.1,1.2,4l1.6,7.4h5.6l-1.9-7.8c-0.6-2.3-1.1-3.9-1.6-4.9
			c-0.5-1-1.2-1.7-2.2-2.1C242.6,83,243.3,82.4,243.7,81.8z"/>
		<path class="st2" d="M262.6,92.4c-1.1,1-2.2,1.5-3.5,1.5c-1.7,0-3-0.8-3.8-2.3c-0.8-1.5-0.9-4.1-0.3-7.7c0.6-3.5,1.5-6,2.9-7.5
			c1.3-1.5,2.9-2.3,4.6-2.3c1.2,0,2.2,0.4,3,1.2s1.2,2,1.2,3.6l4.9-1.4c-0.2-2.5-0.8-4.4-1.9-5.7c-1.5-1.8-3.5-2.7-6.2-2.7
			c-3.2,0-6,1.2-8.3,3.6c-2.7,2.8-4.4,6.6-5.2,11.5c-0.8,4.6-0.3,8.3,1.5,11c1.5,2.4,3.8,3.5,6.9,3.5c2.4,0,4.6-0.7,6.5-2.2
			c1.9-1.5,3.5-3.8,4.7-7l-4.3-1.8C264.6,89.9,263.7,91.4,262.6,92.4z"/>
		<path class="st2" d="M157.5,65.9c-9.6,0-17.4,8.1-17.4,18.1s7.8,18.1,17.4,18.1c9.6,0,17.4-8.1,17.4-18.1S167.2,65.9,157.5,65.9z
			 M156.2,98.3c-2.8-0.3-5.3-1.4-7.3-3.2c2.1-1.7,4.6-2.7,7.3-3V98.3z M156.2,89.5c-3.4,0.3-6.5,1.6-9.2,3.7
			c-1.7-2.2-2.9-4.9-3.1-7.9h12.3V89.5z M156.2,82.7h-12.3c0.3-3,1.4-5.7,3.1-7.9c2.6,2.2,5.8,3.5,9.2,3.7V82.7z M156.2,75.9
			c-2.7-0.3-5.2-1.3-7.3-3c2-1.7,4.6-2.9,7.3-3.2V75.9z M158.9,69.7c2.8,0.3,5.3,1.4,7.3,3.2c-2.1,1.7-4.6,2.7-7.3,3V69.7z
			 M158.9,78.5c3.4-0.3,6.5-1.6,9.2-3.7c1.7,2.2,2.9,4.9,3.1,7.9h-12.3V78.5z M158.9,98.3v-6.2c2.7,0.3,5.2,1.3,7.3,3
			C164.1,96.8,161.6,98,158.9,98.3z M168,93.2c-2.6-2.2-5.8-3.5-9.2-3.7v-4.2h12.3C170.9,88.3,169.8,91,168,93.2z"/>
		<path class="st2" d="M87.7,69.7L73.8,98.3h5l3-6.5h9.4l1,6.5h5.1l-4.7-28.7H87.7z M84.1,87l4.9-10.6L90.6,87H84.1z"/>
	</g>
</g>
</svg>
