<?xml version="1.0" encoding="utf-8"?>
<!-- Generator: Adobe Illustrator 25.2.1, SVG Export Plug-In . SVG Version: 6.00 Build 0)  -->
<svg version="1.1" id="Слой_1" xmlns="http://www.w3.org/2000/svg" xmlns:xlink="http://www.w3.org/1999/xlink" x="0px" y="0px"
	 viewBox="0 0 285.3 139.6" style="enable-background:new 0 0 285.3 139.6;" xml:space="preserve">
<style type="text/css">
	.st0{fill:#6AAA39;}
	.st1{fill:#3F55A9;}
	.st2{fill:#DCDCDC;}
	.st3{fill:#FECC09;}
</style>
<g id="Слой_2_1_">
	<g id="Слой_1-2">
		<path d="M71.3,62.2c0-6.3-1.9-11.3-5.8-14.8c-3.9-3.5-9.4-5.3-16.4-5.3H35.5v41h12.2c7.6,0,13.5-1.8,17.5-5.4
			C69.3,74.1,71.3,68.9,71.3,62.2z M48.6,75.9h-3.9V49.3h4.9c8.2,0,12.3,4.4,12.3,13.2C61.8,71.4,57.4,75.9,48.6,75.9z"/>
		<path d="M100.3,75.2c-1.6,0.8-3.3,1.4-5,1.8c-1.7,0.4-3.4,0.6-5.1,0.6c-2.3,0-4.1-0.7-5.4-2c-1.3-1.3-2-3.1-2.1-5.5H102v-4
			c0-4.3-1.2-7.6-3.5-10c-2.4-2.4-5.7-3.6-9.9-3.6c-4.4,0-7.9,1.4-10.4,4.1c-2.5,2.8-3.8,6.6-3.8,11.6c0,4.9,1.4,8.7,4.1,11.3
			c2.7,2.7,6.5,4,11.3,4c2,0,4-0.1,6-0.5c1.6-0.3,3.1-0.9,4.6-1.6V75.2z M84.5,60c1.1-1.1,2.5-1.7,4.1-1.7c1.6-0.1,3.1,0.5,4.1,1.7
			c1,1.1,1.6,2.7,1.6,4.7H82.8C83,62.6,83.6,61.1,84.5,60z"/>
		<rect x="106.3" y="39.9" width="8.7" height="43.2"/>
		<rect x="121.9" y="52" width="8.8" height="31.1"/>
		<path d="M126.3,49.3c1.6,0,2.8-0.4,3.6-1.2c0.8-0.9,1.3-2.2,1.2-3.5c0-3.1-1.6-4.7-4.8-4.7c-3.2,0-4.8,1.6-4.8,4.7
			C121.5,47.7,123.1,49.3,126.3,49.3z"/>
		<path d="M153.5,83.1L164.9,53h-8.6l-5.8,17.1c-0.6,2-1,4.1-1.2,6.2h-0.2c-0.2-2.1-0.6-4.2-1.2-6.2l-5.8-17.1h-8.6L145,83.1
			L153.5,83.1z"/>
		<path d="M179.1,52.5c-4.4,0-7.9,1.4-10.4,4.1c-2.5,2.8-3.8,6.6-3.8,11.7c0,4.9,1.4,8.7,4.1,11.3c2.7,2.7,6.5,4,11.3,4
			c2,0,4-0.1,6-0.5c1.6-0.3,3.1-0.9,4.6-1.6v-6.3c-1.6,0.8-3.3,1.4-5.1,1.8c-1.7,0.4-3.4,0.6-5.1,0.6c-2.3,0-4.1-0.7-5.4-2
			c-1.3-1.3-2-3.1-2.1-5.5h19.4v-4c0-4.3-1.2-7.6-3.5-10C186.7,53.7,183.4,52.5,179.1,52.5z M173.4,64.7c0.1-2,0.7-3.6,1.7-4.7
			c1.1-1.1,2.5-1.7,4.1-1.7c1.6-0.1,3.1,0.5,4.1,1.7c1,1.1,1.6,2.7,1.6,4.7H173.4z"/>
		<path d="M208.5,54.1c-1.6,1-2.9,2.4-3.8,4.1h-0.4l-1.2-5.1h-6.2v30.1h8.2V67.8c0-2.4,0.7-4.3,2.2-5.6c1.5-1.4,3.5-2,6.1-2
			c0.8,0,1.6,0.1,2.4,0.3l0.6-7.7c-0.9-0.2-1.8-0.3-2.8-0.2C211.8,52.5,210,53,208.5,54.1z"/>
		<path d="M240.1,53.1L234.6,70c-0.6,1.7-1,3.4-1.2,5.2h-0.2c-0.1-1.8-0.5-3.5-1-5.2l-5.7-16.9h-9l11.9,29.9l-0.5,1.4
			c-0.5,1.6-1.3,2.9-2.5,4c-1.1,0.9-2.4,1.4-3.8,1.3c-1.1,0-2.2-0.1-3.2-0.3v6.5c1.4,0.3,2.8,0.5,4.2,0.5c2.7,0.1,5.4-0.8,7.6-2.3
			c2.2-1.6,3.8-3.9,5-7l12.7-33.9L240.1,53.1z"/>
		<path d="M68.1,100.1h6.2v7.9c-1.6,0.6-3.2,0.9-4.9,0.9c-3,0-5.2-0.8-6.8-2.5c-1.5-1.7-2.3-4.2-2.3-7.6c0-3.1,0.8-5.6,2.4-7.4
			c1.6-1.8,3.8-2.7,6.6-2.7c2,0,3.9,0.5,5.6,1.3l0.6-1.4c-1.9-0.9-4-1.4-6.1-1.4c-2,0-3.9,0.5-5.6,1.4c-1.6,1-2.9,2.4-3.8,4.1
			c-0.9,1.9-1.3,4-1.3,6.1c0,3.7,0.9,6.5,2.6,8.5c1.8,2,4.3,3,7.6,3c2.3,0,4.7-0.4,6.8-1.4V98.6h-7.7V100.1z"/>
		<path d="M92.6,97.5c0.8-1.1,1.2-2.4,1.1-3.8c0-2.1-0.6-3.6-1.9-4.6c-1.3-1-3.2-1.5-5.8-1.5h-5v22.4h1.5v-9.8h5.2l5.4,9.8h1.7
			l-5.7-10.2C90.6,99.3,91.8,98.6,92.6,97.5z M86.6,98.8h-4v-9.9H86c2.2,0,3.7,0.4,4.7,1.2c1,0.8,1.4,2,1.4,3.7
			c0,1.7-0.5,2.9-1.5,3.7C89.5,98.4,88,98.9,86.6,98.8z"/>
		<path d="M107.1,87.2c-3.2,0-5.7,1-7.5,3.1c-1.8,2-2.8,4.9-2.8,8.4c0,3.6,0.9,6.4,2.7,8.5c1.8,2.1,4.3,3.1,7.5,3.1
			c3.2,0,5.7-1,7.6-3.1c1.8-2.1,2.7-4.9,2.7-8.4c0-3.5-0.9-6.4-2.7-8.4C112.8,88.2,110.3,87.2,107.1,87.2z M113.4,106.1
			c-1.5,1.8-3.6,2.6-6.3,2.6s-4.9-0.9-6.3-2.6c-1.5-1.7-2.2-4.2-2.2-7.4c0-3.2,0.7-5.7,2.2-7.4c1.5-1.7,3.6-2.6,6.3-2.6
			s4.8,0.9,6.3,2.6c1.5,1.7,2.2,4.2,2.2,7.4C115.6,101.9,114.9,104.4,113.4,106.1z"/>
		<path d="M135.5,102.2c0,2.1-0.5,3.7-1.6,4.9c-1.1,1.2-2.6,1.8-4.6,1.8s-3.6-0.6-4.7-1.8c-1.1-1.2-1.7-2.9-1.7-5V87.5h-1.5v14.4
			c0,2.6,0.7,4.6,2,6.1c1.4,1.5,3.3,2.2,5.7,2.2c2.5,0,4.4-0.7,5.8-2.2c1.4-1.4,2.1-3.5,2.1-6V87.5h-1.5V102.2z"/>
		<path d="M147.2,87.5H142v22.4h1.5v-9.3h3.2c2.5,0,4.5-0.6,5.8-1.7c1.4-1.2,2.1-2.8,2.1-5C154.6,89.7,152.1,87.5,147.2,87.5z
			 M151.5,98.1c-1,0.8-2.8,1.3-5.1,1.3h-2.9V88.9h3.5c2.1,0,3.6,0.4,4.6,1.3c1,0.8,1.5,2.1,1.5,3.8
			C153.1,95.9,152.5,97.2,151.5,98.1z"/>
		<polygon class="st0" points="243.2,29.4 226.3,29.4 233,39 226.3,48.5 243.2,48.5 249.9,39 		"/>
		<polygon class="st1" points="219.6,29.4 202.8,29.4 209.5,39 202.8,48.5 219.6,48.5 226.3,39 		"/>
		<polygon class="st2" points="196.1,29.4 179.3,29.4 186,39 179.3,48.5 196.1,48.5 202.8,39 		"/>
		<polygon class="st3" points="172.6,29.4 155.7,29.4 162.4,39 155.7,48.5 172.6,48.5 179.3,39 		"/>
	</g>
</g>
</svg>
