<?xml version="1.0" encoding="utf-8"?>
<!-- Generator: Adobe Illustrator 24.3.0, SVG Export Plug-In . SVG Version: 6.00 Build 0)  -->
<svg version="1.1" id="Слой_1" xmlns="http://www.w3.org/2000/svg" xmlns:xlink="http://www.w3.org/1999/xlink" x="0px" y="0px"
	 viewBox="0 0 134 66" style="enable-background:new 0 0 134 66;" xml:space="preserve">
<style type="text/css">
	.st0{fill:#0862AF;}
	.st1{fill:#ED1C24;}
</style>
<g>
	<path class="st0" d="M95.4,33.5c-2.6-0.9-3.4-1.4-3.4-2.4c0-1.1,0.9-1.7,2.5-1.7c1.3,0,2.6,0.4,3.6,0.8l0.4-4.7
		c-1.2-0.3-2.7-0.6-4.2-0.6c-5.3,0-8.6,3-8.6,6.9c0,2.5,1.6,4.9,6,6.4c2.5,0.8,3.1,1.3,3.1,2.4c0,1.1-0.8,1.8-2.8,1.8
		c-1.9,0-4.4-0.9-5.7-1.6l-1.2,4.7c1.6,0.9,4.1,1.5,6.9,1.5c6.1,0,9.2-2.9,9.2-6.9C101.2,37,99.5,34.9,95.4,33.5L95.4,33.5
		L95.4,33.5z M111.4,41.6c-2,0-2.6-1.2-2.6-3.7V19.6l-6.5,1.5v4.3h-2.5l-0.4,4.8h2.9v8.6c0,3,0.6,5,1.8,6.3c1,1.1,2.8,1.8,4.9,1.8
		c1.9,0,3.4-0.2,4.3-0.6l0-5C112.8,41.5,112.2,41.5,111.4,41.6L111.4,41.6L111.4,41.6z M109.3,30.2h4v-4.9h-4V30.2L109.3,30.2z
		 M36.1,36.3c-0.1-3.2-0.2-7.2-0.2-11.1h-0.1c-0.9,3.4-2,7.3-3.1,10.5l-3.4,10.5h-5l-3-10.5c-0.9-3.2-1.9-7-2.5-10.5h-0.1
		c-0.2,3.6-0.3,7.8-0.5,11.2l-0.5,10.2h-5.9l1.8-27H22l2.7,9c0.9,3.1,1.8,6.5,2.4,9.7h0.1c0.8-3.1,1.8-6.7,2.7-9.7l3-9h8.3l1.5,27
		h-6.2L36.1,36.3L36.1,36.3L36.1,36.3z M71,38c0.2,2.7,2.9,4,6,4c2.2,0,4.1-0.3,5.9-0.9l0.9,4.5c-2.2,0.9-4.8,1.3-7.7,1.3
		c-7.2,0-11.3-4.1-11.3-10.8c0-5.4,3.3-11.3,10.7-11.3c6.9,0,9.4,5.3,9.4,10.6c0,1.1-0.1,2.1-0.2,2.6L71,38L71,38z M78.8,33.5
		c0-1.6-0.7-4.3-3.7-4.3c-2.8,0-3.9,2.5-4.1,4.3H78.8L78.8,33.5z"/>
	<path class="st1" d="M117.8,19.6l4.5,8.1l-4.5,8.2h-4.5l4.5-8.2l-4.5-8.1H117.8C117.8,19.6,117.8,19.6,117.8,19.6z M62.6,54.6H44.5
		v-4.5h18.1V54.6L62.6,54.6z M49.8,38c0.2,2.7,2.9,4,6,4c2.2,0,4.1-0.3,5.9-0.9l0.9,4.5c-2.2,0.9-4.8,1.3-7.7,1.3
		c-7.2,0-11.3-4.1-11.3-10.8c0-5.4,3.3-11.3,10.7-11.3c6.9,0,9.4,5.3,9.4,10.6c0,1.1-0.1,2.1-0.2,2.6L49.8,38L49.8,38L49.8,38z
		 M57.6,33.5c0-1.6-0.7-4.3-3.7-4.3c-2.8,0-3.9,2.5-4.1,4.3H57.6L57.6,33.5z"/>
</g>
</svg>
