<?xml version="1.0" encoding="utf-8"?>
<!-- Generator: Adobe Illustrator 25.2.1, SVG Export Plug-In . SVG Version: 6.00 Build 0)  -->
<svg version="1.1" id="Слой_1" xmlns="http://www.w3.org/2000/svg" xmlns:xlink="http://www.w3.org/1999/xlink" x="0px" y="0px"
	 viewBox="0 0 285.3 139.6" style="enable-background:new 0 0 285.3 139.6;" xml:space="preserve">
<style type="text/css">
	.st0{fill:#0B0F13;}
	.st1{fill:#FCBF00;}
	.st2{fill:#8F96A4;}
</style>
<g>
	<path class="st0" d="M207.5,69.8C207.5,69.8,207.5,69.8,207.5,69.8c1.7-0.5,3.3-1,5-1.6c0-3.1-0.4-6.3-0.8-9.4
		c-1.7-0.2-3.5-0.4-5.2-0.5c0-0.1,0-0.1,0-0.2c1.6-0.7,3.1-1.5,4.7-2.3l-0.5-2.3l-0.3-1.2l-0.3-1.1l-0.6-2.3l-0.8-2.2
		c-1.7,0.1-3.4,0.2-5.2,0.4c0-0.1,0-0.1-0.1-0.2c1.4-1,2.8-2,4.2-3.1c-0.5-1.5-1.3-2.9-1.9-4.3c-0.7-1.4-1.4-2.8-2.2-4.2
		c-1.7,0.4-3.4,0.8-5,1.3c0-0.1-0.1-0.1-0.1-0.2c1.2-1.3,2.4-2.5,3.5-3.8c-1.6-2.7-3.6-5.2-5.5-7.6c-1.6,0.7-3.2,1.4-4.7,2.2
		c0,0-0.1-0.1-0.1-0.1c1-1.4,1.9-2.9,2.8-4.4c-2.1-2.3-4.4-4.5-6.8-6.5c-1.4,1-2.9,2-4.3,3c0,0-0.1-0.1-0.1-0.1
		c0.7-1.6,1.3-3.2,2-4.8c-2.5-1.9-5.1-3.7-7.9-5.2c-1.2,1.2-2.5,2.4-3.6,3.7c-0.1,0-0.1-0.1-0.2-0.1c0.4-1.7,0.7-3.4,1.1-5.1
		c-1.4-0.7-2.8-1.4-4.3-2c-0.7-0.3-1.5-0.6-2.2-0.9c-0.7-0.3-1.5-0.6-2.2-0.8c-1,1.4-2,2.8-2.9,4.3c-0.1,0-0.1,0-0.2-0.1
		c0.1-1.7,0.1-3.5,0.2-5.2l-2.3-0.6c-0.8-0.2-1.5-0.4-2.3-0.6c-1.5-0.4-3.1-0.6-4.6-0.9c-0.7,1.6-1.4,3.2-2.1,4.7
		c-0.1,0-0.1,0-0.2,0c-0.2-1.7-0.5-3.4-0.8-5.1c-0.8-0.1-1.6-0.1-2.3-0.2c-0.8,0-1.6-0.1-2.4-0.2c-1.6,0-3.1-0.1-4.7,0
		c-0.4,1.7-0.9,3.4-1.2,5c-0.1,0-0.1,0-0.2,0c-0.5-1.7-1.1-3.3-1.7-4.9l-2.4,0.2l-2.3,0.3c-1.6,0.2-3.1,0.5-4.7,0.8
		c-0.1,1.7-0.2,3.5-0.3,5.2c-0.1,0-0.1,0-0.2,0c-0.8-1.5-1.6-3-2.5-4.5c-3,0.8-6.1,1.7-9,2.9c0.2,1.7,0.4,3.4,0.6,5.1
		c-0.1,0-0.1,0.1-0.2,0.1c-1.1-1.3-2.2-2.7-3.3-4c-1.4,0.6-2.8,1.4-4.2,2.1c-0.7,0.4-1.4,0.8-2.1,1.2l-1,0.6l-1,0.6
		c0.5,1.7,1,3.3,1.5,4.9c-0.1,0-0.1,0.1-0.2,0.1c-1.3-1.1-2.6-2.3-3.9-3.3c-2.6,1.8-5,3.8-7.4,5.9c0.8,1.6,1.6,3.1,2.4,4.6
		c0,0-0.1,0.1-0.1,0.1c-1.5-0.9-3-1.8-4.5-2.6c-2.2,2.3-4.3,4.6-6.2,7.1c1,1.4,2.1,2.7,3.2,4.1c0,0.1-0.1,0.1-0.1,0.2
		c-1.6-0.6-3.2-1.2-4.9-1.7c-1.8,2.6-3.4,5.3-4.8,8.1c1.3,1.2,2.5,2.3,3.8,3.5c0,0.1-0.1,0.1-0.1,0.2c-1.7-0.3-3.4-0.6-5.1-0.8
		c-1.3,2.9-2.4,5.8-3.3,8.8c1.5,0.9,2.9,1.8,4.4,2.7c0,0.1,0,0.1-0.1,0.2c-1.7,0-3.5,0-5.2,0.1c-0.3,1.5-0.7,3.1-1,4.6
		c-0.3,1.5-0.5,3.1-0.7,4.7c1.6,0.7,3.2,1.3,4.8,1.9c0,0.1,0,0.1,0,0.2c-1.7,0.3-3.4,0.6-5.1,1l-0.1,1.2l0,1.2l-0.1,2.4l0.1,2.4
		l0,1.2l0.1,1.2c1.7,0.4,3.4,0.7,5.1,1c0,0.1,0,0.1,0,0.2c-1.6,0.6-3.2,1.2-4.8,1.9c0.2,1.6,0.4,3.1,0.7,4.7c0.2,1.6,0.6,3.1,1,4.6
		c1.7,0.1,3.5,0.1,5.2,0.1c0,0.1,0,0.1,0.1,0.2c-1.5,0.9-2.9,1.8-4.4,2.7c0.9,3,2,6,3.3,8.8c1.7-0.2,3.4-0.5,5.1-0.8
		c0,0.1,0.1,0.1,0.1,0.2c-1.3,1.1-2.6,2.3-3.8,3.5c1.4,2.8,3.1,5.5,4.8,8.1c1.6-0.6,3.3-1.1,4.9-1.7c0,0.1,0.1,0.1,0.1,0.2
		c-1.1,1.3-2.1,2.7-3.2,4.1c1.9,2.5,4,4.9,6.2,7.1c1.5-0.8,3-1.7,4.5-2.6c0,0,0.1,0.1,0.1,0.1c-0.8,1.5-1.6,3-2.4,4.6
		c2.3,2.1,4.8,4.1,7.4,5.9c1.3-1.1,2.7-2.2,3.9-3.3c0.1,0,0.1,0.1,0.2,0.1c-0.5,1.6-1,3.3-1.5,4.9l1,0.6l1,0.6
		c0.7,0.4,1.4,0.8,2.1,1.2c1.4,0.7,2.8,1.5,4.2,2.1c1.1-1.3,2.2-2.6,3.3-4c0.1,0,0.1,0.1,0.2,0.1c-0.2,1.7-0.4,3.4-0.6,5.1
		c2.9,1.2,5.9,2.1,9,2.9c0.9-1.5,1.7-3,2.5-4.5c0.1,0,0.1,0,0.2,0c0.1,1.7,0.2,3.4,0.3,5.2c1.6,0.3,3.1,0.6,4.7,0.8l2.3,0.3l2.4,0.2
		c0.6-1.6,1.1-3.2,1.7-4.9c0.1,0,0.1,0,0.2,0c0.4,1.7,0.8,3.3,1.2,5c1.6,0.1,3.1,0,4.7,0c0.8,0,1.6-0.1,2.4-0.2
		c0.8-0.1,1.6-0.1,2.3-0.2c0.3-1.7,0.6-3.4,0.8-5.1c0.1,0,0.1,0,0.2,0c0.7,1.6,1.4,3.2,2.1,4.7c1.5-0.3,3.1-0.5,4.6-0.9
		c0.8-0.2,1.5-0.3,2.3-0.6l2.3-0.6c0-1.7-0.1-3.5-0.2-5.2c0.1,0,0.1,0,0.2-0.1c0.9,1.4,1.9,2.9,2.9,4.3c0.8-0.2,1.5-0.5,2.2-0.8
		c0.7-0.3,1.5-0.6,2.2-0.9c1.4-0.7,2.9-1.3,4.3-2c-0.3-1.7-0.7-3.4-1.1-5.1c0.1,0,0.1-0.1,0.2-0.1c1.2,1.3,2.4,2.5,3.6,3.7
		c2.8-1.5,5.4-3.3,7.9-5.2c-0.6-1.6-1.3-3.2-2-4.8c0,0,0.1-0.1,0.1-0.1c1.4,1,2.8,2,4.3,3c2.4-2,4.7-4.2,6.8-6.5
		c-0.9-1.5-1.8-2.9-2.8-4.4c0,0,0.1-0.1,0.1-0.1c1.6,0.8,3.1,1.5,4.7,2.2c2-2.4,3.9-4.9,5.5-7.6c-1.2-1.3-2.3-2.6-3.5-3.8
		c0-0.1,0.1-0.1,0.1-0.2c1.7,0.5,3.3,0.9,5,1.3c0.8-1.3,1.5-2.8,2.2-4.2c0.6-1.4,1.3-2.8,1.9-4.3c-1.4-1.1-2.8-2.1-4.2-3.1
		c0-0.1,0-0.1,0.1-0.2c1.7,0.2,3.5,0.3,5.2,0.4l0.8-2.2l0.6-2.3l0.3-1.1l0.3-1.2l0.5-2.3c-1.5-0.8-3.1-1.6-4.7-2.3
		c0-0.1,0-0.1,0-0.2c1.7-0.1,3.4-0.3,5.2-0.5c0.4-3.1,0.8-6.2,0.8-9.4C210.9,70.8,209.2,70.4,207.5,69.8
		C207.5,69.9,207.5,69.8,207.5,69.8z"/>
	<g>
		<path class="st1" d="M115.7,50.7c-5,0-9.1,4.1-9.1,9.1s4.1,9.1,9.1,9.1c5,0,9.1-4.1,9.1-9.1S120.8,50.7,115.7,50.7z M115.7,64.6
			c-2.7,0-4.8-2.2-4.8-4.8c0-2.7,2.2-4.8,4.8-4.8c2.7,0,4.8,2.2,4.8,4.8C120.6,62.4,118.4,64.6,115.7,64.6z"/>
		<path class="st1" d="M169.6,68.9c5,0,9.1-4.1,9.1-9.1s-4.1-9.1-9.1-9.1c-5,0-9.1,4.1-9.1,9.1S164.6,68.9,169.6,68.9z M169.6,54.9
			c2.7,0,4.8,2.2,4.8,4.8c0,2.7-2.2,4.8-4.8,4.8c-2.7,0-4.8-2.2-4.8-4.8C164.8,57.1,167,54.9,169.6,54.9z"/>
		<polygon class="st1" points="93.1,61.6 101.3,61.6 101.3,68.9 105.5,68.9 105.5,50.7 101.3,50.7 101.3,57.9 93.1,57.9 93.1,50.7 
			88.8,50.7 88.8,68.9 93.1,68.9 		"/>
		<polygon class="st1" points="147.2,61.6 155.4,61.6 155.4,68.9 159.6,68.9 159.6,50.7 155.4,50.7 155.4,57.9 147.2,57.9 
			147.2,50.7 142.9,50.7 142.9,68.9 147.2,68.9 		"/>
		<polygon class="st1" points="125.6,87.8 129.8,87.8 129.8,73.9 136.2,73.9 136.2,87.8 140.5,87.8 140.5,69.7 125.6,69.7 		"/>
		<polygon class="st1" points="192.3,57.8 192.3,68.9 196.5,68.9 196.5,50.7 192.3,50.7 184.1,61.8 184.1,50.7 179.8,50.7 
			179.8,68.9 184.1,68.9 		"/>
		<path class="st1" d="M136.2,57.6h-5.8c-0.5,0-0.8-0.4-0.8-0.8v-6.1h-4.3v6.1c0,2.8,2.3,5.1,5.1,5.1h5.8v7h4.3V50.7h-4.3V57.6z"/>
		<path class="st1" d="M148.9,69.7h-1.8v0h-4.3v22.1h4.3v-3.9h1.8c5,0,9.1-4.1,9.1-9.1v0C158,73.7,154,69.7,148.9,69.7z M148.9,83.8
			h-1.8V73.7h1.8c2.8,0,5,2.3,5,5S151.7,83.8,148.9,83.8z"/>
		<path class="st1" d="M194.8,73.7h1.7v-4.1h-1.7c-3,0-5.6,1.5-7.3,3.7v-3.7h-1.7c-5,0-9.1,4.1-9.1,9.1v0c0,5,4.1,9.1,9.1,9.1h1.7
			v-3.7c1.7,2.2,4.3,3.7,7.3,3.7h1.7v-4.1h-1.7c-2.8,0-5-2.3-5-5S192.1,73.7,194.8,73.7z M185.8,83.8c-2.8,0-5-2.3-5-5s2.3-5,5-5
			h1.5c-1,1.4-1.5,3.2-1.5,5v0c0,1.9,0.6,3.6,1.5,5H185.8z"/>
		<path class="st1" d="M113.4,78.7L113.4,78.7c0,5,4.1,9.1,9.1,9.1h1.7v-4.1h-1.7c-2.8,0-5-2.3-5-5s2.3-5,5-5h1.7v-4.1h-1.7
			C117.5,69.7,113.4,73.7,113.4,78.7z"/>
		<path class="st1" d="M90.5,69.7h-1.7v4.1h1.7c2.2,0,4,1.4,4.7,3.3h-6.4v3.5h6.4c-0.7,1.9-2.6,3.3-4.7,3.3h-1.7v4.1h1.7
			c5,0,9.1-4.1,9.1-9.1v0C99.6,73.7,95.6,69.7,90.5,69.7z"/>
		<path class="st1" d="M167.4,69.8c-5,0-9.1,4.1-9.1,9.1c0,5,4.1,9.1,9.1,9.1c3.3,0,6.1-1.7,7.7-4.3l-3.3-2.8
			c-0.8,1.7-2.4,2.9-4.4,2.9c-2.1,0-3.9-1.4-4.6-3.3h13.7l0-1.7C176.4,73.8,172.3,69.8,167.4,69.8z M163,76.8
			c0.8-1.6,2.4-2.7,4.3-2.7c1.9,0,3.5,1.1,4.3,2.7H163z"/>
		<polygon class="st1" points="116.4,69.7 111,69.7 105.5,76.5 105.5,69.7 101.3,69.7 101.3,87.8 105.5,87.8 105.5,81 111.4,87.8 
			117,87.8 109.2,78.7 		"/>
	</g>
	<g>
		<g>
			<path class="st2" d="M94.5,39.8c0.4-0.7,1-1.3,1.7-1.8l1.5,0.9c-0.6,0.2-1.2,0.8-1.6,1.4c-0.7,1.2-0.8,2.9,0.9,4
				c1.6,0.9,3,0.1,3.8-1.2c0.4-0.7,0.6-1.5,0.5-2.2l1.5,0.9c-0.1,0.8-0.3,1.6-0.8,2.3c-1.1,1.9-3.4,3.2-5.9,1.7
				C93.4,44.3,93.3,41.7,94.5,39.8z"/>
			<path class="st2" d="M99.2,33.5c1.3-1.5,2.8-2.3,4.4-1c1.6,1.4,1.1,3-0.2,4.5l-0.9,1l2.1,1.7l-1.1,1.4l-6.4-5.3L99.2,33.5z
				 M100.5,34.4l-0.9,1.1l1.9,1.6l0.9-1.1c0.6-0.7,0.9-1.5,0.1-2.1C101.8,33.3,101.1,33.7,100.5,34.4z"/>
			<path class="st2" d="M106,26.5c2.2-1.9,4.7-1.3,6.1,0.5c1.4,1.7,1.7,4.2-0.6,6.1c-2.2,1.9-4.7,1.3-6.1-0.5S103.8,28.3,106,26.5z
				 M107.1,27.7c-1.3,1.1-1.2,2.6-0.3,3.7c0.9,1.1,2.4,1.5,3.7,0.4c1.3-1.1,1.2-2.6,0.3-3.7C109.8,27,108.4,26.6,107.1,27.7z"/>
			<path class="st2" d="M119.8,27.2l-1.5-2.6c-0.5,0.6-1.1,1-1.6,1.4c-1.6,0.9-3.1,0.7-4-1l-1.4-2.4l1.5-0.9l1.4,2.4
				c0.4,0.8,1.3,0.8,2.1,0.3c0.5-0.3,0.9-0.6,1.3-1.1l-1.9-3.2l1.5-0.9l4.1,7.2L119.8,27.2z"/>
			<path class="st2" d="M126.5,15.4l2.9,7.8l-1.7,0.6l-1.2-3.1l-3.5,1.3l1.2,3.1l-1.7,0.6l-2.9-7.8l1.7-0.6l1.2,3.1l3.5-1.3
				l-1.2-3.1L126.5,15.4z"/>
			<path class="st2" d="M130.7,22.8l-1.3-8.2l1.8-0.3l0.4,2.7l1.3-0.2c2-0.3,3.6,0.1,4,2.2c0.3,2.1-1.1,3-3.1,3.3L130.7,22.8z
				 M132.2,20.9l1.4-0.2c0.9-0.1,1.6-0.5,1.5-1.5c-0.1-1-0.9-1.1-1.8-0.9l-1.4,0.2L132.2,20.9z M138,21.6l-1.3-8.2l1.8-0.3l1.3,8.2
				L138,21.6z"/>
			<path class="st2" d="M147.3,13.3l0,1.6l-4.1-0.1l0,1.8l3.7,0.1l0,1.6l-3.7-0.1l0,1.8l4.1,0.1l0,1.6l-5.9-0.2l0.2-8.3L147.3,13.3z
				"/>
		</g>
		<g>
			<path class="st2" d="M92.9,96.3l7.1-4.2l2.9,5l-1.4,0.8l-2-3.5l-5.8,3.4L92.9,96.3z"/>
			<path class="st2" d="M105.3,100c1.3,1.6,1.7,3.2,0.1,4.5c-1.7,1.3-3.2,0.5-4.4-1l-0.8-1.1l-2.1,1.7l-1.1-1.4l6.5-5.2L105.3,100z
				 M104.1,101l-0.9-1.1l-1.9,1.5l0.9,1.1c0.6,0.7,1.2,1.2,2,0.5C105,102.5,104.7,101.7,104.1,101z"/>
			<path class="st2" d="M103.3,110.3c-0.3-0.3-0.6-0.6-0.8-1l1-1.1c0.1,0.3,0.4,0.5,0.6,0.8c0.4,0.4,0.8,0.6,1.4,0.3l0.3-0.1
				l1.5-6.6l1.5,1.3l-1.3,4.6l4.2-1.9l1.4,1.3l-6.5,2.7C105,111.3,104.1,111,103.3,110.3z"/>
			<path class="st2" d="M111,116.5c-0.8-0.5-1.5-1.2-2.2-2.2l1-1.4c0.6,1,1.3,1.7,2.1,2.2c0.7,0.5,1.6,0.8,2.1,0.1
				c0.4-0.6,0-1.2-0.7-1.6l-1.6-1l0.9-1.3l1.4,1c0.6,0.4,1.2,0.5,1.6,0c0.4-0.5,0-1.1-0.8-1.7c-0.6-0.4-1.4-0.8-2.5-0.9l0.9-1.4
				c1,0.2,1.9,0.6,2.6,1.1c1.6,1.1,2.3,2.4,1.4,3.7c-0.5,0.8-1.3,1-2.1,0.8c0.6,0.7,0.9,1.7,0.2,2.7
				C114.1,118,112.3,117.4,111,116.5z"/>
			<path class="st2" d="M122.9,113.4c2.7,1.2,3.2,3.7,2.2,5.7c-0.9,2-3.1,3.3-5.8,2.1c-2.7-1.2-3.2-3.7-2.2-5.7
				C118,113.4,120.2,112.1,122.9,113.4z M122.2,114.9c-1.6-0.7-2.9,0-3.5,1.3c-0.6,1.3-0.3,2.8,1.3,3.5c1.6,0.7,2.8,0,3.5-1.4
				C124,117,123.8,115.6,122.2,114.9z"/>
			<path class="st2" d="M125.6,123.6l2-8l7,1.7l-2,8l-1.7-0.4l1.6-6.5l-3.6-0.9l-1.6,6.5L125.6,123.6z"/>
			<path class="st2" d="M141.7,117.9l-0.1,1.6l-4-0.3l-0.1,1.8l3.7,0.3l-0.1,1.5l-3.7-0.3l-0.2,1.8l4.1,0.4l-0.1,1.6l-5.9-0.5
				l0.7-8.3L141.7,117.9z"/>
			<path class="st2" d="M145.8,117.7c2-0.1,3.6,0.4,3.7,2.5c0.1,2.1-1.4,2.9-3.4,3l-1.3,0.1l0.2,2.7l-1.8,0.1l-0.5-8.3L145.8,117.7z
				 M146,119.3l-1.4,0.1l0.2,2.4l1.4-0.1c0.9-0.1,1.7-0.4,1.6-1.3C147.7,119.4,146.9,119.2,146,119.3z"/>
			<path class="st2" d="M155.8,116.1l0.3,1.5l-4,0.9l0.4,1.7l3.6-0.8l0.3,1.5l-3.6,0.8l0.4,1.8l4-0.9l0.3,1.5l-5.8,1.3l-1.8-8.1
				L155.8,116.1z"/>
			<path class="st2" d="M160.1,114.6c1.6-0.7,2.9-0.4,3.4,0.9c0.4,0.9,0.1,1.6-0.5,2.1c0.8-0.1,1.8,0.2,2.2,1.3
				c0.7,1.7-0.8,2.8-2.2,3.4l-3.3,1.3l-3.1-7.7L160.1,114.6z M160.4,116l-1.6,0.6l0.7,1.8l1.7-0.7c0.6-0.2,1-0.7,0.7-1.3
				C161.7,115.8,161.2,115.7,160.4,116z M161.8,118.9l-1.7,0.7l0.8,2l1.6-0.7c0.7-0.3,1.3-0.7,1-1.5
				C163.2,118.6,162.5,118.7,161.8,118.9z"/>
			<path class="st2" d="M167.2,110.9c2.5-1.5,4.8-0.5,6,1.4c1.2,1.9,0.9,4.5-1.6,6c-2.5,1.5-4.8,0.5-6-1.4
				C164.5,114.9,164.7,112.4,167.2,110.9z M168.1,112.3c-1.5,0.9-1.6,2.4-0.9,3.6c0.7,1.3,2.1,1.8,3.6,1c1.5-0.9,1.6-2.4,0.9-3.6
				C170.9,112,169.5,111.4,168.1,112.3z"/>
			<path class="st2" d="M179.1,113c-0.7,0.6-1.6,1.2-2.7,1.6l-1.1-1.3c1.2-0.3,2-0.8,2.7-1.4c0.7-0.6,1.2-1.3,0.6-2
				c-0.5-0.6-1.2-0.3-1.8,0.2l-1.4,1.2l-1-1.2l1.3-1.1c0.6-0.5,0.8-1.1,0.4-1.5c-0.4-0.5-1.1-0.3-1.9,0.3c-0.6,0.5-1.1,1.1-1.6,2.2
				l-1.1-1.3c0.5-0.9,1.1-1.6,1.7-2.2c1.5-1.3,3-1.6,4-0.4c0.6,0.7,0.6,1.5,0.2,2.2c0.8-0.4,1.8-0.4,2.6,0.6
				C181.3,110.4,180.3,111.9,179.1,113z"/>
			<path class="st2" d="M183.1,109.1l-6.3-5.4l1.2-1.3l2.5,2.2l0.9-1l-1.1-3.7l1.3-1.5l1.3,4.7l5.1,0.6l-1.3,1.5l-4-0.5l-0.9,1
				l2.6,2.2L183.1,109.1z"/>
			<path class="st2" d="M191.7,97.5l-3.7-2.2c-0.3-0.2-0.7-0.4-1-0.6l2.6,6.1l-0.9,1.4l-7.1-4.3l0.9-1.5l3.7,2.2
				c0.3,0.2,0.7,0.4,1,0.6l-2.6-6.1l0.9-1.4l7.1,4.3L191.7,97.5z"/>
		</g>
	</g>
	<g>
		<path class="st2" d="M142.7,32.6c1.4,0,2.9,0.1,4.4,0.3l0.2-1.5c-1.6-0.2-3.1-0.3-4.6-0.3c-12,0-23.2,5.5-30.6,15l1.2,0.9
			C120.4,37.9,131.1,32.6,142.7,32.6z"/>
		<path class="st2" d="M173.1,91.3c-7,9.8-18.3,15.7-30.4,15.7c-12,0-23.4-5.9-30.4-15.7l-1.2,0.9c7.3,10.2,19.1,16.4,31.6,16.4
			c12.5,0,24.3-6.1,31.6-16.4L173.1,91.3z"/>
	</g>
	<path class="st1" d="M164.9,28c12.2,0,22,9.9,22,22c0,2.4-0.4,4.7-1.1,6.9c2.1-3.2,3.3-7,3.3-11c0-11.1-9-20-20-20
		c-4.1,0-7.9,1.2-11,3.3C160.2,28.4,162.5,28,164.9,28z"/>
</g>
</svg>
