<?xml version="1.0" encoding="utf-8"?>
<!-- Generator: Adobe Illustrator 25.2.1, SVG Export Plug-In . SVG Version: 6.00 Build 0)  -->
<svg version="1.1" id="Слой_1" xmlns="http://www.w3.org/2000/svg" xmlns:xlink="http://www.w3.org/1999/xlink" x="0px" y="0px"
	 viewBox="0 0 285.3 139.6" style="enable-background:new 0 0 285.3 139.6;" xml:space="preserve">
<style type="text/css">
	.st0{fill:#EC1C22;}
</style>
<path class="st0" d="M70.9,109.7c-0.6-0.4-1.2-0.9-1.7-1.4c-4.5-4.6-9.1-9.1-13.6-13.7c-0.3-0.2-0.7-0.5-0.5-0.9
	c0.2-0.4,0.6-0.5,1-0.5c1.9,0,3.8,0,5.8,0c1.6,0,2.3-0.7,2.3-2.3c0-3.6,0-7.2,0-10.9c0-1.8,0.6-2.4,2.5-2.4c3.3,0,6.6,0,9.9,0
	c1.9,0,2.6,0.7,2.6,2.6c0,3.5,0,6.9,0,10.4c0,2.1,0.6,2.7,2.6,2.7h4.9c0.4,0,0.9,0,1.1,0.5c0.2,0.5-0.3,0.7-0.5,1
	c-4.6,4.7-9.3,9.3-13.9,14c-0.4,0.4-0.9,0.8-1.5,1.1L70.9,109.7z M153.6,85.7c0-6.8,5.5-12.3,12.3-12.3c6.8,0,12.3,5.5,12.3,12.3
	c0,6.8-5.5,12.3-12.3,12.3C159.1,98,153.6,92.5,153.6,85.7C153.6,85.7,153.6,85.7,153.6,85.7L153.6,85.7z M159.2,85.7
	c0,3.7,3,6.7,6.7,6.7c3.7,0,6.7-3,6.7-6.7c0-3.7-3-6.7-6.7-6.7C162.2,79,159.2,82,159.2,85.7C159.2,85.7,159.2,85.7,159.2,85.7z
	 M195.3,97.6c-3.7,0-7.4,0-11.1,0c-2.2,0-3-0.7-3-2.9c0-5.1,0-16.2,0-16.2h-2.2V74h5.2c1-0.1,1.9,0.7,2,1.7c0,0.1,0,0.2,0,0.3
	c0,1,0,17,0,17h6.5V74h5l0.1,19h6.4c0,0,0-10.8,0-15.7c0-2.5,1-3.2,2.3-3.2c1.6,0,5,0,5,0v4.5h-2c0,0-0.1,16.4-0.1,16.7
	c-0.2,1.8-0.9,2.4-2.6,2.4c-1.3,0-2.5,0-3.8,0L195.3,97.6z M250.9,97.6c-1.1,0-2.2-0.7-2.5-1.8c-0.4-1.1-1.6-4.1-1.6-4.1h-6.9
	c0,0-1.2,3-1.7,4.1c-0.3,1.1-1.4,1.9-2.5,1.8c-0.9,0-3.5,0-3.5,0V93h1.6c0.2-0.3,0.3-0.6,0.4-1c2-5.6,4.1-11.3,6.1-16.9
	c0.1-0.8,0.9-1.3,1.6-1.1c0.4,0,1.7,0.1,2.8,0.1c0.7,0,1.1-0.2,1.9,2c1.9,5.2,6.1,17,6.1,17h1.5v4.7c-0.7,0-1.5,0-2.2,0
	C251.6,97.6,251.3,97.6,250.9,97.6L250.9,97.6z M241.2,87.2h4.3l-2.1-6.3l-0.2,0L241.2,87.2z M221.1,97.6V78.3H218v2.2h-4.8
	c0,0,0-3.4,0.1-4.3c0.1-1.7,0.7-2.3,2.4-2.3c5.3,0,10.6,0,16,0c1.9,0,2.5,0.7,2.6,2.6v3.9h-4.8v-2.2h-3.2c0,0,0.1,18.9,0,19.1v0.3
	H221.1z M146.9,97.6c-1.1,0-2.1-0.9-2.1-2.1c0-0.1,0-0.2,0-0.3c-0.1-3.4,0-16.8,0-16.8H136l-0.2,19.2h-5c0,0,0.1-17.5,0.2-19.2h-2.2
	v-4.5c0,0,15.2,0,17.9,0c2.8,0,3.5,0.6,3.5,3.4c0,4.7,0,10.8,0,15.6h2v4.7L146.9,97.6z M46.8,85.9c-0.3-0.2-0.5-0.4-0.7-0.6
	c-4.8-4.8-9.5-9.6-14.3-14.4c-0.2-0.2-0.5-0.5-0.7-0.7v-1.1c0.3-0.5,0.7-1,1.1-1.4c4.6-4.6,9.2-9.1,13.9-13.7c0.4-0.4,0.7-1,1.4-0.7
	c0.6,0.3,0.5,1,0.5,1.5c0,9.9,0,19.9,0,29.8c0,0.2,0,0.5,0,0.7c-0.1,0.5-0.3,0.8-0.6,0.8C47.1,86.1,47,86.1,46.8,85.9z M95.9,85.7
	c-0.4-0.1-0.5-0.5-0.5-0.9V55.1c0-0.3,0-0.6,0-0.9c0.1-0.6,0.5-0.8,1-0.3c0.3,0.3,0.6,0.6,0.9,0.8c4.5,4.4,9,8.8,13.5,13.2
	c0.5,0.4,0.8,0.9,1,1.5c0.1,0.6-0.1,1.3-0.6,1.7c-4.8,4.8-9.6,9.5-14.4,14.3c-0.2,0.2-0.4,0.4-0.7,0.4C96.1,85.8,96,85.8,95.9,85.7
	L95.9,85.7z M153.6,55.4c0-6.8,5.5-12.3,12.3-12.3c6.8,0,12.3,5.5,12.3,12.3c0,6.8-5.5,12.3-12.3,12.3
	C159.1,67.7,153.6,62.2,153.6,55.4L153.6,55.4z M159.2,55.4c0,3.7,3,6.7,6.7,6.7c3.7,0,6.7-3,6.7-6.7s-3-6.7-6.7-6.7c0,0,0,0,0,0
	C162.2,48.7,159.2,51.7,159.2,55.4C159.2,55.4,159.2,55.4,159.2,55.4L159.2,55.4z M199.9,66.5c0-1.1,0-2.2,0-3.2
	c0-0.6,0.2-0.8,0.7-0.7c0.7,0.1,1-0.3,1.3-0.9c2-5.6,4.1-11.3,6.1-16.9c0.3-1,0.8-1.4,1.8-1.2c0.3,0,0.5,0,0.8,0c0.1,0,0.2,0,0.3,0
	h0.2c2.5-0.1,2.5-0.1,3.3,2.2c1.9,5.3,3.8,10.5,5.7,15.8c0.2,0.6,0.4,1.2,1.3,1c0.4-0.1,0.5,0.2,0.5,0.6c0,1.2,0,2.4,0,3.5
	c0,0.4-0.1,0.6-0.5,0.6c-0.4,0-0.8,0-1.3,0c-0.6,0-1.3,0-1.9,0c-1-0.1-1.9-0.8-2.1-1.8c-0.4-1.2-0.9-2.3-1.4-3.5
	c-0.1-0.4-0.5-0.7-1-0.6c-0.9,0-1.8,0-2.7,0h-0.2c-0.8,0-1.7,0.1-2.5,0c-0.5-0.1-0.9,0.2-1,0.7c-0.4,1.2-0.9,2.3-1.3,3.5
	c-0.3,1.1-1.3,1.8-2.5,1.8c-1,0-2,0-3,0h0C200.1,67.2,199.9,67,199.9,66.5L199.9,66.5z M210.6,56.8c0.8,0,1.7,0,2.5-0.1
	c-0.7-2.1-1.5-4.2-2.1-6.3c-0.1,0-0.1,0-0.2,0c-0.5,2.1-1.1,4.1-1.9,6.1c0.1,0.2,0.2,0.3,0.4,0.2h0.3
	C210.1,56.8,210.3,56.8,210.6,56.8L210.6,56.8z M183.8,67.1c-1.1,0.1-2-0.7-2.1-1.8c0,0,0,0,0,0c-0.1-0.5-0.1-1-0.1-1.5
	c0-5,0-16,0-16h-2.2l0-4.3l10.6,0c0.9,0,1.9,0.1,2.8,0.3c3.3,0.8,5.4,4.1,4.7,7.4c-0.2,1-0.7,1.9-1.4,2.7c-0.5,0.6-0.4,0.8,0.2,1.3
	c2.8,2.3,3.2,6.4,0.9,9.2c-0.4,0.4-0.8,0.8-1.2,1.1c-1.7,1.2-3.8,1.8-5.9,1.6h-0.2c-1.4,0-2.8,0-4.2,0
	C185.1,67.1,184.4,67.1,183.8,67.1z M186.7,57.1c0,1.8,0,3.6,0,5.4c1.4,0,2.7,0,4.1,0c1.6-0.3,2.3-1,2.4-2.4c0.3-1.4-0.7-2.7-2.1-3
	c0,0,0,0,0,0c-0.7-0.1-1.5-0.1-2.2-0.1S187.5,57,186.7,57.1z M186.7,48l0,4.8c0,0,2.8,0,3.4,0c1.2,0.1,2.3-0.8,2.4-2
	c0-0.2,0-0.3,0-0.5c0.1-1.3-0.9-2.3-2.2-2.4c0,0,0,0,0,0C189,48,186.7,48,186.7,48z M145.2,67.1l0-9.5H136l0,9.5h-5.1l0-19.2h-2.2
	v-4.5c0,0,3.5,0,4.9,0c1.1-0.1,2.2,0.7,2.3,1.8c0,0.1,0,0.3,0,0.4c0.1,2.1,0,7.3,0,7.3h9.3c0,0,0-4.8,0-6.8c0-1.9,0.8-2.7,2.7-2.7
	c1.3,0,4.5,0,4.5,0l0,4.4l-2.2,0l0,19.2L145.2,67.1z M66.6,61.5c-1.6,0-2.3-0.7-2.3-2.3c0-3.4,0-6.8,0-10.1c0-1.7-0.6-2.3-2.4-2.3
	H56c-0.5,0-1,0.1-1.2-0.4c-0.2-0.5,0.2-0.9,0.5-1.3c4.8-4.7,9.6-9.5,14.4-14.2c0.3-0.3,0.6-0.5,1-0.7h1.5c0.7,0.4,1.3,0.8,1.8,1.4
	c4.4,4.4,8.9,8.8,13.3,13.2c0.2,0.1,0.3,0.3,0.4,0.5c0.3,0.4,0.7,0.7,0.4,1.2c-0.2,0.5-0.7,0.4-1.1,0.4c-1.9,0-3.8,0-5.7,0
	c-1-0.2-2,0.6-2.2,1.6c0,0.2,0,0.4,0,0.6c0,3.4,0,6.8,0,10.1c0,1.8-0.7,2.5-2.4,2.5c-1.4,0-2.9,0-4.3,0
	C70.5,61.5,68.5,61.5,66.6,61.5z"/>
</svg>
