<?xml version="1.0" encoding="utf-8"?>
<!-- Generator: Adobe Illustrator 25.2.1, SVG Export Plug-In . SVG Version: 6.00 Build 0)  -->
<svg version="1.1" id="Слой_1" xmlns="http://www.w3.org/2000/svg" xmlns:xlink="http://www.w3.org/1999/xlink" x="0px" y="0px"
	 viewBox="0 0 285.3 139.6" style="enable-background:new 0 0 285.3 139.6;" xml:space="preserve">
<style type="text/css">
	.st0{fill:#006425;}
	.st1{fill:#E7171D;}
</style>
<g>
	<polygon class="st0" points="27.2,72.5 31.2,72.5 39,36.1 79.3,21.9 76.1,16.3 33.4,31.8 	"/>
	<g>
		<rect x="92.1" y="15.1" transform="matrix(0.6651 -0.7468 0.7468 0.6651 9.7112 78.9277)" class="st0" width="1.5" height="27"/>
	</g>
	<polygon class="st0" points="108.5,96.3 105.6,104.5 65.2,118.7 37.6,96.9 36.7,98.1 68.7,123.3 111.8,107.8 113.8,96.3 	"/>
	<polygon class="st0" points="277,82.7 277,77.3 17.3,85.3 	"/>
	<polygon class="st1" points="285.3,84.6 285.3,89 0,92 	"/>
	<g>
		<path class="st0" d="M126.9,100.9l-0.1-5.9l4.4,0l0,0.9l-3.3,0l0,1.5l3,0l0,0.9l-3,0l0,1.6l3.4,0l0,0.9L126.9,100.9z"/>
		<path class="st0" d="M132.5,100.8l-0.1-5.9l1,0l0,3l2.8-3l1.3,0l-2.4,2.6l2.6,3.3l-1.3,0l-2-2.6l-0.9,1l0,1.7L132.5,100.8z"/>
		<path class="st0" d="M141.4,100.8c-0.9,0-1.6-0.3-2.1-0.9c-0.6-0.6-0.9-1.3-0.9-2.2c0-0.9,0.3-1.6,0.8-2.2
			c0.6-0.6,1.3-0.9,2.2-0.9c0.5,0,0.9,0.1,1.3,0.2c0.4,0.2,0.7,0.4,1,0.7l-0.7,0.8c-0.5-0.5-1.1-0.7-1.7-0.7c-0.6,0-1,0.2-1.4,0.6
			c-0.4,0.4-0.5,0.9-0.5,1.5c0,0.6,0.2,1.1,0.6,1.5c0.4,0.4,0.8,0.6,1.4,0.6c0.3,0,0.6-0.1,0.9-0.2c0.3-0.1,0.5-0.3,0.8-0.6l0.7,0.7
			c-0.3,0.4-0.7,0.6-1,0.8C142.3,100.7,141.9,100.8,141.4,100.8z"/>
		<path class="st0" d="M144.8,100.7l-0.1-5.9l4.8-0.1l0.1,5.9l-1,0l-0.1-5l-2.7,0l0.1,5L144.8,100.7z"/>
		<path class="st0" d="M151.2,100.6l-0.1-5.9l2.3,0c0.7,0,1.2,0.2,1.6,0.5c0.4,0.4,0.6,0.8,0.6,1.4c0,0.6-0.2,1.1-0.7,1.5
			c-0.4,0.4-1,0.5-1.7,0.5l-1.2,0l0,1.9L151.2,100.6z M152.2,97.8l1.2,0c0.4,0,0.7-0.1,0.9-0.3c0.2-0.2,0.3-0.5,0.3-0.8
			c0-0.3-0.1-0.6-0.3-0.8s-0.5-0.3-0.9-0.3l-1.2,0L152.2,97.8z"/>
		<path class="st0" d="M156.8,100.5l-0.1-5.9l4.4,0l0,0.9l-3.3,0l0,1.5l3,0l0,0.9l-3,0l0,1.6l3.4,0l0,0.9L156.8,100.5z"/>
		<path class="st0" d="M165.2,100.5c-0.9,0-1.6-0.3-2.1-0.9c-0.6-0.6-0.9-1.3-0.9-2.2c0-0.9,0.3-1.6,0.8-2.2
			c0.6-0.6,1.3-0.9,2.2-0.9c0.5,0,0.9,0.1,1.3,0.2c0.4,0.2,0.7,0.4,1,0.7l-0.7,0.8c-0.5-0.5-1.1-0.7-1.7-0.7c-0.6,0-1,0.2-1.4,0.6
			c-0.4,0.4-0.5,0.9-0.5,1.5c0,0.6,0.2,1.1,0.6,1.5c0.4,0.4,0.8,0.6,1.4,0.6c0.3,0,0.6-0.1,0.9-0.2c0.3-0.1,0.5-0.3,0.8-0.6l0.7,0.7
			c-0.3,0.4-0.7,0.6-1,0.8C166.1,100.4,165.7,100.5,165.2,100.5z"/>
		<path class="st0" d="M168.3,98.3l0-1l2.5,0l0,1L168.3,98.3z"/>
		<path class="st0" d="M171.4,101.6l0-2.2l0.6,0c0.5-1,0.7-2.4,0.7-4.1l0-0.8l4.1,0l0.1,5l0.7,0l-0.1,2.2l-0.9,0l0-1.3l-4.1,0
			l-0.1,1.3L171.4,101.6z M173.1,99.4l2.7,0l0-4l-2.1,0l0,0.7C173.7,97.4,173.5,98.6,173.1,99.4z"/>
		<path class="st0" d="M183.5,99.5c-0.6,0.6-1.3,0.9-2.2,0.9c-0.9,0-1.6-0.3-2.2-0.9c-0.6-0.6-0.9-1.3-0.9-2.2
			c0-0.8,0.3-1.6,0.9-2.2c0.6-0.6,1.3-0.9,2.2-0.9c0.9,0,1.6,0.3,2.2,0.9c0.6,0.6,0.9,1.3,0.9,2.2C184.4,98.1,184.1,98.9,183.5,99.5
			z M179.9,98.8c0.4,0.4,0.9,0.6,1.4,0.6c0.6,0,1.1-0.2,1.4-0.6c0.4-0.4,0.5-0.9,0.5-1.5c0-0.6-0.2-1.1-0.6-1.5
			c-0.4-0.4-0.9-0.6-1.4-0.6c-0.6,0-1.1,0.2-1.4,0.6c-0.4,0.4-0.6,0.9-0.5,1.5C179.3,97.9,179.5,98.4,179.9,98.8z"/>
		<path class="st0" d="M188.4,100.3c-0.9,0-1.6-0.3-2.1-0.9c-0.6-0.6-0.9-1.3-0.9-2.2c0-0.9,0.3-1.6,0.8-2.2
			c0.6-0.6,1.3-0.9,2.2-0.9c0.5,0,0.9,0.1,1.3,0.2c0.4,0.2,0.7,0.4,1,0.7l-0.7,0.8c-0.5-0.5-1.1-0.7-1.7-0.7c-0.6,0-1,0.2-1.4,0.6
			c-0.4,0.4-0.5,0.9-0.5,1.5c0,0.6,0.2,1.1,0.6,1.5c0.4,0.4,0.8,0.6,1.4,0.6c0.3,0,0.6-0.1,0.9-0.2c0.3-0.1,0.5-0.3,0.8-0.6l0.7,0.7
			c-0.3,0.4-0.7,0.6-1,0.8C189.3,100.2,188.9,100.3,188.4,100.3z"/>
		<path class="st0" d="M193.3,100.1l-0.1-4.9l-1.9,0l0-1l4.8-0.1l0,1l-1.9,0l0.1,4.9L193.3,100.1z"/>
		<path class="st0" d="M196.8,100.1l2.5-6l1,0l2.7,5.9l-1.1,0l-0.6-1.4l-2.8,0l-0.6,1.4L196.8,100.1z M198.8,97.7l2,0l-1-2.3
			L198.8,97.7z"/>
		<path class="st0" d="M203.9,100l-0.1-5.9l2.6,0c0.7,0,1.2,0.2,1.5,0.5c0.3,0.3,0.4,0.6,0.4,1c0,0.6-0.3,1-0.8,1.3
			c0.8,0.3,1.2,0.7,1.2,1.4c0,0.5-0.2,0.9-0.6,1.2c-0.4,0.3-0.9,0.4-1.6,0.4L203.9,100z M204.9,96.6l1.4,0c0.3,0,0.6-0.1,0.8-0.2
			c0.2-0.1,0.3-0.3,0.3-0.6c0-0.2-0.1-0.4-0.3-0.5c-0.2-0.1-0.4-0.2-0.8-0.2l-1.5,0L204.9,96.6z M205,99.1l1.7,0
			c0.4,0,0.6-0.1,0.8-0.2c0.2-0.1,0.3-0.3,0.3-0.6c0-0.5-0.4-0.8-1.2-0.8l-1.6,0L205,99.1z"/>
		<path class="st0" d="M210,100l-0.1-5.9l1,0l0,3l2.8-3l1.3,0l-2.4,2.6l2.6,3.3l-1.3,0l-2-2.6l-0.9,1l0,1.7L210,100z"/>
		<path class="st0" d="M215.6,99.9l2.5-6l1,0l2.7,5.9l-1.1,0l-0.6-1.4l-2.8,0l-0.6,1.4L215.6,99.9z M217.6,97.5l2,0l-1-2.3
			L217.6,97.5z"/>
		<path class="st0" d="M225.3,99.8l-0.1-5.9l2.6,0c0.7,0,1.2,0.2,1.5,0.5c0.3,0.3,0.4,0.6,0.4,1c0,0.6-0.3,1-0.8,1.3
			c0.8,0.3,1.2,0.7,1.2,1.4c0,0.5-0.2,0.9-0.6,1.2c-0.4,0.3-0.9,0.4-1.6,0.4L225.3,99.8z M226.3,96.4l1.4,0c0.3,0,0.6-0.1,0.8-0.2
			c0.2-0.1,0.3-0.3,0.3-0.6c0-0.2-0.1-0.4-0.3-0.5c-0.2-0.1-0.4-0.2-0.8-0.2l-1.5,0L226.3,96.4z M226.3,98.9l1.7,0
			c0.4,0,0.6-0.1,0.8-0.2c0.2-0.1,0.3-0.3,0.3-0.6c0-0.5-0.4-0.8-1.2-0.8l-1.6,0L226.3,98.9z"/>
		<path class="st0" d="M230.9,99.7l2.5-6l1,0l2.7,5.9l-1.1,0l-0.6-1.4l-2.8,0l-0.6,1.4L230.9,99.7z M232.9,97.4l2,0l-1-2.3
			L232.9,97.4z"/>
		<path class="st0" d="M238,99.7l-0.1-5.9l1,0l0,2.4l2.8,0l0-2.4l1,0l0.1,5.9l-1,0l0-2.5l-2.8,0l0,2.5L238,99.7z"/>
		<path class="st0" d="M245.9,99.6l-0.1-4.9l-1.9,0l0-1l4.8-0.1l0,1l-1.9,0l0.1,4.9L245.9,99.6z"/>
		<path class="st0" d="M249.4,99.5l2.5-6l1,0l2.7,5.9l-1.1,0l-0.6-1.4l-2.8,0l-0.6,1.4L249.4,99.5z M251.4,97.2l2,0l-1-2.3
			L251.4,97.2z"/>
		<path class="st0" d="M260.8,99.4l-1,0l0-1.6l-0.9-1l-1.7,2.6l-1.2,0l2.3-3.4l-2.2-2.5l1.2,0l2.6,3l0-3.1l1,0l0,3.1l2.5-3.1l1.2,0
			l-2.2,2.5l2.4,3.4l-1.2,0l-1.8-2.6l-0.9,1.1L260.8,99.4z"/>
		<path class="st0" d="M265.7,99.4l-0.1-5.9l1,0l0.1,5.9L265.7,99.4z"/>
		<path class="st0" d="M268.3,99.3l-0.1-5.9l2.6,0c0.7,0,1.2,0.2,1.5,0.5c0.3,0.3,0.4,0.6,0.4,1c0,0.6-0.3,1-0.8,1.3
			c0.8,0.3,1.2,0.7,1.2,1.4c0,0.5-0.2,0.9-0.6,1.2c-0.4,0.3-0.9,0.4-1.6,0.4L268.3,99.3z M269.3,95.9l1.4,0c0.3,0,0.6-0.1,0.8-0.2
			c0.2-0.1,0.3-0.3,0.3-0.6c0-0.2-0.1-0.4-0.3-0.5c-0.2-0.1-0.4-0.2-0.8-0.2l-1.5,0L269.3,95.9z M269.3,98.4l1.7,0
			c0.4,0,0.6-0.1,0.8-0.2c0.2-0.1,0.3-0.3,0.3-0.6c0-0.5-0.4-0.8-1.2-0.8l-1.6,0L269.3,98.4z"/>
	</g>
	<path class="st1" d="M52.6,42.2l11.5-0.3c0.2,0,0.5,0,0.7,0c3.2,0,5.6,0.7,7.1,2.1c1.6,1.5,2.4,3.4,2.4,5.8c0,2.1-0.6,4-1.7,5.5
		c-0.9,1.3-2.2,2.3-3.7,2.9c2.3,1.2,3.4,3.3,3.4,6.3c0,3-1.1,5.5-3.3,7.5c-2.1,1.9-5.3,3-9.4,3.1l-14.5,0.4L52.6,42.2z M55.1,67.1
		l5.1-0.1c1.2,0,2.1-0.3,2.8-0.9c0.7-0.6,1-1.3,1-2.2c0-0.9-0.3-2-2.7-2l-0.2,0l-4.8,0.1L55.1,67.1z M57.9,54.8l4.5-0.1
		c1.2,0,2.1-0.3,2.8-0.9c0.6-0.5,0.9-1.2,0.9-2.1c0-0.8-0.3-1.9-2.6-1.9l-0.2,0L58.9,50L57.9,54.8z"/>
	<path class="st1" d="M79.3,74.8c-1.7,0-3.2-0.6-4.3-1.9c-1.1-1.3-1.7-3-1.7-5.1c0-2.8,0.9-5.1,2.6-6.8c1.7-1.7,4.1-2.6,6.9-2.7
		c0.1,0,0.3,0,0.4,0c1.5,0,3,0.2,4.6,0.7c0.1-0.6,0.2-1,0.2-1.3c0-0.9-0.3-2.1-2.9-2.1l-0.2,0c-1.9,0.1-3.8,0.5-5.5,1.4l-0.5,0.3
		l-1.2-7.2L78,50c2.5-1.1,5.3-1.7,8.4-1.8c0.2,0,0.4,0,0.6,0c2.9,0,5.1,0.7,6.7,2c1.6,1.4,2.5,3.4,2.5,6.1c0,1.1-0.1,2.4-0.4,3.7
		L92.5,74l-8.1,0.2l0.4-1.8c-1.7,1.6-3.4,2.4-5.3,2.4L79.3,74.8z M84.6,63.5c-1.1,0-1.9,0.3-2.5,0.9c-0.6,0.6-0.9,1.3-0.9,2.3
		c0,0.6,0.2,1,0.5,1.4c0.3,0.3,0.7,0.4,1.1,0.4c0.9,0,1.6-0.4,2.4-1.2c0.8-0.8,1.3-1.8,1.6-3.1l0.1-0.5c-0.7-0.2-1.4-0.3-2.1-0.3
		L84.6,63.5z"/>
	<polygon class="st1" points="101.1,48.1 109.3,47.9 105.3,65.8 109.5,65.6 113.5,47.8 121.7,47.5 117.7,65.4 122,65.3 126,47.4 
		134.2,47.2 128.4,72.9 95.3,73.9 	"/>
	<path class="st1" d="M156.1,64.5c-1.4,0.6-3,0.9-4.8,0.9l-0.2,0c-1.8,0-3.2-0.6-4.3-1.8c-1.1-1.2-1.6-2.9-1.6-4.9
		c0-0.8,0.1-1.7,0.3-2.7l2.1-9.3l8.2-0.2l-1.7,7.6c-0.2,0.8-0.3,1.4-0.3,1.7c0,1.3,0.6,1.5,1.1,1.5c1.2,0,2.2-0.3,2.9-0.9l2.3-10.1
		l8.2-0.2L162.6,72l-8.2,0.2L156.1,64.5z"/>
	<path class="st1" d="M172.5,72.2c-1.7,0-3.2-0.6-4.3-1.9c-1.1-1.3-1.7-3-1.7-5.1c0-2.8,0.9-5.1,2.6-6.8c1.7-1.7,4.1-2.6,6.9-2.7
		c0.1,0,0.3,0,0.4,0c1.5,0,3,0.2,4.6,0.7c0.1-0.6,0.2-1,0.2-1.3c0-0.9-0.3-2.1-2.9-2.1l-0.2,0c-1.9,0.1-3.8,0.5-5.5,1.4l-0.5,0.3
		l-1.2-7.2l0.3-0.1c2.5-1.1,5.3-1.7,8.4-1.8c0.2,0,0.4,0,0.6,0c2.9,0,5.1,0.7,6.7,2c1.6,1.4,2.5,3.4,2.5,6.1c0,1.1-0.1,2.4-0.4,3.7
		l-3.1,14.1l-8.1,0.2l0.4-1.8c-1.7,1.6-3.4,2.4-5.3,2.4L172.5,72.2z M177.8,60.8c-1.1,0-1.9,0.3-2.5,0.9c-0.6,0.6-0.9,1.4-0.9,2.3
		c0,0.6,0.2,1,0.5,1.4c0.3,0.3,0.7,0.5,1.1,0.5c0.9,0,1.6-0.4,2.4-1.2c0.8-0.8,1.3-1.8,1.6-3.1l0.1-0.5c-0.7-0.2-1.4-0.3-2.1-0.3
		L177.8,60.8z"/>
	<path class="st1" d="M200.3,71.5c-2.8,0-5.1-1-7-2.9c-1.9-2-2.9-4.7-2.9-8.1c0-4.2,1.3-7.9,3.7-11c2.5-3.1,5.6-4.7,9.2-4.8
		c0.1,0,0.2,0,0.4,0c2.2,0,4.1,0.6,5.6,1.8c1.6,1.3,2.7,2.9,3.3,5l0.1,0.3l-6.4,4.1l-0.2-0.5c-0.7-1.8-1.7-2.7-3.1-2.7l-0.1,0
		c-1.2,0-2.3,0.7-3.2,2.2c-0.9,1.4-1.4,3.1-1.4,4.9c0,1.1,0.3,2.1,0.8,2.7c0.5,0.6,1.1,0.9,1.9,0.9l0.1,0c1.2,0,2.4-0.8,3.6-2.2
		l0.3-0.4l5,5.1l-0.2,0.3c-2.4,3.4-5.5,5.2-9.2,5.3C200.5,71.5,200.4,71.5,200.3,71.5z"/>
</g>
</svg>
