<?xml version="1.0" encoding="utf-8"?>
<!-- Generator: Adobe Illustrator 25.0.0, SVG Export Plug-In . SVG Version: 6.00 Build 0)  -->
<svg version="1.1" id="Слой_1" xmlns="http://www.w3.org/2000/svg" xmlns:xlink="http://www.w3.org/1999/xlink" x="0px" y="0px"
	 viewBox="0 0 140 41" style="enable-background:new 0 0 140 41;" xml:space="preserve">
<style type="text/css">
	.st0{fill:#FFFFFF;}
</style>
<path class="st0" d="M85.5,25l-7-24.8H62.7v6.7c-2.1-4-7-6.4-13.9-6.4c-8.1,0-15.4,3.8-15.8,12.8h10.4c0.3-2.8,2.3-4.1,5-4.1
	c2.3,0,4.5,0.9,4.5,3.5c0,3.6-3.8,4-6.9,4v6.8c2.8,0,7.2,0.4,7.2,4.3c0,2.3-1.8,4.5-5.1,4.5c-3.6,0-5.5-2.2-5.5-5.8H31.7
	c0,9.6,6.7,14.4,15.8,14.4c7.1,0,12.4-2.1,15.2-6.3V40h11.7V26.5c0-3.2-0.4-8.6-0.8-12.1h0.1L80.9,40H90l7.2-25.6h0.1
	c-0.5,4.6-0.8,8.9-0.8,13.4V40h11.7V0.2H92.5L85.5,25z M62.7,21.4c-0.9-1-2.1-1.8-3.5-2.4c1.6-0.8,2.7-1.9,3.5-3.2V21.4z"/>
</svg>
