<?xml version="1.0" encoding="utf-8"?>
<!-- Generator: Adobe Illustrator 25.0.0, SVG Export Plug-In . SVG Version: 6.00 Build 0)  -->
<svg version="1.1" id="Слой_1" xmlns="http://www.w3.org/2000/svg" xmlns:xlink="http://www.w3.org/1999/xlink" x="0px" y="0px"
	 viewBox="0 0 140 41" style="enable-background:new 0 0 140 41;" xml:space="preserve">
<style type="text/css">
	.st0{fill:#FFFFFF;}
</style>
<path class="st0" d="M7.8,12L0.5,25.1c-1,1.7-0.3,3.9,1.4,4.9c0.5,0.3,1.1,0.5,1.8,0.5H14v-6.6H8.6l3.8-6.9h2.1v13.5h6.6V17h4.9
	v-6.6H10.4C9.3,10.5,8.3,11.1,7.8,12z M24.8,15.7h-4.9v13.5h-3.9V15.7h-4.2l-5.3,9.5h6.2v3.9h-9c-1.3,0-2.3-1-2.3-2.3
	c0-0.4,0.1-0.8,0.3-1.1l7.3-13.1c0.3-0.5,0.8-0.8,1.4-0.8h14.4L24.8,15.7z M116.2,15.2c-2-0.1-4,0.6-5.5,1.9c-1.3,1.3-2.1,3.1-2,4.9
	c-0.1,2,0.8,3.9,2.4,5.2c1.5,1.1,3.3,1.7,5.1,1.6c2.4,0,4.2-0.6,5.5-1.9c2.5-2.6,2.7-6.7,0.4-9.5C120.8,16,118.8,15.2,116.2,15.2z
	 M118,24.7L118,24.7c-0.8,1-2.3,1.1-3.3,0.3c-0.1-0.1-0.2-0.2-0.3-0.3c-0.5-0.8-0.8-1.7-0.7-2.6c-0.1-0.9,0.2-1.8,0.7-2.6
	c0.4-0.5,1.1-0.9,1.8-0.8c0.7,0,1.3,0.3,1.7,0.8c0.5,0.7,0.8,1.6,0.7,2.5C118.8,23,118.6,23.9,118,24.7z M89.6,19.1h5.6
	c0.2,0.5,0.4,1,0.5,1.5h-5.1c-0.1-0.4-0.3-0.8-0.5-1.1C89.9,19.4,89.8,19.2,89.6,19.1z M92.7,16.4h-8.9c1.3-0.8,2.8-1.2,4.4-1.1
	C89.8,15.2,91.4,15.6,92.7,16.4z M94.9,18.5H81.7c0.3-0.5,0.6-0.9,1-1.3c0.1-0.1,0.1-0.1,0.2-0.2h10.7c0.2,0.2,0.4,0.3,0.5,0.5
	C94.4,17.8,94.7,18.1,94.9,18.5z M85.9,20.6h-5.1c0.1-0.5,0.3-1,0.5-1.5h5.5c-0.2,0.1-0.3,0.3-0.4,0.4C86.2,19.9,86,20.2,85.9,20.6z
	 M74.5,16.4h-4.7v-0.8h4.7V16.4z M61.8,19.1h5c0.2,0.5,0.3,1,0.4,1.5h-5C62.3,20.1,62.1,19.6,61.8,19.1z M64.6,16.4h-9.3
	c1.3-0.8,2.9-1.2,4.4-1.1c1.5-0.1,3,0.2,4.4,0.8C64.3,16.2,64.5,16.3,64.6,16.4z M58.8,18.5h-5.5c0.3-0.5,0.6-0.9,1.1-1.3
	c0,0,0.1-0.1,0.2-0.1h11c0.5,0.4,0.8,0.9,1.1,1.5h-5.5c-0.4-0.2-0.8-0.3-1.2-0.3C59.5,18.2,59.1,18.3,58.8,18.5z M57.5,20.6h-5
	c0.1-0.5,0.2-1,0.5-1.5H58c0,0,0,0,0,0C57.7,19.6,57.5,20.1,57.5,20.6z M45.1,23.4H50v1.5h-5.3c0,0,0.1-0.1,0.1-0.1
	C45,24.3,45.1,23.9,45.1,23.4z M39.7,21.3H50v1.5h-4.9v-0.3c-0.3,0.1-0.7,0.2-1,0.3h-7.7c0,0,0,0,0,0C37,22.1,38.1,21.6,39.7,21.3
	L39.7,21.3z M45,19.1h4.9c0.1,0.3,0.1,0.6,0.1,0.9v0.6h-7.2c0.2,0,0.4-0.1,0.5-0.1c0.6-0.2,1.2-0.4,1.8-0.6
	C45.1,19.6,45,19.4,45,19.1z M48.3,16.4H37.7c0.2-0.1,0.3-0.2,0.5-0.3c0.6-0.3,1.2-0.5,1.9-0.6c0.9-0.1,1.7-0.2,2.6-0.2
	c1.2,0,2.4,0.1,3.6,0.3C47,15.6,47.7,15.9,48.3,16.4z M41.7,18.5h-5.6c0.1-0.4,0.3-0.8,0.6-1.2c0.1-0.1,0.2-0.2,0.2-0.3H49
	c0.3,0.3,0.5,0.7,0.6,1.1c0,0.1,0.1,0.2,0.1,0.4h-5.2c-0.4-0.2-0.8-0.3-1.2-0.3C42.8,18.2,42.3,18.3,41.7,18.5z M40.7,19.8l-4.8-0.5
	c0,0,0-0.1,0-0.1H41C40.9,19.3,40.8,19.6,40.7,19.8z M40.6,24.9h-5c0-0.5,0.2-1,0.4-1.5h5.9c-0.3,0.1-0.6,0.3-0.9,0.5
	C40.7,24.1,40.6,24.4,40.6,24.9C40.6,24.8,40.6,24.8,40.6,24.9z M50,27H36c-0.3-0.4-0.4-1-0.5-1.5h5.2c0.1,0.1,0.1,0.2,0.2,0.2
	c0.3,0.3,0.8,0.4,1.2,0.4c0.5,0,1.1-0.1,1.6-0.4c0.1-0.1,0.2-0.1,0.3-0.2H50v0.3C50,26.2,50,26.6,50,27z M36.6,27.7h8
	c-0.4,0.3-0.8,0.5-1.2,0.7c-1,0.4-2,0.6-3.1,0.5c-1.3,0.1-2.5-0.3-3.6-1.1C36.7,27.8,36.6,27.7,36.6,27.7z M50.2,27.7
	c0.1,0.3,0.2,0.6,0.4,1h-4.7c-0.1-0.2-0.3-0.5-0.4-0.8c0-0.1,0-0.1-0.1-0.2L50.2,27.7z M57.9,24.9h-5.1c-0.2-0.5-0.3-1-0.4-1.5h5
	C57.5,23.9,57.6,24.4,57.9,24.9z M54.9,27.7h10.2c-0.2,0.1-0.4,0.3-0.6,0.4c-1.4,0.6-3,0.9-4.6,0.9c-1.4,0.1-2.8-0.2-4.1-0.7
	C55.5,28,55.2,27.9,54.9,27.7z M61.5,25.5H67c-0.3,0.5-0.7,1-1.2,1.5H54.2c-0.3-0.4-0.6-0.7-0.9-1.2c-0.1-0.1-0.1-0.2-0.2-0.3h5.4
	c0.4,0.3,0.9,0.5,1.5,0.4c0.5,0,1-0.1,1.4-0.4C61.4,25.6,61.5,25.5,61.5,25.5z M62.3,24.8l1.1,0.1L62.3,24.8
	C62.2,24.8,62.2,24.8,62.3,24.8z M67.4,21.3c0.1,0.5,0.1,1,0.1,1.5H52.4c0-0.2,0-0.4,0-0.6c0-0.3,0-0.6,0-0.8H67.4z M69.8,27.7h5v1
	h-5V27.7z M69.8,25.5h5V27h-5V25.5z M69.8,23.4h5c0,0.3,0,0.5,0,0.8v0.6h-5L69.8,23.4z M69.8,21.3h5.3c-0.1,0.5-0.2,1-0.2,1.5h-5.1
	V21.3z M69.8,19.1h7.3c-0.6,0-1.2,0.3-1.5,0.8c-0.1,0.2-0.2,0.4-0.3,0.7h-5.5L69.8,19.1z M77.2,19.1h1.6l-0.2,0.4
	C78.1,19.3,77.7,19.2,77.2,19.1z M74.9,17h4.8L79,18.5h-9.2V17h4.7v0.7C74.6,17.4,74.8,17.2,74.9,17z M77.7,15.2
	c0.9,0,1.7,0.3,2.4,0.7l-0.2,0.4h-4.6c0.2-0.2,0.4-0.4,0.6-0.6C76.4,15.4,77.1,15.2,77.7,15.2z M85.8,22.7h-5c0-0.2,0-0.4,0-0.6
	c0-0.3,0-0.6,0-0.8h5c0,0.3,0,0.6,0,0.8C85.8,22.3,85.8,22.5,85.8,22.7z M86.7,24.9h-5.4c-0.2-0.5-0.3-1-0.4-1.5h5
	c0.1,0.5,0.3,0.9,0.6,1.3C86.5,24.8,86.6,24.8,86.7,24.9z M83.6,27.7h9.3c-1.4,0.9-3,1.3-4.7,1.3C86.6,29,85,28.5,83.6,27.7z
	 M81.6,25.5C81.6,25.5,81.6,25.5,81.6,25.5L81.6,25.5L81.6,25.5z M81.6,25.5h13.3c-0.3,0.5-0.7,1-1.1,1.5c0,0,0,0,0,0h-11
	C82.3,26.6,81.9,26.1,81.6,25.5z M90.6,23.4h5c-0.1,0.5-0.2,1-0.4,1.5h-5.3c0.1-0.1,0.1-0.1,0.2-0.2C90.3,24.3,90.5,23.9,90.6,23.4z
	 M95.7,21.3c0,0.3,0,0.5,0,0.8c0,0.2,0,0.5,0,0.7h-5c0-0.2,0-0.4,0-0.7c0-0.3,0-0.5,0-0.8L95.7,21.3z M106.8,25l0.4,3.5
	c-1.1,0.3-2.3,0.4-3.5,0.4c-0.9,0.1-1.9-0.1-2.8-0.5c-0.6-0.3-1.1-0.8-1.3-1.5c-0.3-1-0.5-2.1-0.4-3.2v-4.6h-1.8v-3.7h1.8v-2.4
	l5-2.6v5h2.8v3.7h-2.8v4.6c0,0.4,0,0.8,0.2,1.1c0.2,0.3,0.5,0.5,0.9,0.4C105.8,25.3,106.3,25.2,106.8,25z M140,20.3v8.3h-5v-7.2
	c0.1-0.6-0.1-1.2-0.5-1.7c-0.3-0.4-0.8-0.5-1.3-0.5c-0.6,0-1.1,0.2-1.5,0.7c-0.5,0.7-0.7,1.6-0.6,2.5v6.3h-5V15.5h4.7v2.1
	c0.6-0.8,1.3-1.4,2.1-1.9c0.8-0.4,1.7-0.6,2.6-0.6c1.2-0.1,2.4,0.4,3.3,1.2C139.6,17.3,140,18.6,140,20.3z"/>
</svg>
