<?xml version="1.0" encoding="utf-8"?>
<!-- Generator: Adobe Illustrator 25.0.0, SVG Export Plug-In . SVG Version: 6.00 Build 0)  -->
<svg version="1.1" id="Слой_1" xmlns="http://www.w3.org/2000/svg" xmlns:xlink="http://www.w3.org/1999/xlink" x="0px" y="0px"
	 viewBox="0 0 140 41" style="enable-background:new 0 0 140 41;" xml:space="preserve">
<style type="text/css">
	.st0{fill:#FFFFFF;}
</style>
<path transform="translate(0)" class="st0" d="M28.4,31.5c9.4,3.1,19.1,4.9,28.9,5.5c9.6,0.7,19.3,0.6,29-0.3
	c1.3-0.1,2.6-0.3,3.9-0.4V11.2l3.7,0v2.4c0.4-0.4,0.9-2,2.9-2.7c1.5-0.5,3.1-0.2,4.4,0.7c2.1,1.5,3.2,4.3,3.2,8c0,3.6-1,6.5-2.9,8.2
	c-1.8,1.5-4.4,1.5-6.2,0c-0.2-0.2-0.5-0.5-0.6-0.8c-0.2-0.3-0.4-0.6-0.6-0.8l0,9.5c2-0.2,6.1-1.1,8.2-1.5c6.8-1.6,15.6-4.3,20.5-8.5
	c1.4-1.2,3.4-3.2,3.9-5.8c0.3-2-0.2-4-1.5-5.5c-0.3-0.5-0.7-0.9-1.1-1.3c-0.2-0.2-0.4-0.4-0.6-0.6c-1.5-1.4-3.2-2.5-5-3.5
	c-2.2-1.2-4.4-2.1-6.7-2.9c-10.3-3.6-21.3-5.1-33-5.8c-12.1-0.7-24.3,0-36.2,2.1c-0.1,0.3,0,7.3,0,8.2c0,0.9,0,1.8,0,2.7
	c0.7-1.7,2.3-2.8,4.6-2.7c1.9,0,3.7,1.3,4.3,3.1c0.6,1.8,0.4,4.9,0.4,7c0,0.6,0,7,0,7.4H48c-0.1-1.3,0-2.8,0-4.1V20
	c0-2.6,0.4-5.8-2.8-5.5c-1.1,0.1-2,0.8-2.4,1.8c-0.5,1.1-0.4,2.4-0.4,3.7v4.1c0,1.3,0.1,2.9,0,4.1l-3.8,0V3.2
	c-1.2,0.2-2.3,0.5-3.5,0.8C28.5,5.7,18.8,9,15,14.1C8.4,22.9,21.6,29.2,28.4,31.5z M76.2,11.2l0,2.5c0.4-0.8,1-1.5,1.7-2.1
	c2.2-1.5,5.3-1,6.8,1.2c0.2,0.3,0.4,0.6,0.5,1c0.7,1.7,0.5,5,0.5,7.1c0,0.6,0,7,0,7.5h-3.8c-0.1-1.3,0-2.9,0-4.2V20
	c0-2.5,0.4-5.8-2.8-5.5c-1.1,0.1-2,0.8-2.4,1.8c-0.5,1.1-0.4,2.4-0.4,3.7c0,0.7,0,7.7,0,8.2l-3.8,0V11.2L76.2,11.2z M64.2,15.3
	c-0.6-1.1-3-1.2-3.9-0.4c-0.6,0.5-0.6,1-0.8,1.9H56c0-1.2,0.4-2.4,0.9-3.5c1.3-2.2,4-2.7,6.5-2.5c1.2,0.1,2.3,0.5,3.3,1.2
	c0.9,0.7,1.4,1.8,1.5,3c0.1,1.1,0,7.4,0,9c0,1.3-0.2,3.2,0.8,3.7l0,0.6l-4.1,0c-0.2-0.6-0.3-1.2-0.4-1.9c-0.2,0-0.1,0-0.2,0.1
	c-0.4,0.4-0.8,0.8-1.2,1.1c-2.9,2.3-7.3,1.3-7.8-3.2c-0.3-3,1-5.7,4.3-6.2c1-0.2,3.7-0.5,4.3-1C64.6,16.7,64.7,15.9,64.2,15.3z
	 M126.8,22c0,0,0-0.1,0-0.1l0-0.1c0,0.1,0,0-0.1,0.1c0,0,0,0.1,0,0.1c-0.2,1.1-0.7,2.1-1.4,3c-4.4,5.9-14.8,9.1-21.7,10.8
	c-10.3,2.6-22.4,3.6-33.6,3.6c-11.4,0-23.1-1.1-33.6-3.6c-6.1-1.5-16.2-4.7-20.7-9.6c-2.4-2.6-2.1-3.9-2.4-4.5
	c-0.1,0.7-0.1,1.5,0.1,2.2c0.5,1.7,1.4,3.2,2.7,4.4c0.4,0.4,0.8,0.8,1.3,1.1c0.5,0.4,0.9,0.7,1.3,1c3,2,6.2,3.5,9.6,4.7
	c12.7,4.4,27.7,6,41.5,6c14.7,0,35.4-2,48.3-8.8c1.5-0.8,4.5-2.6,5.6-3.9c0.4-0.4,0.7-0.6,1.1-1.3c0.4-0.4,0.7-0.9,1-1.4
	C126.5,24.5,126.8,23.3,126.8,22z M97.7,25c2.1-0.4,2.8-3.4,2.7-5.8s-1.1-5.1-3.8-4.6c-2.5,0.5-2.7,3.6-2.7,5.8
	c0,1.2,0.3,2.3,0.9,3.3C95.4,24.8,96.6,25.3,97.7,25z M59.3,23.5c0,3.6,5.2,2.2,5.2-1.3V20c-0.3,0.1-0.4,0.3-0.7,0.4
	C61.9,21.2,59.3,20.7,59.3,23.5z"/>
</svg>
