<?xml version="1.0" encoding="utf-8"?>
<!-- Generator: Adobe Illustrator 25.0.0, SVG Export Plug-In . SVG Version: 6.00 Build 0)  -->
<svg version="1.1" id="Слой_1" xmlns="http://www.w3.org/2000/svg" xmlns:xlink="http://www.w3.org/1999/xlink" x="0px" y="0px"
	 viewBox="0 0 140 41" style="enable-background:new 0 0 140 41;" xml:space="preserve">
<style type="text/css">
	.st0{fill:#FFFFFF;}
</style>
<path class="st0" d="M34.2,15.6h2.7v10.9h-2.7V15.6z M43.1,15.6h-4.4v10.9h2.7v-4.1h1.4c0.9,0.1,1.8-0.3,2.4-0.9
	c0.6-0.7,0.8-1.7,0.8-2.6c0.1-0.9-0.2-1.8-0.7-2.5C44.7,15.8,43.9,15.5,43.1,15.6z M43.1,19.9c-0.3,0.3-0.7,0.4-1.1,0.3h-0.6v-2.4
	h0.8c0.4,0,0.7,0.1,1,0.4c0.2,0.3,0.3,0.6,0.3,0.9C43.4,19.3,43.3,19.6,43.1,19.9L43.1,19.9z M52.1,22.2l-1.3-6.6h-3.5v10.9h2.2
	v-8.3l1.7,8.3h2l1.7-8.3v8.3h2.2V15.6h-3.5L52.1,22.2z M58,21.3h3.5v2.3H58V21.3z M62,18.3h2.7v8.2h2.6v-8.2h2.7v-2.7h-8V18.3z
	 M74.9,15.4c-1.3-0.1-2.5,0.5-3.3,1.5c-0.8,1.2-1.3,2.7-1.2,4.2c0,1.1,0.2,2.2,0.6,3.2c0.3,0.8,0.9,1.4,1.5,1.9
	c0.7,0.4,1.6,0.6,2.4,0.6c0.8,0,1.7-0.2,2.4-0.7c0.7-0.5,1.2-1.1,1.5-1.9c0.4-1,0.5-2.1,0.5-3.1c0.1-1.5-0.3-2.9-1.2-4.1
	C77.4,15.8,76.2,15.3,74.9,15.4z M76.3,23.4c-0.5,0.7-1.4,0.9-2.2,0.5c-0.2-0.1-0.3-0.3-0.5-0.5c-0.6-1.5-0.6-3.2,0-4.8
	c0.3-0.5,0.8-0.7,1.3-0.7c0.5,0,1,0.3,1.3,0.7c0.4,0.7,0.5,1.5,0.5,2.3C76.8,21.8,76.6,22.6,76.3,23.4L76.3,23.4z M86.5,21.6l-3.2-6
	h-2.5v10.9h2.5v-6l3.2,6H89V15.6h-2.5L86.5,21.6z M93.4,21.9h4.1v-2.2h-4.1v-1.7h4.4v-2.3h-7.1v10.9H98V24h-4.6L93.4,21.9z
	 M106.2,22.6c-0.1-0.2-0.3-0.4-0.4-0.6c-0.2-0.2-0.4-0.3-0.7-0.4c0.8-0.2,1.4-0.7,1.8-1.5c0.2-0.5,0.3-1,0.3-1.6
	c0-0.6-0.1-1.2-0.4-1.8c-0.2-0.4-0.6-0.8-1-1c-0.6-0.2-1.2-0.3-1.9-0.3h-4.4v10.9h2.7v-4.4h0.2c0.2,0,0.5,0.1,0.6,0.3
	c0.2,0.2,0.4,0.5,0.5,0.8l1.4,3.3h3l-1.3-3.2C106.5,23.1,106.3,22.9,106.2,22.6z M104.3,19.5c-0.1,0.2-0.2,0.3-0.4,0.3
	c-0.2,0.1-0.5,0.1-0.7,0.1h-1.1v-2.2h1.2c0.4,0,0.7,0.1,1,0.3c0.2,0.2,0.3,0.5,0.3,0.8C104.5,19.1,104.4,19.3,104.3,19.5z
	 M16.9,22.9c1.1,0,2.1,0.9,2.1,2.1S18,27,16.9,27s-2.1-0.9-2.1-2.1S15.7,22.9,16.9,22.9z M22.8,22.9c1.1,0,2.1,0.9,2.1,2.1
	S24,27,22.8,27c-1.1,0-2.1-0.9-2.1-2.1S21.7,22.9,22.8,22.9z M28.7,22.9c1.1,0,2.1,0.9,2.1,2.1s-0.9,2.1-2.1,2.1
	c-1.1,0-2.1-0.9-2.1-2.1S27.6,22.9,28.7,22.9z M24.3,20.2c0-1.1,0.9-2.1,2.1-2.1c1.1,0,2.1,0.9,2.1,2.1s-0.9,2.1-2.1,2.1
	C25.2,22.3,24.3,21.3,24.3,20.2z M18.4,20.2c0-1.1,0.9-2.1,2.1-2.1c1.1,0,2.1,0.9,2.1,2.1s-0.9,2.1-2.1,2.1
	C19.3,22.3,18.4,21.3,18.4,20.2z M23.4,13.4c1.1,0,2.1,0.9,2.1,2.1s-0.9,2.1-2.1,2.1c-1.1,0-2.1-0.9-2.1-2.1S22.3,13.4,23.4,13.4z
	 M111.1,13.4c1.1,0,2.1,0.9,2.1,2.1s-0.9,2.1-2.1,2.1c-1.1,0-2.1-0.9-2.1-2.1S110,13.4,111.1,13.4z M117,17.5c1.1,0,2.1-0.9,2.1-2.1
	s-0.9-2.1-2.1-2.1c-1.1,0-2.1,0.9-2.1,2.1C115,16.6,115.9,17.5,117,17.5C117,17.5,117,17.5,117,17.5z M123,13.4
	c-1.1,0-2.1,0.9-2.1,2.1s0.9,2.1,2.1,2.1c1.1,0,2.1-0.9,2.1-2.1C125,14.3,124.1,13.4,123,13.4C123,13.4,123,13.4,123,13.4z
	 M120.6,18.1c1.1,0,2.1,0.9,2.1,2.1s-0.9,2.1-2.1,2.1s-2.1-0.9-2.1-2.1S119.4,18.1,120.6,18.1z M112.6,20.2c0-1.1,0.9-2.1,2.1-2.1
	c1.1,0,2.1,0.9,2.1,2.1s-0.9,2.1-2.1,2.1C113.5,22.3,112.6,21.3,112.6,20.2z M117.6,22.9c1.1,0,2.1,0.9,2.1,2.1s-0.9,2.1-2.1,2.1
	s-2.1-0.9-2.1-2.1S116.5,22.9,117.6,22.9z M17.6,6.3L0,34.7h122.4L140,6.3H17.6z M121.3,31.8H4.8L18.7,9.2h116.5L121.3,31.8z"/>
</svg>
