<svg xmlns="http://www.w3.org/2000/svg" width="140" height="41" viewBox="0 0 140 41"><g transform="translate(-19024 409)"><g transform="translate(19030 -399)"><path d="M117.1,9.8a72.255,72.255,0,0,0,.84,11.556H112.5s-1.24-1.471-2.605-3.152c-.788-.977-8.93-11.556-9.76-12.806-.315-.441-.8-.263-.84.273s-.357,5.82-.221,9.823c-.116-3.456,0,4.517.756,5.862H94.16c.819-1.5.756-9.161.693-5.789,0-2.721.105-6.4.074-8.026A54.121,54.121,0,0,0,94.213.12h7.858A6.3,6.3,0,0,0,103,2.1c6.02,8.909,8.9,12.817,9.676,12.607.221,0,.221-.347.221-.746s.326-4.591.189-8.814V4.826S112.9,1.044,112.408.12h5.662C117.335,1.475,117.1,8.335,117.1,9.8Z" transform="translate(4.76 0.006)" fill="#fff"/><path d="M80.494,21.792a23.763,23.763,0,0,1-8.4-1.334A5.074,5.074,0,0,1,69,15.836c-.179-1.5,0-4.8.084-9.15,0,2.217.168-4.875-.735-6.555h5.673c-.515.956-.683,4.738-.683,4.738a72.623,72.623,0,0,0,0,9.455c.221,3.288,1.986,3.782,3.225,4.139a16.872,16.872,0,0,0,4.034.483h0a16.988,16.988,0,0,0,4.024-.483c1.229-.357,3-.851,3.214-4.139a72.626,72.626,0,0,0,0-9.455s-.315-3.824-.83-4.738h5.673c-.914,1.681-.7,8.772-.746,6.555.095,4.349.263,7.648.095,9.15a5.064,5.064,0,0,1-3.152,4.622,23.637,23.637,0,0,1-8.4,1.334Z" transform="translate(3.455 0.007)" fill="#fff"/><path d="M53.508,21.4h5.673c-.8-1.471-1.051-8.2-1.051-8.814V4.1s-.095-.714,1.145-.84a52.937,52.937,0,0,1,7.732.084L67.249.15H45.45l.137,3.2a52.937,52.937,0,0,1,7.732-.084c1.229.126,1.145.84,1.145.84V12.6C54.506,13.461,54.432,19.659,53.508,21.4Z" transform="translate(2.298 0.008)" fill="#fff"/><path d="M36.486,3.251a4.433,4.433,0,0,0-.767,1.177,88.561,88.561,0,0,0-4.2,9.045c-1.5,3.772-2.731,7.942-2.731,7.942H17.04l-7.659-6.24c-.7-.578-2.469-2.049-2.91-2.353s-1.366-.357-1.366.441v3.393c0,.116.179,3.793.693,4.749H.179A72.487,72.487,0,0,0,1.051,9.785C1.051,8.325.735,1.486,0,.12H5.894c-.851,1.6-.767,9.329-.7,5.232,0,3.068,0,3.288.3,3.33a3.026,3.026,0,0,0,2.259-.935c1.051-.935,5.831-4.843,6.4-5.379S15.758.7,16.315.12h7.732S19.96,2.589,16.41,5.247s-5.7,4.412-6.051,4.727,0,.882.662,1.418,7.89,6.461,10.2,7.732a11.671,11.671,0,0,0,2.1,1.219c.389,0,3.551-5.494,5.694-10.127.672-1.471,3.614-8.4,3.519-10.075h8.4c-.095,1.712,2.858,8.615,3.53,10.075a81.5,81.5,0,0,0,6.3,11.209H44.733S43.5,17.223,42,13.483a88.562,88.562,0,0,0-4.2-9.045,4.433,4.433,0,0,0-.756-1.177.378.378,0,0,0-.273-.116A.357.357,0,0,0,36.486,3.251Z" transform="translate(0 0.006)" fill="#fff"/><path d="M117.84,2.1a2.1,2.1,0,1,1,2.1,2.1,2.1,2.1,0,0,1-2.1-2.1Zm2.1,1.723A1.66,1.66,0,0,0,121.59,2.1a1.67,1.67,0,1,0-1.66,1.681Zm-.441-.536h-.357V.872h.9c.567,0,.84.21.84.672a.62.62,0,0,1-.62.662l.683,1.051h-.41l-.62-1.051h-.42Zm.431-1.334c.3,0,.578,0,.578-.389s-.263-.347-.515-.347H119.5v.735Z" transform="translate(5.957)" fill="#fff"/></g><rect width="140" height="41" transform="translate(19024 -409)" fill="none"/></g></svg>