<svg xmlns="http://www.w3.org/2000/svg" width="140" height="41" viewBox="0 0 140 41"><g transform="translate(-19024 461)"><g transform="translate(19034 -457)"><ellipse cx="17.586" cy="16.063" rx="17.586" ry="16.063" transform="translate(0.449 0.449)" fill="none"/><path d="M18.035,0C8.091,0,0,7.407,0,16.512S8.091,33.025,18.035,33.025,36.07,25.617,36.07,16.512h0C36.07,7.407,27.98,0,18.035,0Zm6.18,2.16a16.753,16.753,0,0,1,7.81,5.813h-7.81ZM11.8,2.16V7.973H3.989A16.753,16.753,0,0,1,11.8,2.16Zm0,28.652a16.5,16.5,0,0,1-8.259-6.43L11.8,16.821Zm-9.72-9.362A14.128,14.128,0,0,1,2.3,11.06H13.484ZM20.114,31.79a14.454,14.454,0,0,1-2.079.1c-.674,0-1.4-.051-2.079-.1V1.235a18.725,18.725,0,0,1,4.158,0Zm4.1-.977V16.821l8.259,7.562A16.267,16.267,0,0,1,24.215,30.813Zm-1.629-19.8H33.767A14.128,14.128,0,0,1,33.991,21.4Z" fill="#fff"/><path d="M81.6,21.2h3.764v4.607L89.3,21.2h5l-4.439,4.607,4.663,7.585H89.915l-2.584-5-1.966,2.023v2.978H81.6Z" transform="translate(-35.754 -10.808)" fill="#fff"/><path d="M114.822,21.156h3.764v7.3a6.113,6.113,0,0,1-.337,2.023,4.113,4.113,0,0,1-1.068,1.686,4.49,4.49,0,0,1-1.517,1.011,7.017,7.017,0,0,1-2.641.393c-.674,0-1.292-.056-1.966-.112a4.481,4.481,0,0,1-1.742-.506,3.991,3.991,0,0,1-1.292-1.067,3.489,3.489,0,0,1-.787-1.4A6.447,6.447,0,0,1,106.9,28.4V21.1h3.764v7.473a2.1,2.1,0,0,0,.562,1.573,2.374,2.374,0,0,0,3.034,0,2.1,2.1,0,0,0,.562-1.573Z" transform="translate(-46.839 -10.776)" fill="#fff"/><path d="M132.2,33.381V21.189h6.293a8.822,8.822,0,0,1,2.7.281,2.946,2.946,0,0,1,1.461,1.124,3.485,3.485,0,0,1,.562,1.966,3.294,3.294,0,0,1-1.629,2.978,4.8,4.8,0,0,1-1.348.506,7.959,7.959,0,0,1,1.011.449,3.22,3.22,0,0,1,.618.618,2.356,2.356,0,0,1,.506.787l1.854,3.54h-4.27l-2.023-3.708a3.691,3.691,0,0,0-.674-.955,1.865,1.865,0,0,0-.9-.281h-.337v4.944Zm3.821-7.248h1.573a3.181,3.181,0,0,0,1.011-.169,1.068,1.068,0,0,0,.618-.393,1.351,1.351,0,0,0-.112-1.629,2.483,2.483,0,0,0-1.4-.337h-1.686Z" transform="translate(-57.924 -10.8)" fill="#fff"/><path d="M154.4,27.149a6.244,6.244,0,0,1,1.686-4.663,6.332,6.332,0,0,1,4.663-1.686,6.591,6.591,0,0,1,4.719,1.629,6.083,6.083,0,0,1,1.629,4.607,7.707,7.707,0,0,1-.73,3.54,5.075,5.075,0,0,1-2.079,2.135,6.435,6.435,0,0,1-3.371.73,7.205,7.205,0,0,1-3.427-.674,5.207,5.207,0,0,1-2.191-2.079A6.528,6.528,0,0,1,154.4,27.149Zm3.764,0a4.032,4.032,0,0,0,.674,2.641,2.632,2.632,0,0,0,3.652.112c.056,0,.056-.056.112-.112a4.445,4.445,0,0,0,.674-2.865A4,4,0,0,0,162.6,24.4a2.224,2.224,0,0,0-1.91-.787,2.548,2.548,0,0,0-1.854.787,4.624,4.624,0,0,0-.674,2.753Z" transform="translate(-67.647 -10.633)" fill="#fff"/><path d="M180.5,21.2h3.764v4.607L188.2,21.2h5l-4.439,4.607,4.663,7.585h-4.663l-2.528-5-1.966,2.023v2.978H180.5Z" transform="translate(-79.088 -10.808)" fill="#fff"/><path d="M206.1,21.2h3.764V33.392H206.1Z" transform="translate(-90.304 -10.808)" fill="#fff"/></g><rect width="140" height="41" transform="translate(19024 -461)" fill="none"/></g></svg>