<svg xmlns="http://www.w3.org/2000/svg" width="140" height="41"><g transform="translate(10 4)"><ellipse cx="17.586" cy="16.063" rx="17.586" ry="16.063" transform="translate(.449 .449)" fill="none"/><path d="M18.035 0C8.091 0 0 7.407 0 16.512s8.091 16.513 18.035 16.513S36.07 25.617 36.07 16.512 27.98 0 18.035 0zm6.18 2.16a16.753 16.753 0 017.81 5.813h-7.81zm-12.415 0v5.813H3.989A16.753 16.753 0 0111.8 2.16zm0 28.652a16.5 16.5 0 01-8.259-6.43l8.259-7.561zM2.08 21.45a14.128 14.128 0 01.22-10.39h11.184zm18.034 10.34a14.454 14.454 0 01-2.079.1c-.674 0-1.4-.051-2.079-.1V1.235a18.725 18.725 0 014.158 0zm4.1-.977V16.821l8.259 7.562a16.267 16.267 0 01-8.258 6.43zm-1.629-19.8h11.182a14.128 14.128 0 01.224 10.387zm23.261-.621h3.764v4.607l3.936-4.607h5l-4.439 4.607 4.663 7.585h-4.609l-2.584-5-1.966 2.023v2.978h-3.765zm22.137-.012h3.764v7.3a6.113 6.113 0 01-.337 2.023 4.113 4.113 0 01-1.068 1.686 4.49 4.49 0 01-1.517 1.011 7.017 7.017 0 01-2.641.393c-.674 0-1.292-.056-1.966-.112a4.481 4.481 0 01-1.742-.506 3.991 3.991 0 01-1.292-1.067 3.489 3.489 0 01-.787-1.4 6.447 6.447 0 01-.336-2.084v-7.3h3.764v7.473a2.1 2.1 0 00.562 1.573 2.374 2.374 0 003.034 0 2.1 2.1 0 00.562-1.573zm6.293 12.201V10.389h6.293a8.822 8.822 0 012.7.281 2.946 2.946 0 011.461 1.124 3.485 3.485 0 01.562 1.966 3.294 3.294 0 01-1.629 2.978 4.8 4.8 0 01-1.348.506 7.959 7.959 0 011.011.449 3.22 3.22 0 01.618.618 2.356 2.356 0 01.506.787l1.854 3.54h-4.27l-2.023-3.708a3.691 3.691 0 00-.674-.955 1.865 1.865 0 00-.9-.281H78.1v4.944zm3.821-7.248h1.573a3.181 3.181 0 001.011-.169 1.068 1.068 0 00.618-.393 1.351 1.351 0 00-.112-1.629 2.483 2.483 0 00-1.4-.337h-1.686zm8.656 1.183a6.244 6.244 0 011.686-4.663 6.332 6.332 0 014.663-1.686 6.591 6.591 0 014.719 1.629 6.083 6.083 0 011.629 4.607 7.707 7.707 0 01-.73 3.54 5.075 5.075 0 01-2.079 2.135 6.435 6.435 0 01-3.371.73 7.205 7.205 0 01-3.427-.674 5.207 5.207 0 01-2.191-2.079 6.528 6.528 0 01-.899-3.539zm3.764 0a4.032 4.032 0 00.674 2.641 2.632 2.632 0 003.652.112c.056 0 .056-.056.112-.112a4.445 4.445 0 00.674-2.865 4 4 0 00-.676-2.525 2.224 2.224 0 00-1.91-.787 2.548 2.548 0 00-1.854.787 4.624 4.624 0 00-.674 2.753zm10.895-6.124h3.764v4.607l3.936-4.607h5l-4.439 4.607 4.663 7.585h-4.663l-2.528-5-1.966 2.023v2.978h-3.767zm14.384 0h3.764v12.192h-3.764z" fill="#fff"/></g><path fill="none" d="M0 0h140v41H0z"/></svg>