<svg xmlns="http://www.w3.org/2000/svg" width="140" height="41" viewBox="0 0 140 41"><g transform="translate(-19024 504)"><g transform="translate(19030 -499)"><g transform="translate(0 0)"><path d="M97.352,38.443a5.26,5.26,0,0,0-.021-.586,2.77,2.77,0,0,0-.069-.475,1.345,1.345,0,0,0-.437-.721,1.414,1.414,0,0,0-.908-.281,2.374,2.374,0,0,0-.648.09,3.622,3.622,0,0,0-.662.256,3.813,3.813,0,0,0-.627.405,3.909,3.909,0,0,0-.541.53v6.748h-2.4V38.443a5.258,5.258,0,0,0-.021-.586,2.771,2.771,0,0,0-.069-.475,1.386,1.386,0,0,0-.43-.721,1.414,1.414,0,0,0-.915-.281,2.391,2.391,0,0,0-.648.09,3.622,3.622,0,0,0-.662.256,3.812,3.812,0,0,0-.627.405,3.91,3.91,0,0,0-.541.53v6.748h-2.4v-9.8h1.982l.222,1.386h.042a3.508,3.508,0,0,1,.537-.6,3.642,3.642,0,0,1,.731-.516,4.447,4.447,0,0,1,.9-.347,3.878,3.878,0,0,1,1.04-.135,3.528,3.528,0,0,1,1.733.43A2.773,2.773,0,0,1,93.1,36.169h.045a4.852,4.852,0,0,1,.634-.717,3.753,3.753,0,0,1,.773-.558,4.034,4.034,0,0,1,1.962-.5,3.421,3.421,0,0,1,1.764.44,2.9,2.9,0,0,1,1.106,1.154,2.425,2.425,0,0,1,.17.419,3.687,3.687,0,0,1,.118.509,6.243,6.243,0,0,1,.066.627c0,.232.021.492.021.79v6.072h-2.4Z" transform="translate(-55.365 -24.03)" fill="#fff"/><path d="M134.21,21h2.4v8.831h.052l3.715-3.979h2.967l-4.287,4.606,4.329,5.2h-2.9L136.65,31.1h-.042v4.561h-2.4Z" transform="translate(-87.696 -14.906)" fill="#fff"/><path d="M173.62,21h2.516v2.6H173.62Zm.059,4.852h2.4v9.8h-2.4Z" transform="translate(-113.448 -14.906)" fill="#fff"/><path d="M199.395,38.442a5.254,5.254,0,0,0-.021-.586,2.749,2.749,0,0,0-.073-.475,1.338,1.338,0,0,0-.433-.721,1.424,1.424,0,0,0-.911-.281,2.367,2.367,0,0,0-.645.09,3.654,3.654,0,0,0-.665.256,3.733,3.733,0,0,0-1.168.936v6.748H193.1V38.442a5.258,5.258,0,0,0-.021-.586,2.755,2.755,0,0,0-.073-.475,1.334,1.334,0,0,0-.43-.721,1.414,1.414,0,0,0-.915-.281,2.367,2.367,0,0,0-.645.09,3.653,3.653,0,0,0-.665.256,3.732,3.732,0,0,0-1.168.936v6.748H186.79v-9.8h1.982l.2,1.386h.042a3.467,3.467,0,0,1,.534-.6,3.666,3.666,0,0,1,.735-.516,4.367,4.367,0,0,1,.9-.347,3.878,3.878,0,0,1,1.04-.135,3.521,3.521,0,0,1,1.733.43,2.773,2.773,0,0,1,1.178,1.341h.042a4.63,4.63,0,0,1,.631-.717,3.851,3.851,0,0,1,.773-.558,4.034,4.034,0,0,1,1.962-.5,3.424,3.424,0,0,1,1.768.44,2.9,2.9,0,0,1,1.106,1.154,2.429,2.429,0,0,1,.173.419,3.685,3.685,0,0,1,.118.509,6.282,6.282,0,0,1,.062.627c0,.232.021.492.021.79v6.072H199.4Z" transform="translate(-122.053 -24.03)" fill="#fff"/><path d="M240.811,43.308h-.042a4.134,4.134,0,0,1-.485.437,4.406,4.406,0,0,1-.645.419,3.878,3.878,0,0,1-.811.319,3.677,3.677,0,0,1-.96.121,3.843,3.843,0,0,1-1.307-.218,2.973,2.973,0,0,1-1.04-.627,2.911,2.911,0,0,1-.693-.991,3.268,3.268,0,0,1-.25-1.3,3.307,3.307,0,0,1,.291-1.414,2.977,2.977,0,0,1,.8-1.064,3.57,3.57,0,0,1,1.234-.662A5.2,5.2,0,0,1,238.5,38.1a7.663,7.663,0,0,1,1.171.083,8.187,8.187,0,0,1,.95.177v-.381a1.945,1.945,0,0,0-.118-.662,1.442,1.442,0,0,0-.374-.565,1.792,1.792,0,0,0-.672-.4,3.077,3.077,0,0,0-1.012-.146,6.716,6.716,0,0,0-1.457.16,11.935,11.935,0,0,0-1.576.485V34.987a7.717,7.717,0,0,1,1.567-.5,8.834,8.834,0,0,1,1.733-.184,5.989,5.989,0,0,1,1.875.263,3.971,3.971,0,0,1,1.348.724,2.932,2.932,0,0,1,.807,1.085A3.417,3.417,0,0,1,243,37.746v3.691c0,.648,0,1.206.021,1.67s.028.88.042,1.244H240.9Zm-.191-3.119c-.229-.055-.492-.1-.79-.149a6.487,6.487,0,0,0-.9-.066,2.426,2.426,0,0,0-1.386.347,1.206,1.206,0,0,0-.509,1.067,1.386,1.386,0,0,0,.114.582,1.2,1.2,0,0,0,.315.409,1.362,1.362,0,0,0,.461.243,1.82,1.82,0,0,0,.555.08,2.45,2.45,0,0,0,.693-.094,3.119,3.119,0,0,0,.6-.246,2.926,2.926,0,0,0,.489-.326,3.693,3.693,0,0,0,.371-.347Z" transform="translate(-153.28 -23.986)" fill="#fff"/><path d="M270.367,44.566v-.5a2.738,2.738,0,0,1,.028-.5h-.021a4.553,4.553,0,0,1-.513.347,4.31,4.31,0,0,1-.631.326,4.159,4.159,0,0,1-.759.232,4.273,4.273,0,0,1-2.371-.191,3.581,3.581,0,0,1-1.32-.88,4.468,4.468,0,0,1-.929-1.542,6.376,6.376,0,0,1-.347-2.267,6.852,6.852,0,0,1,.347-2.322,5.041,5.041,0,0,1,.957-1.664,3.961,3.961,0,0,1,2.963-1.345,3.327,3.327,0,0,1,1.6.378,3.545,3.545,0,0,1,1.144.967h.038l.1-1.1h2.1v9.981a6.717,6.717,0,0,1-.139,1.476,4.022,4.022,0,0,1-.416,1.1,3.624,3.624,0,0,1-.825.97,4.478,4.478,0,0,1-1.144.693,6.322,6.322,0,0,1-1.411.409,9.056,9.056,0,0,1-1.629.139,8.6,8.6,0,0,1-.95-.035c-.312-.035-.6-.059-.873-.1s-.523-.094-.749-.149a5.8,5.8,0,0,1-.572-.177V46.857a8.517,8.517,0,0,0,1.386.347,9.982,9.982,0,0,0,1.542.118,4.259,4.259,0,0,0,2.488-.624,2.156,2.156,0,0,0,.88-1.885Zm-2.145-1.913a2.63,2.63,0,0,0,.693-.09,3.382,3.382,0,0,0,.6-.232,3.138,3.138,0,0,0,.86-.658V37.288a3.168,3.168,0,0,0-.95-.759,2.585,2.585,0,0,0-1.206-.315,2.288,2.288,0,0,0-.468.055,1.937,1.937,0,0,0-.981.579,2.182,2.182,0,0,0-.4.6,3.892,3.892,0,0,0-.263.88,5.892,5.892,0,0,0-.107,1.175,5.652,5.652,0,0,0,.142,1.32,2.909,2.909,0,0,0,.426.991,1.9,1.9,0,0,0,.693.624,2.08,2.08,0,0,0,.967.222Z" transform="translate(-172.179 -24.353)" fill="#fff"/><path d="M296.08,21h2.52v2.6h-2.52Zm.059,4.852h2.4v9.8h-2.4Z" transform="translate(-193.466 -14.906)" fill="#fff"/><path d="M311.4,35.994h.041a3.508,3.508,0,0,1,.537-.6,3.6,3.6,0,0,1,.738-.516,4.339,4.339,0,0,1,.915-.347A4.077,4.077,0,0,1,314.7,34.4a4.464,4.464,0,0,1,1.04.121,3.147,3.147,0,0,1,.915.378,2.838,2.838,0,0,1,.731.669,3.1,3.1,0,0,1,.5.977,3.357,3.357,0,0,1,.135.693c.024.246.035.53.035.853v6.322h-2.395V38.42a6.224,6.224,0,0,0-.031-.676,2.078,2.078,0,0,0-.111-.5,1.237,1.237,0,0,0-.551-.669,1.833,1.833,0,0,0-.894-.2,2.863,2.863,0,0,0-1.341.347,3.435,3.435,0,0,0-1.137.953v6.734h-2.4v-9.8h1.982Z" transform="translate(-202.039 -24.032)" fill="#fff"/><path d="M346.071,44.605v-.5a3.119,3.119,0,0,1,.024-.5h-.024a4.957,4.957,0,0,1-1.14.693,4.27,4.27,0,0,1-3.119.042,3.539,3.539,0,0,1-1.317-.88,4.47,4.47,0,0,1-.932-1.542,6.461,6.461,0,0,1-.347-2.267,6.856,6.856,0,0,1,.347-2.322,5.044,5.044,0,0,1,.957-1.664,3.975,3.975,0,0,1,2.963-1.345,3.327,3.327,0,0,1,1.6.378,3.508,3.508,0,0,1,1.144.967h.041l.1-1.1h2.1v9.981a6.7,6.7,0,0,1-.142,1.476,4.02,4.02,0,0,1-.412,1.1,3.689,3.689,0,0,1-.825.97,4.6,4.6,0,0,1-1.144.693,6.376,6.376,0,0,1-1.411.409,9.083,9.083,0,0,1-1.629.139,8.57,8.57,0,0,1-.95-.035c-.308-.035-.6-.059-.877-.1s-.523-.094-.749-.149a5.8,5.8,0,0,1-.572-.177V46.9a8.562,8.562,0,0,0,1.4.347,9.982,9.982,0,0,0,1.542.118,4.242,4.242,0,0,0,2.485-.624,2.145,2.145,0,0,0,.88-1.892Zm-2.142-1.913a2.585,2.585,0,0,0,.693-.09,3.281,3.281,0,0,0,.6-.232,2.771,2.771,0,0,0,.492-.315,2.735,2.735,0,0,0,.367-.347V37.327a3.167,3.167,0,0,0-.95-.759,2.582,2.582,0,0,0-1.2-.315,2.323,2.323,0,0,0-.471.055,1.873,1.873,0,0,0-.5.2,2.028,2.028,0,0,0-.482.381,2.176,2.176,0,0,0-.4.6,3.893,3.893,0,0,0-.277.87,5.635,5.635,0,0,0-.107,1.175,5.468,5.468,0,0,0,.142,1.32,2.973,2.973,0,0,0,.423.991,1.921,1.921,0,0,0,.693.624,2.079,2.079,0,0,0,.97.232Z" transform="translate(-221.651 -24.396)" fill="#fff"/><path d="M126.8,30.15c-90.279.11-105.012-9.984-105.012-16.4,0-7.8,20.382-13.906,105.012-11.83l1.161.028h-.042C24.26-4.052,0,4.972,0,13.334,0,20.21,11.5,32.018,127.917,30.15ZM3.909,15.75a2.193,2.193,0,0,1-2.287-2.084,2.194,2.194,0,0,1,2.292-2.08A2.194,2.194,0,0,1,6.2,13.668a1.991,1.991,0,0,1-.672,1.473,2.413,2.413,0,0,1-1.622.609Zm6.977,0a2.2,2.2,0,0,1-2.3-2.074,2.192,2.192,0,0,1,2.279-2.09,2.2,2.2,0,0,1,2.3,2.069,1.988,1.988,0,0,1-.664,1.478,2.411,2.411,0,0,1-1.62.616Zm6.977,0a2.194,2.194,0,0,1-2.291-2.082,2.194,2.194,0,0,1,2.291-2.082,2.194,2.194,0,0,1,2.291,2.082,2.194,2.194,0,0,1-2.291,2.082Z" transform="translate(0 -0.003)" fill="#fff"/></g></g><rect width="140" height="41" transform="translate(19024 -504)" fill="none"/></g></svg>