<?xml version="1.0" encoding="utf-8"?>
<!-- Generator: Adobe Illustrator 25.0.0, SVG Export Plug-In . SVG Version: 6.00 Build 0)  -->
<svg version="1.1" id="Слой_1" xmlns="http://www.w3.org/2000/svg" xmlns:xlink="http://www.w3.org/1999/xlink" x="0px" y="0px"
	 viewBox="0 0 182.1 41" style="enable-background:new 0 0 182.1 41;" xml:space="preserve">
<style type="text/css">
	.st0{fill:#FFFFFF;}
</style>
<path class="st0" d="M58.3,26.6h2.5l-1.8,12.2h-2.9l-1.9-4.7c-0.6-1.4-1.1-2.8-1.5-4.3l-0.1,0c-0.2,1.6-0.4,3.3-0.7,5.3l-0.5,3.7H49
	l1.8-12.2H54l1.9,4.5c0.6,1.4,1,2.8,1.4,4.2h0.1c0.1-1.7,0.2-3.4,0.5-5.1L58.3,26.6z M40.6,38.8h2.8l1.8-12.2h-2.8L40.6,38.8z
	 M49.6,16.2h12.8L61,22.9h0l-0.2,0.8l-1.6-0.3l0.1-0.4h-9.5l-0.2,0.8l-1.6-0.3l0.2-0.8L49.6,16.2z M50.2,21.3h9.5l0.2-0.9h-9.5
	L50.2,21.3z M50.9,17.8l-0.2,1h9.5l0.2-1H50.9z M158.1,18.3l-5.1,0.9l0.9-4.2h5.4v-1.6h-5l0.7-3.3l5.6-0.8l-0.2-1.6l-6.7,1L151,21.3
	l7.4-1.3L158.1,18.3z M0,12.5c1.9-1,3.9-1.8,5.9-2.5c1.2-0.4,2.3-0.7,3.5-1V8.1C6.1,9.3,3,10.8,0,12.5z M9.4,38.8h8.5v-11
	c-2.8,1-5.6,1.7-8.5,2.3V38.8z M36,27.4c0.7,0.7,1,1.6,0.8,2.6c-0.3,1.4-1.2,2.5-2.6,3l0,0.1c0.8,0.3,1.2,1.2,1.3,2.3
	c0.1,1.2,0.3,2.3,0.5,3.4h-2.8c-0.2-0.9-0.4-1.9-0.4-2.8c-0.1-1.5-0.6-1.9-1.7-2h-0.8l-0.7,4.8h-2.7l1.7-12c1.2-0.2,2.5-0.3,3.7-0.3
	C34,26.5,35.2,26.7,36,27.4z M32.2,28.5c-0.4,0-0.8,0-1.3,0.1L30.4,32h1.1c1.2,0.2,2.2-0.6,2.4-1.8C34.1,29.1,33.5,28.5,32.2,28.5z
	 M6.2,30.5c1.1-0.2,2.1-0.3,3.2-0.5v-0.2C8.3,30.1,7.3,30.3,6.2,30.5z M16.5,5.8H9.4v2.3c0.6-0.2,1.3-0.5,1.9-0.7
	C13,6.8,14.8,6.2,16.5,5.8z M40.8,8.5c-1.7-4.9-12.1-5.9-24.4-2.7h1.4v1.9c6-0.2,10.5,1.5,11.7,4.7C31,16.7,26,22.5,17.9,26.6v1.1
	c0.1,0,0.2-0.1,0.4-0.1C32.7,22.6,42.8,14.1,40.8,8.5z M17.9,26.6V7.7c-2.6,0.1-5.5,0.5-8.5,1.3v20.9c1-0.3,2-0.6,3-0.9
	C14.3,28.2,16.2,27.4,17.9,26.6z M78.6,18.2L76.8,16l-1.3,1l1.7,2.3L78.6,18.2z M115.7,10.9h2.9V9.3H116l0.4-1.9l-1.6-0.3l-0.5,2.2
	H111v1.6h3.1l-0.3,1.3h-5.1v1.6h7.3c-0.1,0.7-0.3,1.6-0.5,2.5h-7.6v1.6h7.1c-0.8,2.5-2.1,4.9-3.7,4.9v1.6c2.8,0,4.5-3.4,5.4-6.5h2.3
	v-1.6h-1.9c0.2-1,0.4-1.9,0.5-2.5h2.3v-1.6h-4.5L115.7,10.9z M150,38.8h2.8l1.8-12.2h-2.8L150,38.8z M59.8,13.7h4.4v1.6H48.7v-1.6h5
	c0.1-1,0.1-1.9,0.1-2.9h-2.2l0.5,1l-1.4,0.7L49,9.1h4.7c-0.1-1.3-0.1-1.7-0.1-1.7l1.6-0.2c0,0,0.1,0.5,0.2,1.9h4.6
	C60.7,7.5,61,7,61,7l1.4,0.8c0,0-0.2,0.4-0.7,1.4h4.6l-3.3,3.5l-1.2-1.1l0.7-0.8h-1.7C60.5,11.7,60.1,12.7,59.8,13.7z M55.2,13.7
	h2.8c0.3-1,0.7-2,1.1-2.9h-3.9C55.3,11.7,55.3,12.7,55.2,13.7z M131.1,26.6l2,12.2h-3l-0.5-3.1h-3.5l-1.3,3.1H122l5.5-12.2H131.1z
	 M129.6,33.6l-0.4-2.6c-0.1-0.7-0.2-1.6-0.3-2.4h0c-0.3,0.7-0.6,1.6-0.9,2.4l-1.1,2.6H129.6z M140.8,23.8l-0.1-1.6
	c-1.4,0.1-4.1,0-5.1-0.6c-0.7-0.4-0.9-1.3-1-1.9h7v-1.6h-6.8l0.3-1.3h7.1v-1.6h-6.8l0.3-1.3h6.2v-1.6h-5.8l0.3-1.3h7.1V9.3h-2.5
	l0.8-0.9l-1.2-1.1l-1.8,2h-5.9L132,7.5l-1.4,0.7l0.5,1.1H128v1.6h6.8l-0.3,1.3h-6.2v1.6h5.8l-0.3,1.3h-7.1v1.6h6.8l-0.3,1.3h-7.1
	v1.6h6.5c-0.4,0.8-1.1,1.4-1.9,1.8c-1.8,0.9-5.4,0.6-5.5,0.6l-0.1,1.6c0.1,0,0.5,0,1.2,0c1.7,0.1,3.4-0.2,5-0.8
	c0.8-0.4,1.4-0.9,2-1.6c0.3,0.6,0.7,1.2,1.4,1.6c1.5,0.6,3.1,0.9,4.7,0.8C140.2,23.8,140.7,23.8,140.8,23.8z M182.1,6.6
	C182.1,6.6,182.1,6.6,182.1,6.6c0,2.4-1.9,4.3-4.3,4.3c-2.4,0-4.3-1.9-4.3-4.3s1.9-4.3,4.3-4.3C180.2,2.2,182.1,4.2,182.1,6.6z
	 M181.3,6.6c0-2-1.6-3.5-3.5-3.5v0c-2,0-3.5,1.6-3.5,3.5s1.6,3.5,3.5,3.5S181.3,8.5,181.3,6.6C181.3,6.6,181.3,6.6,181.3,6.6z
	 M162.8,9.3h4l-1.6,7.5c-0.3,0.4-0.9,0.7-1.4,0.7v1.6c1.2,0,2.2-0.6,2.9-1.6l2.1-9.9h-7.3l-3.3,15.7l1.6,0.3L162.8,9.3z M179.5,8.1
	l0.6,1h-1.2L178.2,8c-0.2-0.3-0.3-0.5-0.5-0.8c-0.1-0.1-0.2-0.2-0.3-0.2c-0.2,0-0.3-0.1-0.5-0.1h-0.2v2.2l-1,0V3.9h2.2
	c0.4,0,0.8,0,1.2,0.1c0.3,0.1,0.5,0.3,0.6,0.5c0.2,0.2,0.2,0.5,0.2,0.8c0,0.4-0.1,0.7-0.3,1c-0.3,0.3-0.6,0.4-1,0.5
	c0.2,0.1,0.4,0.3,0.6,0.4C179.1,7.5,179.3,7.8,179.5,8.1z M178.3,6.1c0.1,0,0.2-0.1,0.3-0.2c0.1-0.1,0.1-0.2,0.1-0.4
	c0-0.2,0-0.3-0.1-0.4c-0.1-0.1-0.2-0.2-0.4-0.2c-0.1,0-0.3,0-0.8,0h-0.8l0,1.3h0.8C177.6,6.1,178,6.1,178.3,6.1z M167.1,30.1
	c-0.3,1.7-0.4,3.4-0.5,5.1h-0.1c-0.4-1.4-0.8-2.8-1.4-4.2l-1.9-4.5h-3.2l-1.8,12.2h2.5l0.5-3.7c0.3-2,0.5-3.7,0.7-5.3l0.1,0
	c0.4,1.5,0.9,2.9,1.5,4.3l1.9,4.7h2.9l1.8-12.2h-2.5L167.1,30.1z M142.8,29.5c-0.5,0.9-0.9,1.6-1.3,2.3h0c-0.2-0.8-0.3-1.4-0.6-2.3
	l-0.8-2.9H137l2.8,7.2l-0.7,5l2.8,0l0.7-5.1l5-7.1h-3.1L142.8,29.5z M108.9,19.1l-0.4,1.8l1.6,0.3l0.4-1.8L108.9,19.1z M77.7,38.8
	h7.8l0.3-2.3h-5l0.4-2.9h4.5l0.3-2.2h-4.5l0.4-2.5h4.8l0.3-2.3h-7.5L77.7,38.8z M65.1,28.9h3.3L67,38.8h2.8l1.4-9.9h3.3l0.3-2.3
	h-9.4L65.1,28.9z M85.7,18.1l1,1.2l2.7-2.3l-1-1.2L85.7,18.1z M85.5,19.7c-1-1.3-1.6-2.9-1.8-4.6h5.5l1.8-8.3H78.8v1.6h10.2
	l-0.4,1.8H78.1v1.6h10.2l-0.4,1.7H77.4v1.6h4.3c-1,1.7-2.3,3.2-3.8,4.5c-1.6,1.3-3.4,2.3-5.3,3.1l0.5,1.5c2.1-0.8,4-1.9,5.7-3.3
	c1.4-1.1,2.5-2.4,3.5-3.9c0.4,1.4,1,2.6,1.9,3.8c1.2,1.4,2.7,2.6,4.5,3.4l0.6-1.5C87.9,21.9,86.6,20.9,85.5,19.7z M99.8,27.4
	c0.7,0.7,1,1.6,0.8,2.6c-0.3,1.4-1.2,2.5-2.6,3l0,0.1c0.8,0.3,1.2,1.2,1.3,2.3c0.1,1.2,0.3,2.3,0.5,3.4h-2.8
	c-0.2-0.9-0.4-1.9-0.4-2.8c-0.1-1.5-0.6-1.9-1.7-2H94l-0.7,4.8h-2.7l1.7-12c1.2-0.2,2.5-0.3,3.7-0.3C97.8,26.5,99,26.7,99.8,27.4z
	 M96,28.5c-0.4,0-0.8,0-1.3,0.1L94.3,32h1.1c1.2,0.2,2.2-0.6,2.4-1.8C98,29.1,97.3,28.5,96,28.5z M113.3,30.6
	c-0.6,1.4-1.2,3-1.8,4.4h-0.1c-0.1-1.4-0.2-3-0.4-4.4l-0.6-4.1h-3.7l-2.5,12.2h2.6l0.9-4.6c0.3-1.5,0.6-3.4,0.9-5.1h0
	c0.1,1.6,0.2,3.3,0.4,4.8l0.6,4.7h2.2l2.2-4.8c0.7-1.4,1.4-3.2,2-4.7h0.1c-0.3,1.8-0.5,3.5-0.6,5l-0.5,4.7h2.7l1.1-12.2h-3.6
	L113.3,30.6z M106.6,18.6l-0.3-1.6l-1.5,0.3l0.9-4.4h2.2v-1.6H106l0.8-3.9l-1.6-0.3l-0.9,4.2h-2.2v1.6h1.9l-1,4.8l-2.2,0.5l0.3,1.6
	l1.5-0.3l-0.9,4l1.6,0.3l1-4.7L106.6,18.6z"/>
</svg>
