<svg xmlns="http://www.w3.org/2000/svg" width="140" height="41" viewBox="0 0 140 41"><g transform="translate(-19024 558)"><rect width="140" height="41" transform="translate(19024 -558)" fill="none"/><g transform="translate(19024 -558)"><path d="M674.6,205.526l1.155-2.179c.137.109.259.205.381.3a3.215,3.215,0,0,0,1.933.768,2.086,2.086,0,0,0,.856-.177.841.841,0,0,0,.09-1.545,6.492,6.492,0,0,0-1.136-.452c-.406-.145-.829-.25-1.232-.411a2.414,2.414,0,0,1-1.636-2.727c.082-2.168,1.752-3.577,4.278-3.284a6.9,6.9,0,0,1,2.592.821l-1.027,2.018a10.629,10.629,0,0,0-1.555-.547,1.807,1.807,0,0,0-1.044.179.675.675,0,0,0-.044,1.232,4.218,4.218,0,0,0,.871.38c.428.153.875.255,1.3.422a2.761,2.761,0,0,1,1.889,3.329,3.3,3.3,0,0,1-2.993,2.995,6.135,6.135,0,0,1-4.553-1.013A1.18,1.18,0,0,1,674.6,205.526Z" transform="translate(-628.445 -183.647)" fill="#fff"/><path d="M1315.242,203.113v3.2a5.805,5.805,0,0,1-4.854-.045,5.276,5.276,0,0,1-3.051-5.78,5.472,5.472,0,0,1,4.575-4.547,5.847,5.847,0,0,1,3.115.372.392.392,0,0,1,.216.278c.016.99.01,1.98.01,3.063a3.054,3.054,0,0,0-2.327-1.136,2.609,2.609,0,0,0-2.253,1.065,3.023,3.023,0,0,0,.26,3.857C1312.042,204.508,1313.629,204.4,1315.242,203.113Z" transform="translate(-1217.823 -183.735)" fill="#fff"/><path d="M875.485,252.173V251.5a2.967,2.967,0,0,1-3.49.662,3.715,3.715,0,0,1-2.22-3.61,3.818,3.818,0,0,1,1.461-2.995,3.361,3.361,0,0,1,4.222.13c.014-.194.028-.366.042-.557h2.491v7.043Zm.079-3.514a1.505,1.505,0,0,0-1.583-1.587,1.533,1.533,0,0,0-1.594,1.588,1.492,1.492,0,0,0,1.595,1.568A1.473,1.473,0,0,0,875.563,248.659Z" transform="translate(-810.262 -229.551)" fill="#fff"/><path d="M1443.636,252.062a4.721,4.721,0,0,1-3.49-1.544,3.663,3.663,0,0,1,1.17-5.549,4.916,4.916,0,0,1,4.667.028,3.655,3.655,0,0,1-.561,6.672A13.542,13.542,0,0,1,1443.636,252.062Zm-.02-2.281a1.488,1.488,0,0,0,1.606-1.556,1.529,1.529,0,0,0-1.58-1.6,1.512,1.512,0,0,0-1.6,1.574A1.472,1.472,0,0,0,1443.617,249.782Z" transform="translate(-1340.864 -229.105)" fill="#fff"/><path d="M1870.009,251.916a4.427,4.427,0,0,1-3.118-1.087,3.631,3.631,0,0,1,.616-5.816,4.863,4.863,0,0,1,4.995,0,3.379,3.379,0,0,1,1.774,3.309,3.462,3.462,0,0,1-2.109,3.147A4.87,4.87,0,0,1,1870.009,251.916Zm-.009-2.2a1.5,1.5,0,0,0,1.6-1.563,1.6,1.6,0,0,0-3.2-.012A1.493,1.493,0,0,0,1870,249.715Z" transform="translate(-1738.057 -229.034)" fill="#fff"/><path d="M1580.53,244.826h2.512v.785c.16-.145.289-.261.417-.38a2.862,2.862,0,0,1,2.95-.493,2.105,2.105,0,0,1,1.527,2.062c.08,1.659.047,3.324.06,4.987,0,.021-.018.04-.037.081h-2.507v-3.8c0-.137,0-.274-.012-.411a.988.988,0,0,0-.944-1.057,1.129,1.129,0,0,0-1.311.786,3.211,3.211,0,0,0-.125.873c-.014,1.071-.006,2.142-.006,3.216v.393h-2.522Z" transform="translate(-1472.388 -229.235)" fill="#fff"/><path d="M2009.7,196.178h-2.495V184.76h2.495Z" transform="translate(-1869.874 -173.329)" fill="#fff"/><path d="M1009.748,217.44v2.112h1.413v2.085h-1.4v4.974h-2.532v-4.953h-.812v-2.085l.792-.035v-2.1Z" transform="translate(-937.561 -203.893)" fill="#fff"/><path d="M797.348,217.39h2.532v2.121h1.407v2.07h-1.4v4.99h-2.516v-4.954l-.814-.037v-2.053l.788-.041Z" transform="translate(-742.06 -203.846)" fill="#fff"/><path d="M1708.826,219.609c.437,0,.811-.011,1.184.008.089,0,.245.111.246.174.019.623.012,1.247.012,1.9h-1.407v4.982h-2.527v-4.961h-.8v-2.087h.775V217.5h2.521Z" transform="translate(-1588.836 -203.949)" fill="#fff"/><path d="M1145.956,247.313c-1.325-.616-2.063-.558-2.654.184a1.81,1.81,0,0,0-.026,2.135c.548.733,1.338.811,2.678.243,0,.662.008,1.307-.01,1.951,0,.077-.123.187-.212.22a3.915,3.915,0,0,1-4.162-.654,3.515,3.515,0,0,1-1.095-3.817,3.578,3.578,0,0,1,2.99-2.7,3.763,3.763,0,0,1,2.245.205.354.354,0,0,1,.253.384C1145.947,246.066,1145.956,246.669,1145.956,247.313Z" transform="translate(-1062.293 -229.469)" fill="#fff"/><path d="M1788.923,253.244h-2.5v-7.059h2.495v1.009a2.686,2.686,0,0,1,1.253-.929,14.988,14.988,0,0,1,1.536-.244v2.4a9.655,9.655,0,0,0-1.127-.137,1.421,1.421,0,0,0-1.574,1.368c-.077.684-.061,1.386-.075,2.08C1788.915,252.221,1788.923,252.711,1788.923,253.244Z" transform="translate(-1664.192 -230.611)" fill="#fff"/><path d="M1089.943,255.657h-2.483V248.61h2.483Z" transform="translate(-1013.056 -233.032)" fill="#fff"/><path d="M1086.487,190.943a1.376,1.376,0,0,1-1.388-1.414,1.39,1.39,0,0,1,1.408-1.4,1.408,1.408,0,1,1-.02,2.815Z" transform="translate(-1010.857 -176.226)" fill="#fff"/><path d="M19.957,29.447c.038-.059.061-.149.116-.172.544-.219.976-.6,1.557-.8a24.617,24.617,0,0,0,2.458-1.131c.214-.1.454-.149.673-.24a2.105,2.105,0,0,0,.337-.227.9.9,0,0,0-.915.164,3.582,3.582,0,0,1-.389.169c-.118.036-.259.015-.372.06-.83.337-1.652.689-2.483,1.025a11.343,11.343,0,0,0-1.222.46c-.85.474-1.851.609-2.692,1.1-.621.365-1.284.67-1.942.976-.889.414-1.789.8-2.683,1.208-.091.041-.177.092-.274.141.088.235.256.18.416.122q1.49-.54,2.978-1.084,1.345-.492,2.687-.992c.161-.06.318-.127.479-.191l.075.161c-.309.1-.621.2-.926.314a1.114,1.114,0,0,0-.342.191c-.149.132-.231.318-.523.244-.083-.022-.241.213-.363.328.4.389.616.415.993.142a1.054,1.054,0,0,0,1.219.112.407.407,0,0,0,.523.294c.479-.073.919.411.944.954a3.769,3.769,0,0,1-.479,1.827,3.89,3.89,0,0,1-.6.976c-.354.382-.8.679-1.189,1.035-.666.615-1.3,1.255-1.971,1.868a3.792,3.792,0,0,1-1.444.931c.087-.3.65-.247.547-.619a4.808,4.808,0,0,0,.674-.522c.247-.275-.033-.932-.452-1.081a3.322,3.322,0,0,0-1.847-.042.222.222,0,0,0-.087.042c-.1.079-.205.23-.3.229a3.531,3.531,0,0,1-.679-.124c0-.043,0-.085-.008-.127a8.379,8.379,0,0,1,1.2-.245,10.371,10.371,0,0,1,1.87.02c.809.1.9.259.821.986.337-.108.42-.251.424-.607a.5.5,0,0,1,.181-.287,1.076,1.076,0,0,0-.168-1.606,1.559,1.559,0,0,0-.587-.011c-.445.023-.889.055-1.332.084l-.016.092c-.036-.069-.068-.137-.068-.138-.377.113-.719.247-1.076.318-2.131.418-4.265.822-6.4,1.233a1.819,1.819,0,0,0-.236.081c.282.282.622.208.941.182.38-.031.758-.12,1.137-.122a1.086,1.086,0,0,1,.621.2c.349.268.709.087,1.061.083a.823.823,0,0,0,.45-.132c.237-.174.4-.111.593.088-.281.117-.538.254-.431.636l-.4-.021-.045.079a1.034,1.034,0,0,0,.305.109c.318,0,.638-.031.958-.022.093,0,.182.1.274.156a1.11,1.11,0,0,1-.29.064,8.2,8.2,0,0,0-2.987.391c-1.4.4-2.784.838-4.174,1.257a3.36,3.36,0,0,1-.4.089c-.621.106-.663.045-.706-.532a2.767,2.767,0,0,1,.985-2.043c.589-.064.242-.636.565-.789L6.1,36.63l-.022-.1-.229.02a1,1,0,0,1,.43-.74.971.971,0,0,0,.22-.336c.047-.08.059-.191.125-.244.19-.156.4-.288.6-.441a.23.23,0,0,0,.088-.18c-.085-.41.223-.72.307-1.086.007-.029.029-.078.049-.08.54-.064.474-.521.637-.827a.621.621,0,0,1,.052-.071l.406.1-.216-.464c.33.117.547.191.764.272.46.171.47.167.527-.33a4.237,4.237,0,0,1-.491-.111.265.265,0,0,1-.163-.172c0-.06.086-.127.144-.186.079-.076.192-.127.251-.215a2.9,2.9,0,0,1,1.134-.837c.512-.272,1.009-.572,1.533-.821.5-.238,1.035-.422,1.551-.636q2.064-.857,4.125-1.717,3.438-1.442,6.874-2.893c.554-.234,1.095-.487,1.646-.731l-.006-.113a4.663,4.663,0,0,0-1.006-.137A25.476,25.476,0,0,0,20.01,24.6c-1.852.567-3.709,1.125-5.542,1.749-.924.314-1.779.792-2.69,1.145-1.076.421-2.174.789-3.264,1.18-1.248.445-2.491.91-3.747,1.336a6.873,6.873,0,0,1-2.583.492,6.459,6.459,0,0,1-1.232-.3,2.481,2.481,0,0,0-.417-.111c-.406-.035-.558-.2-.469-.576a2.347,2.347,0,0,1,.182-.4c.168.563.257.651.655.622-.727-.379-.58-.955-.43-1.491a5.819,5.819,0,0,1,.655-1.682,4.518,4.518,0,0,1,.492-.818l.523.53a1.622,1.622,0,0,0,.479-.013c.107-.031.173-.183.257-.281l-.083-.083.335-.093c-.43-.367.027-.663.068-1l-.65-.155.25-.214a.512.512,0,0,1-.068-.167c0-.134-.035-.347.036-.387a.7.7,0,0,1,.523-.083c.5.224.889-.018,1.358-.149l-.353-.733c-.474.03-.474.03-.554-.723l.4.064-.325-.424c.356.1.581-.156.889-.015.068.03.259-.136.363-.239.068-.067.079-.182.144-.35l.294.716c1.238-.3,2.451-.6,3.669-.881a21.035,21.035,0,0,0,3.446-1.268,4.849,4.849,0,0,1-.564-.091c-.5-.142-.908.146-1.358.241a3.664,3.664,0,0,1-.733,0,1.964,1.964,0,0,0-.424.041c-1.294.315-2.586.636-3.88.954a1.491,1.491,0,0,1-.4.044c-.237-.01-.372-.094-.244-.347a.306.306,0,0,0,.01-.263c-.205-.307-.18-.427.166-.592a.575.575,0,0,0,.159-.095c.187-.187.369-.382.572-.588l.056-.394c.559.1.934.644,1.551.382A2.586,2.586,0,0,0,8.62,18.53a5.071,5.071,0,0,0-.726-.092.584.584,0,0,0-.373.167.559.559,0,0,1-.538.212c-.039-.137-.1-.228-.079-.3a1.365,1.365,0,0,1,.224-.584c.406-.439.863-.838,1.288-1.262.093-.093.125-.237.205-.342.036-.046.132-.051.228-.084-.137-.111-.376-.2-.056-.43l.218.435c.391-.223.821-.478,1.262-.717,2.47-1.342,4.926-2.713,7.42-4.007q2.84-1.475,5.775-2.788c1.5-.668,3.069-1.2,4.6-1.806.783-.309,1.555-.644,2.331-.969.126-.053.22-.1.177-.28-.038-.159.43-.513.6-.529a4.5,4.5,0,0,0,.528-.112l-.015-.095.391.121c-.045-.114-.073-.185-.091-.232,1.035-.318,2.07-.624,3.1-.954,1.684-.541,3.361-1.1,5.043-1.645.953-.309,1.91-.607,2.863-.915.081-.026.194-.068.22-.127.15-.346.513-.235.8-.325q-.04.09-.08.183a.18.18,0,0,0,.06.014A34.524,34.524,0,0,0,47.735,0h.547a1.46,1.46,0,0,1-.211.218A7.126,7.126,0,0,1,46.091,1a8.552,8.552,0,0,0-.832.275c-.092.039-.342.015-.238.247a.727.727,0,0,1-.159.078c-.369.13-.74.258-1.109.385l.018.078,1.147-.271.055.072c-.075.064-.137.151-.227.18a11.025,11.025,0,0,0-1.072.328c-.529.238-1.026.532-1.541.8a.337.337,0,0,1-.088.047,22.6,22.6,0,0,0-2.628,1.042c-.411.113-.8.274-1.29.445a4.907,4.907,0,0,0,2.234-.24,14.109,14.109,0,0,1,1.878-.527c.156-.035.359.111.54.174l-.008,0c-.03.064-.056.191-.09.191-.174.01-.365.277-.5.031-.321.142-.634.3-.961.422-1.156.431-2.313.852-3.477,1.271a4.427,4.427,0,0,1-.458.121,1.637,1.637,0,0,0-.868.441,3.83,3.83,0,0,1-.976.563l.512.058c-.813.459-.813.459-1.105.311l.229-.161c-.028-.022-.049-.047-.057-.044a6.314,6.314,0,0,0-1.275.473l.032.082.361-.082.068.081c-.12.114-.218.271-.363.335-.842.369-1.687.733-2.545,1.065-.646.25-1.325.427-1.972.675-.7.268-1.368.6-2.067.869a3.879,3.879,0,0,1-.763.12c-.112.018-.22.05-.376.086l.21.1.034.09c-.662.231-1.326.455-1.984.7a3.445,3.445,0,0,0-.84.382,4.126,4.126,0,0,1-1.68.684,10.118,10.118,0,0,0-3.048,1.22c-.143.08-.281.167-.421.251.013.023.025.046.038.069l2.346-1.041.051.094-7.513,4.081.017.091a4.8,4.8,0,0,0,.594-.081c1.54-.4,3.075-.823,4.615-1.224.83-.216,1.674-.386,2.5-.615,1.087-.3,2.162-.636,3.24-.965a34.017,34.017,0,0,1,5.089-1.139c1.6-.232,3.176-.614,4.773-.875a23.4,23.4,0,0,1,4.429-.37,3.19,3.19,0,0,1,1.693.373.853.853,0,0,1,.436,1c-.105.334-.26.654-.393.98-.008.02-.014.051-.03.055-.6.191-.443.724-.569,1.145l-.38-.221.044-.185-.1-.037-.205.452a3.743,3.743,0,0,1-.33-.427.721.721,0,0,1-.1-.377.555.555,0,0,0-.446-.6c-.06-.019-.172-.04-.188-.017-.205.306-.454.081-.684.048-.74-.111-1.475-.261-2.219-.331-.411-.038-.576-.188-.554-.586a7.837,7.837,0,0,0-1.807.141c-.9.288-1.841.45-2.769.653-1.445.318-2.9.6-4.337.943-.954.226-1.887.525-2.829.792a6.693,6.693,0,0,0-1.054.37c.564-.185,1.193.028,1.741-.274a1.918,1.918,0,0,1,.655-.064c.154-.018.305-.055.457-.084l.034.1-4.8,1.326.025.111h.788c0-.013.021-.092.051-.218l.105.226a4.544,4.544,0,0,0,1.414-.53,3.939,3.939,0,0,1,1.319-.478c.574-.155,1.16-.273,1.745-.391,1.441-.29,2.877-.608,4.329-.837a13.441,13.441,0,0,1,1.968-.013,4.4,4.4,0,0,0,.536-.064,1.5,1.5,0,0,1,.265-.042,16.429,16.429,0,0,0,3.685-.314,2.116,2.116,0,0,1,2.04.756,1.977,1.977,0,0,1,.4.583,2.122,2.122,0,0,1,.056.668c0,.072-.044.147-.034.216a1.7,1.7,0,0,1-.462,1.286A3.784,3.784,0,0,1,37.1,19.76c-.051.031-.036.155-.051.235l.1.053c.182-.177.375-.346.544-.533.2-.215.554-.314.561-.67,0-.025.1-.078.124-.067.051.02.125.085.118.12a1.846,1.846,0,0,1-.122.357,10.21,10.21,0,0,1-.538,1.228,3.835,3.835,0,0,1-.631.641.667.667,0,0,0-.171.228,4.214,4.214,0,0,1-2.047,2.116,42.186,42.186,0,0,1-5.689,2.854c-.988.429-1.978.854-2.976,1.261-1.3.531-2.619,1.036-3.923,1.572-.88.362-1.743.759-2.615,1.138a4.138,4.138,0,0,1-.47.183c-.279.083-.31-.048-.25-.251.039-.01.061-.023.079-.019.1.022.205.047.307.071.011-.049.045-.127.029-.14a1.2,1.2,0,0,0-.284-.133,2.615,2.615,0,0,0-.311-.064l-.021-.109,1.11-.395-.452.611.086.064c.265-.134.571-.218.728-.514Z" transform="translate(-0.041)" fill="#fff"/><path d="M143.156,581.28l-.034.421a4.1,4.1,0,0,1-.426-.077.247.247,0,0,1-.137-.132.151.151,0,0,1,.068-.131C142.795,581.325,142.96,581.308,143.156,581.28Z" transform="translate(-132.808 -544.553)" fill="#fff"/><path d="M456.47,233.377c-.559.128-.684.06-.6-.277Z" transform="translate(-424.656 -218.283)" fill="#fff"/><path d="M624.584,62.612c.194-.148.392-.264.616.034l-.62-.038Z" transform="translate(-581.848 -58.186)" fill="#fff"/></g></g></svg>