<?xml version="1.0" encoding="utf-8"?>
<!-- Generator: Adobe Illustrator 25.0.0, SVG Export Plug-In . SVG Version: 6.00 Build 0)  -->
<svg version="1.1" id="Слой_1" xmlns="http://www.w3.org/2000/svg" xmlns:xlink="http://www.w3.org/1999/xlink" x="0px" y="0px"
	 viewBox="0 0 140 41" style="enable-background:new 0 0 140 41;" xml:space="preserve">
<style type="text/css">
	.st0{fill:#FFFFFF;}
</style>
<path class="st0" d="M70,0C34.7,0,6.1,9.2,6.1,20.5C6.1,31.8,34.7,41,70,41c35.3,0,63.9-9.2,63.9-20.5C133.9,9.2,105.3,0,70,0z
	 M61.2,25.7c0,2.3-0.1,4-0.2,5c-0.2,1-0.6,1.9-1.4,2.9c-0.8,1-1.7,1.8-3,2.3c-1.2,0.5-2.7,0.8-4.4,0.8c-1.9,0-3.5-0.3-4.9-0.9
	c-1.4-0.6-2.5-1.4-3.2-2.4c-0.7-1-1.1-2-1.2-3.1c-0.1-1.1-0.2-3.4-0.2-6.9V5h8.1v23.3c0,1.4,0.1,2.2,0.2,2.6
	c0.1,0.4,0.4,0.6,0.9,0.6c0.5,0,0.8-0.2,1-0.6c0.1-0.4,0.2-1.4,0.2-2.9V5h8.1V25.7z M77.3,36h-13V5h8.1v24.8h4.9V36z M97.5,18.5
	h-8.1v-5.4c0-1.6-0.1-2.5-0.3-2.9C89,9.8,88.6,9.6,88,9.6c-0.7,0-1.1,0.2-1.3,0.7c-0.2,0.5-0.3,1.5-0.3,3.1v14.4
	c0,1.5,0.1,2.5,0.3,2.9c0.2,0.5,0.6,0.7,1.2,0.7c0.6,0,1-0.2,1.2-0.7c0.2-0.5,0.3-1.5,0.3-3.2v-3.9h8.1v1.2c0,3.2-0.2,5.5-0.7,6.8
	c-0.5,1.3-1.5,2.5-3,3.5c-1.6,1-3.5,1.5-5.7,1.5c-2.4,0-4.3-0.4-5.8-1.3c-1.5-0.9-2.5-2-3-3.6c-0.5-1.5-0.7-3.8-0.7-6.8v-9.1
	c0-2.2,0.1-3.9,0.2-5c0.2-1.1,0.6-2.2,1.4-3.2c0.8-1,1.8-1.8,3.2-2.4c1.3-0.6,2.9-0.9,4.6-0.9c2.4,0,4.3,0.5,5.9,1.4
	c1.5,0.9,2.6,2.1,3,3.4c0.5,1.4,0.7,3.5,0.7,6.4V18.5z"/>
</svg>
