<?xml version="1.0" encoding="utf-8"?>
<!-- Generator: Adobe Illustrator 25.0.0, SVG Export Plug-In . SVG Version: 6.00 Build 0)  -->
<svg version="1.1" id="Слой_1" xmlns="http://www.w3.org/2000/svg" xmlns:xlink="http://www.w3.org/1999/xlink" x="0px" y="0px"
	 viewBox="0 0 140 41" style="enable-background:new 0 0 140 41;" xml:space="preserve">
<style type="text/css">
	.st0{fill:#FFFFFF;}
</style>
<path transform="translate(-1157 -308.952)" class="st0" d="M1213.4,335.1c0.1,1-0.3,1.9-0.9,2.7c-1.5,1.3-3.7,1.3-5.2,0
	c-0.7-0.7-1-1.7-0.9-2.7v-12.7h-6.4v12.4c0,1.2,0.2,2.4,0.6,3.5c0.3,0.9,0.7,1.7,1.4,2.4c0.6,0.7,1.4,1.3,2.2,1.8
	c0.9,0.5,2,0.7,3,0.8c1.1,0.1,2.2,0.2,3.3,0.2c1.5,0,3.1-0.2,4.5-0.7c1-0.4,1.9-1,2.6-1.7c0.8-0.8,1.4-1.8,1.8-2.9
	c0.4-1.1,0.6-2.3,0.6-3.5v-20.6l-6.4,3.6L1213.4,335.1z M1231.9,327.8c-1,0-2.1,0.2-3,0.6c-1,0.5-1.8,1.3-2.4,2.1v-2.5h-5.4v15.1
	h5.8V336c-0.1-1,0.1-2,0.7-2.9c0.4-0.5,1-0.8,1.7-0.8c0.6,0,1.1,0.2,1.5,0.6c0.4,0.6,0.6,1.3,0.5,2v11.8l5.8-2.5v-10.7
	c0-2-0.5-3.5-1.4-4.4C1234.7,328.3,1233.3,327.8,1231.9,327.8z M1238.2,328.2h5.8v15.1h-5.8V328.2z M1238.2,322.5h5.8v3.9h-5.8
	V322.5z M1260.1,334l-7.8-11.5h-6v20.8h6v-11.4l7.8,11.4h6.1v-23.1h-6.1V334z M1281.2,328.8c-1.6-0.7-3.4-1.1-5.1-1
	c-2.3-0.1-4.5,0.7-6.2,2.2c-1.5,1.5-2.3,3.6-2.3,5.7c0,1.5,0.4,3,1.1,4.3c0.7,1.1,1.7,2.1,2.8,2.7c1.5,0.6,3.1,0.9,4.7,0.8
	c1.8,0.1,3.6-0.2,5.3-1c1.3-0.8,2.4-1.9,3.1-3.3l-5.7-0.5c-0.3,0.4-0.6,0.7-1,1c-0.5,0.3-1.1,0.4-1.6,0.4c-0.8,0-1.6-0.3-2.2-1
	c-0.5-0.6-0.7-1.3-0.8-2.1h11.6v-0.7c0.1-1.7-0.3-3.3-1-4.8C1283.4,330.4,1282.4,329.5,1281.2,328.8z M1273.4,334.4
	c0-0.7,0.3-1.4,0.7-2c1-1.2,2.7-1.5,4-0.5c0.1,0,0.1,0.1,0.2,0.1c0.6,0.7,0.9,1.5,0.9,2.4L1273.4,334.4z M1296.3,339.1
	c-0.6,0.2-1.2,0.3-1.8,0.4c-0.4,0-0.8-0.1-1-0.5c-0.2-0.4-0.2-0.8-0.2-1.3v-5.3h3.2v-4.2h-3.2v-7.5l-5.8,3v4.6h-2.1v4.2h2.1v5.3
	c-0.1,1.2,0.1,2.5,0.5,3.6c0.3,0.7,0.8,1.3,1.5,1.7c1,0.4,2.1,0.6,3.2,0.6c1.3,0,2.7-0.2,4-0.5L1296.3,339.1z M1197.8,325.4
	c-1.8-8.6-8.9-15.2-17.6-16.2c0,0-0.1-0.1-0.1-0.1l-0.1,0.1c-1.4-0.1-2.9-0.1-4.3,0l-0.1-0.1l-0.1,0.1c-10,1.2-17.7,9.5-18,19.6
	c0,0.2,0,0.5,0,0.7c0,10.4,7.8,19.1,18.1,20.3l0.1,0.1l0.1-0.1c1.4,0.1,2.9,0.1,4.3,0l0.1,0.1l0.1-0.1c10.3-1.2,18.1-9.9,18.1-20.3
	c0-0.2,0-0.5,0-0.7C1198.1,327.6,1198,326.5,1197.8,325.4z M1194.7,326.6c-2.3,0.8-4.7,1.5-7.1,2c-0.1-2.1-0.3-4.2-0.8-6.2
	c1.9-0.4,3.8-1,5.7-1.7C1193.6,322.5,1194.3,324.5,1194.7,326.6L1194.7,326.6z M1182.9,338.4c-1.7,0.2-3.4,0.2-5.2,0.2
	s-3.5-0.1-5.2-0.2c-0.6-1.9-1.1-3.9-1.3-5.9c4.3,0.5,8.6,0.5,12.9,0C1184,334.5,1183.6,336.5,1182.9,338.4L1182.9,338.4z
	 M1178.5,346.6c-0.2,0-0.5,0-0.7,0s-0.5,0-0.7,0c-1.2-1.5-2.2-3.1-3-4.8c1.3,0.1,2.5,0.1,3.8,0.1c1.3,0,2.5,0,3.8-0.1
	C1180.7,343.5,1179.7,345.1,1178.5,346.6L1178.5,346.6z M1177.7,329.6c-2.2,0-4.4-0.1-6.6-0.4c0-2.1,0.3-4.2,0.7-6.2
	c3.9,0.6,7.9,0.6,11.8,0c0.5,2,0.7,4.1,0.7,6.2C1182.2,329.5,1180,329.6,1177.7,329.6L1177.7,329.6z M1177,312.3c0.2,0,0.5,0,0.7,0
	s0.5,0,0.7,0c1.8,2.3,3.2,4.8,4.2,7.5c-3.3,0.4-6.6,0.4-9.9,0C1173.8,317.1,1175.2,314.6,1177,312.3L1177,312.3z M1190.5,318
	c-1.5,0.5-3,1-4.6,1.3c-0.7-2.1-1.7-4.2-2.9-6.1C1185.9,314,1188.5,315.7,1190.5,318L1190.5,318z M1172.5,313.1
	c-1.2,1.9-2.2,4-2.9,6.1c-1.5-0.3-3.1-0.8-4.6-1.3C1167,315.7,1169.6,314,1172.5,313.1L1172.5,313.1z M1168.6,322.4
	c-0.5,2-0.7,4.1-0.8,6.2c-2.4-0.5-4.8-1.2-7.1-2c0.3-2.1,1.1-4.1,2.2-5.9C1164.8,321.4,1166.7,322,1168.6,322.4L1168.6,322.4z
	 M1160.6,330c2.4,0.8,4.9,1.5,7.4,2c0.2,2,0.5,4,1.1,6c-2.3-0.4-4.7-0.9-7-1.5C1161.2,334.4,1160.6,332.2,1160.6,330z M1164.6,340.5
	c1.9,0.4,3.7,0.7,5.7,1c0.6,1.5,1.4,3,2.2,4.4C1169.4,344.8,1166.7,343,1164.6,340.5L1164.6,340.5z M1183,345.8
	c0.9-1.4,1.6-2.9,2.2-4.4c1.9-0.2,3.8-0.6,5.7-1C1188.8,342.9,1186.1,344.8,1183,345.8L1183,345.8z M1186.5,338c0.6-2,0.9-4,1.1-6
	c2.5-0.5,5-1.1,7.4-2c-0.1,2.2-0.6,4.4-1.5,6.5C1191.1,337.1,1188.8,337.6,1186.5,338L1186.5,338z"/>
</svg>
