<?xml version="1.0" encoding="utf-8"?>
<!-- Generator: Adobe Illustrator 25.0.0, SVG Export Plug-In . SVG Version: 6.00 Build 0)  -->
<svg version="1.1" id="Слой_1" xmlns="http://www.w3.org/2000/svg" xmlns:xlink="http://www.w3.org/1999/xlink" x="0px" y="0px"
	 viewBox="0 0 140 41" style="enable-background:new 0 0 140 41;" xml:space="preserve">
<style type="text/css">
	.st0{fill:#FFFFFF;}
</style>
<path transform="translate(-4306.451 -2908.979)" class="st0" d="M4365.1,2935.3h-6.2v3.1h6.1v8.3h-4.8c-0.9,0-1.7-0.8-1.7-1.7
	c0-0.9,0.7-1.6,1.7-1.7h1.3v-3.1h-1.3c-2.7,0-4.8,2.2-4.8,4.9c0,2.6,2.2,4.8,4.8,4.8h7.9v-11.6
	C4368.2,2936.6,4366.8,2935.3,4365.1,2935.3z M4346.7,2942.8c0.4-2.6,1.7-3.9,4.9-4.2c-1.4,2.8-2.4,4.9-2.4,4.9l2.8,1.4
	c0,0,1.6-3.3,3.6-7.3l1.1-2.3h-2.5c-2.9,0-9.7,0-10.7,7.1c-0.5,3.1,1.2,6.2,4.2,7.4l0.3,0.1h6.3v-3.1h-5.6
	C4348,2946.4,4346.4,2945.3,4346.7,2942.8z M4392,2944.8c0,0,1.6-3.3,3.6-7.3l1.1-2.3h-2.5c-2.9,0-9.7,0-10.7,7.1
	c-0.5,3.1,1.2,6.2,4.2,7.4l0.3,0.1h6.3v-3.1h-5.6c-0.6-0.3-2.2-1.4-1.9-3.9c0.4-2.6,1.7-3.9,4.9-4.2c-1.4,2.8-2.4,4.9-2.4,4.9
	L4392,2944.8z M4371.6,2949.9h3.7l8.9-14.6h-3.7l-3.9,6.3l-4.1-6.3h-3.7l6,9.3L4371.6,2949.9z M4337.5,2949.9l7.5-14.6h-3.5
	l-4.5,8.8l-4.5-8.8h-3.5l7.5,14.6H4337.5z M4395.8,2909.1l12.8,8.4l-9.5,21.9l25-30.3H4395.8z M4408.1,2935.6h-0.7v0.6h-4.1v0.7h4.1
	v0.6h-2.9v3.2h2.9v0.7h-3.6v0.7h8v-0.7h-0.4c-0.3-0.2-0.6-0.4-0.7-0.7h0.4v-3.2h-2.9v-0.6h4.1v-0.7h-4.1V2935.6z M4407.4,2938.3v0.5
	h-2.2v-0.5H4407.4z M4405.2,2940v-0.5h2.2v0.5H4405.2z M4410.3,2940h-2.2v-0.5h2.2V2940z M4410.3,2941.5h-2.1v-0.7h1.8
	C4410,2941,4410.1,2941.3,4410.3,2941.5L4410.3,2941.5z M4410.3,2938.3v0.5h-2.2v-0.5H4410.3z M4403.3,2944.8l0.5,0.6
	c0.7-0.6,1.1-1.9,1.2-2.1l-0.7-0.2C4404.1,2943.7,4403.7,2944.3,4403.3,2944.8z M4411,2942.7l-0.5,0.5c0.4,0.4,0.7,0.8,0.9,1.3
	l0.7-0.3C4411.9,2943.7,4411.5,2943.1,4411,2942.7z M4409.6,2944.4c-0.5,0.1-0.9,0.1-1.4,0.1c-0.6,0-1.3-0.1-1.9-0.2v-1.7h-0.7v2.3
	l0.3,0.1c0.8,0.2,1.6,0.3,2.3,0.3c0.7,0,1.3,0,1.9-0.3l0.2-0.1v-1.1h-0.7L4409.6,2944.4z M4407.8,2943.9l0.7-0.3
	c-0.2-0.6-0.7-1-1.3-1l0,0.7C4407.2,2943.3,4407.5,2943.3,4407.8,2943.9z M4421.4,2936.4l0.3-0.1v-0.9h-0.7v0.3
	c-1.8,0.3-6.5,0.5-6.5,0.5l0,0.7C4414.8,2937,4419.8,2936.7,4421.4,2936.4z M4420.9,2938.1l0.3-0.7l-0.6-0.3l-0.5,1h-1.8v-1h-0.7v1
	h-1.1l-0.3-0.9l-0.7,0.2l0.2,0.7h-1.9v2h0.7v-1.3h7.4v1.3h0.7v-2H4420.9z M4419.3,2944c0.7-0.5,1.3-1.2,1.9-1.9l0.4-0.6h-4.5
	c0.2-0.2,0.3-0.5,0.4-0.7h3.6v-0.7h-3.3c0.1-0.3,0.2-0.6,0.2-0.9l-0.7,0c0,0.3-0.1,0.6-0.2,0.9h-2.1v0.7h1.7c-0.7,1.1-1.6,2-2.8,2.6
	l0.4,0.6c0.7-0.4,1.4-1,2-1.6c0.5,0.6,1,1.1,1.6,1.5c-0.9,0.5-1.9,0.8-3,0.7l0,0.7c0,0,0.1,0,0.2,0c1.2,0,2.5-0.4,3.5-1
	c1.1,0.7,2.4,1,3.7,1l0-0.7C4421.3,2944.7,4420.3,2944.5,4419.3,2944z M4417.2,2942.2h3c-0.1,0.8-0.9,1.4-1.7,1.3
	C4417.8,2943.5,4417.2,2942.9,4417.2,2942.2z"/>
</svg>
