<?xml version="1.0" encoding="utf-8"?>
<!-- Generator: Adobe Illustrator 25.0.0, SVG Export Plug-In . SVG Version: 6.00 Build 0)  -->
<svg version="1.1" id="Слой_1" xmlns="http://www.w3.org/2000/svg" xmlns:xlink="http://www.w3.org/1999/xlink" x="0px" y="0px"
	 viewBox="0 0 140 41" style="enable-background:new 0 0 140 41;" xml:space="preserve">
<style type="text/css">
	.st0{fill:#FFFFFF;}
</style>
<g>
	<polygon class="st0" points="57.3,21.5 57.3,21.5 57.3,21.5 57.3,21.5 62.2,15.1 70,25.1 70,25.1 70,25.1 70,25.1 70,25.1 
		77.8,15.1 82.7,21.5 99.3,0 92.3,0 82.7,12.5 81.2,10.6 89.4,0 81.2,0 70,14.6 58.8,0 50.6,0 58.8,10.6 57.3,12.5 47.7,0 40.7,0 
		57.3,21.5 	"/>
	<rect x="43.2" y="27.4" class="st0" width="53.5" height="1.1"/>
	<rect x="43.2" y="39.9" class="st0" width="53.5" height="1.1"/>
	<path class="st0" d="M46.8,30.8l0.6-0.2l0-0.3c-0.6,0-1.3,0-2,0c-0.5,0-1,0-1.5,0l0,0.3l0.5,0.2c0.1,0,0.2,0.1,0.3,0.2
		c0.1,0.2,0.2,0.3,0.3,0.5l2.2,6.5l0.6,0l1.6-4.3c0.1-0.2,0.2-0.5,0.3-0.7c0.1,0.3,0.2,0.5,0.2,0.7l1.4,4.3l0.6,0l2.4-6.5
		c0.1-0.2,0.1-0.3,0.2-0.4c0.1-0.1,0.2-0.2,0.3-0.2l0.6-0.2l0-0.3c-0.5,0-0.9,0-1.2,0c-0.3,0-0.8,0-1.3,0l0,0.3l0.5,0.1
		c0.1,0,0.1,0,0.2,0.1c0,0,0.1,0.1,0.1,0.1c0,0.1,0,0.2,0,0.3c0,0.1-0.1,0.3-0.2,0.5l-1.2,3.2c-0.1,0.2-0.1,0.4-0.2,0.6
		c0-0.2-0.1-0.4-0.2-0.6l-1.5-4.7l-0.6,0l-1.7,4.7c-0.1,0.2-0.1,0.4-0.2,0.6c0-0.2-0.1-0.4-0.2-0.6l-1.1-3.2
		c-0.1-0.2-0.1-0.4-0.1-0.5c0-0.1,0-0.2,0-0.3c0-0.1,0-0.1,0.1-0.1C46.7,30.9,46.8,30.9,46.8,30.8z"/>
	<path class="st0" d="M57.1,36.9c0,0.2,0,0.3,0,0.5c0,0.1-0.1,0.2-0.2,0.2l-0.8,0.2l0,0.3c0.5,0,1,0,1.5,0h1.5c0.9,0,1.8,0,2.7,0
		l0,0l0.1-2l-0.3,0l-0.7,1.4h-2.3c0-0.4,0-0.8,0-1.2v-1.9h0.3c0.3,0,0.7,0,1.1,0c0.1,0,0.2,0.1,0.2,0.2l0.2,0.8l0.4,0
		c0-0.5,0-0.9,0-1.2c0-0.3,0-0.7,0-1.2l-0.4,0l-0.2,0.7c0,0.1-0.1,0.1-0.2,0.1c-0.4,0-0.7,0-1.1,0h-0.3V31H61l0.4,1.3l0.3,0l0.4-1.8
		l0,0c-1,0-1.9,0-2.9,0h-1.4c-0.5,0-1,0-1.5,0l0,0.3l0.8,0.2c0.1,0,0.1,0.1,0.1,0.2c0,0.1,0,0.3,0,0.4c0,0.1,0,0.3,0,0.5v4.3
		C57.1,36.5,57.1,36.7,57.1,36.9z"/>
	<path class="st0" d="M66.3,31c0-0.1,0.1-0.2,0.1-0.2l0.7-0.2l0-0.3c-0.5,0-1.1,0-1.7,0c-0.6,0-1.2,0-1.7,0l0,0.3l0.7,0.2
		c0.1,0,0.1,0.1,0.1,0.2c0,0.1,0,0.3,0,0.4c0,0.1,0,0.3,0,0.5v4.3c0,0.2,0,0.4,0,0.6c0,0.2,0,0.3,0,0.5c0,0.1-0.1,0.2-0.2,0.2
		l-0.7,0.2l0,0.3c0.5,0,1,0,1.6,0h1.4c0.9,0,1.8,0,2.7,0l0,0l0.1-2.1l-0.3,0l-0.8,1.5h-2.2c0-0.4,0-0.8,0-1.2V32c0,0,0-0.1,0-0.3
		C66.3,31.4,66.3,31.2,66.3,31z"/>
	<path class="st0" d="M71.7,36.9c0,0.2,0,0.3,0,0.5c0,0.1-0.1,0.2-0.2,0.2l-0.7,0.2l0,0.3c0.5,0,1,0,1.6,0h1.4c0.9,0,1.8,0,2.7,0
		l0,0l0.1-2.1l-0.3,0l-0.8,1.5h-2.2c0-0.4,0-0.8,0-1.2V32c0,0,0-0.1,0-0.3c0-0.2,0-0.4,0-0.6c0-0.1,0.1-0.2,0.1-0.2l0.7-0.2l0-0.3
		c-0.5,0-1.1,0-1.7,0c-0.6,0-1.2,0-1.7,0l0,0.3l0.7,0.2c0.1,0,0.1,0.1,0.1,0.2c0,0.1,0,0.3,0,0.4c0,0.1,0,0.3,0,0.5v4.3
		C71.7,36.5,71.7,36.7,71.7,36.9z"/>
	<path class="st0" d="M78.9,36.9c0,0.2,0,0.3,0,0.5c0,0.1-0.1,0.2-0.2,0.2L78,37.7l0,0.3c0.5,0,1,0,1.5,0c0.4,0,0.7,0,1,0s0.7,0,1,0
		c1.4,0,2.5-0.4,3.3-1.1c0.8-0.8,1.2-2,1.2-3.1c0.1-1-0.3-1.9-1.1-2.6c-0.7-0.6-1.8-0.9-3.2-0.9c-0.4,0-0.8,0-1.2,0
		c-0.4,0-0.8,0-1.2,0c-0.5,0-1,0-1.5,0l0,0.3l0.8,0.2c0.1,0,0.1,0.1,0.1,0.2c0,0.1,0,0.3,0,0.4c0,0.1,0,0.3,0,0.5v4.3
		C78.9,36.5,78.9,36.7,78.9,36.9z M81.6,30.9c0.7-0.1,1.5,0.2,1.9,0.8c0.4,0.5,0.6,1.3,0.6,2.5c0,1.1-0.2,2-0.6,2.5
		c-0.5,0.6-1.1,0.9-1.9,0.8c-0.2,0-0.4,0-0.5,0c-0.2,0-0.4,0-0.5-0.1l0-6.5C80.9,30.9,81.3,30.9,81.6,30.9z"/>
	<path class="st0" d="M95,37.1c0.8-0.8,1.2-1.9,1.2-3c0.1-1-0.3-2.1-1.1-2.8c-0.7-0.7-1.7-1-3-1c-1.2-0.1-2.3,0.3-3.2,1.1
		c-0.8,0.8-1.2,1.9-1.2,3c-0.1,1.1,0.3,2.1,1.1,2.9c0.7,0.7,1.7,1.1,3,1.1C92.9,38.3,94.1,37.9,95,37.1z M90.2,36.8
		c-0.5-0.8-0.7-1.7-0.6-2.7v0c-0.1-0.9,0.1-1.8,0.5-2.5c0.4-0.6,1-0.9,1.7-0.8c0.7,0,1.4,0.3,1.8,0.9c0.4,0.8,0.6,1.7,0.6,2.6
		c0,1.2-0.2,2.1-0.6,2.6c-0.4,0.6-1,0.9-1.7,0.8C91.2,37.7,90.6,37.4,90.2,36.8z"/>
</g>
</svg>
