<?xml version="1.0" encoding="utf-8"?>
<!-- Generator: Adobe Illustrator 25.0.0, SVG Export Plug-In . SVG Version: 6.00 Build 0)  -->
<svg version="1.1" id="Слой_1" xmlns="http://www.w3.org/2000/svg" xmlns:xlink="http://www.w3.org/1999/xlink" x="0px" y="0px"
	 viewBox="0 0 140 41" style="enable-background:new 0 0 140 41;" xml:space="preserve">
<style type="text/css">
	.st0{fill:#FFFFFF;}
</style>
<path transform="translate(0 0)" class="st0" d="M2.1,8.8c1.2,0,2.1,0.9,2.1,2.1S3.3,13,2.1,13S0,12,0,10.9S0.9,8.8,2.1,8.8z
	 M2.1,18.6c1.2,0,2.1,0.9,2.1,2.1c0,1.2-0.9,2.1-2.1,2.1S0,21.9,0,20.7C0,19.5,0.9,18.6,2.1,18.6z M2.1,28c1.2,0,2.1,0.9,2.1,2.1
	s-0.9,2.1-2.1,2.1S0,31.3,0,30.1S0.9,28,2.1,28z M11,8c1.6,0,2.9,1.3,2.9,2.9s-1.3,2.9-2.9,2.9s-2.9-1.3-2.9-2.9S9.5,8,11,8z
	 M11,17.3c1.9,0,3.4,1.5,3.4,3.4c0,1.9-1.5,3.4-3.4,3.4s-3.4-1.5-3.4-3.4C7.6,18.8,9.2,17.3,11,17.3z M20.7,16.6
	c2.3,0,4.1,1.8,4.1,4.1s-1.8,4.1-4.1,4.1s-4.1-1.8-4.1-4.1S18.5,16.6,20.7,16.6z M20.7,26.6c2,0,3.5,1.6,3.5,3.5s-1.6,3.5-3.5,3.5
	s-3.5-1.6-3.5-3.5S18.8,26.6,20.7,26.6z M11,27.2c1.6,0,2.9,1.3,2.9,2.9c0,1.6-1.3,2.9-2.9,2.9s-2.9-1.3-2.9-2.9
	C8.1,28.5,9.4,27.2,11,27.2z M20.7,7.3c2,0,3.5,1.6,3.5,3.5s-1.6,3.5-3.5,3.5s-3.5-1.6-3.5-3.5S18.8,7.3,20.7,7.3z M55.4,14.9
	c-1.5,0.2-1.7,0.5-2.3,2.1c-0.5,1.5-2.1,6.1-3.3,10h-1.1c-1-2.8-2.2-5.7-3.4-8.6c-1.1,2.9-2.1,5.7-3,8.6H41
	c-0.8-2.7-2.1-6.7-3.3-10.2c-0.5-1.5-0.8-1.8-2.1-1.9v-0.7h6.1v0.7c-1.5,0.1-1.6,0.4-1.3,1.4c0.7,2.2,1.4,4.5,2.1,6.6
	c1-2.7,2-5.7,3-8.7h1.1c1.1,3,2.3,5.8,3.4,8.7c0.8-2.1,1.7-5.3,2-6.4c0.3-1.1,0.1-1.5-1.7-1.6v-0.7h5L55.4,14.9z M67.1,23.5
	c-0.1,0.5-0.7,2.8-0.9,3.3H55.7v-0.7c1.9-0.2,2-0.3,2-1.9v-7.4c0-1.6-0.2-1.8-1.6-1.9v-0.7h6.6c2.1,0,2.8,0,3.1,0
	c0,0.3,0.1,1.9,0.2,3.1l-0.8,0.1c-0.2-0.7-0.5-1.3-0.9-1.8c-0.4-0.4-0.6-0.5-1.7-0.5h-1.3c-0.8,0-0.9,0-0.9,0.7v4h2
	c1.1,0,1.3-0.3,1.6-1.7h0.8v4.3h-0.8c-0.3-1.4-0.5-1.7-1.7-1.7h-2v3.3c0,1.3,0,1.7,1.3,1.8h1.4c1.1,0,1.4-0.1,1.9-0.7
	c0.5-0.6,0.9-1.2,1.2-1.9L67.1,23.5z M79.1,23.4c-0.2,0.8-0.7,2.9-0.9,3.4H68.1v-0.7c1.8-0.1,2-0.3,2-1.9v-7.4
	c0-1.6-0.2-1.8-1.7-1.9v-0.7h6.3v0.7c-1.6,0.1-1.8,0.3-1.8,1.9v7.5c0,1.1,0,1.5,1.2,1.6c0,0,1,0,1.1,0c0.7,0.1,1.5-0.2,2-0.8
	c0.5-0.6,1-1.3,1.3-2L79.1,23.4z M90.8,23.4c-0.2,0.8-0.7,2.9-0.9,3.4H79.8v-0.7c1.8-0.1,2-0.3,2-1.9v-7.4c0-1.6-0.2-1.8-1.7-1.9
	v-0.7h6.3v0.7c-1.6,0.1-1.8,0.3-1.8,1.9v7.5c0,1.1,0,1.5,1.2,1.6c0,0,1,0,1.1,0c0.7,0.1,1.5-0.2,2-0.8c0.5-0.6,1-1.3,1.3-2
	L90.8,23.4z M104.3,23.7c-0.3,1-0.7,2-1.1,2.9c-1.2,0.3-2.5,0.4-3.7,0.5c-4.9,0-7.3-3.1-7.3-6.5c0-4,3.2-6.7,7.7-6.7
	c1.3,0,2.6,0.2,3.8,0.4c0.1,0.9,0.2,2,0.4,3l-0.6,0.1c-0.4-1.3-0.9-2.1-1.9-2.5c-0.7-0.3-1.4-0.4-2.1-0.4c-3.4,0-5.1,2.4-5.1,5.6
	c0,3.7,2,6.1,5.3,6.1c2.1,0,3.1-0.9,4.1-2.8L104.3,23.7z M120.4,14.7c-1.7,0.2-1.9,0.3-1.9,1.9v7.8c0,1.6,0.2,1.7,1.9,1.9v0.5H115
	v-0.5c1.7-0.2,1.9-0.2,1.9-1.9v-3.9h-7v3.9c0,1.6,0.2,1.7,1.8,1.9v0.5h-5.4v-0.5c1.6-0.2,1.8-0.2,1.8-1.9v-7.8
	c0-1.6-0.2-1.7-1.8-1.9v-0.5h5.4v0.5c-1.6,0.1-1.8,0.3-1.8,1.9v3.1h7v-3.1c0-1.6-0.2-1.7-1.9-1.9v-0.5h5.5L120.4,14.7z M122.5,26.8
	v-0.5c1.7-0.2,1.8-0.3,1.8-1.9v-7.7c0-1.7-0.2-1.7-1.8-1.9v-0.5h5.5v0.5c-1.7,0.2-1.9,0.3-1.9,1.9v7.7c0,1.7,0.2,1.7,1.9,1.9v0.5
	L122.5,26.8z M135.2,14.2c1.2-0.1,2.4,0.2,3.4,0.8c0.9,0.6,1.4,1.7,1.3,2.8c0,2.8-2.5,4-4.5,4c-0.2,0-0.4,0-0.5,0l-1.4-0.3v3
	c0,1.6,0.1,1.7,2,1.9v0.5H130v-0.5c1.8-0.2,1.8-0.3,1.8-1.9v-7.7c0-1.7-0.2-1.8-1.8-1.9v-0.5H135.2z M133.6,20.7
	c0.5,0.2,1,0.3,1.5,0.3c1.6,0.1,2.9-1,3.1-2.6c0-0.2,0-0.4,0-0.5c0-2.1-1.5-3-3.2-3c-0.4,0-0.8,0-1.1,0.2c-0.2,0.1-0.2,0.4-0.2,0.9
	L133.6,20.7z"/>
</svg>
